<?xml version="1.0" encoding="UTF-8"?>
<svg width="88px" height="24px" viewBox="0 0 88 24" version="1.1" xmlns="http://www.w3.org/2000/svg" xmlns:xlink="http://www.w3.org/1999/xlink">
    <!-- Generator: Sketch 46.1 (44463) - http://www.bohemiancoding.com/sketch -->
    <title>logo-batch</title>
    <desc>Created with Sketch.</desc>
    <defs></defs>
    <g id="Page-1" stroke="none" stroke-width="1" fill="none" fill-rule="evenodd">
        <g id="logo-batch" fill-rule="nonzero" fill="#2E3C4F">
            <path d="M0.34375,23 L0.34375,0.15625 L3.859375,0.15625 L3.859375,8.65625 C5.30729891,6.76040719 7.20311328,5.8125 9.546875,5.8125 C11.8698033,5.8125 13.7317638,6.64061672 15.1328125,8.296875 C16.5338612,9.95313328 17.234375,12.0494665 17.234375,14.5859375 C17.234375,17.1224085 16.5364653,19.22395 15.140625,20.890625 C13.7447847,22.5573 11.88022,23.390625 9.546875,23.390625 C7.20311328,23.390625 5.30729891,22.4375095 3.859375,20.53125 L3.859375,23 L0.34375,23 Z M3.859375,14.609375 C3.859375,16.2552166 4.28645406,17.6015573 5.140625,18.6484375 C5.99479594,19.6953177 7.19790891,20.21875 8.75,20.21875 C10.2812577,20.21875 11.4531209,19.6953177 12.265625,18.6484375 C13.0781291,17.6015573 13.484375,16.2552166 13.484375,14.609375 C13.484375,12.9843669 13.0807332,11.6406303 12.2734375,10.578125 C11.4661418,9.51561969 10.2942785,8.984375 8.7578125,8.984375 C7.22134648,8.984375 6.02083766,9.51561969 5.15625,10.578125 C4.29166234,11.6406303 3.859375,12.9843669 3.859375,14.609375 L3.859375,14.609375 Z M19.78125,14.609375 C19.78125,12.0468622 20.4791597,9.94011242 21.875,8.2890625 C23.2708403,6.63801258 25.1406133,5.8125 27.484375,5.8125 C29.8489702,5.8125 31.7395762,6.76040719 33.15625,8.65625 L33.15625,6.203125 L36.703125,6.203125 L36.703125,19.09375 C36.703125,19.6458361 36.7942699,20.0390613 36.9765625,20.2734375 C37.1588551,20.5078137 37.453123,20.625 37.859375,20.625 C38.265627,20.625 38.5729156,20.5520841 38.78125,20.40625 L39.203125,22.84375 C38.6510389,23.1145847 37.9687541,23.25 37.15625,23.25 L37.0625,23.25 C35.0520733,23.25 33.8229189,22.3645922 33.375,20.59375 C32.0729102,22.4479259 30.1354295,23.3802083 27.5625,23.390625 C25.1770714,23.390625 23.2838612,22.5625083 21.8828125,20.90625 C20.4817638,19.2499917 19.78125,17.1510544 19.78125,14.609375 L19.78125,14.609375 Z M23.53125,14.6171875 C23.53125,16.2578207 23.9348918,17.6015573 24.7421875,18.6484375 C25.5494832,19.6953177 26.7239506,20.21875 28.265625,20.21875 C29.8281328,20.21875 31.0338499,19.6901095 31.8828125,18.6328125 C32.7317751,17.5755155 33.15625,16.2343831 33.15625,14.609375 C33.15625,12.9635334 32.7239627,11.6145886 31.859375,10.5625 C30.9947873,9.51041141 29.7942785,8.984375 28.2578125,8.984375 C26.7213465,8.984375 25.5494832,9.51301555 24.7421875,10.5703125 C23.9348918,11.6276095 23.53125,12.9765543 23.53125,14.6171875 L23.53125,14.6171875 Z M40.25,8.921875 L40.25,6.203125 L43.0625,6.203125 L43.0625,1.6875 L46.609375,1.6875 L46.609375,6.203125 L51.796875,6.203125 L51.796875,8.921875 L46.609375,8.921875 L46.609375,17.75 C46.609375,19.416675 47.3697841,20.25 48.890625,20.25 C49.6822956,20.25 50.3854136,20.0052108 51,19.515625 L52.40625,22.140625 C51.3229112,22.9739625 49.9895912,23.390625 48.40625,23.390625 C46.2708227,23.390625 44.7552128,22.6718822 43.859375,21.234375 C43.3281223,20.4427044 43.0625,19.2708411 43.0625,17.71875 L43.0625,8.921875 L40.25,8.921875 Z M54.09375,14.609375 C54.09375,12.0468622 54.8567632,9.94011242 56.3828125,8.2890625 C57.9088618,6.63801258 59.9166542,5.8125 62.40625,5.8125 C65.4166817,5.8125 67.7343669,7.0624875 69.359375,9.5625 L66.703125,11.453125 C65.7656203,9.76561656 64.3906341,8.921875 62.578125,8.921875 C61.1302011,8.921875 59.9765668,9.45572383 59.1171875,10.5234375 C58.2578082,11.5911512 57.828125,12.9427002 57.828125,14.578125 C57.828125,16.2448 58.2604123,17.6119738 59.125,18.6796875 C59.9895877,19.7474012 61.1510344,20.28125 62.609375,20.28125 C64.3385503,20.28125 65.7343697,19.4687581 66.796875,17.84375 L69.453125,19.671875 C67.8072834,22.1510541 65.4687652,23.390625 62.4375,23.390625 C59.9166541,23.390625 57.8958409,22.5625083 56.375,20.90625 C54.8541591,19.2499917 54.09375,17.1510544 54.09375,14.609375 L54.09375,14.609375 Z M72.6875,23 L72.6875,0.15625 L76.203125,0.15625 L76.203125,8.65625 C77.6302155,6.76040719 79.4635305,5.8125 81.703125,5.8125 C83.5156341,5.8125 84.9348907,6.37239023 85.9609375,7.4921875 C86.9869843,8.61198477 87.5,10.135407 87.5,12.0625 L87.5,23 L83.96875,23 L83.96875,12.859375 C83.96875,10.3176956 82.8593861,9.046875 80.640625,9.046875 C79.3593686,9.046875 78.2994834,9.4635375 77.4609375,10.296875 C76.6223916,11.1302125 76.203125,12.2291598 76.203125,13.59375 L76.203125,23 L72.6875,23 Z" id="batch-2"></path>
        </g>
    </g>
</svg>