<?xml version="1.0" encoding="UTF-8"?><svg id="Layer_2" xmlns="http://www.w3.org/2000/svg" viewBox="0 0 393.57 83.98"><defs><style>.cls-1{letter-spacing:.21em;}.cls-2{letter-spacing:.22em;}.cls-3{fill:#fff;}.cls-4{font-family:Sora-Regular, Sora;font-size:31.9px;}.cls-4,.cls-5{fill:#457aff;}</style></defs><g id="Layer_1-2"><text class="cls-4" transform="translate(0 27.59)"><tspan class="cls-2" x="0" y="0">10 YEA</tspan><tspan class="cls-1" x="150.53" y="0">R</tspan><tspan class="cls-2" x="179.62" y="0">S OF</tspan></text><path class="cls-3" d="M53.5,82.05v-37.06h13.24c3.31,0,6.19.49,8.65,1.48,2.46.99,4.51,2.32,6.17,4.01,1.66,1.69,2.89,3.6,3.71,5.74.82,2.14,1.23,4.36,1.23,6.67v1.1c0,2.21-.41,4.38-1.23,6.52-.82,2.14-2.06,4.08-3.71,5.82-1.65,1.74-3.71,3.12-6.17,4.16-2.46,1.04-5.34,1.55-8.65,1.55h-13.24ZM67.19,51.61h-6.57v23.82h6.57c2.51,0,4.66-.51,6.47-1.53,1.81-1.02,3.19-2.43,4.16-4.24.97-1.8,1.45-3.88,1.45-6.22,0-3.64-1.07-6.53-3.21-8.65-2.14-2.12-5.1-3.18-8.88-3.18Z"/><path class="cls-3" d="M111.06,82.8c-3.31,0-6.18-.58-8.62-1.75-2.44-1.17-4.46-2.7-6.04-4.59s-2.77-3.93-3.54-6.12c-.77-2.19-1.15-4.3-1.15-6.34v-1.1c0-2.24.4-4.46,1.2-6.67.8-2.21,2.01-4.22,3.63-6.04s3.64-3.28,6.04-4.36c2.41-1.09,5.23-1.63,8.47-1.63s5.98.54,8.4,1.63c2.42,1.09,4.44,2.54,6.04,4.36,1.6,1.82,2.82,3.84,3.63,6.04s1.23,4.43,1.23,6.67v1.1c0,2.04-.39,4.15-1.18,6.34-.79,2.19-1.97,4.23-3.56,6.12-1.59,1.89-3.59,3.42-6.02,4.59s-5.27,1.75-8.55,1.75ZM111.06,76.18c2.47,0,4.61-.58,6.42-1.73,1.8-1.15,3.2-2.7,4.19-4.64.99-1.94,1.48-4.04,1.48-6.32,0-2.41-.49-4.57-1.48-6.49s-2.38-3.43-4.19-4.54c-1.81-1.1-3.95-1.65-6.42-1.65s-4.66.55-6.47,1.65c-1.81,1.1-3.2,2.62-4.19,4.54-.99,1.92-1.48,4.09-1.48,6.49,0,2.27.48,4.38,1.45,6.32.97,1.94,2.37,3.48,4.19,4.64,1.82,1.15,3.99,1.73,6.49,1.73Z"/><path class="cls-3" d="M154.74,82.8c-3.34,0-6.19-.58-8.55-1.75s-4.28-2.69-5.77-4.56c-1.49-1.87-2.58-3.9-3.28-6.09-.7-2.19-1.05-4.32-1.05-6.39v-1.1c0-2.24.36-4.47,1.08-6.69.72-2.22,1.83-4.24,3.33-6.04,1.5-1.8,3.41-3.25,5.72-4.34,2.31-1.09,5.06-1.63,8.27-1.63s6.15.6,8.62,1.8c2.47,1.2,4.45,2.88,5.92,5.01,1.47,2.14,2.36,4.65,2.66,7.52h-7.17c-.4-2.51-1.51-4.42-3.33-5.74-1.82-1.32-4.05-1.98-6.69-1.98-2.44,0-4.49.54-6.14,1.63-1.66,1.09-2.91,2.58-3.76,4.49-.85,1.91-1.28,4.1-1.28,6.57s.43,4.56,1.3,6.47c.87,1.91,2.16,3.42,3.86,4.54s3.79,1.68,6.27,1.68c2.74,0,5.06-.68,6.94-2.03s3.03-3.25,3.44-5.69h7.17c-.33,2.64-1.23,5.05-2.68,7.22-1.45,2.17-3.43,3.9-5.92,5.19-2.49,1.29-5.47,1.93-8.95,1.93Z"/><path class="cls-3" d="M191.79,82.8c-3.24,0-5.98-.52-8.22-1.55-2.24-1.04-3.94-2.46-5.09-4.26s-1.73-3.88-1.73-6.22h6.97c0,1,.27,1.96.8,2.86.54.9,1.4,1.64,2.58,2.21,1.19.57,2.75.85,4.69.85,2.61,0,4.56-.53,5.87-1.6,1.3-1.07,1.96-2.37,1.96-3.91,0-1.27-.55-2.31-1.65-3.11-1.1-.8-2.81-1.3-5.12-1.5l-3.21-.25c-3.51-.3-6.31-1.4-8.4-3.29-2.09-1.89-3.13-4.39-3.13-7.5,0-2.31.54-4.31,1.63-6.02,1.09-1.71,2.63-3.02,4.64-3.94s4.35-1.38,7.02-1.38,5.12.48,7.15,1.45c2.02.97,3.58,2.33,4.69,4.09,1.1,1.75,1.66,3.82,1.66,6.19h-6.97c0-1.47-.54-2.77-1.63-3.91s-2.72-1.71-4.89-1.71-3.73.52-4.76,1.55-1.55,2.26-1.55,3.66c0,1.14.41,2.13,1.23,2.98s2.15,1.35,3.99,1.48l3.21.3c2.61.23,4.89.79,6.84,1.68,1.96.89,3.48,2.1,4.59,3.64,1.1,1.54,1.65,3.39,1.65,5.57,0,2.31-.61,4.34-1.83,6.09-1.22,1.75-2.93,3.12-5.14,4.09s-4.81,1.45-7.82,1.45Z"/><path class="cls-3" d="M214.11,81.85v-36.61h22.16v6.02h-15.19v8.97h14.29v6.02h-14.29v9.58h15.59v6.02h-22.57Z"/><path class="cls-3" d="M241.38,81.85l12.49-36.61h11.63l12.84,36.61h-7.32l-3.36-9.73h-15.95l-3.21,9.73h-7.12ZM253.72,66.1h11.88l-5.06-14.89h-1.86l-4.96,14.89Z"/><path class="cls-3" d="M284.76,81.85v-36.86h13.59c4.38,0,7.87.99,10.48,2.96,2.61,1.97,3.91,4.96,3.91,8.98v.85c0,2.74-.63,5-1.88,6.77-1.25,1.77-2.98,3.08-5.19,3.91l9.78,13.39h-8.32l-8.62-12.24h-6.62v12.24h-7.12ZM299.1,51.06h-7.22v12.79h7.22c1.94,0,3.49-.58,4.66-1.76s1.75-2.71,1.75-4.61-.58-3.45-1.75-4.64c-1.17-1.19-2.72-1.78-4.66-1.78Z"/><path class="cls-3" d="M337.86,82.8c-3.34,0-6.19-.58-8.55-1.75s-4.28-2.69-5.77-4.56c-1.49-1.87-2.58-3.9-3.28-6.09-.7-2.19-1.05-4.32-1.05-6.39v-1.1c0-2.24.36-4.47,1.08-6.69.72-2.22,1.83-4.24,3.33-6.04,1.5-1.8,3.41-3.25,5.72-4.34,2.31-1.09,5.06-1.63,8.27-1.63s6.15.6,8.62,1.8c2.47,1.2,4.45,2.88,5.92,5.01,1.47,2.14,2.36,4.65,2.66,7.52h-7.17c-.4-2.51-1.51-4.42-3.33-5.74-1.82-1.32-4.05-1.98-6.69-1.98-2.44,0-4.49.54-6.14,1.63-1.66,1.09-2.91,2.58-3.76,4.49-.85,1.91-1.28,4.1-1.28,6.57s.43,4.56,1.3,6.47c.87,1.91,2.16,3.42,3.86,4.54s3.79,1.68,6.27,1.68c2.74,0,5.06-.68,6.94-2.03s3.03-3.25,3.44-5.69h7.17c-.33,2.64-1.23,5.05-2.68,7.22-1.45,2.17-3.43,3.9-5.92,5.19-2.49,1.29-5.47,1.93-8.95,1.93Z"/><path class="cls-3" d="M362.43,81.85v-36.61h7.12v15.14h16.9v-15.14h7.12v36.61h-7.12v-15.19h-16.9v15.19h-7.12Z"/><path class="cls-3" d="M1.12,83.94v.04h.77c-.12,0-.24-.01-.36-.02-.13,0-.27-.02-.4-.02Z"/><path class="cls-3" d="M1.52,83.96c.12,0,.24.02.36.02h0c-.12,0-.24-.01-.36-.02Z"/><path class="cls-3" d="M25.15,76.21v-.03s-.03.02-.04.03h.04Z"/><path class="cls-5" d="M35.73,55.3c-.9-2.38-2.26-4.53-4.07-6.46-1.82-1.93-4.09-3.46-6.83-4.61-2.74-1.14-5.96-1.71-9.67-1.71H1.12v5.13l14.61-.08c.38,0,.73.04,1.09.06.33.02.64.06.96.09,2.42.22,4.58.81,6.41,1.85,2.34,1.33,4.14,3.17,5.39,5.51,1.26,2.34,1.88,5.05,1.88,8.12s-.63,5.63-1.88,8.01c-1.07,2.03-2.56,3.68-4.43,4.99v.03h-.04c-.31.21-.6.44-.93.63-1.37.81-3.02,1.42-5.09,1.78-1.18.21-3.69.39-3.69.39H1.12v4.92c.13,0,.27.01.4.02.12,0,.24.02.36.02h13.28c3.71,0,6.93-.59,9.67-1.77,2.73-1.18,5.01-2.74,6.83-4.69,1.82-1.95,3.17-4.12,4.07-6.52.9-2.4,1.35-4.79,1.35-7.19v-1.24c0-2.47-.45-4.9-1.35-7.28Z"/><path class="cls-3" d="M1.12,72.53v3.46h16.4c.9-1.06,1.69-2.22,2.35-3.46H1.12Z"/><polygon class="cls-3" points="22.32 65.19 1.12 65.19 1.12 68.65 21.63 68.65 21.63 68.9 22.32 65.19"/><rect class="cls-3" x="22.36" y="64.95" width="0" height=".02"/><path class="cls-3" d="M22.08,61.31c-.12-1.18-.34-2.34-.66-3.46H1.12v3.46h20.97Z"/><path class="cls-3" d="M19.83,53.97c-.67-1.24-1.46-2.4-2.38-3.46H1.12v3.46h18.72Z"/></g></svg>