<svg height="200" viewBox="0 0 200 200" width="200" xmlns="http://www.w3.org/2000/svg"><g fill="none"><path d="m96.352 193.277h-80.91c-4.111 0-7.443-3.32-7.443-7.416h88.424c30.913.15 59.559-16.146 75.145-42.749 15.587-26.602 15.747-59.47.42-86.222s-43.812-43.324-74.725-43.474h-89.265c0-4.096 3.332-7.416 7.443-7.416h81.822c24.96.025 48.887 9.935 66.512 27.547s27.503 41.482 27.458 66.355c-.144 51.772-42.952 93.376-94.883 93.376z" fill="#5468ff"/><path d="m8 173.301h57.405c7.098.025 13.948-2.595 19.207-7.345h-76.612zm0-19.977h88.064c1.777-2.392 3.433-4.785 4.97-7.44h-93.034zm0-20h99.324c.984-2.392 1.873-4.785 2.641-7.416h-101.965zm0-19.977h104.846c.36-2.392.648-4.928.816-7.416h-105.663zm0-19.976h105.639c-.168-2.512-.456-5-.816-7.44h-104.822zm0-20.001h101.965c-.768-2.512-1.657-5-2.641-7.416h-99.324zm0-19.976h93.034c-1.528-2.555-3.187-5.031-4.97-7.416h-88.064zm0-27.417v7.44h76.684c-5.256-4.754-12.109-7.374-19.207-7.345z" fill="#21243d"/></g></svg>