<svg xmlns="http://www.w3.org/2000/svg" viewBox="-10 -10 96 98"><path fill="#5468ff" d="M36.493 77.289H3.074A3.067 3.067 0 0 1 0 74.228h36.523c12.769.062 24.6-6.663 31.038-17.642a35.45 35.45 0 0 0 .174-35.584C61.404 9.962 49.639 3.122 36.87 3.061H0A3.067 3.067 0 0 1 3.074 0H36.87c10.31.01 20.193 4.1 27.473 11.369a38.6 38.6 0 0 1 11.341 27.384c-.06 21.366-17.741 38.536-39.19 38.536z"/><path fill="#5468ff" d="M0 69.045h23.711a11.78 11.78 0 0 0 7.933-3.031H0zM0 60.8h36.374c.734-.987 1.418-1.975 2.053-3.07H0zm0-8.254h41.025a30 30 0 0 0 1.091-3.06H0zm0-8.244h43.306c.149-.987.268-2.034.337-3.061H0zm0-8.244h43.633a30 30 0 0 1-.337-3.071H0zm0-8.254h42.116a36 36 0 0 0-1.09-3.061H0zm0-8.245h38.427a33 33 0 0 1-2.053-3.06H0zM0 8.244v3.071h31.674a19.04 19.04 0 0 0-7.934-3.031z"/></svg>
