<?xml version="1.0" encoding="UTF-8"?>
<svg width="285px" height="155px" viewBox="0 0 285 155" version="1.1" xmlns="http://www.w3.org/2000/svg" xmlns:xlink="http://www.w3.org/1999/xlink">
    <title>implementation</title>
    <defs>
        <rect id="path-1" x="2.84217094e-14" y="0.634468935" width="199.687305" height="127.179487" rx="8"></rect>
        <filter x="-4.0%" y="-4.7%" width="108.0%" height="112.6%" filterUnits="objectBoundingBox" id="filter-2">
            <feOffset dx="0" dy="2" in="SourceAlpha" result="shadowOffsetOuter1"></feOffset>
            <feGaussianBlur stdDeviation="2" in="shadowOffsetOuter1" result="shadowBlurOuter1"></feGaussianBlur>
            <feColorMatrix values="0 0 0 0 0.137254902   0 0 0 0 0.145098039   0 0 0 0 0.2  0 0 0 0.1 0" type="matrix" in="shadowBlurOuter1" result="shadowMatrixOuter1"></feColorMatrix>
            <feMorphology radius="0.5" operator="dilate" in="SourceAlpha" result="shadowSpreadOuter2"></feMorphology>
            <feOffset dx="0" dy="0" in="shadowSpreadOuter2" result="shadowOffsetOuter2"></feOffset>
            <feColorMatrix values="0 0 0 0 0.0666666667   0 0 0 0 0.0784313725   0 0 0 0 0.196078431  0 0 0 0.08 0" type="matrix" in="shadowOffsetOuter2" result="shadowMatrixOuter2"></feColorMatrix>
            <feMerge>
                <feMergeNode in="shadowMatrixOuter1"></feMergeNode>
                <feMergeNode in="shadowMatrixOuter2"></feMergeNode>
            </feMerge>
        </filter>
        <rect id="path-3" x="0" y="0" width="180" height="44" rx="22"></rect>
        <filter x="-0.3%" y="-1.1%" width="101.1%" height="104.5%" filterUnits="objectBoundingBox" id="filter-4">
            <feOffset dx="1" dy="1" in="SourceAlpha" result="shadowOffsetOuter1"></feOffset>
            <feColorMatrix values="0 0 0 0 1   0 0 0 0 1   0 0 0 0 1  0 0 0 1 0" type="matrix" in="shadowOffsetOuter1"></feColorMatrix>
        </filter>
        <filter x="-2.2%" y="-9.1%" width="105.0%" height="120.5%" filterUnits="objectBoundingBox" id="filter-5">
            <feGaussianBlur stdDeviation="0.5" in="SourceAlpha" result="shadowBlurInner1"></feGaussianBlur>
            <feOffset dx="0" dy="1" in="shadowBlurInner1" result="shadowOffsetInner1"></feOffset>
            <feComposite in="shadowOffsetInner1" in2="SourceAlpha" operator="arithmetic" k2="-1" k3="1" result="shadowInnerInner1"></feComposite>
            <feColorMatrix values="0 0 0 0 0.526194303   0 0 0 0 0.572896277   0 0 0 0 0.86645154  0 0 0 1 0" type="matrix" in="shadowInnerInner1" result="shadowMatrixInner1"></feColorMatrix>
            <feGaussianBlur stdDeviation="3" in="SourceAlpha" result="shadowBlurInner2"></feGaussianBlur>
            <feOffset dx="1" dy="2" in="shadowBlurInner2" result="shadowOffsetInner2"></feOffset>
            <feComposite in="shadowOffsetInner2" in2="SourceAlpha" operator="arithmetic" k2="-1" k3="1" result="shadowInnerInner2"></feComposite>
            <feColorMatrix values="0 0 0 0 0.753394147   0 0 0 0 0.770553611   0 0 0 0 0.900107563  0 0 0 1 0" type="matrix" in="shadowInnerInner2" result="shadowMatrixInner2"></feColorMatrix>
            <feMerge>
                <feMergeNode in="shadowMatrixInner1"></feMergeNode>
                <feMergeNode in="shadowMatrixInner2"></feMergeNode>
            </feMerge>
        </filter>
        <linearGradient x1="0%" y1="9.07029478%" x2="100%" y2="90.9297052%" id="linearGradient-6">
            <stop stop-color="#D5DBE4" offset="0%"></stop>
            <stop stop-color="#F8F8F8" offset="100%"></stop>
        </linearGradient>
        <rect id="path-7" x="0" y="0" width="21" height="19" rx="3"></rect>
        <filter x="-23.8%" y="-21.1%" width="147.6%" height="152.6%" filterUnits="objectBoundingBox" id="filter-8">
            <feMorphology radius="0.5" operator="dilate" in="SourceAlpha" result="shadowSpreadOuter1"></feMorphology>
            <feOffset dx="0" dy="1" in="shadowSpreadOuter1" result="shadowOffsetOuter1"></feOffset>
            <feGaussianBlur stdDeviation="1" in="shadowOffsetOuter1" result="shadowBlurOuter1"></feGaussianBlur>
            <feColorMatrix values="0 0 0 0 0.112549592   0 0 0 0 0.145130364   0 0 0 0 0.34876019  0 0 0 0.382921766 0" type="matrix" in="shadowBlurOuter1"></feColorMatrix>
        </filter>
        <filter x="-19.0%" y="-15.8%" width="138.1%" height="142.1%" filterUnits="objectBoundingBox" id="filter-9">
            <feMorphology radius="1" operator="erode" in="SourceAlpha" result="shadowSpreadInner1"></feMorphology>
            <feGaussianBlur stdDeviation="0.5" in="shadowSpreadInner1" result="shadowBlurInner1"></feGaussianBlur>
            <feOffset dx="0" dy="0" in="shadowBlurInner1" result="shadowOffsetInner1"></feOffset>
            <feComposite in="shadowOffsetInner1" in2="SourceAlpha" operator="arithmetic" k2="-1" k3="1" result="shadowInnerInner1"></feComposite>
            <feColorMatrix values="0 0 0 0 1   0 0 0 0 1   0 0 0 0 1  0 0 0 1 0" type="matrix" in="shadowInnerInner1" result="shadowMatrixInner1"></feColorMatrix>
            <feOffset dx="0" dy="-2" in="SourceAlpha" result="shadowOffsetInner2"></feOffset>
            <feComposite in="shadowOffsetInner2" in2="SourceAlpha" operator="arithmetic" k2="-1" k3="1" result="shadowInnerInner2"></feComposite>
            <feColorMatrix values="0 0 0 0 0.804213643   0 0 0 0 0.816907755   0 0 0 0 0.906448143  0 0 0 1 0" type="matrix" in="shadowInnerInner2" result="shadowMatrixInner2"></feColorMatrix>
            <feMerge>
                <feMergeNode in="shadowMatrixInner1"></feMergeNode>
                <feMergeNode in="shadowMatrixInner2"></feMergeNode>
            </feMerge>
        </filter>
        <rect id="path-10" x="0" y="0" width="21" height="19" rx="3"></rect>
        <filter x="-23.8%" y="-21.1%" width="147.6%" height="152.6%" filterUnits="objectBoundingBox" id="filter-11">
            <feMorphology radius="0.5" operator="dilate" in="SourceAlpha" result="shadowSpreadOuter1"></feMorphology>
            <feOffset dx="0" dy="1" in="shadowSpreadOuter1" result="shadowOffsetOuter1"></feOffset>
            <feGaussianBlur stdDeviation="1" in="shadowOffsetOuter1" result="shadowBlurOuter1"></feGaussianBlur>
            <feColorMatrix values="0 0 0 0 0.112549592   0 0 0 0 0.145130364   0 0 0 0 0.34876019  0 0 0 0.382921766 0" type="matrix" in="shadowBlurOuter1"></feColorMatrix>
        </filter>
        <filter x="-19.0%" y="-15.8%" width="138.1%" height="142.1%" filterUnits="objectBoundingBox" id="filter-12">
            <feMorphology radius="1" operator="erode" in="SourceAlpha" result="shadowSpreadInner1"></feMorphology>
            <feGaussianBlur stdDeviation="0.5" in="shadowSpreadInner1" result="shadowBlurInner1"></feGaussianBlur>
            <feOffset dx="0" dy="0" in="shadowBlurInner1" result="shadowOffsetInner1"></feOffset>
            <feComposite in="shadowOffsetInner1" in2="SourceAlpha" operator="arithmetic" k2="-1" k3="1" result="shadowInnerInner1"></feComposite>
            <feColorMatrix values="0 0 0 0 1   0 0 0 0 1   0 0 0 0 1  0 0 0 1 0" type="matrix" in="shadowInnerInner1" result="shadowMatrixInner1"></feColorMatrix>
            <feOffset dx="0" dy="-2" in="SourceAlpha" result="shadowOffsetInner2"></feOffset>
            <feComposite in="shadowOffsetInner2" in2="SourceAlpha" operator="arithmetic" k2="-1" k3="1" result="shadowInnerInner2"></feComposite>
            <feColorMatrix values="0 0 0 0 0.804213643   0 0 0 0 0.816907755   0 0 0 0 0.906448143  0 0 0 1 0" type="matrix" in="shadowInnerInner2" result="shadowMatrixInner2"></feColorMatrix>
            <feMerge>
                <feMergeNode in="shadowMatrixInner1"></feMergeNode>
                <feMergeNode in="shadowMatrixInner2"></feMergeNode>
            </feMerge>
        </filter>
    </defs>
    <style>
        tspan {
            font-family: -apple-system, BlinkMacSystemFont, "Segoe UI", Roboto, Helvetica, Arial, sans-serif, "Apple Color Emoji", "Segoe UI Emoji", "Segoe UI Symbol";
        }
    </style>
    <g id="Page-1" stroke="none" stroke-width="1" fill="none" fill-rule="evenodd">
        <g id="Artboard" transform="translate(-913.000000, -1687.000000)">
            <g id="How" transform="translate(0.000000, 1402.000000)">
                <g id="implementation" transform="translate(918.000000, 288.500000)">
                    <g id="Group-20">
                        <g id="card">
                            <use fill="black" fill-opacity="1" filter="url(#filter-2)" xlink:href="#path-1"></use>
                            <use fill="#21243D" fill-rule="evenodd" xlink:href="#path-1"></use>
                        </g>
                        <text id="&lt;script-…." font-family="Menlo-Regular, Menlo" font-size="14" font-weight="normal" line-spacing="21" fill="#FFFFFF">
                            <tspan x="9.29747759" y="21.8792173">&lt;script ….</tspan>
                        </text>
                    </g>
                    <g id="s-link" transform="translate(80.000000, 105.500000)">
                        <g id="searchbox" transform="translate(0.000000, 0.253432)">
                            <g id="Rectangle">
                                <use fill="black" fill-opacity="1" filter="url(#filter-4)" xlink:href="#path-3"></use>
                                <use fill="#D4D9E1" fill-rule="evenodd" xlink:href="#path-3"></use>
                                <use fill="black" fill-opacity="1" filter="url(#filter-5)" xlink:href="#path-3"></use>
                            </g>
                            <g id="Group" transform="translate(0.000000, 16.000000)"></g>
                            <g id="Group" transform="translate(32.000000, 16.000000)"></g>
                            <g id="Group" transform="translate(188.000000, 16.000000)"></g>
                            <g id="Group" transform="translate(12.000000, 12.000000)" stroke="#5468FF" stroke-linecap="round" stroke-linejoin="round" stroke-width="2">
                                <g id="Path">
                                    <path d="M15.4164079,15.4164079 L19.9999998,19.9999998 L15.4164079,15.4164079 C12.1176558,18.7151599 6.76932192,18.7151599 3.47056984,15.4164079 C0.171817761,12.1176558 0.171817761,6.76932192 3.47056984,3.47056984 C6.76932192,0.171817761 12.1176558,0.171817761 15.4164079,3.47056984 C18.7151599,6.76932192 18.7151599,12.1176558 15.4164079,15.4164079 Z"></path>
                                </g>
                            </g>
                            <g id="Group" transform="translate(44.000000, 9.500000)" fill="#8A9BB6" font-family="Hind-Medium, Hind" font-size="16" font-weight="400" letter-spacing="0.168070154">
                                <g id="typography/searchbox/placeholder">
                                    <text id="Search-the-docs…">
                                        <tspan x="0" y="17">Search</tspan>
                                    </text>
                                </g>
                            </g>
                            <g id="Stacked-Group" transform="translate(112.000000, 10.500000)">
                                <g id="key" transform="translate(0.000000, 2.000000)">
                                    <g id="Rectangle">
                                        <use fill="black" fill-opacity="1" filter="url(#filter-8)" xlink:href="#path-7"></use>
                                        <use fill="url(#linearGradient-6)" fill-rule="evenodd" xlink:href="#path-7"></use>
                                        <use fill="black" fill-opacity="1" filter="url(#filter-9)" xlink:href="#path-7"></use>
                                    </g>
                                    <g id="Group" transform="translate(3.000000, 1.500000)" fill="#7D8BA0" fill-rule="nonzero">
                                        <g id="⌘">
                                            <path d="M6,6.996139 L4.9980695,6.996139 C4.44594319,6.996139 3.97490542,6.80116025 3.58494208,6.41119691 C3.19497875,6.02123357 3,5.55019581 3,4.9980695 C3,4.44594319 3.19497875,3.97490542 3.58494208,3.58494208 C3.97490542,3.19497875 4.44594319,3 4.9980695,3 C5.55019581,3 6.02219881,3.19497875 6.41409266,3.58494208 C6.80598652,3.97490542 7.0019305,4.44594319 7.0019305,4.9980695 L7.0019305,6 L8.003861,6 L8.003861,4.9980695 C8.003861,4.44594319 8.19883975,3.97490542 8.58880309,3.58494208 C8.97876643,3.19497875 9.44980419,3 10.0019305,3 C10.5540568,3 11.0250946,3.19497875 11.4150579,3.58494208 C11.8050213,3.97490542 12,4.44594319 12,4.9980695 C12,5.55019581 11.8050213,6.02123357 11.4150579,6.41119691 C11.0250946,6.80116025 10.5540568,6.996139 10.0019305,6.996139 L9,6.996139 L9,7.9980695 L10.0019305,7.9980695 C10.5540568,7.9980695 11.0250946,8.19401348 11.4150579,8.58590734 C11.8050213,8.97780119 12,9.44980419 12,10.0019305 C12,10.5540568 11.8050213,11.0250946 11.4150579,11.4150579 C11.0250946,11.8050213 10.5540568,12 10.0019305,12 C9.44980419,12 8.97876643,11.8050213 8.58880309,11.4150579 C8.19883975,11.0250946 8.003861,10.5540568 8.003861,10.0019305 L8.003861,9 L7.0019305,9 L7.0019305,10.0019305 C7.0019305,10.5540568 6.80598652,11.0250946 6.41409266,11.4150579 C6.02219881,11.8050213 5.55019581,12 4.9980695,12 C4.44594319,12 3.97490542,11.8050213 3.58494208,11.4150579 C3.19497875,11.0250946 3,10.5540568 3,10.0019305 C3,9.44980419 3.19497875,8.97780119 3.58494208,8.58590734 C3.97490542,8.19401348 4.44594319,7.9980695 4.9980695,7.9980695 L6,7.9980695 L6,6.996139 Z M7.0019305,7.9980695 L8.003861,7.9980695 L8.003861,6.996139 L7.0019305,6.996139 L7.0019305,7.9980695 Z M6,6 L6,4.9980695 C6,4.72393685 5.90251063,4.48841797 5.70752896,4.29150579 C5.51254729,4.09459361 5.27606317,3.996139 4.9980695,3.996139 C4.72393685,3.996139 4.48938321,4.09459361 4.29440154,4.29150579 C4.09941987,4.48841797 4.0019305,4.72393685 4.0019305,4.9980695 C4.0019305,5.27606317 4.09941987,5.51254729 4.29440154,5.70752896 C4.48938321,5.90251063 4.72393685,6 4.9980695,6 L6,6 Z M9,6 L10.0019305,6 C10.2799242,6 10.5164083,5.90154539 10.71139,5.7046332 C10.9063716,5.50772102 11.003861,5.27220214 11.003861,4.9980695 C11.003861,4.72393685 10.9054064,4.48841797 10.7084942,4.29150579 C10.511582,4.09459361 10.2760631,3.996139 10.0019305,3.996139 C9.72393683,3.996139 9.48745271,4.09459361 9.29247104,4.29150579 C9.09748937,4.48841797 9,4.72393685 9,4.9980695 L9,6 Z M9,9 L9,10.0019305 C9,10.2760631 9.09845461,10.5106168 9.2953668,10.7055985 C9.49227898,10.9005801 9.72779786,10.9980695 10.0019305,10.9980695 C10.2799242,10.9980695 10.5164083,10.9005801 10.71139,10.7055985 C10.9063716,10.5106168 11.003861,10.2741327 11.003861,9.996139 C11.003861,9.72200635 10.9054064,9.48745271 10.7084942,9.29247104 C10.511582,9.09748937 10.2760631,9 10.0019305,9 L9,9 Z M6,9 L4.9980695,9 C4.72393685,9 4.48938321,9.09748937 4.29440154,9.29247104 C4.09941987,9.48745271 4.0019305,9.72393683 4.0019305,10.0019305 C4.0019305,10.2760631 4.09941987,10.5106168 4.29440154,10.7055985 C4.48938321,10.9005801 4.72393685,10.9980695 4.9980695,10.9980695 C5.27606317,10.9980695 5.51254729,10.9005801 5.70752896,10.7055985 C5.90251063,10.5106168 6,10.2760631 6,10.0019305 L6,9 Z"></path>
                                        </g>
                                    </g>
                                </g>
                                <g id="key" transform="translate(33.000000, 2.000000)">
                                    <g id="Rectangle">
                                        <use fill="black" fill-opacity="1" filter="url(#filter-11)" xlink:href="#path-10"></use>
                                        <use fill="url(#linearGradient-6)" fill-rule="evenodd" xlink:href="#path-10"></use>
                                        <use fill="black" fill-opacity="1" filter="url(#filter-12)" xlink:href="#path-10"></use>
                                    </g>
                                    <g id="Group" transform="translate(3.000000, 1.500000)" fill="#7E8BA1" font-family="Hind-Regular, Hind" font-size="13" font-weight="normal" letter-spacing="0.136557">
                                        <g id="K">
                                            <text>
                                                <tspan x="3.7072215" y="12">K</tspan>
                                            </text>
                                        </g>
                                    </g>
                                </g>
                                <text id="+" font-family="Hind-Regular, Hind" font-size="16" font-weight="normal" letter-spacing="0.168070154" fill="#93A0B3">
                                    <tspan x="22" y="17">+</tspan>
                                </text>
                            </g>
                        </g>
                    </g>
                </g>
            </g>
        </g>
    </g>
</svg>