<svg width="250" height="250" fill="none" xmlns="http://www.w3.org/2000/svg"><path d="M124.997 0C56.683 0 .997 55.037.013 123.075-.99 192.166 55.11 249.424 124.26 249.817c21.362.128 41.927-5.091 60.191-15.017 1.78-.963 2.055-3.411.541-4.757l-11.694-10.359c-2.38-2.103-5.764-2.702-8.685-1.454-12.746 5.425-26.603 8.186-40.884 8.019-55.873-.688-101.025-47.144-100.13-102.977.875-55.125 46.028-99.705 101.399-99.705h101.419v180.127l-57.535-51.085c-1.859-1.652-4.711-1.327-6.216.658-9.235 12.216-24.283 19.823-40.992 18.663-23.182-1.602-41.966-20.245-43.697-43.4-2.076-27.617 19.827-50.752 47.031-50.752 24.607 0 44.867 18.93 46.981 42.978.187 2.143 1.151 4.138 2.764 5.563l14.989 13.277c1.701 1.504 4.396.58 4.819-1.651a71.016 71.016 0 0 0 1.033-17.955c-2.41-35.165-30.922-63.46-66.131-65.632-40.363-2.486-74.117 29.072-75.189 68.629-1.043 38.545 30.557 71.774 69.14 72.629 16.11.353 31.03-4.708 43.098-13.474l75.178 66.594c3.226 2.85 8.311.57 8.311-3.735V4.737A4.741 4.741 0 0 0 245.259 0H124.997Z" fill="#003DFF"/></svg>
