<svg viewBox="0 0 115 174" xmlns="http://www.w3.org/2000/svg"><g fill="#282423" stroke="#282423"><path d="M4.6 63.7H22.4V37.3H4.6C3.6 37.3 2.8 38.1 2.8 39V61.9C2.8 62.9 3.6 63.7 4.6 63.7Z"/><path d="M36.6 63.7H18.8V37.3H36.6C37.6 37.3 38.4 38.1 38.4 39V61.9C38.4 62.9 37.6 63.7 36.6 63.7Z"/><path d="M4.6 100.3H22.4V73.8H4.6C3.6 73.8 2.8 74.6 2.8 75.6V98.5C2.8 99.5 3.6 100.3 4.6 100.3Z"/><path d="M36.6 100.3H18.8V73.8H36.6C37.6 73.8 38.4 74.6 38.4 75.6V98.5C38.4 99.5 37.6 100.3 36.6 100.3Z"/><path d="M4.6 136.9H22.4V110.4H4.6C3.6 110.4 2.8 111.2 2.8 112.2V135.1C2.8 136.1 3.6 136.9 4.6 136.9Z"/><path d="M36.6 136.9H18.8V110.4H36.6C37.6 110.4 38.4 111.2 38.4 112.2V135.1C38.4 136.1 37.6 136.9 36.6 136.9Z"/><path d="M22.9 173.5H40.7V147H22.9C21.9 147 21.1 147.8 21.1 148.8V171.7C21.1 172.7 21.9 173.5 22.9 173.5Z"/><path d="M37.1 173.5V147H59V173.5H37.1Z"/><path d="M55.4 173.5V147H77.3V173.5H55.4Z"/><path d="M91.5 173.5H73.7V147H91.5C92.5 147 93.3 147.8 93.3 148.8V171.7C93.3 172.7 92.5 173.5 91.5 173.5Z"/><path d="M77.8 136.9H95.6V110.4H77.8C76.8 110.4 76 111.2 76 112.2V135.1C76 136.1 76.8 136.9 77.8 136.9Z"/><path d="M109.8 136.9H92V110.4H109.8C110.8 110.4 111.6 111.2 111.6 112.2V135.1C111.6 136.1 110.8 136.9 109.8 136.9Z"/><path d="M22.9 27.1H40.7V0.7H22.9C21.9 0.7 21.1 1.5 21.1 2.4V25.3C21.1 26.3 21.9 27.1 22.9 27.1Z"/><path d="M37.1 27.1V0.7H59V27.1H37.1Z"/><path d="M55.4 27.1V0.7H77.3V27.1H55.4Z"/><path d="M73.7 27.1V0.7H95.6V27.1H73.7Z"/><path d="M109.8 27.1H92V0.7H109.8C110.8 0.7 111.6 1.5 111.6 2.4V25.3C111.6 26.3 110.8 27.1 109.8 27.1Z"/><path d="M77.8 63.7H95.6V37.3H77.8C76.8 37.3 76 38.1 76 39V61.9C76 62.9 76.8 63.7 77.8 63.7Z"/><path d="M109.8 63.7H92V37.3H109.8C110.8 37.3 111.6 38.1 111.6 39V61.9C111.6 62.9 110.8 63.7 109.8 63.7Z"/></g></svg>
