<svg width="476" height="78" xmlns="http://www.w3.org/2000/svg">
  <g fill-rule="nonzero" fill="none">
    <path d="M36.4933333 77.2891139H3.07416667C1.3763513 77.2891139 0 75.9187652 0 74.2283544h36.5230833c12.7685533.0617304 24.6002601-6.6634621 31.0382307-17.6422624 6.4379707-10.9788004 6.5041245-24.5432676.1735417-35.583798C61.404273 9.96176365 49.6387199 3.12248929 36.8701667 3.06075949H0C0 1.3703487 1.3763513 0 3.07416667 0H36.8701667c10.3097524.01046323 20.1926309 4.10020304 27.4724936 11.3686868C71.622523 18.6371705 75.702425 28.4883865 75.684 38.7531646c-.0595 21.3660759-17.7409167 38.5359493-39.1906667 38.5359493z" fill="#5468FF"/>
    <path d="M0 69.0448101h23.71075c2.9316182.0102583 5.7612192-1.0708654 7.9333333-3.0311392H0v3.0311392zM0 60.8005063h36.3743333c.7338334-.9873417 1.4180834-1.9746835 2.05275-3.0706329H0v3.0706329zM0 52.5463291h41.02525c.4065833-.9873418.7735-1.9746835 1.0908333-3.0607595H0v3.0607595zM0 44.3020253h43.3060833c.14875-.9873418.26775-2.033924.3371667-3.0607595H0v3.0607595zM0 36.0577215h43.6333333c-.0694166-1.0367088-.1884166-2.0635443-.3371666-3.0706329H0v3.0706329zM0 27.8035443h42.1160833c-.3173333-1.0367089-.68425-2.0635443-1.0908333-3.0607595H0v3.0607595zM0 19.5592405h38.4270833c-.6311797-1.0545634-1.3163318-2.0761617-2.05275-3.0607595H0v3.0607595zM0 8.2443038v3.0706329h31.6738333C29.502744 9.35300436 26.6724708 8.27162384 23.7405 8.28379747L0 8.2443038zM135.679833 50.0779747c-1.822366 3.3033362-4.581632 5.9990573-7.933333 7.7506329-3.767329 1.9309001-7.961587 2.8883166-12.1975 2.7843038H98.9683333V16.923038h16.5707497c4.239162-.1101684 8.439809.8260215 12.22725 2.7250633 3.351391 1.7108784 6.113709 4.3786412 7.933334 7.6617721 1.892496 3.4866396 2.845697 7.4018746 2.76675 11.3643038.070275 3.9764616-.889419 7.9039067-2.786584 11.4037975zm-11.414083-2.1918988c2.294056-2.1787341 3.441083-5.249367 3.441083-9.2118987 0-3.9625316-1.147027-7.0298734-3.441083-9.2020253-2.300667-2.1853165-5.520278-3.2779747-9.658833-3.2779747h-5.017834v24.96h5.017834c4.145166 0 7.364777-1.0893671 9.658833-3.2681013zM175.455583 19.1248101c3.323414 1.8876902 6.066399 4.6426093 7.933334 7.9678481 1.975064 3.517696 2.980885 7.4927779 2.9155 11.5222785.053464 4.0450135-.973209 8.0315758-2.975 11.5518987-1.890964 3.3440739-4.660976 6.1122447-8.012667 8.0073418-6.971821 3.8300348-15.429929 3.8300348-22.40175 0-3.350808-1.8929151-6.118134-4.6618285-8.00275-8.0073418-2.007605-3.5179878-3.034689-7.5061472-2.975-11.5518987-.060648-4.0364825.966676-8.0153457 2.975-11.5222785 1.894368-3.3279503 4.660222-6.081742 8.00275-7.9678481 6.996199-3.8311672 15.474968-3.8311672 22.471167 0h.069416zm-19.555666 10.3177215c-2.042834 2.244557-3.067556 5.3020254-3.074167 9.1724051-.006611 3.8703798 1.018111 6.9179747 3.074167 9.1427848 4.575657 4.5285135 11.965342 4.5285135 16.541 0C174.496972 45.5 175.525 42.4524051 175.525 38.6149367c0-3.8374683-1.024722-6.8850633-3.074167-9.1427848-4.594674-4.5105424-11.976075-4.5105424-16.57075 0l.019834-.0296203zM225.108333 20.8822785c3.699555 2.990698 6.21803 7.1873367 7.11025 11.8481012h-11.225666c-.761747-1.9279483-2.093006-3.5804608-3.817917-4.7392405-1.811513-1.1839186-3.942384-1.7900837-6.108667-1.7377215-2.894925-.1015217-5.672739 1.142678-7.516833 3.3668355-1.904 2.2577215-2.856 5.2855696-2.856 9.0835443s.952 6.8126582 2.856 9.0440506c1.84598 2.2216941 4.622508 3.4653175 7.516833 3.3668354 2.161147.0676346 4.291783-.5212449 6.108667-1.6883544 1.71421-1.1489005 3.043887-2.7822557 3.817917-4.6898734H232.2285c-.901088 4.6574013-3.417872 8.8512217-7.11025 11.8481013-3.655944 2.9422784-8.283722 4.4167088-13.883333 4.4232911-3.928118.0855686-7.806541-.8866311-11.225667-2.813924-3.209914-1.8572072-5.81049-4.6007665-7.487083-7.8987342-1.804707-3.5815537-2.709866-7.5455283-2.637834-11.5518988-.073246-4.0096553.831935-7.9771147 2.637834-11.5617721 1.676593-3.2979677 4.277169-6.0415271 7.487083-7.8987342 3.419145-1.9152438 7.293731-2.8771076 11.21575-2.7843038 5.606222 0 10.234 1.4612658 13.883333 4.3837975zM267.00625 54.6789873c-1.259508 2.0097453-3.069155 3.6196779-5.216167 4.6405064-2.609961 1.216075-5.469334 1.8077709-8.349833 1.7278481-4.918667 0-8.971278-1.1946836-12.157833-3.5840507-3.182065-2.369868-5.102981-6.0567776-5.216167-10.0116455h11.295083c.08241 1.4700508.711687 2.8568696 1.765167 3.8901266 1.055167.9618933 2.447681 1.4725005 3.877417 1.4217721 1.181571.0677996 2.342593-.3293394 3.232833-1.1058228.793721-.7785126 1.221997-1.8534897 1.180083-2.9620253.027288-1.0334725-.366114-2.0340539-1.090833-2.7744304-.769077-.7803072-1.685848-1.4011269-2.697333-1.8265823-1.071-.473924-2.568417-.9873417-4.472417-1.6982278-2.323895-.7652317-4.593344-1.6855453-6.792917-2.7546835-1.81011-.9308478-3.365502-2.2863039-4.531916-3.9493671-1.339204-2.021625-2.002158-4.4130567-1.894084-6.8324051-.062136-2.3957941.631485-4.7507265 1.983334-6.7336709 1.380703-1.9435961 3.290149-3.4542145 5.50375-4.3541772 2.544583-1.048455 5.279125-1.562727 8.0325-1.5106329 4.879 0 8.756416 1.1518987 11.63225 3.4556962 2.898095 2.3485381 4.669106 5.8034334 4.879 9.5179747h-11.4835c-.137658-1.287148-.694954-2.4939813-1.586667-3.4359494-.925349-.8717907-2.168784-1.3284637-3.441083-1.2637975-1.078464-.0364926-2.134221.3138914-2.975.9873418-.79885.7478696-1.2176 1.8137436-1.140417 2.9027848-.031549.971608.325056 1.9160425.991667 2.6263291.730566.7566455 1.607696 1.3578819 2.578333 1.7673418 1.031333.4541772 2.518833 1.0301266 4.4625 1.7278481 2.366146.7614116 4.670246 1.7021373 6.892083 2.8139241 1.829761.9698832 3.403085 2.3570319 4.591417 4.0481012 1.359614 2.043094 2.0332 4.4629565 1.923833 6.9113924.015427 2.2428329-.599422 4.4452676-1.775083 6.358481zM285.262833 25.3253165v9.1526582h14.875v7.9777215h-14.875v9.7055696h16.68975v8.461519h-27.260916V16.923038h27.300583v8.4022785zM335.01475 52.6450633h-16.441833l-2.737 7.9678481H304.66975l16.074917-43.3739241h12.22725l16.09475 43.3739241H337.75175l-2.737-7.9678481zm-2.727083-8.036962l-5.464084-16.0640507L321.3 44.6081013h10.987667zM374.85 60.6129114l-9.500167-16.498481H362.95v16.498481h-10.610833V16.923038h18.127666c3.04216-.0795064 6.06094.5493399 8.815917 1.8364557 2.257662 1.0692103 4.140585 2.7891291 5.404583 4.9367088 1.22288 2.1791688 1.842314 4.6426908 1.794917 7.138481.088216 2.9213407-.844048 5.7827022-2.637833 8.0962026-1.967355 2.3260047-4.670408 3.9170887-7.665584 4.5121519l10.432334 17.1797468L374.85 60.6129114zm-11.9-23.6962025h6.584667c1.672344.1490292 3.338917-.3417013 4.660833-1.3724051 1.057592-1.0976486 1.59816-2.5902854 1.4875-4.1073418.084371-1.5099567-.465186-2.9869325-1.51725-4.0777215-1.283998-1.0810263-2.9449-1.6133199-4.621167-1.4810127H362.95v11.0384811zM424.810167 20.8822785c3.702843 2.9878612 6.222097 7.1857974 7.11025 11.8481012h-11.235584c-.754982-1.9371087-2.087273-3.5977943-3.817916-4.7589873-1.810981-1.1850732-3.942223-1.7913436-6.108667-1.7377215-2.896071-.099733-5.672754 1.152907-7.506917 3.3865823-1.904 2.2577215-2.856 5.2855696-2.856 9.0835443s.952 6.8126582 2.856 9.0440506c1.840998 2.2225848 4.615127 3.4667754 7.506917 3.3668354 2.165478.0571782 4.296819-.5456759 6.108667-1.7278481 1.716707-1.1461811 3.047075-2.7803864 3.817916-4.6898734h11.235584c-.897071 4.6589262-3.41462 8.8540214-7.11025 11.8481013-3.655945 2.9422785-8.283723 4.4167089-13.883334 4.4232911-3.931464.0873552-7.813549-.8849035-11.235583-2.813924-3.209109-1.8551118-5.807011-4.5994854-7.477167-7.8987342-1.80809-3.580345-2.713442-7.5451617-2.637833-11.5518987-.077225-4.0100622.82817-7.9784591 2.637833-11.5617722 1.670156-3.2992487 4.268058-6.0436224 7.477167-7.8987342 3.423012-1.9255789 7.305038-2.8944114 11.235583-2.8040506 5.599611.0394937 10.227389 1.5205063 13.883334 4.443038zM475.167 16.923038v43.6898734h-10.68025V42.3865823H447.8565v18.2263291h-10.610833V16.923038H447.8565v16.9329114h16.63025V16.923038z" fill="#21243D"/>
  </g>
</svg>
