<svg width="346" height="59" viewBox="0 0 346 59" xmlns="http://www.w3.org/2000/svg"><title>logo-docsearch + logo-docsearch copy</title><desc>Created with Sketch.</desc><g fill="none" fill-rule="evenodd"><g><g><g><g><path d="M.27 58V1.2h21.2c4.693 0 8.8.747 12.32 2.24 3.52 1.493 6.467 3.52 8.84 6.08s4.16 5.56 5.36 9c1.2 3.44 1.8 7.107 1.8 11 0 4.32-.667 8.227-2 11.72-1.333 3.493-3.24 6.48-5.72 8.96-2.48 2.48-5.467 4.4-8.96 5.76C29.617 57.32 25.737 58 21.47 58H.27zm36.16-28.48c0-2.507-.333-4.787-1-6.84s-1.64-3.827-2.92-5.32c-1.28-1.493-2.853-2.64-4.72-3.44-1.867-.8-3.973-1.2-6.32-1.2h-8.08v33.76h8.08c2.4 0 4.533-.427 6.4-1.28s3.427-2.04 4.68-3.56c1.253-1.52 2.213-3.307 2.88-5.36.667-2.053 1-4.307 1-6.76zM68.49 58.3c-2.533 0-4.833-.517-6.9-1.55s-3.842-2.392-5.325-4.075c-1.483-1.683-2.633-3.608-3.45-5.775-.817-2.167-1.225-4.4-1.225-6.7 0-2.333.425-4.583 1.275-6.75.85-2.167 2.033-4.075 3.55-5.725 1.517-1.65 3.317-2.967 5.4-3.95 2.083-.983 4.358-1.475 6.825-1.475 2.533 0 4.833.517 6.9 1.55s3.842 2.4 5.325 4.1c1.483 1.7 2.625 3.633 3.425 5.8.8 2.167 1.2 4.367 1.2 6.6 0 2.333-.425 4.583-1.275 6.75-.85 2.167-2.025 4.075-3.525 5.725-1.5 1.65-3.292 2.975-5.375 3.975s-4.358 1.5-6.825 1.5zm-8.55-18c0 1.367.192 2.692.575 3.975.383 1.283.933 2.425 1.65 3.425.717 1 1.617 1.8 2.7 2.4 1.083.6 2.325.9 3.725.9 1.433 0 2.683-.317 3.75-.95 1.067-.633 1.958-1.458 2.675-2.475.717-1.017 1.25-2.167 1.6-3.45.35-1.283.525-2.592.525-3.925 0-1.367-.192-2.692-.575-3.975-.383-1.283-.942-2.417-1.675-3.4-.733-.983-1.633-1.767-2.7-2.35-1.067-.583-2.283-.875-3.65-.875-1.433 0-2.683.308-3.75.925-1.067.617-1.958 1.425-2.675 2.425-.717 1-1.258 2.142-1.625 3.425s-.55 2.592-.55 3.925zm28.3-.35c0-2.133.383-4.258 1.15-6.375.767-2.117 1.883-4.008 3.35-5.675 1.467-1.667 3.258-3.017 5.375-4.05s4.525-1.55 7.225-1.55c3.167 0 5.917.717 8.25 2.15 2.333 1.433 4.067 3.3 5.2 5.6l-6.3 4.4c-.367-.933-.833-1.708-1.4-2.325-.567-.617-1.183-1.117-1.85-1.5s-1.358-.65-2.075-.8c-.717-.15-1.392-.225-2.025-.225-1.467 0-2.733.317-3.8.95-1.067.633-1.95 1.45-2.65 2.45-.7 1-1.225 2.133-1.575 3.4-.35 1.267-.525 2.55-.525 3.85 0 1.4.208 2.75.625 4.05.417 1.3 1 2.45 1.75 3.45s1.658 1.792 2.725 2.375c1.067.583 2.25.875 3.55.875.667 0 1.358-.092 2.075-.275.717-.183 1.408-.467 2.075-.85.667-.383 1.267-.883 1.8-1.5.533-.617.967-1.375 1.3-2.275l6.75 3.95c-.533 1.3-1.308 2.467-2.325 3.5-1.017 1.033-2.175 1.9-3.475 2.6-1.3.7-2.675 1.233-4.125 1.6-1.45.367-2.875.55-4.275.55-2.467 0-4.725-.525-6.775-1.575-2.05-1.05-3.817-2.442-5.3-4.175-1.483-1.733-2.642-3.7-3.475-5.9-.833-2.2-1.25-4.433-1.25-6.7z" fill="#46AEDA"/><path d="M173.29 17.84c-.213-.213-.8-.613-1.76-1.2s-2.16-1.2-3.6-1.84c-1.44-.64-3.013-1.2-4.72-1.68-1.707-.48-3.413-.72-5.12-.72-2.24 0-3.96.4-5.16 1.2-1.2.8-1.8 1.973-1.8 3.52 0 .96.267 1.76.8 2.4.533.64 1.293 1.213 2.28 1.72.987.507 2.213.973 3.68 1.4 1.467.427 3.16.907 5.08 1.44 2.72.747 5.173 1.56 7.36 2.44 2.187.88 4.053 1.973 5.6 3.28 1.547 1.307 2.733 2.893 3.56 4.76s1.24 4.107 1.24 6.72c0 3.2-.6 5.907-1.8 8.12-1.2 2.213-2.787 4-4.76 5.36-1.973 1.36-4.253 2.347-6.84 2.96-2.587.613-5.24.92-7.96.92-2.08 0-4.2-.16-6.36-.48-2.16-.32-4.28-.787-6.36-1.4-2.08-.613-4.107-1.347-6.08-2.2-1.973-.853-3.787-1.84-5.44-2.96l5.76-11.44c.267.267.987.773 2.16 1.52s2.613 1.493 4.32 2.24c1.707.747 3.627 1.413 5.76 2s4.293.88 6.48.88c4.64 0 6.96-1.413 6.96-4.24 0-1.067-.347-1.947-1.04-2.64-.693-.693-1.653-1.32-2.88-1.88-1.227-.56-2.667-1.08-4.32-1.56-1.653-.48-3.467-1.013-5.44-1.6-2.613-.8-4.88-1.667-6.8-2.6s-3.52-2.013-4.8-3.24c-1.28-1.227-2.227-2.64-2.84-4.24s-.92-3.467-.92-5.6c0-2.987.56-5.627 1.68-7.92 1.12-2.293 2.64-4.227 4.56-5.8 1.92-1.573 4.147-2.76 6.68-3.56 2.533-.8 5.213-1.2 8.04-1.2 2.027 0 4 .187 5.92.56 1.92.373 3.747.853 5.48 1.44 1.733.587 3.373 1.253 4.92 2 1.547.747 2.933 1.493 4.16 2.24l-5.68 10.88zm36.03 32.96V58h-24.95V22.5h24.5v7.2h-16.3v6.9h14v6.65h-14v7.55h16.75zm1.6 7.2l13.65-35.5h6.65l13.6 35.5h-8.7l-2.75-7.95h-11.05l-2.7 7.95h-8.7zm16.95-26.8l-4.25 13.2h8.35l-4.1-13.2zm20.2 26.8V22.5h16c1.667 0 3.208.35 4.625 1.05 1.417.7 2.642 1.617 3.675 2.75s1.842 2.417 2.425 3.85c.583 1.433.875 2.883.875 4.35 0 1.1-.133 2.158-.4 3.175s-.65 1.975-1.15 2.875c-.5.9-1.108 1.708-1.825 2.425-.717.717-1.525 1.325-2.425 1.825l8.15 13.2h-9.25l-7.15-11.45h-5.35V58h-8.2zm8.2-18.6h7.5c.967 0 1.8-.458 2.5-1.375s1.05-2.092 1.05-3.525c0-1.467-.4-2.633-1.2-3.5-.8-.867-1.667-1.3-2.6-1.3h-7.25v9.7zm23.75.55c0-2.133.383-4.258 1.15-6.375.767-2.117 1.883-4.008 3.35-5.675 1.467-1.667 3.258-3.017 5.375-4.05s4.525-1.55 7.225-1.55c3.167 0 5.917.717 8.25 2.15 2.333 1.433 4.067 3.3 5.2 5.6l-6.3 4.4c-.367-.933-.833-1.708-1.4-2.325-.567-.617-1.183-1.117-1.85-1.5s-1.358-.65-2.075-.8c-.717-.15-1.392-.225-2.025-.225-1.467 0-2.733.317-3.8.95-1.067.633-1.95 1.45-2.65 2.45-.7 1-1.225 2.133-1.575 3.4-.35 1.267-.525 2.55-.525 3.85 0 1.4.208 2.75.625 4.05.417 1.3 1 2.45 1.75 3.45s1.658 1.792 2.725 2.375c1.067.583 2.25.875 3.55.875.667 0 1.358-.092 2.075-.275.717-.183 1.408-.467 2.075-.85.667-.383 1.267-.883 1.8-1.5.533-.617.967-1.375 1.3-2.275l6.75 3.95c-.533 1.3-1.308 2.467-2.325 3.5-1.017 1.033-2.175 1.9-3.475 2.6-1.3.7-2.675 1.233-4.125 1.6-1.45.367-2.875.55-4.275.55-2.467 0-4.725-.525-6.775-1.575-2.05-1.05-3.817-2.442-5.3-4.175-1.483-1.733-2.642-3.7-3.475-5.9-.833-2.2-1.25-4.433-1.25-6.7zm65.75-17.45V58h-8.2V43.45h-14.15V58h-8.2V22.5h8.2v13.75h14.15V22.5h8.2z" fill="#fff"/></g></g></g></g></g></svg>