<svg height="310" preserveAspectRatio="xMidYMid" viewBox="0 0 256 310" width="256" xmlns="http://www.w3.org/2000/svg"><path d="m218.281037 90.106412c50.291951 50.291951 50.291951 130.968622 0 181.609823-49.244202 50.291951-130.2701229 50.291951-180.5620738 0s-50.2919509-131.317872 0-181.609823l90.1064118-90.106412v45.053206l-8.381992 8.3819918-59.7216913 59.7216912c-37.7189632 37.020464-37.7189632 97.789905 0 135.508868 37.0204638 37.718963 97.7899043 37.718963 135.5088673 0 37.718964-37.020464 37.718964-97.789904 0-135.508868zm-45.053206-5.5879945c-9.258493 0-16.763984-7.5054912-16.763984-16.7639837s7.505491-16.7639836 16.763984-16.7639836c9.258492 0 16.763983 7.5054911 16.763983 16.7639836s-7.505491 16.7639837-16.763983 16.7639837z" fill="#ee4c2c"/></svg>