<svg xmlns="http://www.w3.org/2000/svg" width="64" height="64"><path d="M0 32v32h64.002V-.002H0zm51.577-2.55c1.625.406 2.865 1.128 4.003 2.306.59.63 1.463 1.778 1.534 2.052.02.08-2.763 1.95-4.45 2.997-.06.04-.305-.223-.58-.63-.823-1.2-1.686-1.717-3.007-1.808-1.94-.132-3.2.884-3.18 2.58 0 .498.07.792.274 1.2.427.884 1.22 1.412 3.708 2.49 4.582 1.97 6.542 3.27 7.76 5.12 1.36 2.062 1.666 5.354.742 7.802-1.016 2.662-3.535 4.47-7.08 5.07-1.097.193-3.698.163-4.876-.05-2.57-.457-5.008-1.727-6.512-3.393-.59-.65-1.737-2.347-1.666-2.47.03-.04.295-.203.59-.376l2.377-1.37 1.84-1.067.386.57c.538.823 1.717 1.95 2.428 2.326 2.042 1.077 4.846.924 6.227-.315.59-.538.833-1.097.833-1.92 0-.742-.09-1.067-.477-1.625-.498-.71-1.514-1.31-4.4-2.56-3.302-1.422-4.724-2.306-6.024-3.708-.752-.813-1.463-2.113-1.758-3.2-.244-.904-.305-3.17-.112-4.084.68-3.2 3.088-5.415 6.563-6.075 1.128-.213 3.75-.132 4.856.142zM36.552 32.12l.02 2.62h-8.33v23.67H22.35v-23.67h-8.33v-2.57l.07-2.64c.03-.04 5.1-.06 11.246-.05l11.185.03z" fill="#007acc"/></svg>