<svg class="algolia-logo" role="img" aria-labelledby="algc-algolia-logo" xmlns="http://www.w3.org/2000/svg" viewBox="0 0 387 96">
  <title id="algc-algolia-logo">algolia</title>
  <defs>
    <linearGradient x1="-37.7495%" y1="134.9357%" x2="130.2389%" y2="-27.7001%" id="linearGradient-1">
      <stop stop-color="#00AEFF" offset="0%" />
      <stop stop-color="#3369E7" offset="100%" />
    </linearGradient>
  </defs>
  <g fill="none" fill-rule="evenodd">
    <g>
      <path d="M12.6144 0h70.5712C90.1322 0 95.8 5.637 95.8 12.6106v70.579c0 6.9446-5.6387 12.6106-12.6144 12.6106H12.6144C5.6678 95.8002 0 90.1632 0 83.1896v-70.608C0 5.637 5.6387 0 12.6144 0z" fill="url(#linearGradient-1)" transform="translate(-636.000000, -51.000000) translate(588.000000, -3.000000) translate(48.000000, 54.000000)" />
      <path d="M49.087 24.3205c-14.9294 0-27.0414 12.1167-27.0414 27.081 0 14.9642 12.112 27.0518 27.0415 27.0518 14.9297 0 27.0417-12.1167 27.0417-27.081 0-14.964-12.083-27.0518-27.0414-27.0518zm0 46.1422c-10.5144 0-19.0538-8.5427-19.0538-19.0612 0-10.5186 8.5394-19.0613 19.054-19.0613 10.5144 0 19.0538 8.5427 19.0538 19.0613 0 10.5185-8.5104 19.0612-19.054 19.0612zm0-34.229v14.209c0 .4067.4358.6972.8134.4938l12.6058-6.5377c.2904-.1453.3775-.494.2323-.7846-2.614-4.591-7.4647-7.729-13.0705-7.9325-.2905 0-.581.2325-.581.552zM31.4274 25.8025l-1.6556-1.6562c-1.6265-1.6272-4.2406-1.6272-5.8672 0l-1.975 1.976c-1.6266 1.627-1.6266 4.242 0 5.8693l1.6265 1.6272c.2616.2615.639.2034.8716-.058.9585-1.3077 2.004-2.557 3.166-3.7194C28.784 28.65 30.004 27.604 31.34 26.645c.2905-.1743.3195-.581.087-.8426zM57.946 21.502v-3.2834c0-2.2955-1.859-4.155-4.1535-4.155h-9.6722c-2.2946 0-4.1535 1.8595-4.1535 4.155v3.3706c0 .3777.3485.6392.726.552 2.7013-.7845 5.5478-1.1913 8.4233-1.1913 2.7597 0 5.49.3775 8.133 1.104.3486.087.697-.1744.697-.552zm181.535 51.8954c0 7.7582-1.975 13.4243-5.9543 17.0273-3.9793 3.603-10.0498 5.4046-18.2406 5.4046-2.9914 0-9.2072-.5812-14.174-1.6853l1.83-9.0076c4.1534.8717 9.643 1.104 12.5185 1.104 4.5602 0 7.8133-.9297 9.7594-2.7893 1.946-1.8593 2.9044-4.62 2.9044-8.281v-1.8595c-1.1328.552-2.614 1.104-4.444 1.6853-1.8298.552-3.9502.8426-6.332.8426-3.1368 0-5.9833-.494-8.5684-1.482-2.585-.9878-4.8216-2.4407-6.6515-4.3584-1.83-1.9178-3.2822-4.3296-4.2988-7.206-1.0166-2.8768-1.5394-8.02-1.5394-11.797 0-3.545.552-7.991 1.6266-10.9546 1.1035-2.9638 2.672-5.5208 4.7923-7.642 2.0913-2.121 4.6473-3.7483 7.639-4.9396 2.9917-1.1914 6.5062-1.9468 10.3112-1.9468 3.6888 0 7.087.4648 10.3983 1.0168 3.311.552 6.1285 1.1333 8.423 1.7725v45.096zm-31.5725-22.4318c0 4.7653 1.0456 10.0537 3.137 12.262 2.0912 2.2083 4.7924 3.3124 8.1036 3.3124 1.801 0 3.5148-.2615 5.112-.7554 1.598-.494 2.876-1.075 3.8925-1.7725V35.798c-.8133-.1744-4.2117-.8717-7.4938-.959-4.1245-.116-7.2614 1.5692-9.469 4.2714-2.1783 2.7023-3.282 7.4386-3.282 11.8552zm85.4812 0c0 3.8355-.552 6.7412-1.6846 9.9084-1.1325 3.1672-2.73 5.8694-4.7923 8.1068-2.0622 2.2374-4.531 3.9808-7.4357 5.2012-2.9046 1.2204-7.3776 1.9177-9.614 1.9177-2.2367-.029-6.6806-.6683-9.556-1.9177-2.8757-1.2495-5.3445-2.9638-7.4068-5.2012-2.062-2.2374-3.6596-4.9396-4.8215-8.1068-1.1618-3.1672-1.7427-6.073-1.7427-9.9084 0-3.8355.5228-7.5257 1.6847-10.6638 1.1618-3.1382 2.7883-5.8114 4.8796-8.0488 2.0914-2.2373 4.5893-3.9517 7.4358-5.172 2.8757-1.2205 6.0417-1.8016 9.469-1.8016 3.4274 0 6.5934.6102 9.498 1.8015 2.9045 1.22 5.4025 2.9345 7.4357 5.172 2.0622 2.2372 3.6597 4.9104 4.8215 8.0486 1.22 3.138 1.83 6.8283 1.83 10.6638zm-11.6182.029c0-4.9105-1.0747-9.0075-3.166-11.855-2.0913-2.8767-5.025-4.3005-8.7718-4.3005-3.747 0-6.6805 1.424-8.7718 4.3007-2.0916 2.8766-3.108 6.9446-3.108 11.8552 0 4.9686 1.0455 8.31 3.137 11.1867 2.091 2.9057 5.025 4.3295 8.7716 4.3295 3.7468 0 6.6804-1.453 8.7717-4.3294 2.0913-2.9057 3.137-6.218 3.137-11.1868zm36.917 25.105C300.07 76.187 300.07 61.0484 300.07 58.6366l-.029-53.697 11.3568-1.8014v53.3484c0 1.3657 0 10.0246 7.2904 10.0536V76.1zm20.0123 0h-11.415V27.052l11.415-1.8017v50.8494zm-5.722-56.2248c3.805 0 6.913-3.08 6.913-6.8864 0-3.8065-3.079-6.8865-6.913-6.8865s-6.9128 3.08-6.9128 6.8862 3.108 6.8864 6.913 6.8864zm34.0996 5.4046c3.747 0 6.913.465 9.469 1.3947 2.556.93 4.618 2.2377 6.1285 3.894 1.51 1.6562 2.585 3.9226 3.224 6.3053.668 2.3827.9873 4.9978.9873 7.8745v29.231c-1.7427.3778-4.386.8137-7.9294 1.3367-3.5436.523-7.523.7845-11.9378.7845-2.9336 0-5.6348-.2906-8.0456-.8427-2.44-.552-4.502-1.4528-6.2448-2.7022-1.714-1.2492-3.05-2.8474-4.0376-4.8232-.9585-1.976-1.4522-4.7653-1.4522-7.671 0-2.7895.5518-4.562 1.6265-6.4797 1.1037-1.9176 2.585-3.4867 4.444-4.707 1.888-1.2205 4.0373-2.092 6.5062-2.615 2.469-.523 5.054-.7847 7.726-.7847 1.249 0 2.556.087 3.9502.2323s2.8464.4068 4.415.7846v-1.86c0-1.3075-.1454-2.557-.465-3.7192-.3194-1.1914-.8712-2.2084-1.6264-3.109-.7843-.901-1.801-1.5982-3.079-2.0922-1.278-.494-2.9045-.8717-4.8506-.8717-2.614 0-4.9958.3197-7.1742.6975-2.1785.3777-3.9793.8135-5.3444 1.3075l-1.3653-9.3273c1.4234-.494 3.5437-.988 6.274-1.482s5.664-.7554 8.8008-.7554zm.9585 41.2316c3.4852 0 6.0702-.2034 7.871-.552V54.3942c-.639-.1743-1.5393-.3777-2.7302-.552-1.191-.1744-2.498-.2906-3.9503-.2906-1.249 0-2.527.087-3.805.2905-1.278.1746-2.4398.523-3.4564 1.017-1.0165.494-1.859 1.1915-2.469 2.092-.639.901-.9293 1.424-.9293 2.7898 0 2.6732.9294 4.2132 2.614 5.2302 1.7137 1.046 3.9793 1.54 6.855 1.54zM143.7464 25.57c3.747 0 6.913.465 9.469 1.3947 2.556.9298 4.618 2.2374 6.1285 3.8936 1.5395 1.6853 2.585 3.9227 3.224 6.3053.668 2.3827.9877 4.9978.9877 7.8744v29.231c-1.7427.378-4.386.8137-7.9294 1.3368-3.5436.523-7.5228.7845-11.9378.7845-2.9336 0-5.6348-.2906-8.0456-.8427-2.44-.552-4.502-1.4528-6.245-2.7022-1.7137-1.2495-3.0498-2.8476-4.0374-4.8235-.9585-1.976-1.4522-4.7656-1.4522-7.671 0-2.7897.5518-4.562 1.6265-6.48 1.104-1.9177 2.585-3.4867 4.444-4.707 1.888-1.2204 4.0373-2.092 6.5062-2.615 2.469-.523 5.054-.7847 7.726-.7847 1.249 0 2.5562.0872 3.9504.2325 1.365.145 2.8464.4066 4.415.7843v-1.8595c0-1.3076-.1453-2.557-.4648-3.7193-.3197-1.1913-.8716-2.2083-1.6268-3.109-.7842-.9008-1.8008-1.5982-3.0788-2.092-1.278-.494-2.9046-.8718-4.8507-.8718-2.614 0-4.9958.3196-7.1742.6973-2.1784.3777-3.9793.8135-5.3444 1.3075l-1.365-9.3273c1.423-.494 3.5434-.988 6.274-1.482 2.73-.523 5.6636-.7554 8.8005-.7554zm.9876 41.2606c3.4855 0 6.0706-.2034 7.8714-.552V54.7138c-.639-.1744-1.5394-.3778-2.7303-.552-1.1907-.1745-2.498-.2907-3.95-.2907-1.249 0-2.527.0874-3.805.2908-1.278.1742-2.44.523-3.4564 1.0168-1.0166.494-1.859 1.1914-2.4688 2.092-.639.901-.9297 1.424-.9297 2.7896 0 2.6733.9296 4.2133 2.614 5.2303 1.685 1.017 3.9795 1.54 6.855 1.54zm46.0374 9.269c-18.6183.0873-18.6183-15.0513-18.6183-17.463l-.029-53.697 11.357-1.8016v53.3485c0 1.3657 0 10.0246 7.2906 10.0536v9.56z" fill="#FFF" />
    </g>
  </g>
</svg>
