<svg class="algolia-community-logo" role="img" aria-labelledby="algc-algolia-community-logo" width="143" height="32" viewBox="0 0 143 32" xmlns="http://www.w3.org/2000/svg">
  <title id="algc-algolia-community-logo">algolia community</title>
  <g fill="none" fill-rule="evenodd">
    <path fill="#46AEDA" d="M13.503 3.268L16.366.402l3.45 3.456-1.145 1.146-2.3-2.304-1.716 1.72" />
    <path fill="#FE336F" d="M19.302 29.712L16.44 32.58l-9.777-9.792 1.145-1.146 8.627 8.638 1.717-1.72" />
    <path fill="#F5A623" d="M20.447 28.566l12.02-12.04-11.5-11.517-1.146 1.146 10.353 10.366-10.876 10.892" />
    <path fill="#50E3C2" d="M5.49 11.294l-5.153 5.16 5.176 5.182 1.145-1.146-4.025-4.03 4.007-4.014" />
    <path fill="#BD0FE1" d="M6.634 10.147l5.725-5.732 1.15 1.152L7.783 11.3" />
    <path d="M16.538 11.796c-3.07 0-5.558 2.477-5.558 5.536 0 3.06 2.49 5.53 5.558 5.53 3.068 0 5.558-2.477 5.558-5.536 0-3.06-2.484-5.53-5.558-5.53zm0 9.432c-2.16 0-3.916-1.746-3.916-3.896s1.755-3.896 3.916-3.896c2.16 0 3.916 1.746 3.916 3.896s-1.75 3.896-3.916 3.896zm0-6.996v2.904c0 .083.09.143.167.1l2.59-1.335c.06-.03.078-.1.05-.16-.557-.97-1.573-1.582-2.688-1.62-.06 0-.12.047-.12.112zm-3.63-2.133l-.34-.34c-.334-.332-.873-.332-1.206 0l-.406.405c-.16.158-.25.374-.25.6 0 .225.09.44.25.6l.334.332c.054.053.132.04.18-.012.197-.27.414-.524.65-.76.238-.24.496-.457.77-.654.06-.034.066-.117.018-.17zm5.45-.88v-.67c0-.47-.382-.85-.853-.85h-1.988c-.472 0-.854.38-.854.85v.688c0 .077.072.13.15.113.562-.16 1.145-.243 1.73-.242.568 0 1.13.077 1.673.225.034.01.07 0 .1-.02.027-.023.043-.057.043-.093zM41.436 16.5c0-.77.12-1.488.358-2.157.238-.67.58-1.25 1.022-1.74.444-.49.984-.876 1.62-1.154.635-.28 1.35-.42 2.144-.42.98 0 1.907.18 2.78.538l-.516 1.97c-.278-.12-.592-.22-.943-.3-.35-.08-.724-.12-1.12-.12-.94 0-1.656.296-2.146.886-.49.59-.735 1.423-.735 2.497 0 1.035.23 1.854.694 2.457.463.603 1.245.905 2.344.905.41 0 .814-.04 1.21-.12.398-.08.743-.178 1.034-.298l.337 1.99c-.265.132-.666.25-1.202.357-.546.108-1.102.16-1.658.16-.888 0-1.66-.136-2.314-.407-.656-.272-1.2-.65-1.63-1.134-.43-.485-.75-1.062-.962-1.732-.212-.67-.318-1.395-.318-2.177zm19.126-.02c0 .823-.12 1.572-.357 2.248-.24.676-.576 1.253-1.013 1.73-.437.478-.964.85-1.58 1.114-.615.266-1.294.398-2.035.398-.74 0-1.416-.132-2.026-.398-.608-.265-1.13-.636-1.568-1.113-.437-.48-.778-1.056-1.023-1.732-.246-.676-.368-1.425-.368-2.247 0-.82.123-1.567.367-2.237.244-.67.59-1.243 1.032-1.72.444-.478.97-.846 1.58-1.104.608-.26 1.277-.39 2.005-.39s1.4.13 2.016.39c.616.257 1.142.625 1.58 1.103.436.477.777 1.05 1.022 1.72.245.67.367 1.416.367 2.238zm-2.463 0c0-1.034-.223-1.852-.666-2.456-.443-.603-1.063-.905-1.857-.905s-1.414.3-1.857.904c-.443.604-.665 1.422-.665 2.457 0 1.048.222 1.877.665 2.487.444.61 1.063.915 1.857.915s1.414-.305 1.857-.915c.444-.61.665-1.44.665-2.486zm10.863-.258c0-1.087-.135-1.873-.407-2.357-.27-.484-.778-.726-1.52-.726-.264 0-.555.02-.873.06-.318.04-.556.072-.715.098v8.394h-2.403V11.628c.463-.133 1.07-.26 1.817-.378.748-.12 1.54-.18 2.373-.18.715 0 1.3.094 1.758.28.457.185.838.43 1.142.735.146-.106.33-.22.556-.338.226-.12.478-.23.756-.328.29-.104.584-.187.884-.25.31-.066.625-.1.943-.1.808 0 1.473.117 1.996.35.522.23.933.556 1.23.973.298.418.504.922.616 1.512.113.59.17 1.237.17 1.94v5.847H74.88v-5.47c0-1.087-.133-1.873-.397-2.357-.265-.484-.775-.726-1.53-.726-.384 0-.748.062-1.092.188-.344.126-.602.25-.775.368.106.332.18.683.22 1.054.04.372.058.77.058 1.194v5.748h-2.403v-5.47zm17.18 0c0-1.087-.136-1.873-.407-2.357-.272-.484-.778-.726-1.52-.726-.264 0-.556.02-.873.06-.318.04-.556.072-.715.098v8.394h-2.404V11.628c.464-.133 1.07-.26 1.818-.378.748-.12 1.54-.18 2.373-.18.715 0 1.3.094 1.758.28.457.185.837.43 1.142.735.145-.106.33-.22.556-.338.226-.12.478-.23.756-.328.288-.104.584-.187.883-.25.31-.066.625-.1.943-.1.807 0 1.473.117 1.996.35.522.23.932.556 1.23.973.298.418.503.922.616 1.512.112.59.17 1.237.17 1.94v5.847H92.06v-5.47c0-1.087-.133-1.873-.398-2.357-.264-.484-.774-.726-1.53-.726-.383 0-.747.062-1.09.188-.346.126-.604.25-.776.368.106.332.18.683.22 1.054.038.372.058.77.058 1.194v5.748h-2.403v-5.47zm19.78 5.15c-.462.12-1.065.244-1.806.37-.74.125-1.556.188-2.443.188-.834 0-1.532-.12-2.095-.358-.564-.238-1.014-.57-1.352-.994-.337-.424-.58-.932-.725-1.522-.145-.59-.218-1.236-.218-1.94V11.29h2.403v5.45c0 1.113.162 1.91.487 2.386.324.477.89.716 1.698.716.29 0 .6-.013.923-.04.325-.026.566-.06.725-.1V11.29h2.404v10.083zm3.06-9.744c.463-.133 1.066-.26 1.807-.378.742-.12 1.563-.18 2.463-.18.848 0 1.556.117 2.125.35.57.23 1.023.556 1.36.973.338.418.577.922.716 1.512.14.59.208 1.237.208 1.94v5.847h-2.403v-5.47c0-.557-.037-1.03-.11-1.422-.073-.39-.192-.71-.358-.955-.165-.245-.39-.424-.675-.537-.285-.112-.632-.17-1.043-.17-.304 0-.622.02-.953.06-.33.04-.575.074-.734.1v8.394h-2.403V11.628zm14.042 10.064h-2.404V11.29h2.405v10.402zm.258-13.445c0 .45-.146.808-.437 1.074-.292.266-.636.398-1.033.398-.41 0-.76-.132-1.053-.397-.29-.265-.436-.622-.436-1.073 0-.465.145-.83.436-1.094.292-.266.643-.398 1.053-.398.397 0 .74.132 1.033.398.29.265.437.63.437 1.094zm2.68.298l2.404-.398v3.143h3.694v2.008h-3.693v4.237c0 .835.133 1.432.397 1.79.265.358.715.537 1.35.537.438 0 .825-.046 1.163-.14.337-.092.606-.178.804-.258l.398 1.91c-.278.12-.642.242-1.092.367-.45.127-.98.19-1.59.19-.74 0-1.36-.1-1.856-.298-.496-.2-.89-.487-1.182-.865-.29-.378-.496-.836-.615-1.373-.12-.537-.18-1.15-.18-1.84v-9.01zm16.903 2.745c-1.073 3.95-2.318 7.53-3.734 10.74-.265.596-.536 1.107-.815 1.53-.278.425-.59.777-.933 1.055-.34.277-.732.483-1.152.607-.423.126-.914.19-1.47.19-.37 0-.738-.04-1.102-.12-.364-.08-.64-.166-.824-.26l.437-1.928c.476.186.947.278 1.41.278.622 0 1.11-.15 1.46-.447.35-.3.658-.76.923-1.383-.754-1.458-1.48-3.05-2.175-4.773-.694-1.725-1.313-3.555-1.856-5.49h2.563c.132.556.294 1.16.486 1.81.397 1.342.844 2.67 1.34 3.977.236.623.488 1.24.755 1.85.424-1.18.82-2.436 1.192-3.77.358-1.283.696-2.573 1.013-3.867h2.483z" fill="#FFF" />
  </g>
</svg>
