<svg viewBox="0 0 124 117" xmlns="http://www.w3.org/2000/svg"><title>InstantSearch Android</title><path d="M85.47 60.44c.212-1.2-.06-2.452-.702-3.403l-9.572-14.19c3.495-3.65 5.836-8.34 6.72-13.36C84.343 15.738 75.552 2.705 62.272.364 48.99-1.98 36.274 7.26 33.85 21.013c-2.426 13.75 6.364 26.783 19.644 29.124 4.848.855 9.896.178 14.395-1.98l9.577 14.154c.635.987 1.675 1.68 2.836 1.886 2.39.42 4.73-1.28 5.167-3.755zM53.696 85.99c.863-.863 2.043-1.358 3.19-1.378l17.115-.298c.985-4.955 3.485-9.563 7.09-13.167 9.873-9.874 25.59-10.148 35.125-.613 9.536 9.535 9.262 25.252-.612 35.126-9.874 9.874-25.59 10.148-35.126.613-3.48-3.48-5.822-8.003-6.633-12.927l-17.09.273c-1.172.046-2.336-.408-3.17-1.24-1.716-1.717-1.665-4.61.112-6.388zm-4.167-31.53c.294 1.185.11 2.45-.464 3.445l-8.56 14.824c3.742 3.396 6.404 7.91 7.637 12.857 3.378 13.55-4.482 27.162-17.566 30.425C17.492 119.27 4.162 110.94.783 97.39-2.595 83.842 5.265 70.23 18.35 66.968c4.776-1.19 9.858-.868 14.497.972l8.567-14.788c.566-1.03 1.554-1.793 2.698-2.08 2.354-.586 4.81.948 5.417 3.386zM86.817 78.37c-6.27 6.27-6.444 16.3-.39 22.355 6.055 6.054 16.084 5.88 22.353-.39 6.27-6.27 6.446-16.3.39-22.353-6.053-6.055-16.082-5.88-22.352.39zM39.475 88.605C37.33 80 28.825 74.686 20.515 76.757 12.208 78.83 7.193 87.515 9.338 96.117c2.145 8.604 10.65 13.92 18.96 11.848 8.308-2.07 13.323-10.758 11.178-19.36zm32.815-60.84c-1.54 8.73-9.655 14.627-18.087 13.14C45.77 39.417 40.16 31.102 41.7 22.37c1.54-8.732 9.655-14.627 18.088-13.14 8.432 1.486 14.04 9.802 12.502 18.534z" fill="#FFF" fill-rule="evenodd"/></svg>