<svg viewBox="0 0 127 113" xmlns="http://www.w3.org/2000/svg"><title>React InstantSearch</title><path d="M51.438 52.172l-2.907-1.68-2.565 4.442c-1.52-.485-3.137-.746-4.816-.746-8.75 0-15.84 7.098-15.84 15.852 0 8.755 7.09 15.853 15.84 15.853 8.747 0 15.837-7.098 15.837-15.853 0-4.66-2.008-8.85-5.206-11.75l2.564-4.435 1.936-3.336-5.81-3.37-1.936 3.337 2.904 1.685zm19.292 14.51c1.54-7.14 7.885-12.494 15.482-12.494 8.75 0 15.84 7.098 15.84 15.852 0 8.755-7.09 15.853-15.84 15.853-7.597 0-13.943-5.353-15.482-12.495h-5.128v-6.715h5.128zm3.256-17.848l2.904-1.686-2.58-4.444c3.19-2.9 5.193-7.085 5.193-11.738 0-8.755-7.09-15.853-15.838-15.853s-15.84 7.098-15.84 15.853c0 8.754 7.092 15.853 15.84 15.853 1.685 0 3.31-.265 4.833-.753L71.07 50.5l1.86 3.316 5.858-3.287-1.874-3.34-2.928 1.644zm-5.46 48.817c9.465 7.297 18.232 9.824 23.72 6.652 4.93-2.854 7.322-10.372 6.404-21.197l6.692-.567c1.114 13.135-2.072 23.14-9.732 27.576-8.57 4.954-20.363 1.55-32.23-7.96-11.87 9.51-23.664 12.914-32.234 7.96-7.658-4.436-10.844-14.44-9.73-27.576l6.692.567c-.918 10.825 1.475 18.343 6.4 21.195 5.49 3.174 14.26.647 23.724-6.65-2.332-2.213-4.648-4.65-6.925-7.297l5.09-4.38c2.316 2.69 4.656 5.127 6.982 7.295 2.325-2.168 4.664-4.604 6.98-7.296l5.09 4.38c-2.276 2.647-4.593 5.085-6.924 7.3zM28.243 30.393c4.176-1.31 8.71-2.38 13.53-3.183l1.103 6.623c-4.92.82-9.467 1.933-13.557 3.273.776 3.706 1.885 7.634 3.337 11.715l-6.326 2.252c-1.41-3.96-2.532-7.827-3.363-11.545-10.185 4.496-16.25 10.552-16.25 16.62 0 5.608 5.14 11.386 14.597 15.885l-2.885 6.064C6.88 72.603 0 64.87 0 56.146 0 46.57 8.354 38.27 21.75 32.733c-1.89-14.33 1.134-25.656 9.416-30.45 7.857-4.593 18.53-2.077 29.646 6l-3.948 5.433c-9.196-6.682-17.264-8.584-22.32-5.63-5.25 3.04-7.485 11.27-6.3 22.306zm69.23 6.708c-4.098-1.34-8.655-2.452-13.586-3.266l1.094-6.626c4.834.798 9.38 1.87 13.567 3.178 1.182-11.033-1.055-19.263-6.312-22.306-5.045-2.948-13.113-1.046-22.31 5.636L65.98 8.283C77.094.206 87.766-2.31 95.612 2.275c8.29 4.8 11.314 16.124 9.427 30.45 13.376 5.528 21.718 13.83 21.718 23.42 0 8.724-6.882 16.458-18.43 21.95l-2.884-6.063c9.457-4.5 14.598-10.277 14.598-15.886 0-6.08-6.053-12.138-16.218-16.626-.83 3.72-1.954 7.588-3.365 11.552l-6.328-2.25c1.453-4.084 2.562-8.014 3.34-11.722zM61.79 73.398h3.812v-6.715h-3.81v6.715zm-20.64 5.78c-5.04 0-9.124-4.09-9.124-9.138 0-5.047 4.085-9.137 9.123-9.137 5.036 0 9.122 4.09 9.122 9.137 0 5.048-4.086 9.138-9.123 9.138zm45.062 0c5.038 0 9.123-4.09 9.123-9.138 0-5.047-4.085-9.137-9.123-9.137-5.037 0-9.122 4.09-9.122 9.137 0 5.048 4.085 9.138 9.122 9.138zM63.665 40.103c-5.038 0-9.123-4.09-9.123-9.137 0-5.047 4.085-9.137 9.123-9.137 5.037 0 9.123 4.09 9.123 9.136 0 5.047-4.086 9.137-9.123 9.137z" fill="#FFF" fill-rule="evenodd"/></svg>