<svg viewBox="0 0 95 108" xmlns="http://www.w3.org/2000/svg"><title>Algolia Shopify integration</title><path d="M82.996 20.982c-.074-.542-.548-.842-.94-.875-.392-.033-8.675-.646-8.675-.646S67.63 13.75 67 13.12c-.632-.632-1.866-.44-2.345-.3l-3.22.995c-1.92-5.53-5.312-10.61-11.278-10.61-.164 0-.334.006-.504.016C47.955.974 45.854 0 44.038 0 30.14 0 23.5 17.373 21.417 26.202c-5.4 1.674-9.236 2.863-9.726 3.017-3.013.945-3.108 1.04-3.504 3.88C7.886 35.25 0 96.247 0 96.247l61.46 11.515 33.3-7.204S83.07 21.523 82.996 20.982zm-24.96-6.118l-5.2 1.61c.003-.367.004-.728.004-1.122 0-3.437-.477-6.203-1.242-8.397 3.074.386 5.122 3.883 6.44 7.91zm-10.25-7.228c.853 2.142 1.41 5.215 1.41 9.363 0 .21-.003.405-.004.6-3.383 1.05-7.058 2.186-10.74 3.327 2.067-7.982 5.944-11.836 9.333-13.29zm-4.13-3.908c.6 0 1.204.203 1.782.6-4.454 2.097-9.228 7.376-11.244 17.917l-8.49 2.63c2.36-8.04 7.97-21.147 17.95-21.147zm6.5 34.78L46.048 50.72s-3.6-1.92-8.008-1.92c-6.465 0-6.79 4.06-6.79 5.08 0 5.58 14.54 7.717 14.54 20.783 0 10.28-6.52 16.9-15.31 16.9-10.55 0-15.946-6.566-15.946-6.566l2.824-9.333s5.546 4.76 10.226 4.76c3.057 0 4.3-2.406 4.3-4.165 0-7.278-11.93-7.603-11.93-19.56 0-10.063 7.225-19.802 21.805-19.802 5.62 0 8.395 1.61 8.395 1.61z" fill="#FFF" fill-rule="evenodd"/></svg>