<svg width="51" height="52" viewBox="0 0 51 52" xmlns="http://www.w3.org/2000/svg"><title>icon-wordpress</title><path d="M26.055.81C16.215.79 6.953 6.626 2.703 15.862l11.95.028V17.2c-3.68-.442-3.355 1.47-2.834 3.497l7.845 19.663L25.43 26.84l-2.646-6.334c-.96-1.697-.982-3.58-4.916-3.402l.056-1.205 17.528.042v1.35c-2.052.12-4.523-.517-3.214 3.687l7.09 18.622 3.876-10.872c1.27-4.557.074-8.937-1.434-13.232-.84-2.88-.447-5.287 3.312-6.242C39.344 3.4 32.572.82 26.055.81zM49.895 18L38.53 47.625c3.14-2.72 6.357-3.708 10.295-11.23 2.62-6.255 2.35-12.05 1.07-18.393zm-48.395.48C.39 27.227.492 29.788 3.238 36.93c3.58 6.84 6.354 8.28 10.294 10.963L1.5 18.483zm25 11.096l-8.423 20.32c5.91 1.687 11.2 1.476 16.043-.4l-7.62-19.92z" fill="#FFF" fill-rule="evenodd"/></svg>