<svg height="200" viewBox="0 0 200 200" width="200" xmlns="http://www.w3.org/2000/svg" xmlns:xlink="http://www.w3.org/1999/xlink"><linearGradient id="a" x1="62.102327%" x2="108.19718%" y1="0%" y2="37.863576%"><stop offset="0" stop-color="#4285eb"/><stop offset="1" stop-color="#2ec7ff"/></linearGradient><linearGradient id="b" x1="69.644116%" x2="54.042898%" y1="0%" y2="108.456714%"><stop offset="0" stop-color="#29cdff"/><stop offset=".378600687" stop-color="#148eff"/><stop offset="1" stop-color="#0a60ff"/></linearGradient><linearGradient id="c" x1="69.690817%" x2="16.722898%" y1="-12.974359%" y2="117.391248%"><stop offset="0" stop-color="#fa816e"/><stop offset=".41472606" stop-color="#f74a5c"/><stop offset="1" stop-color="#f51d2c"/></linearGradient><linearGradient id="d" x1="68.127987%" x2="30.440091%" y1="-35.690574%" y2="114.942679%"><stop offset="0" stop-color="#fa8e7d"/><stop offset=".512635191" stop-color="#f74a5c"/><stop offset="1" stop-color="#f51d2c"/></linearGradient><g fill="none" fill-rule="evenodd"><g fill-rule="nonzero"><path d="m91.5880863 4.17652823-87.40812086 87.33624457c-4.69920605 4.6953418-4.69920605 12.2791122 0 16.9744542l87.40812086 87.336245c4.699206 4.695342 12.2892177 4.695342 16.9884237 0l36.648977-36.61884c4.208482-4.205021 4.208482-11.022708 0-15.227729-4.208482-4.205022-11.03178-4.205022-15.240262 0l-27.783295 27.760449c-1.169625 1.168663-2.9447691 1.168663-4.1143941 0l-69.8016279-69.74423c-1.1696249-1.168663-1.1696249-2.942347 0-4.1110102l69.8016279-69.7442295c1.169625-1.1686632 2.9447691-1.1686632 4.1143941 0l27.783295 27.7604491c4.208482 4.2050214 11.03178 4.2050214 15.240262 0s4.208482-11.0227082 0-15.2277296l-36.644937-36.61485588c-4.718501-4.59373277-12.3112882-4.55654383-16.9924637.12078231z" fill="url(#a)"/><path d="m91.5880863 4.17652823-87.40812086 87.33624457c-4.69920605 4.6953418-4.69920605 12.2791122 0 16.9744542l87.40812086 87.336245c4.699206 4.695342 12.2892177 4.695342 16.9884237 0l36.648977-36.61884c4.208482-4.205021 4.208482-11.022708 0-15.227729-4.208482-4.205022-11.03178-4.205022-15.240262 0l-27.783295 27.760449c-1.169625 1.168663-2.9447691 1.168663-4.1143941 0l-69.8016279-69.74423c-1.1696249-1.168663-1.1696249-2.942347 0-4.1110102l69.8016279-69.7442295c2.9123281-2.5106987 7.6641061-7.5960583 14.6421161-8.7854336 5.185933-.8839226 10.855567 1.0615752 17.008902 5.8364937-4.113891-4.1105132-11.166559-11.154912-21.158004-21.13319648-4.718501-4.59373277-12.3112882-4.55654383-16.9924637.12078231z" fill="url(#b)"/><path d="m153.685633 135.854579c4.208482 4.205021 11.031779 4.205021 15.240261 0l27.034083-27.011853c4.699206-4.695342 4.699206-12.2791127.00055-16.9739066l-27.26975-27.1507035c-4.218445-4.2000301-11.043909-4.1939734-15.254882.0135367-4.208482 4.2050214-4.208482 11.0227081 0 15.2277295l18.41814 18.4029944c1.169625 1.1686631 1.169625 2.9423475 0 4.1110105l-18.168402 18.153462c-4.208483 4.205021-4.208483 11.022708 0 15.22773z" fill="url(#c)"/></g><ellipse cx="100.519339" cy="100.436681" fill="url(#d)" rx="23.600193" ry="23.580786"/></g></svg>