<svg enable-background="new 219.5 311.5 174 175" height="175" viewBox="219.5 311.5 174 175" width="174" xmlns="http://www.w3.org/2000/svg"><path d="m306 317.256c-43.489 0-78.744 35.255-78.744 78.744s35.255 78.744 78.744 78.744 78.744-35.255 78.744-78.744-35.255-78.744-78.744-78.744zm53.295 93.262c.05 4.93-3.737 9.051-8.653 9.418-6.8.816-13.6 1.7-20.4 1.87-12.223.408-24.48.697-36.72.391-10.642-.272-25.109-.986-31.875-2.244s-8.959-4.301-9.01-10.03c-.091-10.2-.091-20.4 0-30.6 0-5.967 4.08-9.911 10.506-10.438 3.587-.289 7.174-.442 10.778-.527 3.281-.085 4.59 1.224 4.607 4.539v17.986 2.363h54.859c0-.663 0-1.343 0-2.006 0-6.188 0-12.376 0-18.564 0-3.06 1.326-4.437 4.403-4.318 4.352.187 8.704.357 13.005.884 4.788.665 8.388 4.704 8.5 9.537.091 10.551.091 21.131 0 31.739z" fill="#cc2a2f"/></svg>