<svg fill="none" height="33" viewBox="0 0 32 33" width="32" xmlns="http://www.w3.org/2000/svg" xmlns:xlink="http://www.w3.org/1999/xlink"><linearGradient id="a"><stop offset="0" stop-color="#1724c9"/><stop offset="1" stop-color="#1c64f2"/></linearGradient><linearGradient id="b" gradientUnits="userSpaceOnUse" x1="20.0599" x2="23.2075" xlink:href="#a" y1="24.2701" y2="13.307"/><linearGradient id="c"><stop offset="0" stop-color="#1c64f2"/><stop offset="1" stop-color="#0092ff"/></linearGradient><linearGradient id="d" gradientUnits="userSpaceOnUse" x1="27.3093" x2="19.0297" xlink:href="#c" y1="10.9001" y2="2.64962"/><linearGradient id="e"><stop offset="0" stop-color="#0092ff"/><stop offset="1" stop-color="#45b2ff"/></linearGradient><linearGradient id="f" gradientUnits="userSpaceOnUse" x1="16.1645" x2="3.67432" xlink:href="#e" y1="5.52115" y2="6.3104"/><linearGradient id="g" gradientUnits="userSpaceOnUse" x1="15.3198" x2="26.5366" xlink:href="#c" y1="29.1626" y2="26.1359"/><linearGradient id="h" gradientUnits="userSpaceOnUse" x1="7.26881" x2="15.2325" xlink:href="#a" y1="16.1827" y2="24.4347"/><linearGradient id="i" gradientUnits="userSpaceOnUse" x1="25.4505" x2="31.007" xlink:href="#e" y1="22.1356" y2="10.9345"/><linearGradient id="j" gradientUnits="userSpaceOnUse" x1="5.36387" x2="2.39054" xlink:href="#c" y1="9.63067" y2="20.8063"/><linearGradient id="k" gradientUnits="userSpaceOnUse" x1="20.5431" x2="9.67768" xlink:href="#a" y1="9.09912" y2="11.8044"/><linearGradient id="l" gradientUnits="userSpaceOnUse" x1="6.40679" x2="13.3326" xlink:href="#e" y1="21.8566" y2="32.2745"/><path d="m24.5194 13.4429c-.0741.5104-.4107 1.2039-.7968 1.8068-.4872.7608-1.2604 1.2936-2.1452 1.4786l-3.8977.8151c-.6264.131-1.1945.4588-1.621.9356l-2.5557 2.8567c-.4803.5368-.816.4088-.816-.3113-.0058.0267-1.2684 3.2828 2.0776 5.2127 1.2856.7416 3.1363.4751 4.4219-.2664l6.8118-3.9291c2.5475-1.4694 4.3462-3.9553 4.9441-6.8327.0236-.1139.0419-.2281.0616-.3422z" fill="url(#b)"/><path d="m22.7528 9.51774c1.2856.74156 1.8109 1.84556 1.8109 3.32866 0 .2013-.0158.4002-.0443.5961l2.7447 1.179 3.7399.2448c.4789-2.7715-.4596-5.62428-2.142-7.89185-1.2661-1.70645-2.8953-3.18731-4.8539-4.31707-1.5911-.91772-3.2445-1.52237-4.9056-1.854157l-1.8664 2.417007-.5896 2.77536z" fill="url(#d)"/><path d="m.783597 11.5518c-.000698.0022.001235.0028.001963.0006.144023-.4319.32462-.9139.55008-1.4287 1.1777-2.6894 3.44722-4.48308 6.23928-5.39762 2.79208-.91452 5.84058-.59396 8.38518.8738l.6864.3959 2.456-5.192368c-7.8115-1.560177-15.79522 3.029118-18.308972 10.718288-.001201.0037-.005571.0165-.009931.0301z" fill="url(#f)"/><path d="m18.9199 25.9704c-1.2856.7416-2.8696.7416-4.1552 0-.1745-.1007-.339-.2138-.4946-.3364l-2.261 1.5545-1.9488 3.1491c2.163 1.8001 4.9718 2.3788 7.7787 2.0569 2.1123-.2422 4.2105-.9113 6.1692-2.0411 1.591-.9177 2.9419-2.0459 4.06-3.3173l-1.1619-2.8233-1.8801-1.7646z" fill="url(#g)"/><path d="m14.2701 25.6341c-.9905-.7802-1.5829-1.9769-1.5829-3.2587v-.1278-10.6752c0-.6037.1778-.7063.7012-.4044-.8061-.465-2.6681-2.06099-4.96722-.7349-1.28561.7416-2.34428 2.3785-2.34428 3.8615v7.8583c0 2.9388 1.52216 6.0044 3.71758 7.9604.08684.0773.17674.1503.26582.2244z" fill="url(#h)"/><path d="m27.9105 5.8123c-.0015-.0017-.003-.00033-.0015.00138.3024.3406.6299.73782.9635 1.19031 1.7424 2.36366 2.3934 5.35731 1.7902 8.23031-.6033 2.8729-2.4054 5.3503-4.9501 6.818l-.6864.3959 3.0421 4.5879c5.2582-5.9785 5.2718-15.1807-.1367-21.20016-.0025-.00288-.0115-.01307-.0211-.02364z" fill="url(#i)"/><path d="m6.34355 14.2944c-.00001-1.4831.79197-2.8536 2.07758-3.5951.17452-.1007.35488-.1864.53889-.2598l-.21698-2.73347-1.52442-3.12742c-2.64191.97144-4.77892 2.97905-5.90334 5.56849-.846183 1.9486-1.31527021 4.0987-1.31528 6.3581 0 1.8355.302549 3.5683.845533 5.1715l3.028377.4063 2.46964-.7443z" fill="url(#j)"/><path d="m8.96003 10.4395c1.17157-.46686 2.50517-.3811 3.61627.2598l.1108.0639 8.8954 5.1309c.624.3599.5673.7141-.138.8616l.5132-.1073c.6752-.1412 1.2921-.4863 1.7639-.9892.8111-.8646 1.1089-1.9077 1.1089-2.8129-.0001-1.4831-.792-2.85356-2.0776-3.5951l-6.8119-3.92911c-2.5475-1.46942-5.6016-1.78275-8.3949-.86126-.1105.03644-.21866.07777-.32747.11778z" fill="url(#k)"/><path d="m19.3222 32.1523c.0023-.0005.0019-.0025-.0004-.002-.4465.0914-.9545.1761-1.5135.2385-2.9202.3257-5.8407-.6078-8.02954-2.5663-2.18877-1.9584-3.43516-4.7563-3.43516-7.6918l-.00001-.7918-5.498009.338c2.553349 7.5387 10.523419 12.1516 18.445619 10.4819.0038-.0008.0171-.0035.031-.0065z" fill="url(#l)"/></svg>