<svg xmlns="http://www.w3.org/2000/svg" width="64" height="64"><rect width="100%" height="100%" fill="#1565c0" rx="12"/><path fill="#fff" d="M26.595732 51.252632c-.288008 0-.416012-.160004-.416012-.448013V35.764122c-.576019 0-1.056036-.416008-1.504049-1.216034-.461419-.829819-.683012-1.771591-.640021-2.720093l.704022-.160003c.224006 0 .480016-.064003.704023-.128006l.736025-.160004c.007996-3.904842.072004-7.809372.192005-11.712383-.894277.111694-1.790445.207714-2.688087.288009-.180109-.183345-.321576-.400989-.416014-.640022-.296312-.763859-.427197-1.581898-.384012-2.400078 0-.512016.096002-.864025.288009-1.120037.790934-.140892 1.580338-.290237 2.368079-.448013l1.408044-.192009c.749773-.692867 1.602637-1.265038 2.528082-1.696053.416016-.192005.704024-.192005.864031 0 .160004.192006.256006.608021.320009 1.216038l2.528084-.192005c3.029774-.060146 6.059239-.134815 9.088295-.224007l2.208073.064003c.256008.031998.448013.224003.608021.576016.128006.320011.192005.768028.128006 1.280044-.067154.601761-.240513 1.18684-.512017 1.728058-.288009.640019-.704025 1.216038-1.280044 1.792057-1.595051-.249306-3.195507-.462703-4.800156-.640022-.864029-.032002-1.664055-.063999-2.432083 0-1.826668-.017632-3.653061.057133-5.472178.224007l-.064001 5.056167-.096004 6.36821 1.312042-.128006 1.312046-.064003 3.392113-.192005c1.088035-.064003 2.048065-.032002 2.880089.063999.832031.128006 1.440048.352013 1.85606.768028.416015.384011.51202.96003.320015 1.824059l-.704026 2.336079c-.063999-.160008-.224002-.320012-.512016-.416016-.728489-.242313-1.478653-.41378-2.24007-.512016-1.120041-.128003-2.36808-.160008-3.744126-.064003-1.344043.128002-2.656086.256008-3.904127.448017-.001333 3.834499.158814 7.66735.480015 11.488373l.128006 1.888061c.032.288014 0 .512016-.096006.672024l-.576016.672024c-.979376 1.095466-2.370943 1.733265-3.840128 1.760055Zm17.472574-8.160267c-.076592-.216732-.162003-.430252-.256008-.640022-.281288-.930862-.484665-1.883511-.608021-2.848095 0-.320007 0-.608017.064003-.864025 1.948578-1.556759 3.879433-3.135578 5.792187-4.736157.800026-.640022 1.472049-1.248039 2.048069-1.792057-1.493939-1.181167-3.042355-2.291748-4.640152-3.328109l-3.296108-2.14407c-.096005-.22401-.160004-.480019-.160004-.736023-.035427-.543442-.035427-1.088612 0-1.632057.031998-.320007.096004-.576016.192005-.832024.064003-.22401.160004-.448013.28801-.640022.096-.192005.256008-.320007.448013-.480015.320011.224007.640022.512016 1.088036.800026l1.248043.960034c2.566261 1.99826 5.0844 4.057586 7.552246 6.1762.128002.096001.192005.320012.224006.704022v1.216038l-.224006 1.280044c-.049851.295979-.158676.578926-.320011.832028-1.626084 1.869312-3.391171 3.613006-5.280171 5.216167-1.342472 1.214478-2.730163 2.378006-4.160137 3.488117ZM20.131521 22.419689c.160006.128002.320011.320011.416014.480015l.256008.640022c.096005.256008.160006.544018.192007.832024.056315.542564.056315 1.089496 0 1.632057-.023481.248295-.06628.494377-.128006.736023-2.717882 1.72118-5.375552 3.535652-7.96826 5.440178 2.542111 2.283276 5.168 4.471516 7.87226 6.560215.096.320011.096.608021.096.960033 0 .320008-.064001.640019-.128002.96003-.150198.780922-.353338 1.550724-.608021 2.304073-.031999.160008-.096002.192009-.128004.128006-3.399174-2.615135-6.558447-5.528095-9.440308-8.704284-.161335-.253102-.27016-.536049-.320011-.832028-.206934-.814819-.282553-1.657436-.224007-2.496082 0-.352009.064002-.608021.224007-.704022.951573-.899299 1.94469-1.753593 2.976098-2.560085 1.470721-1.272976 2.997631-2.479557 4.57615-3.616115l1.216038-.960034 1.152039-.800026Z"/></svg>
