<svg height="453.68" viewBox="0 0 492.509 453.68" width="492.509" xmlns="http://www.w3.org/2000/svg"><g fill="none" fill-rule="evenodd"><path d="m491.589 259.398-27.559-84.814-54.617-168.098c-2.81-8.648-15.045-8.648-17.856 0l-54.619 168.098h-181.366l-54.62-168.098c-2.81-8.648-15.046-8.648-17.856 0l-54.618 168.098-27.557 84.814a18.775 18.775 0 0 0 6.82 20.992l238.513 173.29 238.516-173.29a18.777 18.777 0 0 0 6.82-20.992" fill="#fc6d26"/><path d="m246.255 453.68 90.684-279.096h-181.369z" fill="#e24329"/><path d="m246.255 453.68-90.685-279.097h-127.091z" fill="#fc6d26"/><path d="m28.479 174.584-27.559 84.816a18.773 18.773 0 0 0 6.821 20.99l238.514 173.29z" fill="#fca326"/><path d="m28.479 174.584h127.091l-54.618-168.097c-2.81-8.65-15.047-8.65-17.856 0z" fill="#e24329"/><path d="m246.255 453.68 90.684-279.096h127.091z" fill="#fc6d26"/><path d="m464.03 174.584 27.56 84.815a18.773 18.773 0 0 1 -6.822 20.99l-238.513 173.291z" fill="#fca326"/><path d="m464.03 174.584h-127.09l54.617-168.097c2.811-8.65 15.047-8.65 17.856 0z" fill="#e24329"/></g></svg>