<?xml version="1.0" encoding="UTF-8" standalone="no"?><!DOCTYPE svg PUBLIC "-//W3C//DTD SVG 1.1//EN" "http://www.w3.org/Graphics/SVG/1.1/DTD/svg11.dtd"><svg width="100%" height="100%" viewBox="0 0 352 352" version="1.1" xmlns="http://www.w3.org/2000/svg" xmlns:xlink="http://www.w3.org/1999/xlink" xml:space="preserve" xmlns:serif="http://www.serif.com/" style="fill-rule:evenodd;clip-rule:evenodd;stroke-linejoin:round;stroke-miterlimit:2;"><path d="M102.753,37.194c2.356,8.791 6.046,16.869 10.794,24.073c-2.32,6.214 -3.737,12.869 -4.091,19.805l-0.046,-0.072l-14.5,91l0.147,-0.168c-1.108,5.39 -1.689,10.972 -1.689,16.689c-0,19.68 6.891,37.75 18.391,51.93l62.99,110.02l-2.792,-162.902c-5.525,-1.499 -9.589,-6.549 -9.589,-12.548c0,-7.18 5.82,-13 13,-13c7.18,0 13,5.82 13,13c0,5.673 -3.633,10.497 -8.7,12.272l-2.8,163.377l63.09,-110.195c10.033,-12.362 16.562,-27.685 18.074,-44.454c34.461,0.066 62.378,28.023 62.378,62.5c0,34.518 -27.982,62.5 -62.5,62.5c-19.182,0 -36.346,-8.642 -47.811,-22.244l-10.424,18.181c14.921,14.87 35.504,24.063 58.235,24.063c45.563,0 82.5,-36.936 82.5,-82.5c0,-45.563 -36.937,-82.5 -82.5,-82.5l-0.243,0l-0.127,0.001l-0.113,0c-0.131,-0.865 -0.276,-1.725 -0.434,-2.581l-14.583,-89.441l-0.044,0.067c-0.054,-8.103 -1.557,-15.862 -4.263,-23.03c4.675,-7.146 8.312,-15.145 10.643,-23.843c3.367,-12.567 3.643,-25.234 1.294,-37.194c-19.641,0.805 -38.189,8.653 -52.395,21.669c-6.823,-2.364 -14.15,-3.648 -21.777,-3.648c-7.691,0 -15.077,1.306 -21.949,3.707c-14.214,-13.051 -32.789,-20.922 -52.461,-21.728c-2.348,11.96 -2.072,24.627 1.295,37.194Zm15.321,229.724c1.778,-0.208 3.552,-0.373 5.321,-0.497l13.321,23.124c-6.482,-0.596 -13.13,-0.66 -19.881,-0.146c-28.926,4.724 -52.672,22.755 -65.648,47.029l-0.064,0.007c-2.165,7.755 -8.831,13.817 -17.322,14.807c-11.209,1.306 -21.355,-6.721 -22.662,-17.931c-0.502,-4.312 0.377,-8.467 2.287,-12.022l-0.02,-0.028l0.132,-0.177c1.07,-1.939 2.449,-3.694 4.078,-5.192c21.064,-25.358 53.483,-43.5 91.346,-47.912c1.629,-0.19 3.254,-0.353 4.874,-0.489c1.403,-0.217 2.816,-0.408 4.238,-0.573Z"/></svg>