<svg height="2500" preserveAspectRatio="xMidYMid" viewBox="0 0 256 256" width="2500" xmlns="http://www.w3.org/2000/svg"><g fill-rule="evenodd"><path d="m128 256c70.692 0 128-57.308 128-128s-57.308-128-128-128-128 57.308-128 128 57.308 128 128 128zm0-19.2c-60.089 0-108.8-48.711-108.8-108.8s48.711-108.8 108.8-108.8 108.8 48.711 108.8 108.8-48.711 108.8-108.8 108.8z" fill="#376660"/><path d="m128 230.4c56.554 0 102.4-45.846 102.4-102.4s-45.846-102.4-102.4-102.4-102.4 45.846-102.4 102.4 45.846 102.4 102.4 102.4zm0-198.4c-3.535 0-6.4 2.88-6.4 6.444v83.156h-44.819a6.375 6.375 0 0 0 -6.381 6.4c0 3.535 2.916 6.4 6.37 6.4h57.63v-95.994a6.387 6.387 0 0 0 -6.4-6.406z" fill="#529990"/></g></svg>