<svg height="300" viewBox="0 0 294 300" width="294" xmlns="http://www.w3.org/2000/svg"><path d="m218 145v.3.4.3.3l.1.4v.3.3l.1.4v.3l.1.3.1.4v.3l.1.4.1.3.1.4v.4l.1.3.1.4.1.4.1.3.2.4.1.4.1.4.1.4.1.4.2.4.1.5.1.4.2.4.1.4.2.5.1.4.2.5.1.5.2.5.2.4.1.5.2.5.2.5.1.6.2.5.1.5.2.6.2.5.1.6.2.6.2.5.1.6.2.6.2.6.1.7.2.6.1.6.2.7.1.6.2.7.1.7.1.7.2.7.1.7.1.7.1.8.2.7.1.8.1.7.1.8v.8l.1.8.1.8.1.8v.8l.1.8v.9.8l.1.9v.9.8.9l-.1.9v.9.9l-.1 1v.9l-.1.9-.1 1-.1 1-.1.9-.1 1-.1 1-.2 1-.2.9-.1 1-.2 1.1-.2 1-.2 1-.3 1-.2 1-.3 1.1-.3 1-.3 1.1-.3 1-.3 1.1-.4 1-.3 1.1-.4 1.1-.4 1-.4 1.1-.4 1.1-.5 1-.4 1.1-.5 1.1-.5 1.1-.5 1-.6 1.1-.5 1.1-.6 1.1-.6 1.1-.6 1-.6 1.1-.7 1.1-.6 1.1-.7 1-.7 1.1-.7 1.1-.8 1-.7 1.1-.8 1-.8 1.1-.8 1-.9 1.1-.8 1-.9 1-.9 1-.9 1-.9 1.1-1 .9-.9 1-1 1-1 1-1.1.9-1 1-1.1.9-1.1 1-1.1.9-1.1.9-1.1.9-1.2.9-1.2.8-1.1.9-1.3.8-1.2.9-1.2.8-1.3.8-1.3.8-1.3.8-1.3.7-1.3.8-1.4.7-1.3.7-1.4.7-1.4.7-1.4.6-1.4.7-1.4.6-1.5.6-1.5.6-1.4.5-1.5.6-1.5.5-1.6.5-1.5.5-1.5.4-1.6.5-1.6.4-1.5.4-1.6.4-1.6.3-1.6.4-1.6.3-1.7.3-1.6.2-1.7.3-1.6.2-1.7.2-1.6.2-1.7.1-1.7.1-1.7.1-1.7.1h-1.7l-1.7.1h-1.7l-1.7-.1h-1.7l-1.8-.1-1.7-.1-1.7-.1-1.8-.2-1.7-.2-1.7-.2-1.8-.2-1.7-.3-1.7-.3-1.8-.3-1.7-.3-1.7-.4-1.7-.4-1.8-.4-1.7-.4-1.7-.5-1.7-.5-1.7-.5-1.7-.6-1.7-.5-1.7-.6-1.7-.7-1.7-.6-1.7-.7-1.6-.7-1.7-.7-1.6-.8-1.7-.8-1.6-.8-1.6-.8-1.6-.9-1.6-.9-1.6-.9-1.6-.9-1.6-1-1.5-1-1.6-1-1.5-1-1.5-1.1-1.5-1-1.5-1.1-1.4-1.2-1.5-1.1-1.4-1.2-1.4-1.2-1.4-1.2-1.4-1.2-1.4-1.3-1.3-1.3-1.4-1.3-1.3-1.3-1.3-1.3-1.2-1.4-1.3-1.4-1.2-1.4-1.2-1.4-1.2-1.4-1.2-1.5-1.1-1.4-1.2-1.5-1.1-1.5-1.1-1.6-1-1.5-1-1.6-1.1-1.5-1-1.6-.9-1.6-1-1.6-.9-1.7-.9-1.6-.8-1.7-.9-1.6-.8-1.7-.8-1.7-.8-1.7-.7-1.7-.7-1.7-.7-1.8-.7-1.7-.6-1.8-.6-1.7-.6-1.8-.6-1.8-.5-1.8-.5-1.8-.5-1.8-.4-1.8-.5-1.8-.3-1.8-.4-1.8-.4-1.8-.3-1.8-.3-1.9-.2-1.8-.2-1.8-.2-1.9-.2-1.8-.2-1.8-.1-1.9-.1-1.8v-1.8l-.1-1.9v-1.8-1.8l.1-1.9v-1.8l.1-1.8.2-1.8.1-1.8.2-1.8.2-1.8.2-1.8.3-1.8.3-1.8.3-1.8.3-1.7.4-1.8.4-1.7.4-1.8.4-1.7.5-1.7.5-1.7.5-1.7.5-1.7.6-1.7.5-1.7.6-1.6.7-1.6.6-1.7.7-1.6.7-1.6.7-1.6.7-1.5.8-1.6.8-1.5.8-1.6.8-1.5.9-1.5.8-1.4.9-1.5.9-1.4.9-1.5.9-1.4 1-1.4 1-1.3 1-1.4 1-1.3 1-1.3 1-1.3 1.1-1.3 1.1-1.3 1-1.2 1.1-1.2 1.2-1.2 1.1-1.2 1.1-1.2 1.2-1.1 1.1-1.1 1.2-1.1 1.2-1.1 1.2-1.1 1.2-1 1.2-1 1.3-1 1.2-1 1.3-.9 1.2-.9 1.3-.9 1.3-.9 1.3-.9 1.2-.8 1.3-.8 1.3-.8 1.4-.8 1.3-.7 1.3-.8 1.3-.7 1.3-.6 1.4-.7 1.3-.6 1.3-.7 1.4-.6 1.3-.5 1.4-.6 1.3-.5 1.4-.5 1.3-.5 1.4-.5 1.3-.4 1.3-.4 1.4-.4 1.3-.4 1.4-.4 1.3-.3 1.3-.3 1.4-.3 1.3-.3 1.3-.3 1.4-.2 1.3-.2 1.3-.2 1.3-.2 1.3-.2 1.3-.1 1.3-.1 1.3-.1 1.3-.1 1.2-.1h1.3l1.3-.1h1.2 1.3l1.2.1h1.2 1.2l1.2.1 1.2.1 1.2.1 1.2.1 1.2.1 1.1.2 1.2.1 1.1.2 1.2.2 1.1.2 1.1.2 1.1.2 1.1.3 1 .2 1.1.3 1 .2 1.1.3 1 .3 1 .3 1 .3 1 .4 1 .3.9.3 1 .4.9.3.9.4.9.4.9.4.9.4.9.4.9.4.8.4.8.4.9.4.8.4.8.5.7.4.8.4.8.5.7.4.7.5.8.4.7.5.6.5.7.4.7.5.6.4.7.5.6.5.6.4.6.5.6.5.6.4.6.5.5.5.6.4.5.5.6.5.5.4.5.5.5.5.5.4.4.5.5.4.5.5.4.4.4.4.5.5.4.4.4.4.4.5.4.4.4.4.4.4.3.4.4.4.3.4.4.4.3.4.4.3.3.4.3.4.3.3.4.4.3.4.3.3.3.3.3.4.3.3.3.3.2.3.3.3.3.3.3.3.3.3.2.3.3.3.3.2.3.3.2.2.3.3.3.2.2.3.3.2.3.2.2.2.3.2.3.2.2.2.3.2.3.2.3.2.2.2.3.1.3.2.3.2.3.1.3.2.3.1.3.2.3.1.3.1.3.2.3.1.4.1.3.1.3.1.4.2.3.1.4.1.3.1.4.1.4.1.4.1.3.1.4.1.4.1.4.1h.4l.5.1.4.1.4.1.5.1.4.1.5.1.4.1.5.1.5.1.5.1.5.1.5.1.5.1.5.1.5.1.6.1.5.2.6.1.5.1.6.2.5.1.6.1.6.2.6.2.6.1.6.2.7.2.6.1.6.2.7.2.6.2.7.3.6.2.7.2.7.3.7.2.6.3.7.2.7.3.7.3.8.3.7.3.7.3.7.4.8.3.7.4.7.3.8.4.7.4.8.4.8.4.7.4.8.5.7.4.8.5.8.5.8.5.7.5.8.5.8.6.8.5.8.6.7.6.8.6.8.6.8.6.8.6.7.7.8.7.8.7.8.7.7.7.8.7.8.8.7.8.8.7.7.8.8.9.7.8.8.8.7.9.7.9.7.9.7.9.7.9.7 1 .7.9.7 1 .7 1 .7 1 .6 1 .7 1.1.6 1 .6 1.1.6 1.1.6 1.1.6 1.1.6 1.1.6 1.2.5 1.2.6 1.1.5 1.2.5 1.2.5 1.3.5 1.2.5 1.2.4 1.3.5 1.3.4 1.3.4 1.3.4 1.3.4 1.3.4 1.3.3 1.4.3 1.4.3 1.3.3 1.4.3 1.4.3 1.4.2 1.4.2 1.5.2 1.4.2 1.4.2 1.5.1 1.5.1 1.4.1 1.5.1 1.5.1 1.5v1.5 1.5 1.5 1.6l-.1 1.5-.1 1.5-.1 1.6-.1 1.5-.1 1.6-.2 1.5-.2 1.6-.2 1.5-.2 1.6-.3 1.6-.3 1.5-.3 1.6-.3 1.6-.4 1.5-.4 1.6-.4 1.6-.4 1.5-.4 1.6-.5 1.6-.5 1.5-.5 1.6-.6 1.5-.6 1.6-.6 1.5-.6 1.6-.6 1.5-.7 1.6-.7 1.5-.7 1.5-.8 1.5-.8 1.5-.7 1.5-.9 1.5-.8 1.5-.9 1.5-.9 1.5-.9 1.4-.9 1.5-1 1.4-1 1.4-1 1.5-1 1.4-1.1 1.3-1 1.4-1.1 1.4-1.2 1.3-1.1 1.4-1.2 1.3-1.2 1.3-1.2 1.3-1.2 1.3-1.3 1.3-1.3 1.2-1.2 1.2-1.4 1.2-1.3 1.2-1.4 1.2-1.3 1.2-1.4 1.1-1.4 1.1-1.5 1.1-1.4 1.1-1.5 1.1-1.5 1-1.5 1-1.5 1-1.6 1-1.5 1-1.6.9-1.6.9-1.6.9-1.6.9-1.6.8-1.7.8-1.6.8-1.7.8-1.7.7-1.7.8-1.7.6-1.7.7-1.8.7-1.7.6-1.8.6-1.7.6-1.8.5-1.8.5-1.8.5-1.8.5-1.8.4-1.8.4-1.8.4-1.9.4-1.8.3-1.8.3-1.9.3-1.8.2-1.9.2-1.9.2-1.8.2-1.9.1-1.8.1-1.9.1-1.9.1h-1.9-1.8-1.9l-1.9-.1-1.8-.1-1.9-.1-1.9-.1-1.8-.2-1.9-.2-1.8-.2-1.9-.3-1.8-.3-1.9-.3-1.8-.3-1.8-.4-1.9-.4-1.8-.4-1.8-.4-1.8-.5-1.8-.5-1.8-.5-1.7-.6-1.8-.5-1.7-.6-1.8-.7-1.7-.6-1.7-.7-1.8-.7-1.6-.7-1.7-.8-1.7-.7-1.7-.8-1.6-.9-1.6-.8-1.7-.9-1.6-.9-1.5-.9-1.6-.9-1.6-1-1.5-1-1.5-1-1.5-1-1.5-1-1.5-1.1-1.4-1.1-1.4-1.1-1.5-1.1-1.3-1.2-1.4-1.1-1.4-1.2-1.3-1.2-1.3-1.2-1.3-1.3-1.3-1.2-1.2-1.3-1.3-1.3-1.2-1.2-1.2-1.4-1.1-1.3-1.2-1.3-1.1-1.4-1.1-1.4-1-1.3-1.1-1.4-1-1.4-1-1.5-1-1.4-1-1.4-.9-1.5-.9-1.4-.9-1.5-.9-1.5-.8-1.5-.8-1.5-.8-1.5-.8-1.5-.7-1.5-.7-1.5-.7-1.6-.7-1.5-.6-1.5-.7-1.6-.5-1.5-.6-1.6-.6-1.5-.5-1.6-.5-1.6-.5-1.5-.4-1.6-.4-1.6-.4-1.5-.4-1.6-.3-1.6-.4-1.5-.3-1.6-.3-1.6-.2-1.5-.2-1.6-.3-1.5-.1-1.6-.2-1.5-.1-1.6-.2-1.5v-1.6l-.1-1.5-.1-1.5v-1.6-1.5-1.5l.1-1.5v-1.5l.1-1.5.1-1.5.1-1.4.2-1.5.1-1.4.2-1.5.2-1.4.2-1.5.3-1.4.2-1.4.3-1.4.3-1.4.3-1.3.4-1.4.3-1.3.4-1.4.4-1.3.4-1.3.4-1.3.4-1.3.5-1.3.4-1.2.5-1.3.5-1.2.5-1.2.5-1.2.5-1.2.6-1.2.5-1.1.6-1.2.6-1.1.6-1.1.6-1.1.6-1.1.6-1.1.7-1 .6-1.1.7-1 .7-1 .6-1 .7-1 .7-.9.7-1 .7-.9.7-.9.7-.9.8-.9.7-.8.7-.9.8-.8.7-.8.8-.8.7-.8.8-.8.8-.7.7-.8.8-.7.8-.7.7-.7.8-.6.8-.7.8-.6.8-.6.7-.7.8-.6.8-.5.8-.6.8-.5.7-.6.8-.5.8-.5.8-.5.7-.5.8-.5.8-.4.7-.4.8-.5.8-.4.7-.4.8-.4.7-.4.8-.3.7-.4.7-.3.8-.3.7-.4.7-.3.7-.3.7-.2.7-.3.7-.3.7-.2.7-.3.6-.2.7-.3.7-.2.6-.2.7-.2.6-.2.6-.2.7-.2.6-.1.6-.2.6-.2.6-.1.6-.2.6-.1.5-.2.6-.1.6-.1.5-.2.6-.1.5-.1.5-.1.5-.1.5-.1.5-.1.5-.1.5-.1.5-.1.5-.1.4-.1.5-.1.4-.1.5-.1.4-.1.4-.1.4-.1.4-.1.5-.1.3-.1h.4l.4-.1.4-.1.4-.1.3-.1.4-.1.3-.2.4-.1.3-.1.4-.1.3-.1.3-.1.3-.2.4-.1.3-.1.3-.2.3-.1.3-.1.3-.2.3-.2.2-.1.3-.2.3-.2.3-.1.3-.2.2-.2.3-.2.3-.2.3-.2.2-.2.3-.2.3-.3.2-.2.3-.2.3-.3.2-.2.3-.3.3-.2.2-.3.3-.3.3-.3.3-.2.2-.3.3-.3.3-.3.3-.4.3-.3.3-.3.3-.3.3-.4.3-.3.3-.4.3-.3.3-.4.4-.4.3-.3.3-.4.4-.4.3-.4.4-.4.4-.4.3-.4.4-.4.4-.4.4-.4.4-.5.4-.4.4-.4.5-.5.4-.4.4-.4.5-.5.5-.4.4-.5.5-.4.5-.5.5-.5.5-.4.6-.5.5-.4.6-.5.5-.5.6-.4.6-.5.6-.5.6-.4.6-.5.6-.5.7-.4.6-.5.7-.5.7-.4.7-.5.7-.5.7-.4.7-.5.8-.4.7-.4.8-.5.8-.4.8-.5.8-.4.8-.4.9-.4.8-.4.9-.4.9-.4.8-.4.9-.4 1-.4.9-.3.9-.4 1-.3.9-.4 1-.3 1-.3 1-.3 1-.3 1-.3 1.1-.3 1-.3 1.1-.2 1.1-.3 1.1-.2 1-.2 1.2-.3 1.1-.2 1.1-.1 1.1-.2 1.2-.2 1.2-.1 1.1-.1 1.2-.1 1.2-.1 1.2-.1 1.2-.1h1.2l1.3-.1h1.2 1.2l1.3.1h1.3 1.2l1.3.1 1.3.1 1.3.1 1.3.1 1.3.2 1.3.1 1.3.2 1.3.2 1.3.2 1.3.3 1.4.2 1.3.3 1.3.3 1.4.4 1.3.3 1.3.4 1.4.3 1.3.4 1.4.5 1.3.4 1.4.5 1.3.5 1.4.5 1.3.5 1.4.6 1.3.6 1.3.6 1.4.6 1.3.6 1.3.7 1.4.7 1.3.7 1.3.7 1.3.8 1.3.7 1.3.8 1.3.9 1.3.8 1.3.9 1.3.9 1.2.9 1.3.9 1.2.9 1.3 1 1.2 1 1.2 1 1.2 1.1 1.2 1 1.2 1.1 1.2 1.1 1.2 1.1 1.1 1.2 1.1 1.1 1.2 1.2 1.1 1.2 1.1 1.2 1.1 1.3 1 1.2 1.1 1.3 1 1.3 1 1.3 1 1.4 1 1.3 1 1.4.9 1.4 1 1.4.9 1.5.9 1.4.9 1.5.8 1.4.9 1.5.8 1.6.8 1.5.7 1.5.8 1.6.7 1.6.8 1.5.6 1.6.7 1.7.7 1.6.6 1.6.6 1.7.6 1.7.5 1.6.5 1.7.5 1.7.5 1.7.5 1.8.4 1.7.4 1.7.4 1.8.4 1.7.3 1.8.3 1.8.3 1.8.2 1.7.2 1.8.2 1.8.2 1.8.2 1.9.1 1.8.1 1.8v1.8l.1 1.8v1.9 1.8l-.1 1.8v1.9l-.1 1.8-.2 1.8-.1 1.9-.2 1.8-.2 1.8-.2 1.9-.3 1.8-.3 1.8-.3 1.9-.4 1.8-.3 1.8-.4 1.8-.5 1.8-.4 1.8-.5 1.8-.5 1.8-.5 1.8-.6 1.8-.6 1.7-.6 1.8-.7 1.7-.6 1.8-.7 1.7-.7 1.7-.8 1.8-.8 1.7-.8 1.6-.8 1.7-.8 1.7-.9 1.6-.9 1.7-.9 1.6-1 1.6-.9 1.6-1 1.6-1.1 1.6-1 1.5-1.1 1.6-1.1 1.5-1.1 1.5-1.1 1.5-1.1 1.4-1.2 1.5-1.2 1.4-1.2 1.4-1.3 1.4-1.2 1.4-1.3 1.4-1.3 1.3-1.3 1.3-1.3 1.3-1.4 1.3-1.4 1.2-1.4 1.3-1.4 1.2-1.4 1.2-1.4 1.1-1.5 1.2-1.4 1.1-1.5 1.1-1.5 1.1-1.5 1-1.6 1-1.5 1-1.6 1-1.5 1-1.6.9-1.6.9-1.6.9-1.6.8-1.6.9-1.7.8-1.6.7-1.6.8-1.7.7-1.7.7-1.6.7-1.7.7-1.7.6-1.7.6-1.7.5-1.7.6-1.7.5-1.7.5-1.8.5-1.7.4-1.7.4-1.7.4-1.8.4-1.7.3-1.7.3-1.8.3-1.7.2-1.7.3-1.8.2-1.7.2-1.7.1-1.8.1-1.7.1-1.7.1h-1.7l-1.7.1h-1.7l-1.8-.1h-1.7l-1.6-.1-1.7-.1-1.7-.1-1.7-.2-1.7-.1-1.6-.2-1.7-.3-1.6-.2-1.7-.3-1.6-.3-1.6-.3-1.6-.3-1.6-.4-1.6-.4-1.6-.4-1.5-.4-1.6-.4-1.5-.5-1.6-.5-1.5-.5-1.5-.5-1.5-.6-1.4-.6-1.5-.5-1.4-.6-1.5-.7-1.4-.6-1.4-.7-1.4-.7-1.4-.7-1.3-.7-1.4-.7-1.3-.7-1.3-.8-1.3-.8-1.3-.8-1.2-.8-1.3-.8-1.2-.8-1.2-.9-1.2-.8-1.2-.9-1.1-.9-1.1-.9-1.2-.9-1.1-.9-1-1-1.1-.9-1-.9-1.1-1-1-1-1-1-.9-1-1-1-.9-1-.9-1-.9-1-.9-1-.8-1-.9-1.1-.8-1-.8-1.1-.7-1-.8-1.1-.7-1-.7-1.1-.7-1.1-.7-1.1-.7-1-.6-1.1-.6-1.1-.7-1.1-.5-1-.6-1.1-.6-1.1-.5-1.1-.5-1.1-.5-1-.5-1.1-.4-1.1-.5-1.1-.4-1-.4-1.1-.4-1.1-.4-1-.3-1.1-.4-1-.3-1.1-.3-1-.3-1.1-.3-1-.2-1.1-.3-1-.2-1-.2-1-.2-1-.2-1.1-.2-1-.1-.9-.2-1-.1-1-.1-1-.1-.9-.1-1-.1-.9-.1-1v-.9l-.1-.9v-1l-.1-.9v-.9-.8-.9-.9l.1-.8v-.9-.8l.1-.9.1-.8v-.8l.1-.8.1-.8.1-.8.1-.7.1-.8.1-.8.1-.7.1-.7.1-.7.2-.7.1-.7.1-.7.2-.7.1-.7.2-.6.1-.7.2-.6.1-.7.2-.6.1-.6.2-.6.2-.6.1-.6.2-.5.2-.6.1-.5.2-.6.2-.5.1-.5.2-.6.1-.5.2-.5.2-.5.1-.4.2-.5.1-.5.2-.4.1-.5.2-.4.1-.5.2-.4.1-.4.2-.5.1-.4.1-.4.1-.4.2-.4.1-.3.1-.4.1-.4.1-.4.1-.4.1-.3.1-.4v-.3l.1-.4.1-.3.1-.4v-.3l.1-.4v-.3l.1-.3v-.4-.3l.1-.3v-.4-.3-.3-.4-.3-.3-.4l-.1-.3v-.3-.4l-.1-.3v-.3-.4l-.1-.3-.1-.4v-.3l-.1-.4-.1-.3-.1-.4-.1-.3-.1-.4-.1-.4-.1-.3-.1-.4-.1-.4-.1-.4-.1-.4-.1-.4-.2-.4-.1-.4-.1-.4-.2-.5-.1-.4-.2-.4-.1-.5-.2-.4-.1-.5-.2-.5-.1-.5-.2-.4-.2-.5-.1-.5-.2-.5-.2-.6-.1-.5-.2-.5-.1-.6-.2-.5-.2-.6-.1-.6-.2-.6-.2-.6-.1-.6-.2-.6-.1-.6-.2-.6-.2-.7-.1-.6-.2-.7-.1-.7-.1-.6-.2-.7-.1-.7-.1-.8-.1-.7-.2-.7-.1-.8-.1-.7-.1-.8-.1-.7-.1-.8v-.8l-.1-.8-.1-.8v-.9l-.1-.8v-.9-.8l-.1-.9v-.8-.9-.9l.1-.9v-.9-.9l.1-1v-.9l.1-.9.1-1 .1-.9.1-1 .1-1 .2-1 .1-1 .2-1 .2-1 .2-1 .2-1 .2-1 .2-1 .3-1.1.3-1 .2-1 .3-1.1.3-1 .4-1.1.3-1 .4-1.1.4-1.1.4-1 .4-1.1.4-1.1.5-1.1.4-1 .5-1.1.5-1.1.5-1.1.6-1 .5-1.1.6-1.1.6-1.1.6-1.1.6-1 .7-1.1.7-1.1.6-1.1.7-1 .8-1.1.7-1 .8-1.1.8-1.1.8-1 .8-1 .8-1.1.9-1 .9-1 .9-1 .9-1.1.9-1 1-1 .9-.9 1-1 1.1-1 1-.9 1-1 1.1-.9 1.1-1 1.1-.9 1.1-.9 1.2-.9 1.1-.8 1.2-.9 1.2-.9 1.2-.8 1.2-.8 1.3-.9 1.3-.8 1.2-.7 1.3-.8 1.3-.8 1.4-.7 1.3-.7 1.4-.7 1.4-.7 1.4-.7 1.4-.6 1.4-.7 1.4-.6 1.5-.6 1.5-.6 1.4-.5 1.5-.6 1.5-.5 1.6-.5 1.5-.5 1.5-.4 1.6-.5 1.6-.4 1.6-.4 1.5-.4 1.6-.3 1.7-.3 1.6-.3 1.6-.3 1.6-.3 1.7-.2 1.7-.2 1.6-.2 1.7-.2 1.7-.1 1.7-.2h1.6l1.7-.1 1.7-.1h1.8 1.7l1.7.1h1.7l1.7.1 1.7.1 1.8.2 1.7.1 1.7.2 1.8.2 1.7.3 1.7.2 1.8.3 1.7.3 1.7.4 1.8.3 1.7.4 1.7.5 1.7.4 1.8.5 1.7.5 1.7.5 1.7.6 1.7.6 1.7.6 1.7.6 1.6.7 1.7.7 1.7.7 1.6.7 1.7.8 1.6.8 1.6.8 1.7.8 1.6.9 1.6.9 1.5.9 1.6.9 1.6 1 1.5 1 1.6 1 1.5 1 1.5 1.1 1.5 1.1 1.5 1.1 1.4 1.1 1.5 1.1 1.4 1.2 1.4 1.2 1.4 1.2 1.4 1.3 1.4 1.2 1.3 1.3 1.3 1.3 1.3 1.3 1.3 1.4 1.3 1.4 1.2 1.3 1.3 1.4 1.2 1.5 1.2 1.4 1.1 1.5 1.2 1.4 1.1 1.5 1.1 1.5 1.1 1.6 1 1.5 1.1 1.6 1 1.5 1 1.6.9 1.6.9 1.7 1 1.6.9 1.6.8 1.7.9 1.7.8 1.6.8 1.7.7 1.7.8 1.8.7 1.7.7 1.7.6 1.8.6 1.7.6 1.8.6 1.8.6 1.7.5 1.8.5 1.8.5 1.8.4 1.8.4 1.8.4 1.8.4 1.9.3 1.8.3 1.8.3 1.8.3 1.9.2 1.8.2 1.8.1 1.9.2 1.8.1 1.8.1 1.9.1 1.8v1.8 1.9 1.8l-.1 1.8-.1 1.9-.1 1.8-.1 1.8-.2 1.8-.1 1.8-.2 1.8-.3 1.8-.2 1.8-.3 1.7-.3 1.8-.4 1.8-.4 1.7-.3 1.8-.5 1.7-.4 1.7-.5 1.8-.5 1.7-.5 1.7-.5 1.7-.6 1.6-.6 1.7-.6 1.6-.6 1.7-.7 1.6-.6 1.6-.7 1.6-.8 1.6-.7 1.6-.8 1.5-.7 1.5-.9 1.6-.8 1.5-.8 1.5-.9 1.4-.9 1.5-.9 1.4-.9 1.5-.9 1.4-1 1.3-1 1.4-1 1.4-1 1.3-1 1.3-1 1.3-1.1 1.3-1.1 1.2-1.1 1.3-1.1 1.2-1.1 1.2-1.1 1.2-1.2 1.1-1.1 1.1-1.2 1.2-1.2 1-1.2 1.1-1.2 1.1-1.2 1-1.2 1-1.2 1-1.3.9-1.2 1-1.3.9-1.3.9-1.2.9-1.3.8-1.3.9-1.3.8-1.3.8-1.3.7-1.3.8-1.4.7-1.3.7-1.3.7-1.3.6-1.4.7-1.3.6-1.4.6-1.3.5-1.3.6-1.4.5-1.3.5-1.4.5-1.3.5-1.4.4-1.3.4-1.4.4-1.3.4-1.3.3-1.4.4-1.3.3-1.4.3-1.3.3-1.3.2-1.3.2-1.4.3-1.3.2-1.3.1-1.3.2-1.3.1-1.3.1-1.2.1-1.3.1-1.3.1h-1.3l-1.2.1h-1.3-1.2l-1.2-.1h-1.3l-1.2-.1h-1.2l-1.2-.1-1.2-.1-1.1-.1-1.2-.2-1.2-.1-1.1-.2-1.2-.1-1.1-.2-1.1-.2-1.1-.2-1.1-.3-1.1-.2-1-.3-1.1-.2-1-.3-1.1-.3-1-.3-1-.3-1-.3-1-.3-1-.4-.9-.3-1-.4-.9-.3-.9-.4-.9-.4-.9-.3-.9-.4-.9-.4-.8-.4-.9-.5-.8-.4-.8-.4-.8-.4-.8-.5-.8-.4-.8-.4-.7-.5-.8-.4-.7-.5-.7-.4-.7-.5-.7-.4-.7-.5-.6-.5-.7-.4-.6-.5-.6-.5-.7-.4-.6-.5-.6-.5-.5-.4-.6-.5-.6-.5-.5-.4-.5-.5-.6-.5-.5-.4-.5-.5-.5-.4-.5-.5-.4-.5-.5-.4-.4-.4-.5-.5-.4-.4-.4-.5-.5-.4-.4-.4-.4-.4-.4-.5-.3-.4-.4-.4-.4-.4-.4-.4-.3-.4-.4-.4-.3-.3-.3-.4-.4-.4-.3-.4-.3-.3-.3-.4-.3-.3-.3-.4-.3-.3-.3-.3-.3-.4-.3-.3-.3-.3-.3-.3-.3-.3-.2-.3-.3-.3-.3-.2-.3-.3-.2-.3-.3-.2-.3-.3-.2-.2-.3-.3-.3-.2-.2-.2-.3-.3-.3-.2-.3-.2-.2-.2-.3-.2-.3-.2-.2-.2-.3-.1-.3-.2-.3-.2-.3-.1-.3-.2-.3-.2-.3-.1-.3-.2-.3-.1-.3-.1-.3-.2-.3-.1-.3-.1-.3-.1-.4-.2-.3-.1-.4-.1-.3-.1-.4-.1-.3-.1-.4-.1-.4-.1-.3-.1-.4-.1-.4-.1-.4-.1-.4-.1-.4-.1-.5-.1h-.4l-.4-.1-.5-.1-.4-.1-.5-.1-.4-.1-.5-.1-.5-.1-.5-.1-.5-.1-.5-.1-.5-.1-.5-.1-.5-.2-.6-.1-.5-.1-.6-.1-.5-.2-.6-.1-.6-.1-.5-.2-.6-.1-.6-.2-.6-.2-.7-.1-.6-.2-.6-.2-.6-.2-.7-.2-.6-.2-.7-.2-.7-.2-.6-.3-.7-.2-.7-.3-.7-.2-.7-.3-.7-.3-.7-.3-.7-.3-.7-.3-.7-.3-.8-.3-.7-.4-.7-.3-.8-.4-.7-.4-.8-.4-.7-.4-.8-.4-.8-.4-.7-.5-.8-.4-.8-.5-.7-.5-.8-.5-.8-.5-.8-.5-.8-.6-.7-.5-.8-.6-.8-.6-.8-.6-.8-.6-.7-.6-.8-.7-.8-.6-.8-.7-.7-.7-.8-.7-.8-.7-.7-.8-.8-.7-.8-.8-.7-.8-.8-.8-.7-.8-.8-.9-.7-.8-.7-.9-.8-.9-.7-.9-.7-.9-.7-.9-.7-1-.7-.9-.7-1-.6-1-.7-1-.6-1-.7-1.1-.6-1.1-.6-1-.6-1.1-.7-1.1-.5-1.1-.6-1.2-.6-1.1-.5-1.2-.6-1.2-.5-1.2-.5-1.2-.5-1.2-.5-1.2-.5-1.3-.4-1.3-.5-1.2-.4-1.3-.4-1.3-.4-1.3-.4-1.4-.3-1.3-.4-1.4-.3-1.3-.3-1.4-.3-1.4-.3-1.4-.2-1.4-.3-1.4-.2-1.5-.2-1.4-.1-1.4-.2-1.5-.1-1.5-.1-1.4-.1-1.5-.1-1.5-.1-1.5v-1.5-1.5-1.6-1.5l.1-1.5.1-1.5.1-1.6.1-1.5.2-1.6.1-1.5.2-1.6.2-1.6.3-1.5.3-1.6.2-1.5.4-1.6.3-1.6.4-1.5.3-1.6.4-1.6.5-1.5.4-1.6.5-1.6.5-1.5.6-1.6.5-1.6.6-1.5.6-1.6.6-1.5.7-1.5.7-1.6.7-1.5.7-1.5.7-1.5.8-1.5.8-1.5.8-1.5.9-1.5.9-1.5.9-1.5.9-1.4.9-1.5 1-1.4 1-1.4 1-1.4 1-1.4 1.1-1.4 1.1-1.4 1.1-1.4 1.1-1.3 1.2-1.4 1.1-1.3 1.2-1.3 1.2-1.3 1.3-1.2 1.2-1.3 1.3-1.2 1.3-1.3 1.3-1.2 1.4-1.2 1.3-1.1 1.4-1.2 1.4-1.1 1.4-1.2 1.5-1 1.4-1.1 1.5-1.1 1.5-1 1.5-1 1.5-1 1.6-1 1.5-1 1.6-.9 1.6-.9 1.6-.9 1.6-.8 1.7-.9 1.6-.8 1.7-.8 1.7-.7 1.6-.8 1.7-.7 1.8-.7 1.7-.7 1.7-.6 1.8-.6 1.7-.6 1.8-.6 1.8-.5 1.8-.5 1.8-.5 1.8-.5 1.8-.4 1.8-.4 1.8-.4 1.8-.3 1.9-.4 1.8-.3 1.9-.2 1.8-.3 1.9-.2 1.8-.2 1.9-.1 1.9-.2 1.8-.1h1.9l1.9-.1h1.8 1.9 1.9l1.8.1 1.9.1 1.9.1 1.8.2 1.9.1 1.9.2 1.8.3 1.9.2 1.8.3 1.8.3 1.9.4 1.8.3 1.8.4 1.8.5 1.8.4 1.8.5 1.8.5 1.8.5 1.8.6 1.8.6 1.7.6 1.7.6 1.8.7 1.7.6 1.7.7 1.7.8 1.7.7 1.6.8 1.7.8 1.6.8 1.7.9 1.6.9 1.6.9 1.6.9 1.5.9 1.6 1 1.5 1 1.5 1 1.5 1 1.5 1.1 1.5 1 1.4 1.1 1.4 1.1 1.4 1.2 1.4 1.1 1.4 1.2 1.3 1.2 1.4 1.2 1.3 1.2 1.3 1.2 1.2 1.3 1.3 1.2 1.2 1.3 1.2 1.3 1.2 1.3 1.1 1.4 1.2 1.3 1.1 1.4 1.1 1.3 1.1 1.4 1 1.4 1 1.4 1 1.4 1 1.5 1 1.4.9 1.5.9 1.4.9 1.5.8 1.5.9 1.5.8 1.5.8 1.5.7 1.5.8 1.5.7 1.5.7 1.6.6 1.5.7 1.5.6 1.6.6 1.5.5 1.6.6 1.6.5 1.5.5 1.6.4 1.5.5 1.6.4 1.6.4 1.5.4 1.6.3 1.6.3 1.5.3 1.6.3 1.6.3 1.5.2 1.6.2 1.6.2 1.5.1 1.6.2 1.5.1 1.6.1 1.5v1.5l.1 1.6v1.5 1.5 1.5l-.1 1.5v1.5l-.1 1.5-.1 1.5-.2 1.4-.1 1.5-.2 1.4-.2 1.5-.2 1.4-.2 1.4-.2 1.5-.3 1.4-.3 1.3-.3 1.4-.3 1.4-.3 1.4-.4 1.3-.4 1.3-.3 1.4-.4 1.3-.5 1.3-.4 1.2-.4 1.3-.5 1.3-.5 1.2-.5 1.2-.5 1.3-.5 1.2-.6 1.1-.5 1.2-.6 1.2-.5 1.1-.6 1.1-.6 1.2-.6 1.1-.6 1-.7 1.1-.6 1-.7 1.1-.6 1-.7 1-.7 1-.6 1-.7.9-.7 1-.8.9-.7.9-.7.9-.7.9-.7.8-.8.9-.7.8-.8.8-.7.8-.8.8-.8.7-.7.8-.8.7-.8.7-.7.7-.8.7-.8.7-.8.6-.7.7-.8.6-.8.6-.8.6-.8.5-.7.6-.8.6-.8.5-.8.5-.8.5-.7.5-.8.5-.8.4-.7.5-.8.4-.8.5-.7.4-.8.4-.7.4-.8.3-.7.4-.7.3-.8.4-.7.3-.7.3-.7.3-.7.3-.7.3-.7.3-.7.2-.7.3-.7.2-.7.3-.6.2-.7.2-.7.2-.6.2-.6.2-.7.2-.6.2-.6.2-.6.1-.6.2-.6.2-.6.1-.6.2-.6.1-.5.1-.6.2-.5.1-.6.1-.5.1-.5.1-.5.1-.5.1-.5.2-.5.1-.5.1h-.5l-.5.1-.4.1-.5.1-.4.1-.5.1-.4.1-.4.1-.4.1-.4.1-.4.1-.4.1-.4.1-.4.1-.4.1-.3.1-.4.1-.4.1-.3.1-.4.1-.3.1-.3.1-.4.1-.3.2-.3.1-.3.1-.3.2-.3.1-.3.1-.3.2-.3.1-.3.2-.3.2-.3.1-.3.2-.2.2-.3.2-.3.1-.3.2-.2.2-.3.2-.3.3-.3.2-.2.2-.3.2-.3.3-.2.2-.3.3-.3.2-.2.3-.3.3-.3.2-.2.3-.3.3-.3.3-.3.3-.3.3-.3.3-.2.3-.3.4-.3.3-.3.3-.4.4-.3.3-.3.4-.3.4-.3.3-.4.4-.3.4-.4.4-.3.4-.4.4-.3.4-.4.4-.4.4-.4.4-.4.4-.4.4-.4.5-.4.4-.4.4-.5.5-.4.4-.5.5-.5.4-.4.5-.5.4-.5.5-.5.5-.6.4-.5.5-.5.4-.6.5-.5.5-.6.4-.6.5-.6.5-.6.4-.6.5-.7.5-.6.4-.7.5-.7.5-.6.4-.7.5-.7.4-.8.5-.7.4-.7.5-.8.4-.8.5-.8.4-.8.4-.8.5-.8.4-.8.4-.9.4-.9.4-.8.4-.9.4-.9.4-.9.3-1 .4-.9.4-1 .3-.9.3-1 .4-1 .3-1 .3-1 .3-1.1.3-1 .3-1 .2-1.1.3-1.1.2-1.1.3-1.1.2-1.1.2-1.1.2-1.1.2-1.2.1-1.1.2-1.2.1-1.2.1-1.2.2h-1.1l-1.2.1-1.3.1h-1.2l-1.2.1h-1.2-1.3l-1.2-.1h-1.3l-1.3-.1h-1.3l-1.2-.1-1.3-.1-1.3-.2-1.3-.1-1.3-.2-1.3-.2-1.4-.2-1.3-.2-1.3-.2-1.3-.3-1.4-.3-1.3-.3-1.3-.3-1.4-.4-1.3-.3-1.4-.4-1.3-.4-1.4-.5-1.3-.4-1.3-.5-1.4-.5-1.3-.5-1.4-.5-1.3-.6-1.4-.6-1.3-.6-1.3-.6-1.4-.7-1.3-.6-1.3-.7-1.4-.7-1.3-.8-1.3-.7-1.3-.8-1.3-.8-1.3-.8-1.3-.9-1.3-.8-1.2-.9-1.3-.9-1.2-1-1.3-.9-1.2-1-1.3-1-1.2-1-1.2-1.1-1.2-1-1.2-1.1-1.1-1.1-1.2-1.2-1.1-1.1-1.2-1.2-1.1-1.2-1.1-1.2-1.1-1.2-1.1-1.2-1-1.3-1.1-1.3-1-1.3-1-1.3-1-1.4-1-1.3-1-1.4-.9-1.4-1-1.4-.9-1.4-.9-1.5-.8-1.5-.9-1.4-.8-1.5-.8-1.6-.8-1.5-.8-1.5-.8-1.6-.7-1.6-.7-1.6-.7-1.6-.6-1.6-.7-1.6-.6-1.7-.6-1.6-.6-1.7-.5-1.7-.5-1.7-.5-1.7-.5-1.7-.5-1.7-.4-1.7-.4-1.8-.4-1.7-.3-1.8-.3-1.8-.3-1.7-.3-1.8-.3-1.8-.2-1.8-.2-1.8-.1-1.8-.2-1.8-.1-1.8-.1-1.9v-1.8l-.1-1.8v-1.8-1.9l.1-1.8.1-1.8.1-1.9.1-1.8.2-1.8.1-1.9.3-1.8.2-1.8.3-1.9.3-1.8.3-1.8.3-1.8.4-1.9.4-1.8.5-1.8.4-1.8.5-1.8.5-1.8.6-1.7.5-1.8.6-1.8.6-1.7.7-1.8.7-1.7.7-1.8.7-1.7.7-1.7.8-1.7.8-1.7.9-1.7.8-1.6.9-1.7.9-1.6.9-1.6 1-1.6.9-1.6 1-1.6 1.1-1.6 1-1.5 1.1-1.6 1.1-1.5 1.1-1.5 1.1-1.5 1.2-1.4 1.2-1.5 1.2-1.4 1.2-1.4 1.2-1.4 1.3-1.4 1.3-1.3 1.3-1.4 1.3-1.3 1.3-1.3 1.4-1.2 1.3-1.3 1.4-1.2 1.4-1.2 1.5-1.2 1.4-1.2 1.5-1.1 1.4-1.1 1.5-1.1 1.5-1.1 1.5-1 1.6-1 1.5-1 1.6-1 1.5-1 1.6-.9 1.6-.9 1.6-.9 1.6-.8 1.7-.8 1.6-.8 1.6-.8 1.7-.8 1.6-.7 1.7-.7 1.7-.6 1.7-.7 1.7-.6 1.7-.6 1.7-.6 1.7-.5 1.7-.5 1.7-.5 1.7-.5 1.7-.4 1.8-.4 1.7-.4 1.7-.3 1.8-.4 1.7-.3 1.7-.2 1.8-.3 1.7-.2 1.7-.2 1.7-.2 1.8-.1 1.7-.2h1.7l1.8-.1 1.7-.1h1.7 1.7l1.7.1h1.7l1.7.1 1.7.1 1.7.1 1.6.2 1.7.2 1.7.2 1.6.2 1.7.3 1.6.2 1.6.3 1.6.4 1.6.3 1.6.4 1.6.3 1.6.5 1.6.4 1.5.4 1.5.5 1.6.5 1.5.5 1.5.5 1.5.6 1.4.6 1.5.6 1.4.6 1.5.6 1.4.7 1.4.6 1.4.7 1.3.7 1.4.7 1.3.7 1.4.8 1.3.8 1.3.7 1.2.8 1.3.8 1.2.9 1.2.8 1.2.8 1.2.9 1.2.9 1.1.9 1.2.9 1.1.9 1.1.9 1.1.9 1 1 1.1.9 1 1 1 1 1 1 .9 1 1 1 .9 1 .9 1 .9 1 .8 1 .9 1.1.8 1 .8 1 .8 1.1.8 1 .7 1.1.8 1.1.7 1 .7 1.1.7 1.1.6 1 .7 1.1.6 1.1.6 1.1.6 1.1.5 1 .6 1.1.5 1.1.5 1.1.5 1 .5 1.1.4 1.1.5 1.1.4 1 .4 1.1.4 1.1.3 1 .4 1.1.3 1.1.3 1 .4 1.1.2 1 .3 1 .3 1.1.2 1 .2 1 .3 1 .2 1.1.1 1 .2 1 .2.9.1 1 .1 1 .2 1 .1.9.1 1v.9l.1 1 .1.9v.9.9l.1.9v.9.9.9l-.1.9v.8.9l-.1.8v.8l-.1.9v.8l-.1.8-.1.7-.1.8-.1.8-.1.8-.1.7-.1.7-.1.8-.2.7-.1.7-.1.7-.2.7-.1.7-.1.6-.2.7-.1.6-.2.7-.1.6-.2.6-.2.6-.1.6-.2.6-.2.6-.1.5-.2.6-.2.6-.1.5-.2.5-.2.6-.1.5-.2.5-.1.5-.2.5-.2.4-.1.5-.2.5-.1.4-.2.5-.1.4-.2.5-.1.4-.1.4-.2.4-.1.4-.1.4-.2.4-.1.4-.1.4-.1.4-.1.4-.1.4-.1.3-.1.4-.1.3-.1.4v.4l-.1.3-.1.4v.3l-.1.3v.4l-.1.3v.3.4l-.1.3v.3.4.3" fill="none" stroke="#7b61c1" stroke-width="9" transform="translate(4 5)"/></svg>