<svg fill="none" height="40" viewBox="0 0 40 40" width="40" xmlns="http://www.w3.org/2000/svg"><path d="m0 0h40v40h-40z" fill="#fff"/><g fill="#121212"><path clip-rule="evenodd" d="m33.8588 29.1581c.3055 3.919.3055 5.7561.3055 7.7614h-9.0789c0-.4368.0078-.8364.0157-1.2415.0246-1.2596.0503-2.573-.1541-5.2255-.27-3.8833-1.9443-4.7462-5.0229-4.7462h-2.7276-11.55148v-7.0654h14.71108c3.8888 0 5.8332-1.1815 5.8332-4.3097 0-2.7506-1.9444-4.41751-5.8332-4.41751h-14.71108v-6.91369h16.33148c8.8037 0 13.1785 4.15293 13.1785 10.7868 0 4.962-3.0786 8.198-7.2374 8.7374 3.5107.7011 5.5631 2.6967 5.9412 6.6339z" fill-rule="evenodd"/><path d="m5.64502 36.9195v-5.267h9.59948c1.6035 0 1.9516 1.1878 1.9516 1.8961v3.3709z"/></g></svg>