<svg width="40" height="40" viewBox="0 0 40 40" fill="none" xmlns="http://www.w3.org/2000/svg">
<g clip-path="url(#clip0_1007_23)">
<rect width="40" height="40" fill="white"/>
<path fill-rule="evenodd" clip-rule="evenodd" d="M36.6363 31.0563C37.0049 35.7841 37.0049 38.0004 37.0049 40.4195H26.0524C26.0524 39.8926 26.0618 39.4105 26.0714 38.9217C26.101 37.4023 26.132 35.8177 25.8855 32.6179C25.5597 27.9332 23.5398 26.8922 19.8259 26.8922H16.5355H2.6001V18.3687H20.3472C25.0384 18.3687 27.3841 16.9434 27.3841 13.1697C27.3841 9.85137 25.0384 7.84047 20.3472 7.84047H2.6001V-0.5H22.3019C32.9224 -0.5 38.2001 4.50997 38.2001 12.5129C38.2001 18.4989 34.4862 22.4027 29.4691 23.0534C33.7043 23.8992 36.1802 26.3066 36.6363 31.0563Z" fill="#121212"/>
<path d="M2.6001 40.4195V34.0656H14.1807C16.115 34.0656 16.535 35.4985 16.535 36.353V40.4195H2.6001Z" fill="#121212"/>
</g>
<defs>
<clipPath id="clip0_1007_23">
<rect width="40" height="40" fill="white"/>
</clipPath>
</defs>
</svg>
