<svg xmlns="http://www.w3.org/2000/svg" xmlns:xlink="http://www.w3.org/1999/xlink" width="273" height="200" viewBox="0 0 273 200">
  <defs>
    <clipPath id="clip-scalarDL_LOGO_01">
      <rect width="273" height="200"/>
    </clipPath>
  </defs>
  <g id="scalarDL_LOGO_01" clip-path="url(#clip-scalarDL_LOGO_01)">
    <g id="グループ_19" data-name="グループ 19" transform="translate(-738.367 505.444)">
      <path id="パス_2110" data-name="パス 2110" d="M925.688-464.036,920.67-472.7a7.737,7.737,0,0,0-2.373-2.384l-16.8-9.7c-.832-.475-1.511-.088-1.511.871v11.274l-26.022-14.673,10.047-5.825a.913.913,0,0,0,.591-1.148.912.912,0,0,0-.591-.593l-16.794-9.694a7.446,7.446,0,0,0-3.246-.871H853.962a7.427,7.427,0,0,0-3.242.871l-16.8,9.694a.918.918,0,0,0,0,1.741l10.047,5.825L817.951-472.64v-11.278c0-.954-.688-1.341-1.524-.871l-16.784,9.7a7.625,7.625,0,0,0-2.381,2.384l-5.009,8.667a7.687,7.687,0,0,0-.871,3.252v19.4c0,.95.671,1.354,1.505.871l9.576-5.531v29.507l-9.576-5.533c-.832-.46-1.505-.06-1.505.871v19.4a7.606,7.606,0,0,0,.871,3.233l5.009,8.706a7.4,7.4,0,0,0,2.381,2.36l16.784,9.707c.836.491,1.511.091,1.511-.872v-11.352l25.964,14.5-9.98,5.759a.932.932,0,0,0-.54,1.2.932.932,0,0,0,.54.54l16.8,9.68a7.532,7.532,0,0,0,3.242.871h10.012a7.571,7.571,0,0,0,3.246-.871l16.794-9.68a.932.932,0,0,0,.54-1.2.929.929,0,0,0-.54-.54L874-375.538l25.73-14.456v11.169c0,.961.671,1.34,1.515.871l16.794-9.694a7.632,7.632,0,0,0,2.367-2.386l5.019-8.665a7.854,7.854,0,0,0,.871-3.248v-19.4c0-.958-.675-1.358-1.511-.872l-9.333,5.38v-29.215l9.576,5.531c.832.488,1.505.1,1.505-.871v-19.4A7.742,7.742,0,0,0,925.688-464.036Zm-25.682-3.607v5.924a7.511,7.511,0,0,0,.871,3.242l2.586,4.466a7.5,7.5,0,0,0,2.373,2.39l5.271,3.046v34.244l-5.537,3.19a7.861,7.861,0,0,0-2.38,2.381l-.135.252-15.788-9.14V-433.8a1.946,1.946,0,0,0-.914-1.576l-.278-.153a1.932,1.932,0,0,0-1.816,0l-4.409,2.543v-10.534l-9.1-5.258,4.4-2.547a1.994,1.994,0,0,0,.909-1.58v-.321a2.031,2.031,0,0,0-.909-1.573l-14-8.078v-18.282h.435a7.952,7.952,0,0,0,3.243-.871l4.787-2.786Zm-51.045,40.916-6.53-3.748v-10.5l9.142-5.266,6.5,3.747c.5.288.914.514.914.514s.4-.226.914-.514l6.5-3.747,9.1,5.258v10.533l-6.49,3.753c-.5.273-.909.514-.909.514v8.566l-9.107,5.258-9.14-5.288v-8.536Zm-42.1-21.839,5.267-3.046A7.817,7.817,0,0,0,814.5-454l2.612-4.466a7.777,7.777,0,0,0,.869-3.242v-5.933l30.383-17.164,4.787,2.786a7.947,7.947,0,0,0,3.248.871h.4v18.282l-13.989,8.08a2.02,2.02,0,0,0-.909,1.571v.322a2.036,2.036,0,0,0,.909,1.58l4.409,2.545-9.14,5.272V-433l-4.4-2.534a2.042,2.042,0,0,0-1.823,0l-.273.148a2.044,2.044,0,0,0-.907,1.571v16.154l-16.061,9.288-.138-.247a7.715,7.715,0,0,0-2.377-2.368l-5.267-3.046Zm62.78,70.485-4.822-2.781a7.757,7.757,0,0,0-3.243-.871H856.4a7.7,7.7,0,0,0-3.246.871l-4.858,2.807L817.956-395.03v-5.877a7.79,7.79,0,0,0-.87-3.22l-.271-.484,16.046-9.271L846.85-405.8a1.954,1.954,0,0,0,1.819,0l.275-.153a2.055,2.055,0,0,0,.909-1.58v-5.079l9.14,5.258,9.107-5.258v5.079a2.022,2.022,0,0,0,.905,1.58l.275.153a1.981,1.981,0,0,0,1.832,0l13.991-8.083,15.792,9.14-.271.462a7.836,7.836,0,0,0-.871,3.255v6.055Z" transform="translate(23.095 0)" fill="#2673bb"/>
      <g id="Scalar" transform="translate(738.367 -336.958)">
        <g id="グループ_18" data-name="グループ 18" style="isolation: isolate">
          <path id="パス_89" data-name="パス 89" d="M756.616-379.792a7.239,7.239,0,0,0-5.323-2.576c-1.859,0-4.182.633-4.182,3,0,1.986,1.774,2.62,4.6,3.507,4.056,1.309,9.293,3.042,9.293,9,0,6.885-5.534,9.969-11.448,9.969-4.266,0-8.575-1.563-11.193-4.308l4.731-4.816a8.845,8.845,0,0,0,6.462,3.169c2.2,0,4.141-.845,4.141-3.252,0-2.282-2.282-3-6.21-4.268-3.8-1.225-7.647-3.167-7.647-8.575,0-6.633,6-9.379,11.575-9.379a14.962,14.962,0,0,1,9.8,3.675Z" transform="translate(-738.367 388.367)" fill="#2673bb"/>
          <path id="パス_90" data-name="パス 90" d="M776.95-356.84c-9.209,0-16.095-6.422-16.095-15.8,0-9.589,7.1-15.715,16.223-15.715,4.182,0,8.7,1.521,11.194,4.393l-4.9,4.9a7.46,7.46,0,0,0-6.042-2.747c-5.028,0-8.618,3.887-8.618,9.167,0,5.449,3.507,9.167,8.491,9.167a7.634,7.634,0,0,0,6.337-3.042l5.026,4.731A14.848,14.848,0,0,1,776.95-356.84Z" transform="translate(-728.496 388.354)" fill="#2673bb"/>
          <path id="パス_91" data-name="パス 91" d="M809.47-357.888l-2.324-5.871H795.571l-2.2,5.871h-7.858L798.064-387.8h7.012l12.419,29.908Zm-8.026-21.925-3.8,10.267h7.52Z" transform="translate(-717.761 388.599)" fill="#2673bb"/>
          <path id="パス_92" data-name="パス 92" d="M814.463-357.888V-387.8h7.264v23.614H833.3v6.294Z" transform="translate(-705.102 388.599)" fill="#2673bb"/>
          <path id="パス_93" data-name="パス 93" d="M858.057-357.888l-2.325-5.871H844.157l-2.2,5.871H834.1L846.651-387.8h7.012l12.42,29.908Zm-8.026-21.925-3.8,10.267h7.52Z" transform="translate(-696.526 388.599)" fill="#2673bb"/>
          <path id="パス_94" data-name="パス 94" d="M879.06-357.888l-6.462-11.87h-2.45v11.87h-7.1V-387.8h11.405c5.746,0,11.448,2.2,11.448,9.039,0,4.013-2.364,6.887-6.209,8.07l7.815,12.8Zm-5.11-24.079h-3.845V-375h3.422c2.323,0,5.238-.591,5.238-3.632C878.765-381.417,876.1-381.967,873.95-381.967Z" transform="translate(-683.868 388.599)" fill="#2673bb"/>
          <path id="パス_95" data-name="パス 95" d="M899.243-357.888H888.091V-387.8h10.815c8.49,0,17.109,3.548,17.109,14.87C916.015-362.407,907.481-357.888,899.243-357.888Zm-.506-23.741h-3.59v17.489h3.422c5.154,0,9.927-2.112,9.927-8.786C908.5-379.643,903.722-381.629,898.736-381.629Z" transform="translate(-672.965 388.599)" fill="#78c740"/>
          <path id="パス_96" data-name="パス 96" d="M915.218-357.888V-387.8h7.265v23.614h11.575v6.294Z" transform="translate(-661.058 388.599)" fill="#78c740"/>
        </g>
      </g>
    </g>
  </g>
</svg>
