<?xml version="1.0" encoding="UTF-8" standalone="no"?>
<!DOCTYPE svg PUBLIC "-//W3C//DTD SVG 1.1//EN" "http://www.w3.org/Graphics/SVG/1.1/DTD/svg11.dtd">
<svg width="100%" height="100%" viewBox="0 0 512 512" version="1.1" xmlns="http://www.w3.org/2000/svg" xmlns:xlink="http://www.w3.org/1999/xlink" xml:space="preserve" xmlns:serif="http://www.serif.com/" style="fill-rule:evenodd;clip-rule:evenodd;stroke-linejoin:round;stroke-miterlimit:2;">
    <g id="グループ_23" transform="matrix(3.4566,0,0,3.4566,-2751.23,2088.95)">
        <g id="scalar_LOGO_01">
            <g id="グループ_231" serif:id="グループ_23">
                <g id="パス_2110" transform="matrix(1,0,0,1,11.309,0)">
                    <path d="M925.395,-562.928L920.376,-571.595C919.769,-572.555 918.958,-573.369 918,-573.98L901.2,-583.68C900.368,-584.155 899.689,-583.768 899.689,-582.809L899.689,-571.535L873.667,-586.209L883.714,-592.032C884.091,-592.153 884.349,-592.506 884.349,-592.902C884.349,-592.997 884.334,-593.092 884.305,-593.182C884.216,-593.463 883.995,-593.684 883.714,-593.773L866.92,-603.467C865.918,-604.001 864.808,-604.298 863.674,-604.337L853.668,-604.337C852.535,-604.3 851.425,-604.002 850.425,-603.467L833.625,-593.773C833.252,-593.648 832.998,-593.296 832.998,-592.903C832.998,-592.509 833.252,-592.157 833.625,-592.032L843.672,-586.209L817.655,-571.535L817.655,-582.813C817.655,-583.767 816.967,-584.154 816.131,-583.685L799.347,-573.985C798.385,-573.377 797.572,-572.562 796.966,-571.599L791.956,-562.932C791.43,-561.925 791.133,-560.815 791.087,-559.68L791.087,-540.28C791.087,-539.332 791.758,-538.926 792.592,-539.41L802.168,-544.943L802.168,-515.435L792.592,-520.968C791.76,-521.43 791.087,-521.028 791.087,-520.098L791.087,-500.698C791.133,-499.569 791.43,-498.464 791.956,-497.463L796.966,-488.757C797.568,-487.799 798.383,-486.992 799.347,-486.399L816.131,-476.692C816.967,-476.2 817.642,-476.6 817.642,-477.563L817.642,-488.915L843.606,-474.415L833.626,-468.656C833.15,-468.474 832.906,-467.933 833.086,-467.456C833.181,-467.208 833.378,-467.012 833.626,-466.918L850.426,-457.237C851.428,-456.707 852.536,-456.41 853.669,-456.366L863.68,-456.366C864.814,-456.409 865.923,-456.707 866.926,-457.237L883.72,-466.918C884.197,-467.1 884.44,-467.641 884.26,-468.118C884.165,-468.366 883.968,-468.563 883.72,-468.658L873.708,-474.425L899.438,-488.881L899.438,-477.712C899.438,-476.749 900.109,-476.371 900.953,-476.841L917.745,-486.534C918.702,-487.144 919.511,-487.959 920.114,-488.92L925.133,-497.587C925.655,-498.593 925.951,-499.701 926.002,-500.833L926.002,-520.233C926.002,-521.19 925.327,-521.591 924.493,-521.103L915.16,-515.723L915.16,-544.939L924.736,-539.406C925.568,-538.918 926.241,-539.306 926.241,-540.276L926.241,-559.676C926.2,-560.809 925.911,-561.919 925.395,-562.928ZM899.713,-566.537L899.713,-560.613C899.755,-559.48 900.053,-558.371 900.584,-557.37L903.17,-552.905C903.768,-551.939 904.579,-551.121 905.541,-550.515L910.813,-547.467L910.813,-513.223L905.276,-510.033C904.32,-509.42 903.508,-508.608 902.895,-507.653L902.761,-507.4L886.973,-516.542L886.973,-532.7C886.948,-533.344 886.605,-533.935 886.059,-534.276L885.781,-534.428C885.214,-534.73 884.532,-534.73 883.965,-534.428L879.556,-531.887L879.556,-542.42L870.456,-547.678L874.856,-550.225C875.395,-550.575 875.734,-551.163 875.765,-551.805L875.765,-552.127C875.726,-552.764 875.389,-553.347 874.856,-553.698L860.856,-561.776L860.856,-580.058L861.292,-580.058C862.422,-580.114 863.528,-580.412 864.534,-580.93L869.323,-583.716L899.713,-566.537ZM848.667,-525.62L842.137,-529.367L842.137,-539.867L851.277,-545.135L857.777,-541.387C858.277,-541.101 858.691,-540.873 858.691,-540.873C858.691,-540.873 859.091,-541.1 859.605,-541.387L866.105,-545.135L875.205,-539.877L875.205,-529.342L868.715,-525.591C868.215,-525.316 867.804,-525.077 867.804,-525.077L867.804,-516.509L858.698,-511.251L849.558,-516.541L849.558,-525.077L848.667,-525.62ZM806.567,-547.457L811.833,-550.505C812.79,-551.119 813.601,-551.934 814.21,-552.894L816.82,-557.36C817.342,-558.365 817.639,-559.472 817.69,-560.603L817.69,-566.536L848.07,-583.7L852.857,-580.914C853.865,-580.396 854.973,-580.1 856.105,-580.044L856.505,-580.044L856.505,-561.762L842.516,-553.684C841.982,-553.334 841.644,-552.751 841.606,-552.113L841.606,-551.791C841.643,-551.151 841.981,-550.565 842.516,-550.211L846.925,-547.664L837.785,-542.393L837.785,-531.893L833.385,-534.425C832.812,-534.713 832.135,-534.713 831.562,-534.425L831.287,-534.277C830.758,-533.923 830.423,-533.342 830.382,-532.706L830.382,-516.552L814.32,-507.264L814.18,-507.511C813.572,-508.466 812.761,-509.274 811.804,-509.879L806.537,-512.927L806.567,-547.457ZM869.347,-476.972L864.525,-479.753C863.521,-480.276 862.414,-480.574 861.282,-480.624L856.115,-480.624C854.982,-480.576 853.874,-480.279 852.869,-479.753L848.011,-476.946L817.668,-493.923L817.668,-499.8C817.614,-500.924 817.316,-502.023 816.797,-503.022L816.526,-503.505L832.57,-512.776L846.561,-504.692C847.13,-504.394 847.811,-504.394 848.38,-504.692L848.655,-504.845C849.187,-505.201 849.523,-505.786 849.564,-506.425L849.564,-511.5L858.704,-506.242L867.811,-511.5L867.811,-506.421C867.845,-505.781 868.181,-505.194 868.716,-504.841L868.991,-504.688C869.564,-504.389 870.25,-504.389 870.823,-504.688L884.812,-512.772L900.604,-503.63L900.335,-503.17C899.812,-502.161 899.514,-501.05 899.464,-499.914L899.464,-493.859L869.347,-476.972Z" style="fill:rgb(38,115,187);fill-rule:nonzero;"/>
                </g>
                <g id="Scalar">
                </g>
            </g>
        </g>
    </g>
</svg>
