<svg height="288pt" preserveAspectRatio="xMidYMid meet" viewBox="0 0 288 288" width="288pt" xmlns="http://www.w3.org/2000/svg"><g fill="#2e84bf" transform="matrix(.1 0 0 -.1 0 288)"><path d="m1412 2513-183-3 8-98c4-53 8-119 8-147v-50h-410-410l3-179 3-179 67 7c152 14 1015 18 1462 7 256-7 472-14 480-16 13-4 15 20 15 178v182l-383-4c-210-2-398 0-418 3l-35 7 3 150c3 128 1 149-12 147-8-1-97-4-198-5z"/><path d="m845 1744c-128-50-160-67-158-81 1-10 22-73 47-140 58-153 124-384 166-578 18-82 34-151 35-153 2-2 83 25 182 60l179 63-12 60c-35 168-248 836-267 834-7-1-84-30-172-65z"/><path d="m1781 1643c-104-417-229-832-271-901l-19-31-173-3c-200-3-913 9-943 16-19 5-20 0-20-180v-186l50 6c28 3 518 9 1090 12l1040 7v176 176l-85-7c-47-3-195-7-329-7-191-1-242 2-238 12 3 6 22 50 42 97 65 152 296 863 284 874-4 4-326 94-365 103-20 4-24-7-63-164z"/></g></svg>