<svg height="8.457752mm" viewBox="0 0 9.0320997 8.4577522" width="9.0321mm" xmlns="http://www.w3.org/2000/svg"><g stroke-width=".264583" transform="translate(-75.614905 -90.26517)"><path d="m80.131095 97.676181c2.00006 0 3.62143-1.588479 3.62143-3.547957s-1.62137-3.547957-3.62143-3.547957c-2.00004 0-3.62141 1.588479-3.62141 3.547957s1.62137 3.547957 3.62141 3.547957z" fill="#fdb515"/><path d="m82.527795 93.77953c.2177-.518954.0592-1.07442-.35401-1.240658-.4132-.166238-.92462.119671-1.14232.638625-.21767.518954-.0592 1.074393.35404 1.240658.4132.166237.92462-.119672 1.14229-.638625z" fill="#fff"/><path d="m80.139665 98.526419c.57354 0 1.03849-.492971 1.03849-1.10109 0-.608118-.46495-1.10109-1.03849-1.10109s-1.03846.492972-1.03846 1.10109c0 .608119.46492 1.10109 1.03846 1.10109z" fill="#fff"/><path d="m78.911705 94.417546c.4132-.166238.57171-.721678.35402-1.240631-.21768-.518954-.72909-.804863-1.14229-.638625s-.57171.721704-.35404 1.240658c.21767.518927.72911.804862 1.14231.638598z" fill="#fff"/><g fill="#333"><path d="m81.971935 97.541508c1.12051-.588222 1.91545-1.695503 2.04795-2.994316l.62712.705644c-.34952 1.39274-1.35393 2.534602-2.6738 3.094434.0126-.111231.0189-.236061.0189-.378169-.001-.143351-.008-.286703-.0202-.427593zm-3.10407.252121c.39494.130996.8164.201428 1.25677.201428.45932 0 .89842-.07662 1.30853-.218731-.0858.334883-.21958.627776-.38992.857646-.29652.05808-.60315.08895-.91734.08895-.29527 0-.58295-.02717-.8631-.07784-.17285-.228627-.30786-.520277-.39494-.851456zm-.56906-.240982c-1.13817-.588248-1.94448-1.710346-2.07192-3.026463l-.61198.77978c.3634 1.377923 1.36907 2.502482 2.6839 3.052418-.0126-.113691-.0189-.242226-.0189-.388037 0-.140891.006-.280538.0189-.417698zm4.96903-5.678461.44416-.622853c-.31547-.371973-.69022-.695751-1.11041-.954032l-.74951.421404c.56026.269404 1.04603.668565 1.41576 1.155481zm-5.56967-1.609016c-.43911.263223-.83154.595654-1.15835.982456l.50094.549936c.36341-.454781.83027-.826754 1.36528-1.083799z"/><path d="m77.548015 94.131849c0-1.149271.78359-2.119366 1.85614-2.427076.048-.132239.10853-.247171.17666-.34109-1.32744.250867-2.32932 1.395217-2.32932 2.768166 0 .972582.50221 1.830229 1.26686 2.336906.0341-.09641.0707-.189098.11104-.279294-.65487-.458497-1.08138-1.209861-1.08138-2.057612z"/><path d="m78.056365 93.286611.21828.05562c.19685-.444897.55396-.805736 1.0019-1.00965.006-.08528.0151-.169307.029-.249634-.56404.218757-1.01576.654976-1.2492 1.203669z"/><path d="m78.134975 94.44456h-.22461c.0871.588248.4101 1.10109.87318 1.442191.0379-.06427.077-.126074.11861-.185394-.40127-.301519-.68265-.746416-.76718-1.256797z"/><path d="m81.990925 93.349608.21704-.05562c-.25995-.619125-.79999-1.097386-1.46624-1.281509.0164.07662.0303.156951.0404.240982.54509.18042.98422.582057 1.20882 1.096143z"/><path d="m82.378385 93.855015-.23471-.237278-.77097.121126-.11861.347239.35456.232331.65112-.232331z"/><path d="m77.915285 93.855015.23344-.237278.77222.121126.11737.347239-.3546.232331-.64982-.232331z"/><path d="m82.268745 94.79799c.0366-.113691.0656-.232304.0833-.35343h-.2246c-.0114.06797-.0265.133482-.0442.198967.0656.05191.12745.102579.1855.154463z"/><path d="m81.556955 95.532103c-.0581.05561-.11861.109988-.18298.158168.0416.05932.082.121126.11988.185367.0997-.07538.19307-.158168.27887-.248391-.0707-.02842-.14258-.06054-.21577-.09514z"/><path d="m82.713985 94.131981c0 .329962-.0656.643837-.18169.933027.0871.101335.15266.198967.19558.286702.18169-.369517.2839-.782267.2839-1.219729 0-1.455764-1.12554-2.653255-2.5716-2.80402.0719.08774.13629.196499.18929.321302 1.18737.227383 2.08452 1.25185 2.08452 2.482718z"/><path d="m82.122135 95.742103c-.13753.163116-.29652.310171-.47064.435002.0404.08898.0782.18288.11102.279267.27003-.181636.50599-.409046.69905-.667305-.0971.0012-.21198-.01484-.33943-.04696z"/><path d="m80.378245 93.787123c-.003 0-.004-.0012-.005-.0025l-.24226-2.476532h-.22588l-.20693 2.493835h.001c0 .005-.001.0099-.001.01482.001.04202.005.08157.0126.119883.004.04202.0164.08527.0366.128508.0429.10877.11232.190315.19434.228627.0189.01484.0391.02842.0593.04202.004.0025.009.0049.0126.0074v.0012l2.51354 1.353213.13123-.179203z"/><path d="m80.698865 97.176912c-.19558 0-.36089-.130995-.40884-.30771l.92996-.34851-.22209-.541258-.86686.343535-.86812-.342318-.22082.540041.92112.355918c-.0505.173011-.21325.300302-.40632.300302-.0126 0-.0265-.0012-.0391-.0025l-.18801.258289c.0707.02349.14637.03585.22588.03585.23344 0 .44037-.10877.5716-.278051.13123.168064.33817.278051.57161.278051.0883 0 .17161-.01609.24982-.0445l-.18421-.252095c-.0214.0037-.0429.0049-.0656.0049z"/><path d="m83.024415 91.993883-.30157.336127c.36846.507921.58423 1.128289.58423 1.798082 0 1.097386-.58045 2.062533-1.45741 2.616173.0391.145812.0707.297815.0946.454766 1.08011-.614177 1.80692-1.75977 1.80692-3.070939.003-.800788-.27003-1.539796-.72681-2.134209z"/><path d="m76.955105 94.12833c0-.668549.21577-1.287701.58297-1.795595l-.30159-.336153c-.45677.593196-.7268 1.332204-.7268 2.131748 0 1.319821.73564 2.471579 1.82838 3.082078.024-.156951.0542-.308954.0934-.453548-.88834-.552398-1.47633-1.522492-1.47633-2.62853z"/><path d="m80.131035 90.580267c-.55647 0-1.08389.123579-1.55455.342316l.22209.380624c.40502-.184134.85677-.286705 1.33246-.286705.47446 0 .92491.102571 1.32996.285469l.22209-.380624c-.47067-.217501-.99684-.34108-1.55205-.34108z"/></g></g></svg>