<svg fill="none" height="404" viewBox="0 0 410 404" width="410" xmlns="http://www.w3.org/2000/svg" xmlns:xlink="http://www.w3.org/1999/xlink"><linearGradient id="a" gradientUnits="userSpaceOnUse" x1="6.00017" x2="235" y1="32.9999" y2="344"><stop offset="0" stop-color="#41d1ff"/><stop offset="1" stop-color="#bd34fe"/></linearGradient><linearGradient id="b" gradientUnits="userSpaceOnUse" x1="194.651" x2="236.076" y1="8.81818" y2="292.989"><stop offset="0" stop-color="#ffea83"/><stop offset=".0833333" stop-color="#ffdd35"/><stop offset="1" stop-color="#ffa800"/></linearGradient><path d="m399.641 59.5246-183.998 329.0204c-3.799 6.793-13.559 6.833-17.415.073l-187.6463-329.0617c-4.20083-7.3667 2.0985-16.2898 10.4464-14.7977l184.1949 32.9238c1.175.21 2.378.208 3.553-.0061l180.343-32.8705c8.32-1.5164 14.649 7.3376 10.522 14.7188z" fill="url(#a)"/><path d="m292.965 1.5744-136.164 26.6808c-2.238.4385-3.895 2.3351-4.03 4.6112l-8.376 141.4636c-.197 3.332 2.863 5.918 6.115 5.168l37.91-8.749c3.547-.818 6.752 2.306 6.023 5.873l-11.263 55.153c-.758 3.712 2.727 6.886 6.352 5.785l23.415-7.114c3.63-1.102 7.118 2.081 6.35 5.796l-17.899 86.633c-1.12 5.419 6.088 8.374 9.094 3.728l2.008-3.103 110.954-221.428c1.858-3.7075-1.346-7.935-5.418-7.1492l-39.022 7.5312c-3.667.707-6.787-2.708-5.752-6.2957l25.469-88.29141c1.036-3.59375-2.095-7.011709-5.766-6.29249z" fill="url(#b)"/></svg>