<svg height="90" width="90" xmlns="http://www.w3.org/2000/svg">
  <path d="M51.578 40.819c-5 13.748-11.284 31.132-11.284 31.132a6.03 6.03 0 1 1-11.26-4.322s5.586-14.058 10.653-26.886c1.505-.954 3.388-1.821 5.952-1.821 2.233 0 4.863 1.306 5.94 1.897zm-24.366 26.64a7.53 7.53 0 1 0 14.06 5.398s17.915-47.161 18.472-48.25c1.418-.788 2.308-1.183 2.604-1.875.838-2.074-1.953-5.134-7.265-7.28-5.312-2.146-10.032-2.54-10.221 0-.145 1.945.593 2.34.928 3.755.162.21-18.578 48.253-18.578 48.253zm25.955-47.385c3.071 1.24 5.828 1.585 6.158.769.33-.816-1.892-2.484-4.964-3.725-3.071-1.24-5.828-1.585-6.158-.769-.33.816 1.893 2.484 4.964 3.725zM38.79 58.91c.961 0 1.74-.78 1.74-1.743a1.742 1.742 0 0 0-3.481 0c0 .963.78 1.743 1.74 1.743zm-3.633 10.51a1.976 1.976 0 1 0 0-3.952 1.976 1.976 0 0 0 0 3.951zm8.47-16.655a1.037 1.037 0 1 0 0-2.075 1.037 1.037 0 0 0 0 2.075zm-8.25 7.607a.89.89 0 1 0 0-1.779.89.89 0 0 0 0 1.779z" fill="#FFF" fill-rule="evenodd" />
</svg>
