<?xml version="1.0" encoding="UTF-8"?>
<svg width="200px" height="200px" viewBox="0 0 200 200" version="1.1" xmlns="http://www.w3.org/2000/svg" xmlns:xlink="http://www.w3.org/1999/xlink">
    <!-- Generator: Sketch 51.2 (57519) - http://www.bohemiancoding.com/sketch -->
    <title>talksearch-icon</title>
    <desc>Created with Sketch.</desc>
    <defs></defs>
    <g id="talksearch-icon" stroke="none" stroke-width="1" fill="none" fill-rule="evenodd">
        <g id="Group" transform="translate(32.000000, 44.000000)" fill="#FFFFFF" fill-rule="nonzero">
            <path d="M84.4681894,9.41380249 C66.8514868,-0.484840368 45,12.3498406 45,32.3987868 L45,36.0898062 L109.453416,73 C117.076028,49.0922608 107.251329,22.4162571 84.4681894,9.41380249 Z" id="Shape" fill-opacity="0.44568048"></path>
            <path d="M80.0828863,57.0983174 L52,40.6204031 L52,35.2905422 C52,23.2107792 56.6688962,12.2510071 64.8454633,6.78857728 C70.9281086,5.24008768 77.6398331,5.89293984 83.8230563,9.45274375 C103.623823,21.0312864 113.508881,43.3302637 110.454028,65 L80.0828863,57.0983174 Z" id="Combined-Shape"></path>
            <path d="M0,54.9456446 C0.168224299,75.1177016 22.1214953,87.5247825 39.5327103,77.396553 L42.728972,75.539711 L42.728972,30.3846883 C42.728972,10.550239 63.6728972,-2.19444971 81,6.75215294 C73.17757,2.44765544 64.2616822,0 54.7570094,0 C24.4766355,0 0,24.6453583 0,54.9456446 Z" id="Shape" fill-opacity="0.486865942"></path>
            <path d="M42.728972,65.215353 L38.1108232,67.9109733 C26.8040003,74.4088559 13.7176908,76.5180428 5.17683876,70.1974234 C2.00177929,65.9866794 0.0497113373,60.7199676 0,54.7772652 C0,24.5698333 24.4766355,0 54.7570094,0 C64.2616822,0 73.17757,2.44015467 81,6.73146116 C63.6728972,-2.18772488 42.728972,10.5179081 42.728972,30.2915752 L42.728972,65.215353 Z" id="Combined-Shape"></path>
            <path d="M131.311223,88.5843033 L78.0497831,57 L39.3598692,79.6932796 C22.3597555,89.6004204 0.921188429,77.8303982 0,58.1854698 C0.167488805,67.16117 2.51233207,76.1368702 7.28576298,84.5198354 C22.3597555,110.854201 55.5225388,119.745224 81.7345371,104.672823 C84.1631244,103.233323 86.759201,101.285766 89.0202997,99.3382084 C92.7050536,96.1205041 98.0646955,95.6971226 102.251916,98.2374148 L119.670751,108.652614 C125.197882,111.954994 132.232411,110.092113 135.498443,104.50347 C138.596986,98.9148263 136.754609,91.8866833 131.311223,88.5843033 Z" id="Shape"></path>
        </g>
    </g>
</svg>