<svg viewBox="0 0 40 39" xmlns="http://www.w3.org/2000/svg">
  <path d="M19.998 0C8.955 0 0 8.954 0 20c0 8.837 5.73 16.333 13.678 18.977 1 .184 1.365-.433 1.365-.964 0-.475-.017-1.732-.027-3.4C9.453 35.82 8.28 31.93 8.28 31.93c-.91-2.31-2.222-2.925-2.222-2.925-1.816-1.24.137-1.215.137-1.215 2.008.14 3.064 2.06 3.064 2.06 1.783 3.057 4.68 2.174 5.82 1.662.18-1.29.698-2.173 1.27-2.673-4.442-.505-9.11-2.222-9.11-9.885 0-2.183.78-3.97 2.058-5.367-.206-.506-.893-2.54.196-5.293 0 0 1.68-.538 5.5 2.05A19.156 19.156 0 0 1 20 9.67c1.7.01 3.41.23 5.008.675 3.818-2.588 5.494-2.05 5.494-2.05 1.09 2.753.405 4.787.2 5.293 1.282 1.397 2.055 3.184 2.055 5.367 0 7.683-4.676 9.374-9.13 9.868.716.618 1.356 1.838 1.356 3.703 0 2.675-.025 4.832-.025 5.487 0 .536.36 1.158 1.376.963C34.274 36.326 40 28.836 40 20 40 8.955 31.045 0 19.998 0" />
</svg>
