<svg height="100%" viewBox="0 0 15 15" width="100%" xmlns="http://www.w3.org/2000/svg">
  <path d="M10.052 10.88c-1.1.91-2.483 1.406-3.91 1.403C2.75 12.283 0 9.533 0 6.14 0 2.75 2.75 0 6.142 0c3.392 0 6.14 2.75 6.14 6.142 0 1.485-.526 2.847-1.403 3.91l3.95 3.95c.227.227.228.596-.002.826-.228.227-.597.228-.826 0l-3.95-3.95zm-3.91.234c2.745 0 4.972-2.227 4.972-4.972 0-2.747-2.227-4.972-4.972-4.972-2.747 0-4.972 2.225-4.972 4.972 0 2.745 2.225 4.972 4.972 4.972z" fill-rule="evenodd"></path>
</svg>
