<?xml version="1.0" encoding="UTF-8"?>
<svg width="36px" height="36px" viewBox="0 0 36 36" version="1.1" xmlns="http://www.w3.org/2000/svg" xmlns:xlink="http://www.w3.org/1999/xlink">
    <!-- Generator: Sketch 51.2 (57519) - http://www.bohemiancoding.com/sketch -->
    <title>UI/icons/dark/menu</title>
    <desc>Created with Sketch.</desc>
    <defs></defs>
    <g id="UI/icons/dark/menu" stroke="none" stroke-width="1" fill="none" fill-rule="evenodd">
        <path d="M3.5,7.53368421 C3.5,6.41109053 4.06,5.5 4.73941176,5.5 L30.2605882,5.5 C30.9441176,5.5 31.5,6.40295579 31.5,7.53368421 C31.5,8.65627789 30.94,9.56736842 30.2605882,9.56736842 L4.73941176,9.56736842 C4.05588235,9.56736842 3.5,8.66441263 3.5,7.53368421 Z M3.5,17.5 C3.5,16.3774063 4.06,15.4663158 4.73941176,15.4663158 L30.2605882,15.4663158 C30.9441176,15.4663158 31.5,16.3692716 31.5,17.5 C31.5,18.6225937 30.94,19.5336842 30.2605882,19.5336842 L4.73941176,19.5336842 C4.05588235,19.5336842 3.5,18.6307284 3.5,17.5 Z M3.5,27.4663158 C3.5,26.3437221 4.06,25.4326316 4.73941176,25.4326316 L30.2605882,25.4326316 C30.9441176,25.4326316 31.5,26.3355874 31.5,27.4663158 C31.5,28.5889095 30.94,29.5 30.2605882,29.5 L4.73941176,29.5 C4.05588235,29.5 3.5,28.5970442 3.5,27.4663158 Z" id="Shape" fill="#182359" fill-rule="nonzero"></path>
    </g>
</svg>