<?xml version="1.0" encoding="UTF-8"?>
<svg width="1133px" height="172px" viewBox="0 0 1133 172" version="1.1" xmlns="http://www.w3.org/2000/svg" xmlns:xlink="http://www.w3.org/1999/xlink">
    <!-- Generator: Sketch 46.1 (44463) - http://www.bohemiancoding.com/sketch -->
    <title>illus-howitworks</title>
    <desc>Created with Sketch.</desc>
    <defs>
        <polygon id="path-1" points="1117 75 1131 85 1117 95"></polygon>
        <rect id="path-2" x="0" y="0" width="239.979392" height="167.19999" rx="2.39999986"></rect>
        <filter x="-1.3%" y="-1.8%" width="102.5%" height="103.6%" filterUnits="objectBoundingBox" id="filter-3">
            <feOffset dx="0" dy="0" in="SourceAlpha" result="shadowOffsetOuter1"></feOffset>
            <feGaussianBlur stdDeviation="1" in="shadowOffsetOuter1" result="shadowBlurOuter1"></feGaussianBlur>
            <feComposite in="shadowBlurOuter1" in2="SourceAlpha" operator="out" result="shadowBlurOuter1"></feComposite>
            <feColorMatrix values="0 0 0 0 0.697969813   0 0 0 0 0.697969813   0 0 0 0 0.697969813  0 0 0 0.5 0" type="matrix" in="shadowBlurOuter1"></feColorMatrix>
        </filter>
        <rect id="path-4" x="0" y="0" width="239.979392" height="24.6999985"></rect>
        <rect id="path-5" x="0" y="0" width="236.484594" height="164.765072" rx="2.39999986"></rect>
        <filter x="-1.3%" y="-1.8%" width="102.5%" height="103.6%" filterUnits="objectBoundingBox" id="filter-6">
            <feOffset dx="0" dy="0" in="SourceAlpha" result="shadowOffsetOuter1"></feOffset>
            <feGaussianBlur stdDeviation="1" in="shadowOffsetOuter1" result="shadowBlurOuter1"></feGaussianBlur>
            <feComposite in="shadowBlurOuter1" in2="SourceAlpha" operator="out" result="shadowBlurOuter1"></feComposite>
            <feColorMatrix values="0 0 0 0 0.697969813   0 0 0 0 0.697969813   0 0 0 0 0.697969813  0 0 0 0.5 0" type="matrix" in="shadowBlurOuter1"></feColorMatrix>
        </filter>
        <rect id="path-7" x="0" y="0" width="236.484594" height="24.3402948"></rect>
        <linearGradient x1="50%" y1="0%" x2="50%" y2="100%" id="linearGradient-8">
            <stop stop-color="#FD336E" stop-opacity="0" offset="0%"></stop>
            <stop stop-color="#FD336E" offset="49.1390306%"></stop>
            <stop stop-color="#FD336E" stop-opacity="0" offset="100%"></stop>
        </linearGradient>
    </defs>
    <g id="Community" stroke="none" stroke-width="1" fill="none" fill-rule="evenodd">
        <g id="Community-DocSearch" transform="translate(-148.000000, -2319.000000)">
            <g id="Section---How-it-works" transform="translate(150.000000, 1554.000000)">
                <g id="illus-howitworks" transform="translate(0.000000, 767.000000)">
                    <g id="Rectangle-35">
                        <use fill="#C4C8D8" fill-rule="evenodd" xlink:href="#path-1"></use>
                        <path stroke="#C4C8D8" stroke-width="2.45999998" d="M1118.23,77.3901228 L1118.23,92.6098772 L1128.88383,85 L1118.23,77.3901228 Z"></path>
                    </g>
                    <g id="Group" transform="translate(773.000000, 0.000000)">
                        <g id="Rectangle-256">
                            <use fill="black" fill-opacity="1" filter="url(#filter-3)" xlink:href="#path-2"></use>
                            <use fill="#F7F7FF" fill-rule="evenodd" xlink:href="#path-2"></use>
                            <rect stroke="#C0C8D9" stroke-width="0.799999952" x="0.399999976" y="0.399999976" width="239.179392" height="166.39999" rx="2.39999986"></rect>
                        </g>
                        <g id="Rectangle-256">
                            <use fill="#FFFFFF" fill-rule="evenodd" xlink:href="#path-4"></use>
                            <rect stroke="#C0C8D9" stroke-width="0.799999952" x="0.399999976" y="0.399999976" width="239.179392" height="23.8999986"></rect>
                        </g>
                        <path d="M10.4752909,14.2499992 C11.5271715,14.2499992 12.3798893,13.3993402 12.3798893,12.3499993 C12.3798893,11.3006583 11.5271715,10.4499994 10.4752909,10.4499994 C9.42341028,10.4499994 8.57069256,11.3006583 8.57069256,12.3499993 C8.57069256,13.3993402 9.42341028,14.2499992 10.4752909,14.2499992 Z" id="Oval-6" fill="#D8D8D8"></path>
                        <path d="M17.1413851,14.2499992 C18.1932657,14.2499992 19.0459835,13.3993402 19.0459835,12.3499993 C19.0459835,11.3006583 18.1932657,10.4499994 17.1413851,10.4499994 C16.0895045,10.4499994 15.2367868,11.3006583 15.2367868,12.3499993 C15.2367868,13.3993402 16.0895045,14.2499992 17.1413851,14.2499992 Z" id="Oval-6" fill="#D8D8D8"></path>
                        <path d="M23.8074793,14.2499992 C24.85936,14.2499992 25.7120777,13.3993402 25.7120777,12.3499993 C25.7120777,11.3006583 24.85936,10.4499994 23.8074793,10.4499994 C22.7555987,10.4499994 21.902881,11.3006583 21.902881,12.3499993 C21.902881,13.3993402 22.7555987,14.2499992 23.8074793,14.2499992 Z" id="Oval-6" fill="#D8D8D8"></path>
                        <g transform="translate(40.948864, 24.699999)">
                            <rect id="Rectangle-33" fill="#FFFFFF" x="0" y="0" width="159.986261" height="140.599992"></rect>
                            <ellipse id="Oval-15" fill="#F7F7FF" cx="80.9454297" cy="85.4999949" rx="38.0919669" ry="37.9999977"></ellipse>
                            <text id="?" font-family="Raleway-Regular, Raleway" font-size="64.5999961" font-weight="normal" fill="#FFFFFF">
                                <tspan x="66.0467802" y="109.449997">?</tspan>
                            </text>
                        </g>
                        <g id="Rectangle-4-Copy-19-+-Get-Started-Copy-Copy-Copy-Copy-Copy" transform="translate(65.708643, 37.049998)">
                            <path d="M18.2202798,14.6528979 C18.2202798,15.1271831 17.8271337,15.5201623 17.352647,15.5201623 C17.122182,15.5201623 16.8984955,15.4253052 16.7425927,15.2626932 L14.417608,12.9454713 C13.6245375,13.494287 12.6755641,13.7856336 11.713034,13.7856336 C9.07624384,13.7856336 6.94105383,11.6513503 6.94105383,9.01567986 C6.94105383,6.38000938 9.07624384,4.24572609 11.713034,4.24572609 C14.3498242,4.24572609 16.4850142,6.38000938 16.4850142,9.01567986 C16.4850142,9.97780121 16.1935438,10.9263716 15.644495,11.7191054 L17.9694797,14.0431027 C18.1253824,14.1989393 18.2202798,14.4225309 18.2202798,14.6528979 Z M14.7497487,9.01567986 C14.7497487,7.34213074 13.3872941,5.98025473 11.713034,5.98025473 C10.0387739,5.98025473 8.67631936,7.34213074 8.67631936,9.01567986 C8.67631936,10.689229 10.0387739,12.051105 11.713034,12.051105 C13.3872941,12.051105 14.7497487,10.689229 14.7497487,9.01567986 Z" id="Icons/Search" fill="#3369E6"></path>
                            <rect id="Rectangle-34" stroke="#3369E6" stroke-width="1.5999999" x="0.799999952" y="0.799999952" width="107.914405" height="17.399999" rx="8.69999948"></rect>
                        </g>
                    </g>
                    <g id="Group" transform="translate(127.000000, 2.000000)">
                        <g id="Rectangle-256">
                            <use fill="black" fill-opacity="1" filter="url(#filter-6)" xlink:href="#path-5"></use>
                            <use fill="#F7F7FF" fill-rule="evenodd" xlink:href="#path-5"></use>
                            <rect stroke="#C0C8D9" stroke-width="0.799999952" x="0.399999976" y="0.399999976" width="235.684594" height="163.965072" rx="2.39999986"></rect>
                        </g>
                        <g id="Rectangle-256">
                            <use fill="#FFFFFF" fill-rule="evenodd" xlink:href="#path-7"></use>
                            <rect stroke="#C0C8D9" stroke-width="0.799999952" x="0.399999976" y="0.399999976" width="235.684594" height="23.5402948"></rect>
                        </g>
                        <path d="M10.3227402,14.0424778 C11.3593024,14.0424778 12.1996021,13.2042069 12.1996021,12.1701474 C12.1996021,11.1360879 11.3593024,10.297817 10.3227402,10.297817 C9.28617805,10.297817 8.44587837,11.1360879 8.44587837,12.1701474 C8.44587837,13.2042069 9.28617805,14.0424778 10.3227402,14.0424778 Z" id="Oval-6" fill="#D8D8D8"></path>
                        <path d="M16.8917567,14.0424778 C17.9283189,14.0424778 18.7686186,13.2042069 18.7686186,12.1701474 C18.7686186,11.1360879 17.9283189,10.297817 16.8917567,10.297817 C15.8551946,10.297817 15.0148949,11.1360879 15.0148949,12.1701474 C15.0148949,13.2042069 15.8551946,14.0424778 16.8917567,14.0424778 Z" id="Oval-6" fill="#D8D8D8"></path>
                        <path d="M23.4607733,14.0424778 C24.4973354,14.0424778 25.3376351,13.2042069 25.3376351,12.1701474 C25.3376351,11.1360879 24.4973354,10.297817 23.4607733,10.297817 C22.4242111,10.297817 21.5839114,11.1360879 21.5839114,12.1701474 C21.5839114,13.2042069 22.4242111,14.0424778 23.4607733,14.0424778 Z" id="Oval-6" fill="#D8D8D8"></path>
                        <g transform="translate(0.000000, 24.340295)">
                            <rect id="Rectangle-33" fill="#FFFFFF" x="40.35253" y="0" width="157.656396" height="138.552447"></rect>
                            <ellipse id="Oval-15" fill="#F7F7FF" cx="118.242297" cy="61.7869021" rx="37.5372372" ry="37.4466073"></ellipse>
                            <text id="?" font-family="Raleway-Regular, Raleway" font-size="63.6592325" font-weight="normal" fill="#FFFFFF">
                                <tspan x="104.499046" y="84.3402948">?</tspan>
                            </text>
                            <path d="M2,59.4464892 L235.391415,59.4464892" id="Line" stroke="#FD336E" stroke-width="2.39999986" stroke-linecap="square"></path>
                            <rect id="Rectangle-34" fill="url(#linearGradient-8)" opacity="0.313316231" x="0" y="43.0635985" width="236.484594" height="32.7657814"></rect>
                        </g>
                    </g>
                    <path d="M50.9183918,85.5340909 L20.7217732,85.5340909" id="Line" stroke="#C4C8D8" stroke-width="3" stroke-linecap="square"></path>
                    <path d="M8.84237174,85.5340909 L0.349572754,85.5340909" id="Line-Copy-2" stroke="#C4C8D8" stroke-width="3" stroke-linecap="square"></path>
                    <path d="M110.918392,85.5340909 L80.7217732,85.5340909" id="Line" stroke="#C4C8D8" stroke-width="3" stroke-linecap="square"></path>
                    <path d="M68.8423717,85.5340909 L60.3495728,85.5340909" id="Line-Copy-2" stroke="#C4C8D8" stroke-width="3" stroke-linecap="square"></path>
                    <path d="M425.918392,85.5340909 L395.721773,85.5340909" id="Line" stroke="#C4C8D8" stroke-width="3" fill="#C4C8D8" stroke-linecap="square"></path>
                    <path d="M383.842372,85.5340909 L375.349573,85.5340909" id="Line-Copy-2" stroke="#C4C8D8" stroke-width="3" fill="#C4C8D8" stroke-linecap="square"></path>
                    <path d="M485.918392,85.5340909 L455.721773,85.5340909" id="Line" stroke="#C4C8D8" stroke-width="3" fill="#C4C8D8" stroke-linecap="square"></path>
                    <path d="M443.842372,85.5340909 L435.349573,85.5340909" id="Line-Copy-2" stroke="#C4C8D8" stroke-width="3" fill="#C4C8D8" stroke-linecap="square"></path>
                    <path d="M546.918392,85.5340909 L516.721773,85.5340909" id="Line" stroke="#3369E6" stroke-width="3" stroke-linecap="square"></path>
                    <path d="M504.842372,85.5340909 L496.349573,85.5340909" id="Line-Copy-2" stroke="#C4C8D8" stroke-width="3" fill="#C4C8D8" stroke-linecap="square"></path>
                    <path d="M626.918392,85.5340909 L596.721773,85.5340909" id="Line" stroke="#C4C8D8" stroke-width="3" fill="#C4C8D8" stroke-linecap="square"></path>
                    <path d="M584.842372,85.5340909 L576.349573,85.5340909" id="Line-Copy-2" stroke="#3369E6" stroke-width="3" stroke-linecap="square"></path>
                    <path d="M686.918392,85.5340909 L656.721773,85.5340909" id="Line" stroke="#C4C8D8" stroke-width="3" fill="#C4C8D8" stroke-linecap="square"></path>
                    <path d="M644.842372,85.5340909 L636.349573,85.5340909" id="Line-Copy-2" stroke="#C4C8D8" stroke-width="3" fill="#C4C8D8" stroke-linecap="square"></path>
                    <path d="M746.918392,85.5340909 L716.721773,85.5340909" id="Line" stroke="#C4C8D8" stroke-width="3" fill="#C4C8D8" stroke-linecap="square"></path>
                    <path d="M704.842372,85.5340909 L696.349573,85.5340909" id="Line-Copy-2" stroke="#C4C8D8" stroke-width="3" fill="#C4C8D8" stroke-linecap="square"></path>
                    <path d="M764.842372,85.5340909 L756.349573,85.5340909" id="Line-Copy-2" stroke="#C4C8D8" stroke-width="3" fill="#C4C8D8" stroke-linecap="square"></path>
                    <g id="icon-machines-redundancy-copy" transform="translate(514.651665, 27.750000)">
                        <path d="M0,92.7272727 L0,40.9090909 L0,13.6363636 C0,6.105 15.4863919,0 37.9324932,0 C60.3785946,0 75.8649865,6.105 75.8649865,13.6363636 L75.8649865,40 L75.8649865,92.7272727 C75.8649865,100.258636 60.3785946,106.363636 37.9324932,106.363636 C15.4863919,106.363636 0,100.258636 0,92.7272727 L0,92.7272727 Z" id="Stroke-203" fill="#FCFCFD"></path>
                        <path d="M4.07876271,88.3636364 L4.07876271,41.7272727 L4.07876271,17.1818182 C4.07876271,10.4035909 18.0664716,4.90909091 38.3403695,4.90909091 C58.6142675,4.90909091 72.6019763,10.4035909 72.6019763,17.1818182 L72.6019763,40.9090909 L72.6019763,88.3636364 C72.6019763,95.1418636 58.6142675,100.636364 38.3403695,100.636364 C18.0664716,100.636364 4.07876271,95.1418636 4.07876271,88.3636364 L4.07876271,88.3636364 Z" id="Stroke-203" stroke="#3369E6" stroke-width="2.4" fill="#FCFCFD" stroke-linecap="round"></path>
                        <path d="M12.2362881,44.4021545 L12.2362881,22.9371545 C12.2362881,17.8006091 22.9760782,13.6364727 38.3403695,13.6364727 C53.7046608,13.6364727 64.4444509,17.8006091 64.4444509,22.9371545 L64.4444509,43.7819727 L64.4444509,81.7902 C64.4444509,86.9267455 53.7046608,91.0908818 38.3403695,91.0908818 C22.9760782,91.0908818 12.2362881,86.9267455 12.2362881,81.7902 L12.2362881,44.4021545 Z" id="Fill-187" fill="#F7F7FF"></path>
                        <path d="M15.091422,84.6818182 C15.091422,85.3596818 14.5436442,85.9090909 13.8677932,85.9090909 C13.1919422,85.9090909 12.6441644,85.3596818 12.6441644,84.6818182 C12.6441644,84.0039545 13.1919422,83.4545455 13.8677932,83.4545455 C14.5436442,83.4545455 15.091422,84.0039545 15.091422,84.6818182 L15.091422,84.6818182 Z" id="Stroke-189" stroke="#FD336E" stroke-width="2.4" stroke-linecap="round"></path>
                        <path d="M15.091422,60.9545455 C15.091422,61.6324091 14.5436442,62.1818182 13.8677932,62.1818182 C13.1919422,62.1818182 12.6441644,61.6324091 12.6441644,60.9545455 C12.6441644,60.2766818 13.1919422,59.7272727 13.8677932,59.7272727 C14.5436442,59.7272727 15.091422,60.2766818 15.091422,60.9545455 L15.091422,60.9545455 Z" id="Stroke-191" stroke="#FD336E" stroke-width="2.4" stroke-linecap="round"></path>
                        <path d="M72.6019763,40.9090909 C72.6019763,47.6873182 58.6142675,53.1818182 38.3403695,53.1818182 C18.0664716,53.1818182 4.07876271,47.6873182 4.07876271,40.9090909" id="Stroke-193" stroke="#3369E6" stroke-width="2.4" stroke-linecap="round"></path>
                        <path d="M72.6019763,64.6363636 C72.6019763,71.4145909 58.6142675,76.9090909 38.3403695,76.9090909 C18.0664716,76.9090909 4.07876271,71.4145909 4.07876271,64.6363636" id="Stroke-195" stroke="#3369E6" stroke-width="2.4" stroke-linecap="round"></path>
                        <path d="M15.091422,38.0454545 C15.091422,38.7233182 14.5436442,39.2727273 13.8677932,39.2727273 C13.1919422,39.2727273 12.6441644,38.7233182 12.6441644,38.0454545 C12.6441644,37.3675909 13.1919422,36.8181818 13.8677932,36.8181818 C14.5436442,36.8181818 15.091422,37.3675909 15.091422,38.0454545 L15.091422,38.0454545 Z" id="Stroke-197" stroke="#FD336E" stroke-width="2.4" stroke-linecap="round"></path>
                        <path d="M72.6019763,17.1818182 C72.6019763,23.9600455 58.6142675,29.4545455 38.3403695,29.4545455 C18.0664716,29.4545455 4.07876271,23.9600455 4.07876271,17.1818182" id="Stroke-199" stroke="#3369E6" stroke-width="2.4" stroke-linecap="round"></path>
                        <path d="M15.091422,38.0454545 C15.091422,38.7233182 14.5436442,39.2727273 13.8677932,39.2727273 C13.1919422,39.2727273 12.6441644,38.7233182 12.6441644,38.0454545 C12.6441644,37.3675909 13.1919422,36.8181818 13.8677932,36.8181818 C14.5436442,36.8181818 15.091422,37.3675909 15.091422,38.0454545 L15.091422,38.0454545 Z" id="Stroke-201" stroke="#FD336E" stroke-width="2.4" stroke-linecap="round"></path>
                    </g>
                    <g id="tuning" transform="translate(567.962196, 90.136364)">
                        <path d="M55.7732458,47.9706219 C55.7732458,51.7549972 52.6868517,54.8232706 48.8782017,54.8232706 L7.50793693,54.8232706 C3.69928694,54.8232706 0.612892811,51.7549972 0.612892811,47.9706219 L0.612892811,6.85472952 C0.612892811,3.07035426 3.69928694,0.00208079015 7.50793693,0.00208079015 L48.8782017,0.00208079015 C52.6868517,0.00208079015 55.7732458,3.07035426 55.7732458,6.85472952 L55.7732458,47.9706219 Z" id="Fill-7749" fill="#FFFFFF"></path>
                        <path d="M51.8915913,45.0772813 C51.8915913,48.3290408 49.2395786,50.9654832 45.9669608,50.9654832 L10.4191778,50.9654832 C7.14656001,50.9654832 4.49454728,48.3290408 4.49454728,45.0772813 L4.49454728,9.74807009 C4.49454728,6.49631061 7.14656001,3.85986822 10.4191778,3.85986822 L45.9669608,3.85986822 C49.2395786,3.85986822 51.8915913,6.49631061 51.8915913,9.74807009 L51.8915913,45.0772813 Z" id="Fill-7749" stroke="#3369E6" stroke-width="2.4" fill="#FFFFFF"></path>
                        <path d="M17.5695939,40.7026611 C17.5695939,42.3336377 16.2889544,43.6559912 14.7094275,43.6559912 C13.1299005,43.6559912 11.849261,42.3336377 11.849261,40.7026611 L11.849261,14.1226903 C11.849261,12.4917138 13.1299005,11.1693602 14.7094275,11.1693602 C16.2889544,11.1693602 17.5695939,12.4917138 17.5695939,14.1226903 L17.5695939,40.7026611 Z" id="Fill-7751" stroke="#3369E6" stroke-width="1.6" fill="#F7F7FF"></path>
                        <path d="M31.461831,40.7026611 C31.461831,42.3336377 30.1811914,43.6559912 28.6016645,43.6559912 C27.0221376,43.6559912 25.7414981,42.3336377 25.7414981,40.7026611 L25.7414981,14.1226903 C25.7414981,12.4917138 27.0221376,11.1693602 28.6016645,11.1693602 C30.1811914,11.1693602 31.461831,12.4917138 31.461831,14.1226903 L31.461831,40.7026611 Z" id="Fill-7752" stroke="#3369E6" stroke-width="1.6" fill="#F7F7FF"></path>
                        <path d="M44.5368776,40.7026611 C44.5368776,42.3336377 43.2562381,43.6559912 41.6767111,43.6559912 C40.0971842,43.6559912 38.8165447,42.3336377 38.8165447,40.7026611 L38.8165447,14.1226903 C38.8165447,12.4917138 40.0971842,11.1693602 41.6767111,11.1693602 C43.2562381,11.1693602 44.5368776,12.4917138 44.5368776,14.1226903 L44.5368776,40.7026611 Z" id="Fill-7753" stroke="#3369E6" stroke-width="1.6" fill="#F7F7FF"></path>
                        <path d="M20.0211652,21.5244738 C20.0211652,20.7399217 19.2281986,20.1031837 18.2508389,20.1031837 L11.1680161,20.1031837 C10.1906563,20.1031837 9.39768977,20.7399217 9.39768977,21.5244738 L9.39768977,24.3670541 C9.39768977,25.1516062 10.1906563,25.7883442 11.1680161,25.7883442 L18.2508389,25.7883442 C19.2281986,25.7883442 20.0211652,25.1516062 20.0211652,24.3670541 L20.0211652,21.5244738 Z" id="Fill-7754" stroke="#3369E6" stroke-width="1.6" fill="#FFFFFF"></path>
                        <path d="M46.9884488,21.5244738 C46.9884488,20.7399217 46.1954823,20.1031837 45.2181226,20.1031837 L38.1352997,20.1031837 C37.15794,20.1031837 36.3649735,20.7399217 36.3649735,21.5244738 L36.3649735,24.3670541 C36.3649735,25.1516062 37.15794,25.7883442 38.1352997,25.7883442 L45.2181226,25.7883442 C46.1954823,25.7883442 46.9884488,25.1516062 46.9884488,24.3670541 L46.9884488,21.5244738 Z" id="Fill-7755" stroke="#3369E6" stroke-width="1.6" fill="#FFFFFF"></path>
                        <path d="M33.9134022,30.4582974 C33.9134022,29.6737452 33.1204357,29.0370073 32.1430759,29.0370073 L25.0602531,29.0370073 C24.0828934,29.0370073 23.2899268,29.6737452 23.2899268,30.4582974 L23.2899268,33.3008776 C23.2899268,34.0854297 24.0828934,34.7221677 25.0602531,34.7221677 L32.1430759,34.7221677 C33.1204357,34.7221677 33.9134022,34.0854297 33.9134022,33.3008776 L33.9134022,30.4582974 Z" id="Fill-7756" stroke="#3369E6" stroke-width="1.6" fill="#FFFFFF"></path>
                    </g>
                    <g id="Group-3" transform="translate(1018.000000, 84.000000)" stroke="#C4C8D8" stroke-width="3" fill="#C4C8D8" stroke-linecap="square">
                        <path d="M50.9183918,1.53409091 L20.7217732,1.53409091" id="Line"></path>
                        <path d="M8.84237174,1.53409091 L0.349572754,1.53409091" id="Line-Copy-2"></path>
                        <path d="M70.5,1.53409091 L60.3495728,1.53409091" id="Line-Copy-2"></path>
                        <path d="M98.5,1.53409091 L80.3495728,1.53409091" id="Line-Copy-2"></path>
                    </g>
                </g>
            </g>
        </g>
    </g>
</svg>