<svg height="675" viewBox="0 0 1440 675" width="1440" xmlns="http://www.w3.org/2000/svg"><g fill="none" fill-rule="evenodd" opacity=".5" stroke="#c5c9e0" transform="translate(0 1)"><path d="m1440 .9135c-.8406-.6093-42.0885-.9135-123.7428-.9135-122.4837 0-122.4837 223.6878-244.9674 223.6878h-244.9656c-122.481 0-122.481 223.6878-244.9647 223.6878h-244.9647c-122.4846 0-95.0661 170.0244-217.5498 170.0244h-118.845"/><path d="m1440 43.8588c-.8406-.4392-42.0885-.6588-123.7428-.6588-122.4837 0-122.4837 210.3129-244.9674 210.3129h-244.9656c-122.481 0-122.481 210.3138-244.9647 210.3138h-244.9647c-122.4846 0-95.0661 158.9733-217.5498 158.9733h-118.845"/><path d="m1440 88.5933c-.8406-.2619-42.0885-.3933-123.7428-.3933-122.4837 0-122.4837 196.2873-244.9674 196.2873h-244.9656c-122.481 0-122.481 196.2846-244.9647 196.2846h-244.9647c-122.4846-.0009-95.0661 147.4281-217.5498 147.4281h-118.845"/><path d="m1440 133.3305c-.8406-.0873-42.0885-.1305-123.7428-.1305-122.4837 0-122.4837 182.259-244.9674 182.259h-244.9656c-122.481 0-122.481 182.2572-244.9647 182.2572h-244.9647c-122.4846 0-95.0661 135.8838-217.5498 135.8838h-118.845" stroke-dasharray="10"/><path d="m1440 176.4c-.8406.0828-42.0885.1242-123.7428.1242-122.4837 0-122.4837 168.8409-244.9674 168.8409h-244.9656c-122.481 0-122.481 168.8436-244.9647 168.8436h-244.9647c-122.4846 0-95.0661 124.7913-217.5498 124.7913h-118.845"/><path d="m1440 221.4c-.8406.2592-42.0885.3879-123.7428.3879-122.4837 0-122.4837 154.7172-244.9674 154.7172h-244.9656c-122.481 0-122.481 154.719-244.9647 154.719h-244.9647c-122.4846.0009-95.0661 113.1759-217.5498 113.1759h-118.845"/><path d="m1440 265.5c-.8406.4338-42.0885.6507-123.7428.6507-122.4837 0-122.4837 140.5935-244.9674 140.5935h-244.9656c-122.481 0-122.481 140.5917-244.9647 140.5917h-244.9647c-122.4846 0-95.0661 101.5641-217.5498 101.5641h-118.845"/><path d="m1440 307.8c-.8406.603-42.0885.9054-123.7428.9054-122.4837 0-122.4837 127.1313-244.9674 127.1313h-244.9656c-122.481 0-122.481 127.1304-244.9647 127.1304h-244.9647c-122.4846 0-95.0661 90.4329-217.5498 90.4329h-118.845"/><path d="m1440 352.8h-124.2c-122.4837 0-122.0265 113.2722-244.5102 113.2722h-244.9656c-122.481 0-122.481 113.0049-244.9647 113.0049h-244.9647c-122.4846.0009-95.0661 78.8229-217.5498 78.8229h-118.845"/><path d="m1440 396.9c-.8406.9558-42.0885 1.4346-123.7428 1.4346-122.4837 0-122.4837 98.8713-244.9674 98.8713h-244.9656c-122.481 0-122.481 98.874-244.9647 98.874h-244.9647c-122.4846 0-95.0661 67.2201-217.5498 67.2201h-118.845"/><path d="m1440 440.1c-.8406 1.1232-42.0885 1.6848-123.7428 1.6848-122.4837 0-122.4837 85.4208-244.9674 85.4208h-244.9656c-122.481 0-122.481 85.4208-244.9647 85.4208h-244.9647c-122.4846 0-95.0661 56.0736-217.5498 56.0736h-118.845" stroke-dasharray="10"/><path d="m1440 483.3c-.8406 1.3023-42.0885 1.9539-123.7428 1.9539-122.4837 0-122.4837 71.6256-244.9674 71.6256h-244.9656c-122.481 0-122.481 71.6283-244.9647 71.6283h-244.9647c-122.4846 0-95.0661 44.6922-217.5498 44.6922h-118.845"/></g></svg>