<svg height="542" viewBox="0 0 3203 542" width="3203" xmlns="http://www.w3.org/2000/svg"><g fill="none" fill-rule="evenodd"><path d="m3209.5 541h-1528.5" stroke="#5468ff"/><g stroke="#c5c9e0" transform="translate(1601 59)"><path d="m1607.48047 445h-825.48047c-41.644526 0-708 35-708 35"/><path d="m1607.48047 407h-825.48047c-83.27453 0-714 69-714 69"/><path d="m1607.48047 371h-825.48047c-124.879623 0-720 104-720 104"/><path d="m1607.48047 334h-825.48047c-166.481685 0-726 138-726 138"/><path d="m1607.48047 296h-825.48047c-208.070298 0-732 173-732 173"/><path d="m1607.48047 260h-826.48047c-249.642161 0-738 207-738 207"/><path d="m1607.48047 222h-825.48047c-291.595705 0-745 242-745 242"/><path d="m1607.48047 185h-825.48047c-333.197646 0-751 277-751 277"/><path d="m1607.48047 148h-825.48047c-374.786578 0-757 312-757 312"/><path d="m1607.48047 111h-825.48047c-416.356939 0-763 345-763 345"/><path d="m1607.48047 74h-825.48047c-458.51572 0-770 380-770 380"/><path d="m1607.48047 37h-825.48047c-500.115939 0-776 415-776 415"/><path d="m1607.48047 0h-826.48047c-541.053893 0-781 450-781 450"/></g><g stroke="#c5c9e0" transform="matrix(-1 0 0 1 1597 59)"><path d="m1607.48047 445h-825.48047c-41.644526 0-708 35-708 35"/><path d="m1607.48047 407h-825.48047c-83.27453 0-714 69-714 69"/><path d="m1607.48047 371h-825.48047c-124.879623 0-720 104-720 104"/><path d="m1607.48047 334h-825.48047c-166.481685 0-726 138-726 138"/><path d="m1607.48047 296h-825.48047c-208.070298 0-732 173-732 173"/><path d="m1607.48047 260h-826.48047c-249.642161 0-738 207-738 207"/><path d="m1607.48047 222h-825.48047c-291.595705 0-745 242-745 242"/><path d="m1607.48047 185h-825.48047c-333.197646 0-751 277-751 277"/><path d="m1607.48047 148h-825.48047c-374.786578 0-757 312-757 312"/><path d="m1607.48047 111h-825.48047c-416.356939 0-763 345-763 345"/><path d="m1607.48047 74h-825.48047c-458.51572 0-770 380-770 380"/><path d="m1607.48047 37h-825.48047c-500.115939 0-776 415-776 415"/><path d="m1607.48047 0h-826.48047c-541.053893 0-781 450-781 450"/></g><path d="m-7.5 541h1688.5" stroke="#5468ff"/><g fill="#fff" fill-rule="nonzero" stroke="#c5c9e0"><circle cx="1030" cy="197" r="6"/><circle cx="1282" cy="422" r="6"/><circle cx="1913" cy="473" r="6"/><circle cx="2176" cy="234" r="6"/><path d="m2033 200h14v14h-14z" transform="matrix(.70710678 -.70710678 .70710678 .70710678 451.131063 1503.12673)"/><path d="m2040 202v9"/><path d="m2045.5 207h-10.5"/><path d="m1149 406h15v15h-15z" transform="matrix(.70710678 -.70710678 .70710678 .70710678 46.342354 938.880338)"/><path d="m1156 409v9"/><path d="m1160 414h-9"/><path d="m896 205h15v15h-15z" transform="matrix(.70710678 -.70710678 .70710678 .70710678 114.368832 701.110786)"/><path d="m903 208v9"/><path d="m908 213h-9"/><path d="m2284 431h15v15h-15z" transform="matrix(.70710678 -.70710678 .70710678 .70710678 361.098487 1748.768866)"/><path d="m2292 434v9"/><path d="m2297 438h-9"/><path d="m1780 401h15v15h-15z" transform="matrix(.70710678 -.70710678 .70710678 .70710678 234.693509 1383.600251)"/><path d="m1788 404v9"/><path d="m1791 409h-9"/><g transform="translate(1403 368)"><path d="m3.289589 3.249109h15.358272v15.358272h-15.358272z" transform="matrix(.70710678 -.70710678 .70710678 .70710678 -4.514771 10.956869)"/><path d="m10.9647202 6.13628037v9.59491773"/><path d="m15.7675155 10.9284028h-9.59491769"/></g><g transform="translate(1176 124)"><path d="m3.289589 3.249109h15.358272v15.358272h-15.358272z" transform="matrix(.70710678 -.70710678 .70710678 .70710678 -4.514771 10.956869)"/><path d="m10.9647202 6.13628037v9.59491773"/><path d="m15.7675155 10.9284028h-9.59491769"/></g></g></g></svg>