<svg height="500" width="500" xmlns="http://www.w3.org/2000/svg" xmlns:xlink="http://www.w3.org/1999/xlink"><defs><linearGradient id="a" x1="50%" x2="50%" y1="100%" y2="0%"><stop offset="0" stop-color="#f5f5fa"/><stop offset="1" stop-color="#fff"/></linearGradient><path id="b" d="m3.75 0h256.5a3.75 3.75 0 0 1 3.75 3.75v268.5a3.75 3.75 0 0 1 -3.75 3.75h-256.5a3.75 3.75 0 0 1 -3.75-3.75v-268.5a3.75 3.75 0 0 1 3.75-3.75z"/><filter id="c" height="115.6%" width="116.3%" x="-8.1%" y="-5.6%"><feOffset dy="4" in="SourceAlpha" result="shadowOffsetOuter1"/><feGaussianBlur in="shadowOffsetOuter1" result="shadowBlurOuter1" stdDeviation="5.5"/><feColorMatrix in="shadowBlurOuter1" result="shadowMatrixOuter1" values="0 0 0 0 0.145098039 0 0 0 0 0.17254902 0 0 0 0 0.380392157 0 0 0 0.15 0"/><feOffset dy="2" in="SourceAlpha" result="shadowOffsetOuter2"/><feGaussianBlur in="shadowOffsetOuter2" result="shadowBlurOuter2" stdDeviation="1.5"/><feColorMatrix in="shadowBlurOuter2" result="shadowMatrixOuter2" values="0 0 0 0 0.364705882 0 0 0 0 0.392156863 0 0 0 0 0.580392157 0 0 0 0.2 0"/><feMerge><feMergeNode in="shadowMatrixOuter1"/><feMergeNode in="shadowMatrixOuter2"/></feMerge></filter><rect id="d" height="56.177" rx="3" width="264" x="18" y="83"/><filter id="e" height="176.5%" width="116.3%" x="-8.1%" y="-27.6%"><feOffset dy="4" in="SourceAlpha" result="shadowOffsetOuter1"/><feGaussianBlur in="shadowOffsetOuter1" result="shadowBlurOuter1" stdDeviation="5.5"/><feColorMatrix in="shadowBlurOuter1" result="shadowMatrixOuter1" values="0 0 0 0 0.145098039 0 0 0 0 0.17254902 0 0 0 0 0.380392157 0 0 0 0.15 0"/><feOffset dy="2" in="SourceAlpha" result="shadowOffsetOuter2"/><feGaussianBlur in="shadowOffsetOuter2" result="shadowBlurOuter2" stdDeviation="1.5"/><feColorMatrix in="shadowBlurOuter2" result="shadowMatrixOuter2" values="0 0 0 0 0.364705882 0 0 0 0 0.392156863 0 0 0 0 0.580392157 0 0 0 0.2 0"/><feMerge><feMergeNode in="shadowMatrixOuter1"/><feMergeNode in="shadowMatrixOuter2"/></feMerge></filter></defs><g fill="none" fill-rule="evenodd"><g stroke-width="1.142"><path d="m236.301 214.795-87.9-214.795m66.211 231.648-213.47-90.26" stroke="#c5c9e0"/><path d="m214.612 259.069-214.612 87.975" stroke="#c5c9e0" stroke-dasharray="11.416"/><path d="m236.301 285.205-90.181 213.652m117.579-213.652 87.9 214.795" stroke="#c5c9e0"/><path d="m285.388 259.069 212.329 90.26" stroke="#5468ff"/><g stroke="#c5c9e0"><path d="m285.388 231.648 214.612-87.974" stroke-dasharray="11.416"/><path d="m263.699 214.795 90.181-213.652m-103.302 209.94-.578-163.383"/><path d="m224.886 221.366-143.836-143.96" stroke-dasharray="11.416"/><path d="m216.895 245.359-204.338.578m212.329 26.843-143.836 143.957"/><path d="m250 292.202.578 204.513" stroke-dasharray="11.416"/><path d="m273.973 272.78 143.835 143.958m-133.561-170.801 204.337-.578m-214.611-23.993 143.835-143.96"/></g></g><g transform="translate(109 112)"><use fill="#000" filter="url(#c)" xlink:href="#b"/><use fill="url(#a)" xlink:href="#b"/><rect fill="#c5c9e0" height="3" opacity=".35" rx="1.5" width="29" x="77" y="32"/><path d="m67 86.433a2.4 2.4 0 0 1 2.407-2.404 2.41 2.41 0 0 1 2.408 2.404v4.163a2.4 2.4 0 0 1 -2.408 2.404 2.41 2.41 0 0 1 -2.407-2.404zm19.26-8.973a2.398 2.398 0 0 1 2.407-2.401 2.4 2.4 0 0 1 2.407 2.4v13.141a2.398 2.398 0 0 1 -2.407 2.4 2.4 2.4 0 0 1 -2.408-2.401v-13.14zm-9.63 4.796a2.408 2.408 0 0 1 4.815 0v8.33a2.408 2.408 0 0 1 -4.815 0zm19.259-1.207a2.399 2.399 0 0 1 2.407-2.402 2.407 2.407 0 0 1 2.408 2.402v9.549a2.399 2.399 0 0 1 -2.408 2.402 2.407 2.407 0 0 1 -2.407-2.402zm9.63-7.171a2.401 2.401 0 0 1 2.407-2.407 2.41 2.41 0 0 1 2.407 2.407v16.715a2.401 2.401 0 0 1 -2.407 2.407 2.41 2.41 0 0 1 -2.407-2.407zm9.63-3.587a2.409 2.409 0 0 1 4.815 0l-.001 20.3a2.409 2.409 0 0 1 -4.815 0v-20.3zm9.629-2.384a2.406 2.406 0 1 1 4.815 0v22.676a2.406 2.406 0 1 1 -4.815 0zm9.63-13.76a2.404 2.404 0 0 1 2.407-2.412 2.411 2.411 0 0 1 2.407 2.412v36.44a2.404 2.404 0 0 1 -2.407 2.413 2.411 2.411 0 0 1 -2.408-2.412v-36.44zm9.629 8.366a2.4 2.4 0 0 1 2.407-2.405 2.406 2.406 0 0 1 2.408 2.405v28.082a2.4 2.4 0 0 1 -2.408 2.405 2.406 2.406 0 0 1 -2.407-2.405zm9.63 2.393a2.4 2.4 0 0 1 2.407-2.406 2.412 2.412 0 0 1 2.407 2.406v25.688a2.4 2.4 0 0 1 -2.407 2.406 2.412 2.412 0 0 1 -2.407-2.406zm9.63-12.558a2.401 2.401 0 0 1 2.407-2.407 2.413 2.413 0 0 1 2.407 2.407v38.245a2.401 2.401 0 0 1 -2.407 2.407 2.413 2.413 0 0 1 -2.408-2.407v-38.245zm9.629 5.978a2.4 2.4 0 0 1 2.407-2.404c1.33 0 2.408 1.07 2.408 2.404v32.27a2.4 2.4 0 0 1 -2.408 2.404 2.402 2.402 0 0 1 -2.407-2.404zm9.63-11.967a2.397 2.397 0 0 1 2.407-2.398 2.4 2.4 0 0 1 2.407 2.398v44.243a2.397 2.397 0 0 1 -2.407 2.398 2.4 2.4 0 0 1 -2.407-2.398zm9.63-11.949a2.403 2.403 0 0 1 2.407-2.41 2.412 2.412 0 0 1 2.407 2.41v56.18a2.403 2.403 0 0 1 -2.407 2.41 2.412 2.412 0 0 1 -2.408-2.41v-56.18z" fill="#5468ff" opacity=".3"/><g stroke-linecap="round"><path d="m26.5 254v-94.5m-8.5 85.5h220" stroke="#c5c9e0" stroke-dasharray="3 6" stroke-width="2"/><path d="m30 242c19.548 0 24.479-10.544 40.959-10.544s19.78 5.301 40.027 5.301 22.152-20.08 40.493-20.08 19.549 16.022 39.795 16.022c20.247 0 20.014-31.699 40.726-31.699" opacity=".3" stroke="#5468ff" stroke-width="3.6"/><path d="m30 242c19.548 0 20.247-32.567 40.959-32.567s19.78 22.265 40.027 22.265 19.781-52.174 40.493-52.174 19.549 44.199 39.795 44.199c20.247 0 20.014-90.723 40.726-90.723" opacity=".6" stroke="#5468ff" stroke-width="3.6"/></g><circle cx="49" cy="228" fill="#5468ff" r="5"/><circle cx="49" cy="228" fill="#fff" r="2.5"/><circle cx="123" cy="222" fill="#5468ff" r="5"/><circle cx="123" cy="222" fill="#fff" r="2.5"/><circle cx="160" cy="183" fill="#5468ff" r="5"/><circle cx="160" cy="183" fill="#fff" r="2.5"/><circle cx="216" cy="161" fill="#5468ff" r="5"/><circle cx="216" cy="161" fill="#fff" r="2.5"/><use fill="#000" filter="url(#e)" xlink:href="#d"/><use fill="url(#a)" xlink:href="#d"/></g><path d="m162.293 227.293a8.066 8.066 0 1 0 -11.407-11.407 8.066 8.066 0 0 0 11.407 11.407zm1.591 1.591c-4.029 4.029-10.56 4.029-14.59 0-4.028-4.029-4.028-10.56 0-14.59 4.03-4.028 10.561-4.028 14.59 0 4.029 4.03 4.029 10.561 0 14.59zm.68-.68-1.36 1.36 5.472 5.47 1.358-1.358-5.47-5.471z" fill="#5468ff" fill-rule="nonzero"/></g></svg>