<svg height="40" viewBox="0 0 40 40" width="40" xmlns="http://www.w3.org/2000/svg" xmlns:xlink="http://www.w3.org/1999/xlink"><radialGradient id="a" cx="0%" cy="0%" gradientTransform="scale(1 .998901)" r="100%"><stop offset="0" stop-color="#20c6b7"/><stop offset="1" stop-color="#4d9abf"/></radialGradient><path d="m28.589 14.135-.014-.006c-.008-.003-.016-.006-.023-.013-.0232546-.0249781-.0335986-.059335-.028-.093l.773-4.726 3.625 3.626-3.77 1.604c-.0104771.0042249-.0217063.0062666-.033.0060231h-.015c-.005-.0030231-.01-.0070231-.02-.0170231-.1403008-.1562145-.30808-.2853537-.495-.381zm5.258-.288 3.876 3.876c.805.806 1.208 1.208 1.355 1.674.022.069.04.138.054.209l-9.263-3.923c-.0049777-.0020554-.009978-.0040555-.015-.006-.037-.015-.08-.032-.08-.07s.044-.056.081-.071l.012-.005zm5.127 7.003c-.2.376-.59.766-1.25 1.427l-4.37 4.369-5.652-1.177-.03-.006c-.05-.008-.103-.017-.103-.062-.0433911-.4713092-.2806301-.9034101-.655-1.193-.023-.023-.017-.059-.01-.092 0-.005 0-.01.002-.014l1.063-6.526.004-.022c.006-.05.015-.108.06-.108.4601638-.0572447.8780834-.2968279 1.16-.665.009-.01.015-.021.027-.027.032-.015.07 0 .103.014l9.65 4.082zm-6.625 6.801-7.186 7.186 1.23-7.56.002-.01c.001-.01.003-.02.006-.029.01-.024.036-.034.061-.044l.012-.005c.2693157-.1149054.5075111-.2920953.695-.517.024-.028.053-.055.09-.06.0096031-.0015676.0193969-.0015676.029 0l5.06 1.04zm-8.707 8.707-.81.81-8.955-12.942c-.0032383-.0047338-.0065723-.0094014-.01-.014-.014-.019-.029-.038-.026-.06.001-.016.011-.03.022-.042l.01-.013c.027-.04.05-.08.075-.123l.02-.035.003-.003c.014-.024.027-.047.051-.06.021-.01.05-.006.073-.001l9.921 2.046c.0277403.0043138.0539087.0156764.076.033.013.013.016.027.019.043.1402807.5307603.5205833.9654447 1.028 1.175.028.014.016.045.003.078-.006486.0144631-.011511.0295379-.015.045-.125.76-1.197 7.298-1.485 9.063zm-1.692 1.691c-.597.591-.949.904-1.347 1.03-.3924239.1240902-.8135761.1240902-1.206 0-.466-.148-.869-.55-1.674-1.356l-8.993-8.993 2.349-3.643c.011-.018.022-.034.04-.047.025-.018.061-.01.091 0 .5391605.1626614 1.1180435.1333285 1.638-.083.027-.0099541.054-.017.075.002.0105013.0095854.0198934.0203193.028.032l8.999 13.059zm-14.087-10.186-2.063-2.063 4.074-1.738c.01041347-.0045408.02163982-.0069222.033-.007.034 0 .054.034.072.065.040942.0629884.0843078.1243677.13.184l.013.016c.012.017.004.034-.008.05l-2.25 3.493zm-2.976-2.976-2.61-2.61c-.444-.444-.766-.766-.99-1.043l7.936 1.646c.00996901.0018476.01997064.0035145.03.005.049.008.103.017.103.063 0 .05-.059.073-.109.092l-.023.01zm-4.056-4.995c.00904416-.1681306.03928336-.3344462.09-.495.148-.466.55-.868 1.356-1.674l3.34-3.34c1.53783313 2.2318797 3.07983583 4.4608836 4.626 6.687.027.036.057.076.026.106-.146.161-.292.337-.395.528-.01117396.024551-.02837354.0458785-.05.062-.013.008-.027.005-.042.002h-.002l-8.949-1.877zm5.68-6.403 4.491-4.491c.422.185 1.958.834 3.332 1.414 1.04.44 1.988.84 2.286.97.03.012.057.024.07.054.008.018.004.041 0 .06-.1444092.6585202.0521423 1.3455108.523 1.828.03.03 0 .073-.026.11l-.014.021-4.56 7.063c-.012.02-.023.037-.043.05-.024.015-.058.008-.086.001-.1773551-.0464661-.3596787-.0713132-.543-.074-.164 0-.342.03-.522.063h-.001c-.02.003-.038.007-.054-.005-.0176716-.0144418-.0328709-.0316677-.045-.051zm5.398-5.398 5.814-5.814c.805-.805 1.208-1.208 1.674-1.355.3924239-.1240902.8135761-.1240902 1.206 0 .466.147.869.55 1.674 1.355l1.26 1.26-4.135 6.404c-.0102293.01864308-.0241854.03498188-.041.048-.025.017-.06.01-.09 0-.6618548-.20085389-1.3801835-.06242595-1.92.37-.027.028-.067.012-.101-.003-.54-.235-4.74-2.01-5.341-2.265zm12.506-3.676 3.818 3.818-.92 5.698v.015c-.0008214.012986-.003516.0257851-.008.038-.01.02-.03.024-.05.03-.1967009.0595815-.3819596.1518728-.548.273-.0071383.0050871-.0138293.0107745-.02.017-.011.012-.022.023-.04.0250544-.0146501.0003982-.0292499-.0019785-.043-.0070544l-5.818-2.472-.011-.005c-.037-.015-.081-.033-.081-.071-.0341968-.3242158-.1400876-.6367644-.31-.915-.028-.046-.059-.094-.035-.141zm-3.932 8.606 5.454 2.31c.03.014.063.027.076.058.0052043.0186436.0052043.0383564 0 .057-.016.08-.03.171-.03.263v.153c0 .038-.039.054-.075.069l-.011.004c-.864.369-12.13 5.173-12.147 5.173s-.035 0-.052-.017c-.03-.03 0-.072.027-.11.0047734-.0065913.0094407-.0132588.014-.02l4.482-6.94.008-.012c.026-.042.056-.089.104-.089l.045.007c.102.014.192.027.283.027.68 0 1.31-.331 1.69-.897.0090537-.0151144.0205416-.0286296.034-.04.027-.02.067-.01.098.004zm-6.246 9.185 12.28-5.237s.018 0 .035.017c.067.067.124.112.179.154l.027.017c.025.014.05.03.052.056 0 .01 0 .016-.002.025l-1.052 6.462-.004.026c-.007.05-.014.107-.061.107-.569406.0384334-1.0831685.3553721-1.373.847l-.005.008c-.014.023-.027.045-.05.057-.021.01-.048.006-.07.001l-9.793-2.02c-.01-.002-.152-.519-.163-.52z" fill="url(#a)"/></svg>