<svg height="400" viewBox="0 0 400 400" width="400" xmlns="http://www.w3.org/2000/svg"><g fill="none" fill-rule="evenodd" transform="translate(0 49)"><path d="m123 292-1-1c-2-4-2-8-2-12h-95l142-252 59 107 19-14-59-107c-1-2-8-13-20-13-5 0-13 2-19 13l-143 255c-1 2-7 14-1 24 2 5 8 10 21 10h120c-13 0-19-5-21-10z" fill="#00c58e"/><path d="m395 269-115-207c-2-2-8-13-20-13-5 0-12 2-19 13l-15 24v48l34-59 114 204h-43a20 20 0 0 1 -2 12v1c-6 10-19 10-21 10h68c2 0 15 0 21-10 2-5 4-13-2-23z" fill="#108775"/><path d="m332 292v-1l1-2c1-3 2-7 1-10l-4-11-90-158-13-24h-1l-13 24-91 158-3 11a21 21 0 0 0 2 13c3 5 9 10 21 10h168c3 0 16 0 22-10zm-106-158 83 145h-165z" fill="#2f495e" fill-rule="nonzero"/></g></svg>