<svg fill="#010101" height="64" width="64" xmlns="http://www.w3.org/2000/svg"><path d="m63.988 31.295c-.174-10.7-6.14-21.118-15.37-26.604-7.272-4.529-16.458-5.748-24.732-3.658-12.453 3.135-22.381 14.413-23.643 27.267-1.568 12.14 4.572 24.766 15.065 30.992 10.276 6.444 24.253 6.183 34.3-.6 9.057-5.878 14.674-16.6 14.37-27.388zm-30.218 27.955c-14.543 1.437-28.607-10.885-29-25.472-1.1-11.843 6.705-23.556 17.852-27.475 15.632-6.27 34.834 5.312 36.445 22.077 2.526 15.064-10.014 30.4-25.297 30.87zm-9.57-28.87 21.03-17.2-11.364 17.243c-3.222 0-6.444 0-9.666-.044zm5.913 3.18 9.666.044-21.03 17.243z"/></svg>