<svg height="256" preserveAspectRatio="xMidYMid" viewBox="0 0 256 256.00001" width="256" xmlns="http://www.w3.org/2000/svg" xmlns:xlink="http://www.w3.org/1999/xlink"><linearGradient id="a" gradientTransform="scale(1.2909944 .77459667)" gradientUnits="userSpaceOnUse" x1="-5.508243" x2="198.29675" y1="63.45496" y2="133.96048"><stop offset="0" stop-color="#2298bd"/><stop offset="1" stop-color="#0ed7b5"/></linearGradient><path d="m128 0c-34.133333 0-55.466667 17.066667-64 51.2 12.8-17.066667 27.733333-23.466667 44.8-19.2 9.73748 2.43437 16.69736 9.498548 24.40107 17.3184 12.54969 12.73837 27.07437 27.4816 58.79893 27.4816 34.13333 0 55.46667-17.066667 64-51.2-12.8 17.066667-27.73333 23.466667-44.8 19.2-9.73748-2.43437-16.69736-9.498548-24.40107-17.3184-12.54969-12.73837-27.07437-27.4816-58.79893-27.4816zm-64 76.8c-34.133333 0-55.4666667 17.066667-64 51.2 12.8-17.06667 27.733333-23.46667 44.8-19.2 9.737481 2.43437 16.697363 9.49855 24.401067 17.3184 12.549689 12.73837 27.07437 27.4816 58.798933 27.4816 34.13333 0 55.46667-17.06667 64-51.2-12.8 17.06667-27.73333 23.46667-44.8 19.2-9.73748-2.43437-16.69736-9.49855-24.40107-17.3184-12.54969-12.73837-27.074367-27.4816-58.79893-27.4816z" fill="url(#a)" transform="translate(0 51.2)"/></svg>