<svg width="1981" preserveAspectRatio="none" height="587" xmlns="http://www.w3.org/2000/svg"><defs><linearGradient x1="50%" y1="100%" x2="50%" y2="0%" id="a"><stop stop-color="#F5F5FA" offset="0%"/><stop stop-color="#FFF" offset="100%"/></linearGradient></defs><g fill="none" fill-rule="evenodd"><path fill="#5468FF" d="M-12-124h2000v748H-12z"/><path d="M0 411c166.667 0 166.667 130.717 333.333 130.717 166.667 0 166.667-58.568 333.334-58.568C833.333 483.149 833.333 543 1000 543c166.667 0 166.667-105.465 333.333-105.465 166.667 0 166.667 101.759 333.334 101.759 166.666 0 166.776-37.034 333.333-37.034v503.24H0V411z" fill="url(#a)" transform="translate(-12 3)"/><path d="M-12 374c166.667 0 166.667 170.328 333.333 170.328 166.667 0 166.667-76.316 333.334-76.316C821.333 468.012 821.333 546 988 546c166.667 0 166.667-137.424 333.333-137.424C1488 408.576 1488 541.17 1654.667 541.17c166.666 0 166.776-48.256 333.333-48.256" stroke="#A6B0F9" opacity=".5"/><path d="M-12 374c166.667 0 166.667 168.816 333.333 168.816 166.667 0 166.667-84.785 333.334-84.785C821.333 458.03 821.333 545 988 545c166.667 0 166.667-147.86 333.333-147.86 166.667 0 166.667 137.753 333.334 137.753 166.666 0 166.776-68.016 333.333-68.016" stroke="#FFF"/><path d="M-12 374c166.667 0 166.667 167.306 333.333 167.306 166.667 0 166.667-93.214 333.334-93.214C821.333 448.092 821.333 544 988 544c166.667 0 166.667-158.246 333.333-158.246C1488 385.754 1488 528.64 1654.667 528.64c166.666 0 166.776-87.687 333.333-87.687" stroke="#A6B0F9" opacity=".5"/><path d="M-12 374c166.667 0 166.667 166.778 333.333 166.778C488 540.778 488 438.575 654.667 438.575 821.333 438.575 821.333 544 988 544c166.667 0 166.667-169.577 333.333-169.577 166.667 0 166.667 148.864 333.334 148.864 166.666 0 166.776-107.9 333.333-107.9" stroke="#A6B0F9" stroke-dasharray="10"/><path d="M-12 373.931c166.667 0 166.667 165.336 333.333 165.336C488 539.267 488 428.62 654.667 428.62 821.333 428.62 821.333 543 988 543c166.667 0 166.667-180 333.333-180C1488 363 1488 517.038 1654.667 517.038c166.666 0 166.776-127.556 333.333-127.556" stroke="#A6B0F9" opacity=".5"/><path d="M-12 374.315c166.667 0 166.667 164.43 333.333 164.43C488 538.745 488 419.297 654.667 419.297 821.333 419.297 821.333 543 988 543c166.667 0 166.667-191 333.333-191C1488 352 1488 511.709 1654.667 511.709c166.666 0 166.776-147.616 333.333-147.616" stroke="#A6B0F9" opacity=".5"/><path d="M-12 374.002c166.667 0 166.667 163.228 333.333 163.228C488 537.23 488 409.19 654.667 409.19 821.333 409.19 821.333 542 988 542c166.667 0 166.667-201.667 333.333-201.667 166.667 0 166.667 165.098 333.334 165.098C1821.333 505.43 1821.443 338 1988 338" stroke="#A6B0F9" opacity=".5"/><path d="M-12 374.74c166.667 0 166.667 161.978 333.333 161.978C488 536.718 488 400.133 654.667 400.133 821.333 400.133 821.333 542 988 542c166.667 0 166.667-212.26 333.333-212.26 166.667 0 166.667 170.43 333.334 170.43C1821.333 500.17 1821.443 313 1988 313" stroke="#A6B0F9" opacity=".5"/><path d="M-12 374.454c166.667 0 166.667 160.75 333.333 160.75C488 535.204 488 390.069 654.667 390.069 821.333 390.069 821.333 541 988 541c166.667 0 166.667-222.87 333.333-222.87 166.667 0 166.667 175.78 333.334 175.78C1821.333 493.91 1821.443 287 1988 287" stroke="#A6B0F9" opacity=".5"/><path d="M-12 374.148c166.667 0 166.667 159.544 333.333 159.544C488 533.692 488 379.998 654.667 379.998 821.333 379.998 821.333 540 988 540c166.667 0 166.667-233.49 333.333-233.49 166.667 0 166.667 181.14 333.334 181.14C1821.333 487.651 1821.443 261 1988 261" stroke="#A6B0F9" opacity=".5"/><path d="M-12 373.83c166.667 0 166.667 158.349 333.333 158.349C488 532.179 488 369.922 654.667 369.922 821.333 369.922 821.333 539 988 539c166.667 0 166.667-244.12 333.333-244.12 166.667 0 166.667 186.513 333.334 186.513C1821.333 481.393 1821.443 223 1988 223" stroke="#A6B0F9" opacity=".5"/><path d="M-12 374.5c166.667 0 166.667 157.643 333.333 157.643 166.667 0 166.5-188.393 333.167-188.393 166.667 0 166.833 195.75 333.5 195.75s166.833-286 333.5-286 166.5 222.943 333.167 222.943C1821.333 476.443 1821.443 148 1988 148" stroke="#A6B0F9" opacity=".5"/><path d="M-12 271.5c166.667 0 166.667 256.529 333.333 256.529C488 528.029 488 249.208 654.667 249.208 821.333 249.208 821.333 540 988 540c166.667 0 166.667-415.823 333.333-415.823C1488 124.177 1488 437.39 1654.667 437.39 1821.333 437.389 1821.443 3 1988 3" stroke="#A6B0F9" opacity=".5"/></g></svg>