<svg height="200" viewBox="0 0 200 200" width="200" xmlns="http://www.w3.org/2000/svg"><g fill="none" fill-rule="nonzero" transform="translate(8 6)"><path d="m88.3522807 187.277468h-80.9095614c-4.11050037 0-7.4427193-3.32046-7.4427193-7.416455h88.424307c30.91334.149577 59.558524-16.146082 75.14519-42.748559 15.586666-26.602478 15.746828-59.4702255.420154-86.22228-15.326674-26.7520544-43.811697-43.32414225-74.725037-43.4737183h-89.264614c0-4.09599538 3.33221893-7.4164557 7.4427193-7.4164557h81.8218947c24.960453.02535322 48.887422 9.93510737 66.512353 27.5472026 17.624931 17.6120953 27.502588 41.4823493 27.45798 66.3546961-.144052 51.7716453-42.951693 93.3755693-94.8826663 93.3755693z" fill="#5468ff"/><g fill="#21243d"><path d="m0 167.300886h57.4049737c7.097602.024857 13.9482149-2.594789 19.2070175-7.344683h-76.6119912z"/><path d="m0 147.324304h88.0641754c1.7766492-2.392405 3.4332544-4.78481 4.9698158-7.44038h-93.0339912z"/><path d="m0 127.323797h99.3242895c.9843595-2.392405 1.8726845-4.78481 2.6409645-7.416455h-101.965254z"/><path d="m0 107.347215h104.846307c.360132-2.392405.648237-4.928354.816298-7.4164555h-105.662605z"/><path d="m0 87.3706329h105.638596c-.168061-2.5120253-.456166-5.0001266-.816298-7.4403797h-104.822298z"/><path d="m0 67.3701266h101.965254c-.76828-2.5120253-1.656605-5.0001266-2.6409645-7.4164557h-99.3242895z"/><path d="m0 47.3935443h93.0339912c-1.5281194-2.5552883-3.1869087-5.0306995-4.9698158-7.4164557h-88.0641754z"/><path d="m0 19.9765823v7.4403797h76.6840175c-5.2563214-4.753913-12.1085618-7.3741812-19.2070175-7.3446835z"/></g></g></svg>