<svg width="500" height="500" xmlns="http://www.w3.org/2000/svg" xmlns:xlink="http://www.w3.org/1999/xlink"><defs><linearGradient x1="50%" y1="100%" x2="50%" y2="0%" id="c"><stop stop-color="#F5F5FA" offset="0%"/><stop stop-color="#FFF" offset="100%"/></linearGradient><path d="M3.75 0h256.5A3.75 3.75 0 0 1 264 3.75v268.5a3.75 3.75 0 0 1-3.75 3.75H3.75A3.75 3.75 0 0 1 0 272.25V3.75A3.75 3.75 0 0 1 3.75 0z" id="b"/><filter x="-8.1%" y="-5.6%" width="116.3%" height="115.6%" filterUnits="objectBoundingBox" id="a"><feOffset dy="4" in="SourceAlpha" result="shadowOffsetOuter1"/><feGaussianBlur stdDeviation="5.5" in="shadowOffsetOuter1" result="shadowBlurOuter1"/><feColorMatrix values="0 0 0 0 0.145098039 0 0 0 0 0.17254902 0 0 0 0 0.380392157 0 0 0 0.15 0" in="shadowBlurOuter1" result="shadowMatrixOuter1"/><feOffset dy="2" in="SourceAlpha" result="shadowOffsetOuter2"/><feGaussianBlur stdDeviation="1.5" in="shadowOffsetOuter2" result="shadowBlurOuter2"/><feColorMatrix values="0 0 0 0 0.364705882 0 0 0 0 0.392156863 0 0 0 0 0.580392157 0 0 0 0.2 0" in="shadowBlurOuter2" result="shadowMatrixOuter2"/><feMerge><feMergeNode in="shadowMatrixOuter1"/><feMergeNode in="shadowMatrixOuter2"/></feMerge></filter><rect id="e" x="18" y="83" width="264" height="56.177" rx="3"/><filter x="-8.1%" y="-27.6%" width="116.3%" height="176.5%" filterUnits="objectBoundingBox" id="d"><feOffset dy="4" in="SourceAlpha" result="shadowOffsetOuter1"/><feGaussianBlur stdDeviation="5.5" in="shadowOffsetOuter1" result="shadowBlurOuter1"/><feColorMatrix values="0 0 0 0 0.145098039 0 0 0 0 0.17254902 0 0 0 0 0.380392157 0 0 0 0.15 0" in="shadowBlurOuter1" result="shadowMatrixOuter1"/><feOffset dy="2" in="SourceAlpha" result="shadowOffsetOuter2"/><feGaussianBlur stdDeviation="1.5" in="shadowOffsetOuter2" result="shadowBlurOuter2"/><feColorMatrix values="0 0 0 0 0.364705882 0 0 0 0 0.392156863 0 0 0 0 0.580392157 0 0 0 0.2 0" in="shadowBlurOuter2" result="shadowMatrixOuter2"/><feMerge><feMergeNode in="shadowMatrixOuter1"/><feMergeNode in="shadowMatrixOuter2"/></feMerge></filter></defs><g fill="none" fill-rule="evenodd"><g stroke-width="1.142"><path d="M236.301 214.795L148.401 0M214.612 231.648l-213.47-90.26" stroke="#C5C9E0"/><path d="M214.612 259.069L0 347.044" stroke="#C5C9E0" stroke-dasharray="11.416"/><path d="M236.301 285.205L146.12 498.857M263.699 285.205L351.599 500" stroke="#C5C9E0"/><path d="M285.388 259.069l212.329 90.26" stroke="#5468FF"/><path d="M285.388 231.648L500 143.674" stroke="#C5C9E0" stroke-dasharray="11.416"/><path d="M263.699 214.795L353.88 1.143M250.578 211.083L250 47.7" stroke="#C5C9E0"/><path d="M224.886 221.366L81.05 77.406" stroke="#C5C9E0" stroke-dasharray="11.416"/><path d="M216.895 245.359l-204.338.578M224.886 272.78L81.05 416.737" stroke="#C5C9E0"/><path d="M250 292.202l.578 204.513" stroke="#C5C9E0" stroke-dasharray="11.416"/><path d="M273.973 272.78l143.835 143.958M284.247 245.937l204.337-.578M273.973 221.366l143.835-143.96" stroke="#C5C9E0"/></g><g transform="translate(109 112)"><use fill="#000" filter="url(#a)" xlink:href="#b"/><use fill="url(#c)" xlink:href="#b"/><rect fill="#C5C9E0" opacity=".35" x="77" y="32" width="29" height="3" rx="1.5"/><path d="M67 86.433a2.4 2.4 0 0 1 2.407-2.404 2.41 2.41 0 0 1 2.408 2.404v4.163A2.4 2.4 0 0 1 69.407 93 2.41 2.41 0 0 1 67 90.596v-4.163zm19.26-8.973a2.398 2.398 0 0 1 2.407-2.401 2.4 2.4 0 0 1 2.407 2.4V90.6A2.398 2.398 0 0 1 88.667 93a2.4 2.4 0 0 1-2.408-2.401v-13.14zm-9.63 4.796a2.408 2.408 0 0 1 4.815 0v8.33a2.408 2.408 0 0 1-4.815 0v-8.33zm19.259-1.207a2.399 2.399 0 0 1 2.407-2.402 2.407 2.407 0 0 1 2.408 2.402v9.549A2.399 2.399 0 0 1 98.296 93a2.407 2.407 0 0 1-2.407-2.402v-9.549zm9.63-7.171a2.401 2.401 0 0 1 2.407-2.407 2.41 2.41 0 0 1 2.407 2.407v16.715A2.401 2.401 0 0 1 107.926 93a2.41 2.41 0 0 1-2.407-2.407V73.878zm9.63-3.587a2.409 2.409 0 0 1 4.815 0l-.001 20.3a2.409 2.409 0 0 1-4.815 0v-20.3zm9.629-2.384a2.406 2.406 0 1 1 4.815 0v22.676a2.406 2.406 0 1 1-4.815 0V67.907zm9.63-13.76a2.404 2.404 0 0 1 2.407-2.412 2.411 2.411 0 0 1 2.407 2.412v36.44A2.404 2.404 0 0 1 136.815 93a2.411 2.411 0 0 1-2.408-2.412v-36.44zm9.629 8.366a2.4 2.4 0 0 1 2.407-2.405 2.406 2.406 0 0 1 2.408 2.405v28.082A2.4 2.4 0 0 1 146.444 93a2.406 2.406 0 0 1-2.407-2.405V62.513zm9.63 2.393a2.4 2.4 0 0 1 2.407-2.406 2.412 2.412 0 0 1 2.407 2.406v25.688A2.4 2.4 0 0 1 156.074 93a2.412 2.412 0 0 1-2.407-2.406V64.906zm9.63-12.558a2.401 2.401 0 0 1 2.407-2.407 2.413 2.413 0 0 1 2.407 2.407v38.245A2.401 2.401 0 0 1 165.704 93a2.413 2.413 0 0 1-2.408-2.407V52.348zm9.629 5.978a2.4 2.4 0 0 1 2.407-2.404c1.33 0 2.408 1.07 2.408 2.404v32.27A2.4 2.4 0 0 1 175.333 93a2.402 2.402 0 0 1-2.407-2.404v-32.27zm9.63-11.967a2.397 2.397 0 0 1 2.407-2.398 2.4 2.4 0 0 1 2.407 2.398v44.243A2.397 2.397 0 0 1 184.963 93a2.4 2.4 0 0 1-2.407-2.398V46.359zm9.63-11.949a2.403 2.403 0 0 1 2.407-2.41A2.412 2.412 0 0 1 197 34.41v56.18a2.403 2.403 0 0 1-2.407 2.41 2.412 2.412 0 0 1-2.408-2.41V34.41z" fill="#5468FF" opacity=".3"/><path d="M26.5 254v-94.5M18 245h220" stroke="#C5C9E0" stroke-width="2" stroke-linecap="round" stroke-dasharray="3,6"/><path d="M30 242c19.548 0 24.479-10.544 40.959-10.544 16.48 0 19.78 5.301 40.027 5.301s22.152-20.08 40.493-20.08 19.549 16.022 39.795 16.022C211.521 232.699 211.288 201 232 201" stroke="#5468FF" stroke-width="3.6" opacity=".3" stroke-linecap="round"/><path d="M30 242c19.548 0 20.247-32.567 40.959-32.567 20.712 0 19.78 22.265 40.027 22.265s19.781-52.174 40.493-52.174c20.712 0 19.549 44.199 39.795 44.199C211.521 223.723 211.288 133 232 133" stroke="#5468FF" stroke-width="3.6" opacity=".6" stroke-linecap="round"/><g transform="translate(44 223)"><circle fill="#5468FF" cx="5" cy="5" r="5"/><circle fill="#FFF" cx="5" cy="5" r="2.5"/></g><g transform="translate(118 217)"><circle fill="#5468FF" cx="5" cy="5" r="5"/><circle fill="#FFF" cx="5" cy="5" r="2.5"/></g><g transform="translate(155 178)"><circle fill="#5468FF" cx="5" cy="5" r="5"/><circle fill="#FFF" cx="5" cy="5" r="2.5"/></g><g transform="translate(211 156)"><circle fill="#5468FF" cx="5" cy="5" r="5"/><circle fill="#FFF" cx="5" cy="5" r="2.5"/></g><g><use fill="#000" filter="url(#d)" xlink:href="#e"/><use fill="url(#c)" xlink:href="#e"/></g></g><path d="M162.293 227.293a8.066 8.066 0 1 0-11.407-11.407 8.066 8.066 0 0 0 11.407 11.407zm1.591 1.591c-4.029 4.029-10.56 4.029-14.59 0-4.028-4.029-4.028-10.56 0-14.59 4.03-4.028 10.561-4.028 14.59 0 4.029 4.03 4.029 10.561 0 14.59zm.68-.68l-1.36 1.36 5.472 5.47 1.358-1.358-5.47-5.471z" fill="#5468FF" fill-rule="nonzero"/></g></svg>