<svg width="50" height="16" viewBox="0 0 50 16" xmlns="http://www.w3.org/2000/svg" xmlns:xlink="http://www.w3.org/1999/xlink"><title>algolia-logo</title><desc>Created with Sketch.</desc><defs><path d="M30.046 6.24l-.658 2.366 2.118-1.178c-.308-.572-.832-1.005-1.46-1.187zM24.85 8.656c0 2.533 2.023 4.586 4.52 4.586 2.496 0 4.52-2.052 4.52-4.585S31.866 4.07 29.37 4.07c-2.497 0-4.52 2.054-4.52 4.587zm4.52-3.277c1.78 0 3.228 1.47 3.228 3.275 0 1.806-1.45 3.276-3.23 3.276-1.778 0-3.227-1.47-3.227-3.274 0-1.807 1.45-3.277 3.23-3.277zm1.56-1.88c0-.018.004-.035.004-.054v-.413c0-.457-.363-.827-.81-.827h-1.42c-.45 0-.812.37-.812.827v.406c.452-.13.928-.2 1.42-.2.564 0 1.107.09 1.617.26zm-4.957.81c-.317-.324-.83-.324-1.148 0l-.143.145c-.317.323-.317.847 0 1.17l.153.155c.325-.53.74-1 1.22-1.385l-.082-.084z" id="a"/></defs><g fill="none" fill-rule="evenodd"><g transform="translate(-432 -160) translate(432 160)"><use fill="#00B7E5" xlink:href="#a"/><use xlink:href="#a"/></g><path d="M8.826 12.138c-.185-.478-.36-.948-.522-1.41-.163-.46-.332-.93-.506-1.41H2.676l-1.028 2.82H0c.435-1.168.843-2.248 1.224-3.24.38-.993.752-1.935 1.117-2.827.367-.89.73-1.74 1.088-2.552.36-.812.734-1.616 1.126-2.413h1.452c.39.797.767 1.6 1.125 2.413.36.812.72 1.663 1.086 2.555.364.893.736 1.835 1.117 2.828.38.993.788 2.073 1.224 3.24h-1.73zM7.342 8.046c-.35-.924-.694-1.818-1.036-2.683-.343-.865-.7-1.696-1.07-2.492-.38.8-.74 1.63-1.084 2.495-.342.865-.683 1.76-1.02 2.683h4.21zm6.89 4.644c-.93-.022-1.59-.22-1.98-.598-.39-.376-.583-.963-.583-1.76V.26L13.18 0v10.09c0 .248.02.453.063.614.044.16.114.29.21.388.1.096.23.17.392.217.162.046.362.086.6.12l-.21 1.26M21.834 12.123c-.13.086-.38.195-.75.33-.37.134-.803.2-1.298.2-.505 0-.98-.08-1.426-.24-.446-.162-.836-.41-1.17-.75-.332-.337-.595-.758-.79-1.262-.192-.502-.29-1.102-.29-1.8 0-.61.092-1.172.275-1.682.183-.51.45-.95.798-1.32.35-.37.776-.66 1.282-.868.505-.21 1.074-.315 1.708-.315.7 0 1.31.05 1.83.153.52.102.96.196 1.314.28v7.47c0 1.286-.333 2.22-1 2.8-.666.578-1.676.868-3.03.868-.527 0-1.024-.043-1.49-.13-.47-.085-.875-.186-1.218-.304l.27-1.303c.3.116.67.22 1.105.312.435.092.89.138 1.362.138.89 0 1.533-.176 1.925-.53.393-.354.59-.918.59-1.69v-.354zm-.62-6.333c-.254-.037-.595-.057-1.024-.057-.806 0-1.427.264-1.862.79-.436.525-.653 1.222-.653 2.09 0 .484.06.897.185 1.24.124.344.29.628.5.853.21.226.45.392.725.5.274.107.557.16.847.16.397 0 .763-.056 1.096-.17.333-.112.596-.243.79-.393V5.91c-.15-.042-.352-.082-.605-.12zm16.353 6.9c-.932-.022-1.592-.22-1.982-.598-.39-.376-.585-.963-.585-1.76V.26L36.51 0v10.09c0 .248.022.452.066.614.043.16.113.29.21.387.098.1.228.17.39.22.163.05.363.09.602.12l-.21 1.26" fill="#fff"/><path d="M40.555 2.564c-.308 0-.57-.09-.786-.272-.22-.182-.328-.426-.328-.734s.108-.553.325-.734c.214-.182.477-.272.785-.272.31 0 .57.09.788.272.216.18.325.426.325.734s-.11.552-.324.734c-.215.18-.48.272-.786.272zm-.85 1.55h1.72v8.576h-1.72V4.114zm7.003-.252c.614 0 1.133.084 1.555.25.423.167.763.402 1.02.707.26.302.443.664.552 1.083.11.42.165.882.165 1.388v5.605l-.55.094c-.237.04-.503.08-.8.112-.296.035-.617.066-.963.095-.346.03-.69.043-1.03.043-.482 0-.926-.05-1.332-.153s-.757-.267-1.053-.49c-.297-.225-.527-.52-.692-.89-.164-.367-.247-.81-.247-1.327 0-.495.096-.92.29-1.277.19-.356.45-.643.78-.862.33-.215.714-.376 1.153-.48.438-.103.9-.155 1.382-.155.154 0 .313.01.478.026.164.017.32.04.47.07l.386.077c.11.023.186.04.23.052v-.45c0-.264-.027-.525-.082-.784-.055-.26-.154-.49-.297-.69-.142-.2-.337-.362-.584-.483-.25-.12-.57-.18-.966-.18-.505 0-.946.037-1.325.112-.378.074-.66.152-.848.232l-.18-1.327c.197-.094.526-.183.987-.27.46-.086.96-.13 1.497-.13zm.132 8.035c.362 0 .683-.01.963-.026.28-.015.513-.046.7-.092V9.103c-.11-.057-.29-.106-.536-.146-.247-.04-.546-.06-.897-.06-.23 0-.475.017-.732.05-.258.036-.494.108-.708.217-.214.11-.393.258-.535.448-.143.19-.214.44-.214.75 0 .575.178.974.53 1.198.35.225.83.337 1.432.337z" fill="#fff"/></g></svg>