<svg xmlns="http://www.w3.org/2000/svg" xmlns:xlink="http://www.w3.org/1999/xlink" viewBox="0 0 683.05 84.89"><defs><style>.cls-1{fill:url(#linear-gradient);}.cls-2{fill:url(#linear-gradient-2);}.cls-3{fill:#3e396a;}</style><linearGradient id="linear-gradient" x1="12.76" y1="77.95" x2="60.42" y2="6.46" gradientUnits="userSpaceOnUse"><stop offset="0" stop-color="#201c38"/><stop offset="0.56" stop-color="#3e396a"/></linearGradient><linearGradient id="linear-gradient-2" x1="39.17" y1="73.4" x2="86.83" y2="9.6" gradientUnits="userSpaceOnUse"><stop offset="0" stop-color="#00aeff"/><stop offset="0.53" stop-color="#326de2"/><stop offset="1" stop-color="#8e43e5"/></linearGradient></defs><title>Docsearch-logo-horizontal</title><g id="Layer_2" data-name="Layer 2"><g id="Layer_1-2" data-name="Layer 1"><path class="cls-1" d="M48.08,84.07H7.79a6,6,0,0,1,0-12H19a6,6,0,1,0,0-12H16.71a6,6,0,1,1,0-12H31.94a6,6,0,0,0,0-12H13.41a6,6,0,0,1-.26-12H26.32a6,6,0,1,0,0-12H13.18l0-.06H6A6,6,0,0,1,6,0H48.08a42,42,0,1,1,0,84.07Z"/><path class="cls-2" d="M73.71,0H33.41a6,6,0,1,0,0,12H44.62a6,6,0,0,1,0,12H42.33a6,6,0,1,0,0,12H57.56a6,6,0,1,1,0,12H39a6,6,0,0,0-.26,12H51.94a6,6,0,1,1,0,12H38.8l0,.06H31.65a6,6,0,0,0,0,12H73.71A42,42,0,1,0,73.71,0Z"/><path class="cls-3" d="M197.91,17.61a33.18,33.18,0,0,1,13.18,12.63,35.56,35.56,0,0,1,4.77,18.36A35,35,0,0,1,211,66.89,33.8,33.8,0,0,1,197.7,79.52a40.38,40.38,0,0,1-19.37,4.56h-29v-71h29.51A39.74,39.74,0,0,1,197.91,17.61Zm-7,51.52A21.24,21.24,0,0,0,199,60.81,24.65,24.65,0,0,0,202,48.69a24.55,24.55,0,0,0-3-12.22,21.56,21.56,0,0,0-8.37-8.42,23.92,23.92,0,0,0-11.92-3H162.92V72.12h16.23A23.15,23.15,0,0,0,190.86,69.13Z"/><path class="cls-3" d="M265.8,32.87a25,25,0,0,1,10,9.68,28.2,28.2,0,0,1,3.6,14.35,28.68,28.68,0,0,1-3.6,14.5,24.86,24.86,0,0,1-10,9.74,31,31,0,0,1-14.86,3.45,31.51,31.51,0,0,1-15-3.45,24.76,24.76,0,0,1-10.09-9.74,28.66,28.66,0,0,1-3.6-14.5,28.18,28.18,0,0,1,3.6-14.35,24.86,24.86,0,0,1,10.09-9.68,31.51,31.51,0,0,1,15-3.45A31,31,0,0,1,265.8,32.87Zm-26,12.37q-4.26,4.56-4.26,11.87T239.79,69a14.55,14.55,0,0,0,11.16,4.56,14.31,14.31,0,0,0,11-4.56q4.26-4.56,4.26-11.87t-4.26-11.87a14.31,14.31,0,0,0-11-4.56A14.55,14.55,0,0,0,239.79,45.24Z"/><path class="cls-3" d="M314,41a13.87,13.87,0,0,0-10.7,4.46q-4.11,4.46-4.11,11.56,0,7.3,4.11,11.76A13.86,13.86,0,0,0,314,73.23q9.74,0,14.6-6.39l8.21,6.79a24,24,0,0,1-9.63,8.11,32,32,0,0,1-13.89,2.84,29,29,0,0,1-14.25-3.45,24.26,24.26,0,0,1-9.68-9.69,29.15,29.15,0,0,1-3.45-14.35,29.32,29.32,0,0,1,3.5-14.5,24.52,24.52,0,0,1,9.74-9.73,29.16,29.16,0,0,1,14.35-3.45A32.35,32.35,0,0,1,326.74,32a23.92,23.92,0,0,1,9.48,7.35l-8,7.61A18.36,18.36,0,0,0,314,41Z"/><path class="cls-3" d="M382,26.18a33.85,33.85,0,0,0-10.09-1.83,14.13,14.13,0,0,0-7.71,1.83,5.72,5.72,0,0,0-2.84,5.07,6.68,6.68,0,0,0,2,4.92,15.45,15.45,0,0,0,5,3.25,78.55,78.55,0,0,0,8.16,2.79,89.28,89.28,0,0,1,11.81,4.26,21.08,21.08,0,0,1,7.86,6.29q3.24,4.16,3.25,11A18.72,18.72,0,0,1,395.91,75a21.92,21.92,0,0,1-9.63,7.35,36.54,36.54,0,0,1-14,2.54A44.18,44.18,0,0,1,356,81.8a46,46,0,0,1-13.79-8.27L347.89,62A41.47,41.47,0,0,0,360,69.78a32.07,32.07,0,0,0,12.47,2.84q5.68,0,8.92-2.18a7.18,7.18,0,0,0,1.27-11,14.7,14.7,0,0,0-5-3.19q-3-1.22-8.32-2.74a98.14,98.14,0,0,1-11.76-4.16,20.43,20.43,0,0,1-7.81-6.13q-3.25-4.11-3.25-10.8a18.1,18.1,0,0,1,3.3-10.8,21.22,21.22,0,0,1,9.33-7.15A35.77,35.77,0,0,1,373,12a47.15,47.15,0,0,1,13.64,2,46.17,46.17,0,0,1,12,5.48l-5.48,11.87A51.4,51.4,0,0,0,382,26.18Z"/><path class="cls-3" d="M453.91,36.83q6.54,7.4,6.54,20.79,0,2.64-.1,4H420.29a15.11,15.11,0,0,0,15.52,12.37,20.62,20.62,0,0,0,8-1.57,19.46,19.46,0,0,0,6.64-4.51l7.1,7.4a27.45,27.45,0,0,1-9.89,6.9,33.29,33.29,0,0,1-12.93,2.43A30.17,30.17,0,0,1,420,81.14a24.09,24.09,0,0,1-9.79-9.69,29.15,29.15,0,0,1-3.45-14.35,29.11,29.11,0,0,1,3.5-14.4,24.76,24.76,0,0,1,9.79-9.79,28.88,28.88,0,0,1,14.3-3.5Q447.37,29.42,453.91,36.83Zm-5.53,15.92a13.16,13.16,0,0,0-4-9.53,15.42,15.42,0,0,0-19.62-.05A15.44,15.44,0,0,0,420,52.75Z"/><path class="cls-3" d="M503.86,84.08V77.49a17.77,17.77,0,0,1-7.3,5.38,26.88,26.88,0,0,1-10.24,1.83,21.82,21.82,0,0,1-10-2.18,16,16,0,0,1-6.64-6,16.3,16.3,0,0,1-2.33-8.62q0-7.61,5.38-11.92t15.21-4.41h15.82V50.11a9.14,9.14,0,0,0-3.14-7.4q-3.15-2.64-9.13-2.64-7.71,0-16.12,5.07L470.59,36a60.11,60.11,0,0,1,11.61-5.12,42.6,42.6,0,0,1,12.22-1.57q10.55,0,16.38,5.07t5.93,14.2l.1,35.49Zm-4.67-12.22q4.05-2.69,4.56-6.64V60.35H490.06q-5.27,0-7.76,1.57A5.6,5.6,0,0,0,479.82,67a6.59,6.59,0,0,0,2.59,5.48,11.12,11.12,0,0,0,7,2A17.23,17.23,0,0,0,499.19,71.86Z"/><path class="cls-3" d="M552.28,32.21a22,22,0,0,1,11-2.89V42.1q-8.42-.51-13.44,3.9t-5,11.91V84.08H531.64V29.83h13.18V40.27A19.61,19.61,0,0,1,552.28,32.21Z"/><path class="cls-3" d="M595.63,41a13.87,13.87,0,0,0-10.7,4.46q-4.11,4.46-4.11,11.56,0,7.3,4.11,11.76a13.86,13.86,0,0,0,10.7,4.46q9.74,0,14.6-6.39l8.21,6.79a24,24,0,0,1-9.63,8.11,32,32,0,0,1-13.89,2.84,29,29,0,0,1-14.25-3.45A24.26,24.26,0,0,1,571,71.46a29.15,29.15,0,0,1-3.45-14.35,29.32,29.32,0,0,1,3.5-14.5,24.52,24.52,0,0,1,9.74-9.73,29.16,29.16,0,0,1,14.35-3.45A32.35,32.35,0,0,1,608.36,32a23.92,23.92,0,0,1,9.48,7.35l-8,7.61A18.36,18.36,0,0,0,595.63,41Z"/><path class="cls-3" d="M677.67,34.95Q683,40.58,683,50.21V84.08H669.76v-30q0-5.68-3.25-9a11.83,11.83,0,0,0-8.82-3.29,13.53,13.53,0,0,0-10.45,4.46,16.23,16.23,0,0,0-3.85,11.16V84.08H630.21V8.84h13.18V40.17Q649,29.53,663,29.32,672.3,29.32,677.67,34.95Z"/></g></g></svg>