<svg xmlns="http://www.w3.org/2000/svg" xmlns:xlink="http://www.w3.org/1999/xlink" viewBox="0 0 533.72 308.61"><defs><style>.cls-1{fill:#fff;}.cls-2{fill:url(#linear-gradient);}</style><linearGradient id="linear-gradient" x1="221.59" y1="144.2" x2="315.22" y2="18.86" gradientUnits="userSpaceOnUse"><stop offset="0" stop-color="#00aeff"/><stop offset="0.53" stop-color="#326de2"/><stop offset="1" stop-color="#8e43e5"/></linearGradient></defs><title>Asset 3</title><g id="Layer_2" data-name="Layer 2"><g id="Layer_1-2" data-name="Layer 1"><path class="cls-1" d="M239.1,165.17H159.94a11.83,11.83,0,1,1,0-23.66h13v0H182a11.77,11.77,0,1,0,0-23.55h-4.5a11.77,11.77,0,0,1,0-23.55h29.92a11.77,11.77,0,0,0,0-23.55H171a11.77,11.77,0,0,1-.51-23.52h25.88a11.77,11.77,0,0,0,0-23.55H170.53l0-.12h-14a11.83,11.83,0,0,1,0-23.66H239.1a82.58,82.58,0,1,1,0,165.17Z"/><path class="cls-2" d="M289.44,0H210.28a11.83,11.83,0,0,0,0,23.66h13v0h9.05a11.77,11.77,0,0,1,0,23.55h-4.5a11.77,11.77,0,1,0,0,23.55h29.92a11.77,11.77,0,0,1,0,23.55h-36.4a11.77,11.77,0,0,0-.51,23.52h25.88a11.77,11.77,0,1,1,0,23.55H220.87l0,.12h-14a11.83,11.83,0,0,0,0,23.66h82.63A82.58,82.58,0,1,0,289.44,0Z"/><path class="cls-1" d="M48.58,241.32A33.18,33.18,0,0,1,61.76,254a35.56,35.56,0,0,1,4.77,18.36,35,35,0,0,1-4.82,18.3,33.8,33.8,0,0,1-13.34,12.63A40.38,40.38,0,0,1,29,307.8H0v-71H29.51A39.74,39.74,0,0,1,48.58,241.32Zm-7,51.52a21.24,21.24,0,0,0,8.16-8.32,26.24,26.24,0,0,0-.1-24.34,21.56,21.56,0,0,0-8.37-8.42,23.92,23.92,0,0,0-11.92-3H13.59v47.05H29.81A23.15,23.15,0,0,0,41.53,292.84Z"/><path class="cls-1" d="M116.47,256.59a25,25,0,0,1,10,9.68,28.2,28.2,0,0,1,3.6,14.35,28.68,28.68,0,0,1-3.6,14.5,24.86,24.86,0,0,1-10,9.74,31,31,0,0,1-14.86,3.45,31.51,31.51,0,0,1-15-3.45,24.76,24.76,0,0,1-10.09-9.74,28.66,28.66,0,0,1-3.6-14.5,28.18,28.18,0,0,1,3.6-14.35,24.86,24.86,0,0,1,10.09-9.68,31.51,31.51,0,0,1,15-3.45A31,31,0,0,1,116.47,256.59ZM90.46,269q-4.26,4.56-4.26,11.87t4.26,11.87a14.55,14.55,0,0,0,11.16,4.56,14.31,14.31,0,0,0,11-4.56q4.26-4.56,4.26-11.87T112.56,269a14.31,14.31,0,0,0-11-4.56A14.55,14.55,0,0,0,90.46,269Z"/><path class="cls-1" d="M164.69,264.7a13.87,13.87,0,0,0-10.7,4.46q-4.11,4.46-4.11,11.56,0,7.3,4.11,11.76a13.86,13.86,0,0,0,10.7,4.46q9.74,0,14.6-6.39l8.21,6.79a24,24,0,0,1-9.63,8.11A32,32,0,0,1,164,308.31a29,29,0,0,1-14.25-3.45,24.26,24.26,0,0,1-9.68-9.69,31.69,31.69,0,0,1,.05-28.85,24.52,24.52,0,0,1,9.74-9.73,29.16,29.16,0,0,1,14.35-3.45,32.35,32.35,0,0,1,13.23,2.59,23.92,23.92,0,0,1,9.48,7.35l-8,7.61A18.36,18.36,0,0,0,164.69,264.7Z"/><path class="cls-1" d="M232.68,249.89a33.85,33.85,0,0,0-10.09-1.83,14.13,14.13,0,0,0-7.71,1.83A5.72,5.72,0,0,0,212,255a6.68,6.68,0,0,0,2,4.92,15.45,15.45,0,0,0,5,3.25,78.55,78.55,0,0,0,8.16,2.79A89.28,89.28,0,0,1,239,270.18a21.08,21.08,0,0,1,7.86,6.29q3.24,4.16,3.25,11a18.72,18.72,0,0,1-3.5,11.31,21.92,21.92,0,0,1-9.63,7.35,36.54,36.54,0,0,1-14,2.54,44.18,44.18,0,0,1-16.23-3.09,46,46,0,0,1-13.79-8.27l5.68-11.56a41.47,41.47,0,0,0,12.07,7.81,32.07,32.07,0,0,0,12.47,2.84q5.68,0,8.92-2.18a7.18,7.18,0,0,0,1.27-11,14.7,14.7,0,0,0-5-3.19q-3-1.22-8.32-2.74a98.14,98.14,0,0,1-11.76-4.16,20.43,20.43,0,0,1-7.81-6.13q-3.25-4.11-3.25-10.8a18.1,18.1,0,0,1,3.3-10.8,21.22,21.22,0,0,1,9.33-7.15,35.77,35.77,0,0,1,13.94-2.54,47.15,47.15,0,0,1,13.64,2,46.17,46.17,0,0,1,12,5.48l-5.48,11.87A51.4,51.4,0,0,0,232.68,249.89Z"/><path class="cls-1" d="M304.58,260.54q6.54,7.4,6.54,20.79,0,2.64-.1,4H271a15.11,15.11,0,0,0,15.52,12.37,20.62,20.62,0,0,0,8-1.57,19.46,19.46,0,0,0,6.64-4.51l7.1,7.4a27.45,27.45,0,0,1-9.89,6.9,33.29,33.29,0,0,1-12.93,2.43,30.17,30.17,0,0,1-14.65-3.45,24.09,24.09,0,0,1-9.79-9.69,31.48,31.48,0,0,1,.05-28.75,24.76,24.76,0,0,1,9.79-9.79,28.88,28.88,0,0,1,14.3-3.5Q298,253.14,304.58,260.54Zm-5.53,15.92a13.16,13.16,0,0,0-4-9.53,15.42,15.42,0,0,0-19.62-.05,15.44,15.44,0,0,0-4.82,9.58Z"/><path class="cls-1" d="M354.53,307.8v-6.59a17.77,17.77,0,0,1-7.3,5.38A26.88,26.88,0,0,1,337,308.41a21.82,21.82,0,0,1-10-2.18,16,16,0,0,1-6.64-6,16.3,16.3,0,0,1-2.33-8.62q0-7.61,5.38-11.92t15.21-4.41h15.82v-1.42a9.14,9.14,0,0,0-3.14-7.4q-3.15-2.64-9.13-2.64-7.71,0-16.12,5.07l-4.77-9.13a60.11,60.11,0,0,1,11.61-5.12A42.6,42.6,0,0,1,345.09,253q10.55,0,16.38,5.07t5.93,14.2l.1,35.49Zm-4.67-12.22q4.05-2.69,4.56-6.64v-4.87H340.73q-5.27,0-7.76,1.57a5.6,5.6,0,0,0-2.48,5.12,6.59,6.59,0,0,0,2.59,5.48,11.12,11.12,0,0,0,7,2A17.23,17.23,0,0,0,349.86,295.58Z"/><path class="cls-1" d="M402.95,255.93A22,22,0,0,1,414,253v12.78q-8.42-.51-13.44,3.9t-5,11.91V307.8H382.31V253.54H395.5V264A19.61,19.61,0,0,1,402.95,255.93Z"/><path class="cls-1" d="M446.3,264.7a13.87,13.87,0,0,0-10.7,4.46q-4.11,4.46-4.11,11.56,0,7.3,4.11,11.76a13.86,13.86,0,0,0,10.7,4.46q9.74,0,14.6-6.39l8.21,6.79a24,24,0,0,1-9.63,8.11,32,32,0,0,1-13.89,2.84,29,29,0,0,1-14.25-3.45,24.26,24.26,0,0,1-9.68-9.69,31.69,31.69,0,0,1,.05-28.85,24.52,24.52,0,0,1,9.74-9.73,29.16,29.16,0,0,1,14.35-3.45A32.35,32.35,0,0,1,459,255.72a23.92,23.92,0,0,1,9.48,7.35l-8,7.61A18.36,18.36,0,0,0,446.3,264.7Z"/><path class="cls-1" d="M528.34,258.67q5.37,5.63,5.37,15.26V307.8H520.43v-30q0-5.68-3.25-9a11.83,11.83,0,0,0-8.82-3.29A13.53,13.53,0,0,0,497.92,270a16.23,16.23,0,0,0-3.85,11.16V307.8H480.88V232.55h13.18v31.34q5.58-10.65,19.57-10.85Q523,253,528.34,258.67Z"/><path class="cls-1" d="M48.58,241.32A33.18,33.18,0,0,1,61.76,254a35.56,35.56,0,0,1,4.77,18.36,35,35,0,0,1-4.82,18.3,33.8,33.8,0,0,1-13.34,12.63A40.38,40.38,0,0,1,29,307.8H0v-71H29.51A39.74,39.74,0,0,1,48.58,241.32Zm-7,51.52a21.24,21.24,0,0,0,8.16-8.32,26.24,26.24,0,0,0-.1-24.34,21.56,21.56,0,0,0-8.37-8.42,23.92,23.92,0,0,0-11.92-3H13.59v47.05H29.81A23.15,23.15,0,0,0,41.53,292.84Z"/><path class="cls-1" d="M116.47,256.59a25,25,0,0,1,10,9.68,28.2,28.2,0,0,1,3.6,14.35,28.68,28.68,0,0,1-3.6,14.5,24.86,24.86,0,0,1-10,9.74,31,31,0,0,1-14.86,3.45,31.51,31.51,0,0,1-15-3.45,24.76,24.76,0,0,1-10.09-9.74,28.66,28.66,0,0,1-3.6-14.5,28.18,28.18,0,0,1,3.6-14.35,24.86,24.86,0,0,1,10.09-9.68,31.51,31.51,0,0,1,15-3.45A31,31,0,0,1,116.47,256.59ZM90.46,269q-4.26,4.56-4.26,11.87t4.26,11.87a14.55,14.55,0,0,0,11.16,4.56,14.31,14.31,0,0,0,11-4.56q4.26-4.56,4.26-11.87T112.56,269a14.31,14.31,0,0,0-11-4.56A14.55,14.55,0,0,0,90.46,269Z"/><path class="cls-1" d="M164.69,264.7a13.87,13.87,0,0,0-10.7,4.46q-4.11,4.46-4.11,11.56,0,7.3,4.11,11.76a13.86,13.86,0,0,0,10.7,4.46q9.74,0,14.6-6.39l8.21,6.79a24,24,0,0,1-9.63,8.11A32,32,0,0,1,164,308.31a29,29,0,0,1-14.25-3.45,24.26,24.26,0,0,1-9.68-9.69,31.69,31.69,0,0,1,.05-28.85,24.52,24.52,0,0,1,9.74-9.73,29.16,29.16,0,0,1,14.35-3.45,32.35,32.35,0,0,1,13.23,2.59,23.92,23.92,0,0,1,9.48,7.35l-8,7.61A18.36,18.36,0,0,0,164.69,264.7Z"/><path class="cls-1" d="M232.68,249.89a33.85,33.85,0,0,0-10.09-1.83,14.13,14.13,0,0,0-7.71,1.83A5.72,5.72,0,0,0,212,255a6.68,6.68,0,0,0,2,4.92,15.45,15.45,0,0,0,5,3.25,78.55,78.55,0,0,0,8.16,2.79A89.28,89.28,0,0,1,239,270.18a21.08,21.08,0,0,1,7.86,6.29q3.24,4.16,3.25,11a18.72,18.72,0,0,1-3.5,11.31,21.92,21.92,0,0,1-9.63,7.35,36.54,36.54,0,0,1-14,2.54,44.18,44.18,0,0,1-16.23-3.09,46,46,0,0,1-13.79-8.27l5.68-11.56a41.47,41.47,0,0,0,12.07,7.81,32.07,32.07,0,0,0,12.47,2.84q5.68,0,8.92-2.18a7.18,7.18,0,0,0,1.27-11,14.7,14.7,0,0,0-5-3.19q-3-1.22-8.32-2.74a98.14,98.14,0,0,1-11.76-4.16,20.43,20.43,0,0,1-7.81-6.13q-3.25-4.11-3.25-10.8a18.1,18.1,0,0,1,3.3-10.8,21.22,21.22,0,0,1,9.33-7.15,35.77,35.77,0,0,1,13.94-2.54,47.15,47.15,0,0,1,13.64,2,46.17,46.17,0,0,1,12,5.48l-5.48,11.87A51.4,51.4,0,0,0,232.68,249.89Z"/><path class="cls-1" d="M304.58,260.54q6.54,7.4,6.54,20.79,0,2.64-.1,4H271a15.11,15.11,0,0,0,15.52,12.37,20.62,20.62,0,0,0,8-1.57,19.46,19.46,0,0,0,6.64-4.51l7.1,7.4a27.45,27.45,0,0,1-9.89,6.9,33.29,33.29,0,0,1-12.93,2.43,30.17,30.17,0,0,1-14.65-3.45,24.09,24.09,0,0,1-9.79-9.69,31.48,31.48,0,0,1,.05-28.75,24.76,24.76,0,0,1,9.79-9.79,28.88,28.88,0,0,1,14.3-3.5Q298,253.14,304.58,260.54Zm-5.53,15.92a13.16,13.16,0,0,0-4-9.53,15.42,15.42,0,0,0-19.62-.05,15.44,15.44,0,0,0-4.82,9.58Z"/><path class="cls-1" d="M354.53,307.8v-6.59a17.77,17.77,0,0,1-7.3,5.38A26.88,26.88,0,0,1,337,308.41a21.82,21.82,0,0,1-10-2.18,16,16,0,0,1-6.64-6,16.3,16.3,0,0,1-2.33-8.62q0-7.61,5.38-11.92t15.21-4.41h15.82v-1.42a9.14,9.14,0,0,0-3.14-7.4q-3.15-2.64-9.13-2.64-7.71,0-16.12,5.07l-4.77-9.13a60.11,60.11,0,0,1,11.61-5.12A42.6,42.6,0,0,1,345.09,253q10.55,0,16.38,5.07t5.93,14.2l.1,35.49Zm-4.67-12.22q4.05-2.69,4.56-6.64v-4.87H340.73q-5.27,0-7.76,1.57a5.6,5.6,0,0,0-2.48,5.12,6.59,6.59,0,0,0,2.59,5.48,11.12,11.12,0,0,0,7,2A17.23,17.23,0,0,0,349.86,295.58Z"/><path class="cls-1" d="M402.95,255.93A22,22,0,0,1,414,253v12.78q-8.42-.51-13.44,3.9t-5,11.91V307.8H382.31V253.54H395.5V264A19.61,19.61,0,0,1,402.95,255.93Z"/><path class="cls-1" d="M446.3,264.7a13.87,13.87,0,0,0-10.7,4.46q-4.11,4.46-4.11,11.56,0,7.3,4.11,11.76a13.86,13.86,0,0,0,10.7,4.46q9.74,0,14.6-6.39l8.21,6.79a24,24,0,0,1-9.63,8.11,32,32,0,0,1-13.89,2.84,29,29,0,0,1-14.25-3.45,24.26,24.26,0,0,1-9.68-9.69,31.69,31.69,0,0,1,.05-28.85,24.52,24.52,0,0,1,9.74-9.73,29.16,29.16,0,0,1,14.35-3.45A32.35,32.35,0,0,1,459,255.72a23.92,23.92,0,0,1,9.48,7.35l-8,7.61A18.36,18.36,0,0,0,446.3,264.7Z"/><path class="cls-1" d="M528.34,258.67q5.37,5.63,5.37,15.26V307.8H520.43v-30q0-5.68-3.25-9a11.83,11.83,0,0,0-8.82-3.29A13.53,13.53,0,0,0,497.92,270a16.23,16.23,0,0,0-3.85,11.16V307.8H480.88V232.55h13.18v31.34q5.58-10.65,19.57-10.85Q523,253,528.34,258.67Z"/></g></g></svg>