<?xml version="1.0" encoding="UTF-8" standalone="no"?>
<svg width="427px" height="48px" viewBox="0 0 427 48" version="1.1" xmlns="http://www.w3.org/2000/svg" xmlns:xlink="http://www.w3.org/1999/xlink">
    <!-- Generator: Sketch 3.6.1 (26313) - http://www.bohemiancoding.com/sketch -->
    <title>docsearch-logo</title>
    <desc>Created with Sketch.</desc>
    <defs></defs>
    <g id="Page-1" stroke="none" stroke-width="1" fill="none" fill-rule="evenodd">
        <g id="Artboard-Copy-4" transform="translate(-269.000000, -220.000000)">
            <g id="docsearch-logo" transform="translate(271.000000, 223.000000)">
                <path d="M114.6,3.996 C119.950321,3.996 124.211292,5.78798208 127.383039,9.372 C128.792704,10.9400078 129.841928,12.72399 130.530742,14.724 C131.219556,16.72401 131.563958,18.7319899 131.563958,20.748 C131.563958,22.7640101 131.219556,24.77199 130.530742,26.772 C129.841928,28.77201 128.792704,30.5559922 127.383039,32.124 C124.211292,35.7080179 119.950321,37.5 114.6,37.5 L104.940636,37.5 C104.331917,37.5 103.819319,37.2920021 103.402827,36.876 C102.986335,36.4599979 102.778092,35.948003 102.778092,35.34 L102.778092,6.204 C102.778092,5.59599696 102.986335,5.07600216 103.402827,4.644 C103.819319,4.21199784 104.331917,3.996 104.940636,3.996 L114.6,3.996 Z M114.071378,33.42 C118.044072,33.42 121.247809,32.2520117 123.682686,29.916 C126.053487,27.5799883 127.238869,24.5240189 127.238869,20.748 C127.238869,16.9719811 126.053487,13.9160117 123.682686,11.58 C121.247809,9.24398832 118.044072,8.076 114.071378,8.076 L107.151237,8.076 L107.151237,33.42 L114.071378,33.42 Z M156.673498,3.516 C161.735479,3.516 165.804225,5.13198384 168.879859,8.364 C171.859379,11.5320158 173.413191,15.6599746 173.541343,20.748 C173.413191,25.8360254 171.859379,29.9639842 168.879859,33.132 C165.804225,36.3640162 161.735479,37.98 156.673498,37.98 C151.57948,37.98 147.510734,36.3640162 144.467138,33.132 C141.423542,29.931984 139.869729,25.8040253 139.805654,20.748 C139.869729,15.6919747 141.423542,11.564016 144.467138,8.364 C147.510734,5.13198384 151.57948,3.516 156.673498,3.516 L156.673498,3.516 Z M156.673498,33.9 C160.582116,33.9 163.657704,32.6360126 165.900353,30.108 C168.078927,27.6759878 169.168198,24.556019 169.168198,20.748 C169.168198,16.939981 168.078927,13.8200122 165.900353,11.388 C163.657704,8.85998736 160.582116,7.596 156.673498,7.596 C152.76488,7.596 149.689293,8.85998736 147.446643,11.388 C145.268069,13.8200122 144.178799,16.939981 144.178799,20.748 C144.178799,24.556019 145.268069,27.6759878 147.446643,30.108 C149.689293,32.6360126 152.76488,33.9 156.673498,33.9 L156.673498,33.9 Z M207.877739,31.548 C208.134041,31.4199994 208.494462,31.356 208.959011,31.356 C209.423559,31.356 209.824027,31.5399982 210.160424,31.908 C210.496821,32.2760018 210.665018,32.6999976 210.665018,33.18 C210.665018,34.0440043 210.312607,34.6519982 209.607774,35.004 C208.101995,35.8360042 206.492117,36.5399971 204.778092,37.116 C203.064067,37.6920029 201.013675,37.98 198.626855,37.98 C196.240035,37.98 194.021447,37.5880039 191.971025,36.804 C189.920602,36.0199961 188.142528,34.8760075 186.636749,33.372 C183.432964,30.2359843 181.831095,26.0280264 181.831095,20.748 C181.831095,15.4679736 183.432964,11.2600157 186.636749,8.124 C189.744421,5.05198464 193.749092,3.516 198.650883,3.516 C201.021684,3.516 203.064067,3.80399712 204.778092,4.38 C206.492117,4.95600288 207.805649,5.49199752 208.718728,5.988 C209.631807,6.48400248 210.184451,6.88399848 210.376678,7.188 C210.568906,7.49200152 210.665018,7.87599768 210.665018,8.34 C210.665018,8.80400232 210.496821,9.21999816 210.160424,9.588 C209.824027,9.95600184 209.423559,10.14 208.959011,10.14 C208.494462,10.14 208.134041,10.0760006 207.877739,9.948 C206.596224,9.27599664 205.282692,8.73200208 203.937102,8.316 C202.591513,7.89999792 200.91756,7.692 198.915194,7.692 C196.912829,7.692 195.102717,8.02799664 193.484806,8.7 C191.866894,9.37200336 190.513315,10.2999941 189.424028,11.484 C187.277492,13.8200117 186.20424,16.9079808 186.20424,20.748 C186.20424,24.5880192 187.277492,27.6759883 189.424028,30.012 C191.762791,32.5400126 194.982547,33.804 199.083392,33.804 C200.973625,33.804 202.591513,33.5960021 203.937102,33.18 C205.282692,32.7639979 206.596224,32.2200034 207.877739,31.548 L207.877739,31.548 Z M230.488339,33.852 C236.094963,33.852 238.898233,32.0120184 238.898233,28.332 C238.898233,26.7959923 237.824981,25.5640046 235.678445,24.636 C234.749348,24.2519981 233.668086,23.9080015 232.434629,23.604 C231.201172,23.2999985 229.951714,22.9720018 228.686219,22.62 C227.420724,22.2679982 226.171266,21.8680022 224.937809,21.42 C223.704352,20.9719978 222.607072,20.3960035 221.645936,19.692 C219.531438,18.091992 218.474205,15.9800131 218.474205,13.356 C218.474205,10.5399859 219.531438,8.23600896 221.645936,6.444 C223.952662,4.49199024 227.044268,3.516 230.920848,3.516 C234.412974,3.516 237.600692,4.04399472 240.484099,5.1 C241.381159,5.4200016 241.829682,6.0599952 241.829682,7.02 C241.829682,7.5000024 241.661486,7.95599784 241.325088,8.388 C240.988691,8.82000216 240.620261,9.036 240.219788,9.036 C239.819315,9.036 239.26667,8.90800128 238.561837,8.652 C236.479377,7.91599632 234.092593,7.548 231.401413,7.548 C228.934499,7.548 226.900126,8.01199536 225.298233,8.94 C223.664303,9.9000048 222.84735,11.2599912 222.84735,13.02 C222.84735,14.8440091 223.904583,16.2199954 226.019081,17.148 C226.980217,17.5960022 228.069487,17.9639986 229.286926,18.252 C230.504364,18.5400014 231.753822,18.8439984 233.035336,19.164 C234.31685,19.4840016 235.566307,19.8599978 236.783746,20.292 C238.001184,20.7240022 239.090455,21.2919965 240.05159,21.996 C242.166088,23.5320077 243.223322,25.7399856 243.223322,28.62 C243.223322,31.3720138 242.118032,33.6119914 239.90742,35.34 C237.632733,37.1000088 234.637239,37.98 230.920848,37.98 C226.852041,37.98 223.039594,37.2120077 219.483392,35.676 C219.130976,35.5159992 218.818611,35.2600018 218.54629,34.908 C218.273968,34.5559982 218.137809,34.1320025 218.137809,33.636 C218.137809,33.1399975 218.314015,32.692002 218.666431,32.292 C219.018847,31.891998 219.427324,31.692 219.891873,31.692 C220.356422,31.692 220.933094,31.8439985 221.621908,32.148 C222.310722,32.4520015 223.440039,32.8119979 225.009894,33.228 C226.579749,33.6440021 228.405879,33.852 230.488339,33.852 L230.488339,33.852 Z M275.85371,34.02 C276.254183,34.420002 276.454417,34.9079971 276.454417,35.484 C276.454417,36.0600029 276.254183,36.5399981 275.85371,36.924 C275.453237,37.3080019 274.964667,37.5 274.387986,37.5 L255.117314,37.5 C254.508595,37.5 253.995997,37.2920021 253.579505,36.876 C253.163013,36.4599979 252.95477,35.948003 252.95477,35.34 L252.95477,6.204 C252.95477,5.59599696 253.163013,5.07600216 253.579505,4.644 C253.995997,4.21199784 254.508595,3.996 255.117314,3.996 L274.387986,3.996 C274.964667,3.996 275.453237,4.195998 275.85371,4.596 C276.254183,4.996002 276.454417,5.48399712 276.454417,6.06 C276.454417,6.63600288 276.254183,7.11599808 275.85371,7.5 C275.453237,7.88400192 274.964667,8.076 274.387986,8.076 L257.327915,8.076 L257.327915,18.684 L272.657951,18.684 C273.234632,18.684 273.723202,18.883998 274.123675,19.284 C274.524148,19.684002 274.724382,20.1719971 274.724382,20.748 C274.724382,21.3240029 274.524148,21.8039981 274.123675,22.188 C273.723202,22.5720019 273.234632,22.764 272.657951,22.764 L257.327915,22.764 L257.327915,33.42 L274.387986,33.42 C274.964667,33.42 275.453237,33.619998 275.85371,34.02 L275.85371,34.02 Z M314.010601,34.62 C314.17079,35.0040019 314.250883,35.4119978 314.250883,35.844 C314.250883,36.2760022 314.058659,36.6999979 313.674205,37.116 C313.289751,37.5320021 312.681041,37.74 311.848057,37.74 C311.015072,37.74 310.406362,37.2920045 310.021908,36.396 L306.898233,28.908 L290.559011,28.908 L287.435336,36.396 C287.050881,37.2920045 286.442171,37.74 285.609187,37.74 C284.776203,37.74 284.167493,37.5320021 283.783039,37.116 C283.398585,36.6999979 283.20636,36.2760022 283.20636,35.844 C283.20636,35.4119978 283.286454,35.0040019 283.446643,34.62 L295.70106,5.724 C296.277741,4.41199344 297.206825,3.756 298.488339,3.756 L298.968905,3.756 C300.250419,3.756 301.179502,4.41199344 301.756184,5.724 L314.010601,34.62 Z M305.216254,24.924 L298.728622,9.324 L292.240989,24.924 L305.216254,24.924 Z M349.260071,35.58 C349.260071,36.188003 349.051828,36.6999979 348.635336,37.116 C348.218844,37.5320021 347.690227,37.74 347.04947,37.74 C346.408713,37.74 345.888106,37.540002 345.487633,37.14 C345.087159,36.739998 344.886926,36.2200032 344.886926,35.58 L344.886926,34.14 C344.886926,31.547987 344.598589,29.6440061 344.021908,28.428 C343.445227,27.2119939 342.660311,26.2440036 341.667138,25.524 C340.673964,24.8039964 339.26432,24.444 337.438163,24.444 L327.490459,24.444 L327.490459,35.58 C327.490459,36.188003 327.274207,36.6999979 326.841696,37.116 C326.409185,37.5320021 325.888578,37.74 325.279859,37.74 C324.671139,37.74 324.158542,37.5320021 323.742049,37.116 C323.325557,36.6999979 323.117314,36.188003 323.117314,35.58 L323.117314,6.204 C323.117314,5.59599696 323.325557,5.07600216 323.742049,4.644 C324.158542,4.21199784 324.671139,3.996 325.279859,3.996 L336.477032,3.996 C340.866217,3.996 344.182085,4.92399072 346.424735,6.78 C348.507195,8.5400088 349.54841,10.8599856 349.54841,13.74 C349.54841,15.5960093 349.027803,17.323992 347.986572,18.924 C346.945342,20.524008 345.367502,21.6919963 343.253004,22.428 C345.559729,23.036003 347.225672,24.6999864 348.250883,27.42 C348.923678,29.2440091 349.260071,31.2279893 349.260071,33.372 L349.260071,35.58 Z M336.188693,20.316 C338.879872,20.316 341.050404,19.7880053 342.700353,18.732 C344.350303,17.6759947 345.175265,16.1240102 345.175265,14.076 C345.175265,12.1559904 344.534518,10.7160048 343.253004,9.756 C341.715187,8.66799456 339.280346,8.124 335.94841,8.124 L327.490459,8.124 L327.490459,20.316 L336.188693,20.316 Z M384.413428,31.548 C384.66973,31.4199994 385.030151,31.356 385.4947,31.356 C385.959248,31.356 386.359716,31.5399982 386.696113,31.908 C387.032511,32.2760018 387.200707,32.6999976 387.200707,33.18 C387.200707,34.0440043 386.848296,34.6519982 386.143463,35.004 C384.637684,35.8360042 383.027806,36.5399971 381.313781,37.116 C379.599756,37.6920029 377.549364,37.98 375.162544,37.98 C372.775724,37.98 370.557136,37.5880039 368.506714,36.804 C366.456291,36.0199961 364.678217,34.8760075 363.172438,33.372 C359.968653,30.2359843 358.366784,26.0280264 358.366784,20.748 C358.366784,15.4679736 359.968653,11.2600157 363.172438,8.124 C366.28011,5.05198464 370.284781,3.516 375.186572,3.516 C377.557373,3.516 379.599756,3.80399712 381.313781,4.38 C383.027806,4.95600288 384.341338,5.49199752 385.254417,5.988 C386.167496,6.48400248 386.72014,6.88399848 386.912367,7.188 C387.104595,7.49200152 387.200707,7.87599768 387.200707,8.34 C387.200707,8.80400232 387.032511,9.21999816 386.696113,9.588 C386.359716,9.95600184 385.959248,10.14 385.4947,10.14 C385.030151,10.14 384.66973,10.0760006 384.413428,9.948 C383.131913,9.27599664 381.818381,8.73200208 380.472792,8.316 C379.127202,7.89999792 377.453249,7.692 375.450883,7.692 C373.448518,7.692 371.638406,8.02799664 370.020495,8.7 C368.402583,9.37200336 367.049004,10.2999941 365.959717,11.484 C363.813181,13.8200117 362.739929,16.9079808 362.739929,20.748 C362.739929,24.5880192 363.813181,27.6759883 365.959717,30.012 C368.29848,32.5400126 371.518236,33.804 375.619081,33.804 C377.509315,33.804 379.127202,33.5960021 380.472792,33.18 C381.818381,32.7639979 383.131913,32.2200034 384.413428,31.548 L384.413428,31.548 Z M421.633216,3.756 C422.241935,3.756 422.762542,3.97199784 423.195053,4.404 C423.627564,4.83600216 423.843816,5.35599696 423.843816,5.964 L423.843816,35.58 C423.843816,36.188003 423.627564,36.6999979 423.195053,37.116 C422.762542,37.5320021 422.241935,37.74 421.633216,37.74 C421.024496,37.74 420.511898,37.5320021 420.095406,37.116 C419.678914,36.6999979 419.470671,36.188003 419.470671,35.58 L419.470671,22.812 L401.257244,22.812 L401.257244,35.58 C401.257244,36.188003 401.040992,36.6999979 400.608481,37.116 C400.17597,37.5320021 399.655362,37.74 399.046643,37.74 C398.437924,37.74 397.925326,37.5320021 397.508834,37.116 C397.092342,36.6999979 396.884099,36.188003 396.884099,35.58 L396.884099,5.964 C396.884099,5.35599696 397.092342,4.83600216 397.508834,4.404 C397.925326,3.97199784 398.437924,3.756 399.046643,3.756 C399.655362,3.756 400.17597,3.97199784 400.608481,4.404 C401.040992,4.83600216 401.257244,5.35599696 401.257244,5.964 L401.257244,18.732 L419.470671,18.732 L419.470671,5.964 C419.470671,5.35599696 419.678914,4.83600216 420.095406,4.404 C420.511898,3.97199784 421.024496,3.756 421.633216,3.756 L421.633216,3.756 Z" id="type" stroke="#FFFFFF" stroke-width="0.6" fill="#FFFFFF"></path>
                <g id="mark">
                    <path d="M0.341296891,0 L45.4781901,0 C57.1321247,0 66.5795053,9.39947018 66.5795053,21 L66.5795053,21 C66.5795053,32.5979797 57.1191834,42 45.4574675,42 L0.975710665,42" id="d-shape" stroke="#FB366E" stroke-width="4.5" stroke-linecap="round" stroke-linejoin="round"></path>
                    <path d="M14.9586926,31.5 L46.9431729,31.5" id="line-3" stroke="#FFFFFF" stroke-width="4.5" stroke-linecap="round" stroke-linejoin="round"></path>
                    <path d="M14.6301811,21 L54.7805183,21" id="line-2" stroke="#FFFFFF" stroke-width="4.5" stroke-linecap="round" stroke-linejoin="round"></path>
                    <path d="M14.9586926,10.5 L46.9431729,10.5" id="line-1" stroke="#FFFFFF" stroke-width="4.5" stroke-linecap="round" stroke-linejoin="round"></path>
                    <ellipse id="circle-3" fill="#FB366E" cx="5.75795053" cy="21" rx="2.25265018" ry="2.25"></ellipse>
                    <ellipse id="circle-2" fill="#FB366E" cx="5.75795053" cy="31.5" rx="2.25265018" ry="2.25"></ellipse>
                    <ellipse id="circle-1" fill="#FB366E" cx="5.75795053" cy="10.5" rx="2.25265018" ry="2.25"></ellipse>
                </g>
            </g>
        </g>
    </g>
</svg>