<?xml version="1.0" standalone="no"?><!DOCTYPE svg PUBLIC "-//W3C//DTD SVG 1.1//EN" "http://www.w3.org/Graphics/SVG/1.1/DTD/svg11.dtd"><svg width="100%" height="100%" viewBox="0 0 319 181" version="1.1" xmlns="http://www.w3.org/2000/svg" xmlns:xlink="http://www.w3.org/1999/xlink" xml:space="preserve" style="fill-rule:evenodd;clip-rule:evenodd;stroke-linejoin:round;stroke-miterlimit:1.41421;"><ellipse cx="156.825" cy="55.061" rx="52.381" ry="51.925" style="fill:#0e1823;"/><g id="illus-index"><g id="Icons/Search-+-illus-header"><path id="illus-header-bg" d="M316.874,156.224c0,-12.677 -10.291,-22.968 -22.967,-22.968l-268.984,0c-12.676,0 -22.967,10.291 -22.967,22.968c0,12.676 10.291,22.967 22.967,22.967l268.984,0c12.676,0 22.967,-10.291 22.967,-22.967Z" style="fill:#0e1823;"/><path d="M294.065,131.793l0.157,0.001l0.158,0.003l0.157,0.003l0.156,0.005l0.157,0.005l0.156,0.007l0.156,0.007l0.156,0.009l0.156,0.009l0.155,0.01l0.155,0.012l0.155,0.012l0.155,0.013l0.154,0.014l0.154,0.016l0.154,0.016l0.153,0.017l0.153,0.018l0.153,0.019l0.153,0.02l0.152,0.021l0.152,0.021l0.152,0.023l0.152,0.024l0.151,0.024l0.151,0.026l0.15,0.026l0.15,0.028l0.15,0.028l0.15,0.029l0.149,0.03l0.149,0.031l0.149,0.032l0.148,0.033l0.148,0.034l0.147,0.034l0.148,0.036l0.147,0.036l0.146,0.037l0.146,0.038l0.146,0.039l0.146,0.04l0.145,0.041l0.145,0.042l0.144,0.042l0.144,0.044l0.144,0.044l0.143,0.045l0.143,0.046l0.142,0.047l0.143,0.047l0.141,0.049l0.142,0.049l0.141,0.05l0.14,0.051l0.14,0.052l0.14,0.053l0.139,0.053l0.139,0.055l0.139,0.055l0.138,0.056l0.138,0.057l0.137,0.057l0.137,0.059l0.136,0.059l0.136,0.06l0.136,0.061l0.135,0.061l0.134,0.063l0.135,0.063l0.133,0.064l0.134,0.065l0.132,0.065l0.133,0.067l0.132,0.067l0.131,0.068l0.131,0.068l0.131,0.07l0.13,0.07l0.129,0.071l0.13,0.071l0.128,0.073l0.128,0.073l0.128,0.074l0.127,0.075l0.127,0.075l0.126,0.076l0.126,0.077l0.125,0.078l0.125,0.078l0.124,0.079l0.123,0.08l0.123,0.081l0.123,0.081l0.122,0.082l0.122,0.083l0.121,0.083l0.12,0.084l0.12,0.085l0.12,0.086l0.119,0.086l0.118,0.087l0.118,0.087l0.117,0.089l0.117,0.089l0.116,0.089l0.116,0.091l0.115,0.091l0.114,0.091l0.114,0.093l0.114,0.093l0.112,0.093l0.113,0.095l0.111,0.095l0.112,0.095l0.11,0.097l0.11,0.097l0.109,0.097l0.109,0.098l0.108,0.099l0.108,0.1l0.107,0.1l0.106,0.101l0.106,0.101l0.105,0.102l0.104,0.103l0.104,0.103l0.104,0.104l0.102,0.105l0.102,0.105l0.102,0.106l0.101,0.106l0.1,0.107l0.099,0.107l0.099,0.109l0.098,0.108l0.098,0.11l0.097,0.11l0.096,0.11l0.096,0.111l0.095,0.112l0.094,0.112l0.094,0.113l0.093,0.113l0.092,0.114l0.092,0.115l0.091,0.115l0.09,0.115l0.09,0.117l0.089,0.116l0.088,0.118l0.088,0.117l0.087,0.119l0.086,0.119l0.085,0.119l0.085,0.12l0.084,0.121l0.084,0.121l0.083,0.121l0.082,0.123l0.081,0.122l0.08,0.123l0.08,0.124l0.079,0.124l0.079,0.125l0.077,0.125l0.077,0.125l0.076,0.127l0.076,0.126l0.075,0.128l0.073,0.127l0.074,0.128l0.072,0.129l0.072,0.129l0.071,0.13l0.07,0.13l0.069,0.13l0.069,0.131l0.068,0.132l0.067,0.132l0.066,0.132l0.066,0.133l0.065,0.133l0.064,0.134l0.063,0.134l0.062,0.135l0.062,0.135l0.061,0.135l0.06,0.136l0.059,0.137l0.058,0.137l0.058,0.137l0.057,0.138l0.056,0.138l0.055,0.138l0.054,0.139l0.054,0.139l0.052,0.14l0.052,0.14l0.051,0.141l0.05,0.141l0.05,0.141l0.048,0.142l0.048,0.142l0.047,0.143l0.046,0.142l0.045,0.144l0.044,0.144l0.043,0.144l0.043,0.144l0.041,0.145l0.041,0.145l0.04,0.145l0.039,0.146l0.038,0.146l0.038,0.147l0.036,0.147l0.035,0.147l0.035,0.148l0.034,0.148l0.033,0.148l0.031,0.149l0.031,0.149l0.031,0.149l0.029,0.149l0.028,0.15l0.027,0.151l0.027,0.15l0.025,0.151l0.025,0.151l0.023,0.151l0.023,0.152l0.022,0.152l0.021,0.152l0.02,0.153l0.019,0.153l0.018,0.153l0.017,0.154l0.016,0.153l0.015,0.154l0.014,0.155l0.014,0.154l0.012,0.155l0.011,0.155l0.011,0.156l0.009,0.155l0.008,0.156l0.008,0.156l0.006,0.157l0.006,0.156l0.004,0.157l0.004,0.157l0.002,0.157l0.002,0.158l0,0.158l0,0.157l-0.002,0.158l-0.002,0.157l-0.004,0.157l-0.004,0.157l-0.006,0.156l-0.006,0.157l-0.008,0.156l-0.008,0.156l-0.009,0.155l-0.011,0.156l-0.011,0.155l-0.012,0.155l-0.014,0.154l-0.014,0.155l-0.015,0.154l-0.016,0.153l-0.017,0.154l-0.018,0.153l-0.019,0.153l-0.02,0.153l-0.021,0.152l-0.022,0.152l-0.023,0.152l-0.023,0.151l-0.025,0.151l-0.025,0.151l-0.027,0.15l-0.027,0.151l-0.028,0.15l-0.029,0.149l-0.031,0.149l-0.031,0.149l-0.031,0.149l-0.033,0.148l-0.034,0.148l-0.035,0.148l-0.035,0.147l-0.036,0.147l-0.038,0.147l-0.038,0.146l-0.039,0.146l-0.04,0.145l-0.041,0.145l-0.041,0.145l-0.043,0.145l-0.043,0.143l-0.044,0.144l-0.045,0.144l-0.046,0.142l-0.047,0.143l-0.048,0.142l-0.048,0.142l-0.05,0.141l-0.05,0.141l-0.051,0.141l-0.052,0.14l-0.052,0.14l-0.054,0.139l-0.054,0.139l-0.055,0.138l-0.056,0.138l-0.057,0.138l-0.058,0.137l-0.058,0.137l-0.059,0.137l-0.06,0.136l-0.061,0.135l-0.062,0.135l-0.062,0.135l-0.063,0.134l-0.064,0.134l-0.065,0.133l-0.066,0.133l-0.066,0.132l-0.067,0.132l-0.068,0.132l-0.069,0.131l-0.069,0.13l-0.07,0.13l-0.071,0.13l-0.072,0.129l-0.072,0.129l-0.074,0.128l-0.073,0.127l-0.075,0.128l-0.076,0.126l-0.076,0.127l-0.077,0.125l-0.077,0.125l-0.079,0.125l-0.079,0.124l-0.08,0.124l-0.08,0.123l-0.081,0.122l-0.083,0.123l-0.082,0.121l-0.084,0.121l-0.084,0.121l-0.085,0.12l-0.085,0.119l-0.086,0.119l-0.087,0.119l-0.088,0.117l-0.088,0.118l-0.089,0.116l-0.09,0.117l-0.09,0.115l-0.091,0.115l-0.092,0.115l-0.092,0.114l-0.093,0.113l-0.094,0.113l-0.094,0.112l-0.095,0.112l-0.096,0.111l-0.096,0.11l-0.097,0.11l-0.098,0.11l-0.098,0.108l-0.099,0.109l-0.099,0.107l-0.1,0.107l-0.101,0.106l-0.102,0.106l-0.102,0.105l-0.102,0.105l-0.104,0.104l-0.104,0.103l-0.104,0.103l-0.105,0.102l-0.106,0.101l-0.106,0.101l-0.107,0.1l-0.108,0.1l-0.108,0.099l-0.109,0.098l-0.109,0.097l-0.11,0.097l-0.11,0.097l-0.112,0.095l-0.111,0.095l-0.113,0.095l-0.112,0.093l-0.114,0.093l-0.114,0.093l-0.114,0.091l-0.115,0.091l-0.116,0.091l-0.116,0.089l-0.117,0.089l-0.117,0.089l-0.118,0.087l-0.118,0.087l-0.119,0.086l-0.12,0.086l-0.12,0.085l-0.12,0.084l-0.121,0.083l-0.122,0.083l-0.122,0.082l-0.122,0.081l-0.124,0.081l-0.123,0.08l-0.124,0.079l-0.125,0.078l-0.125,0.078l-0.126,0.077l-0.126,0.076l-0.127,0.075l-0.127,0.075l-0.128,0.074l-0.128,0.073l-0.128,0.073l-0.129,0.071l-0.13,0.071l-0.13,0.07l-0.131,0.07l-0.131,0.068l-0.131,0.068l-0.132,0.067l-0.133,0.067l-0.132,0.065l-0.134,0.065l-0.133,0.064l-0.135,0.063l-0.134,0.063l-0.135,0.061l-0.136,0.061l-0.136,0.06l-0.136,0.059l-0.137,0.059l-0.137,0.057l-0.138,0.057l-0.138,0.056l-0.139,0.055l-0.139,0.055l-0.139,0.053l-0.14,0.053l-0.14,0.052l-0.14,0.051l-0.141,0.05l-0.142,0.049l-0.141,0.049l-0.143,0.047l-0.142,0.047l-0.143,0.046l-0.143,0.045l-0.144,0.044l-0.144,0.044l-0.144,0.042l-0.145,0.042l-0.145,0.041l-0.146,0.04l-0.146,0.039l-0.146,0.038l-0.146,0.037l-0.147,0.036l-0.148,0.036l-0.147,0.034l-0.148,0.034l-0.148,0.033l-0.149,0.032l-0.149,0.031l-0.149,0.03l-0.15,0.029l-0.15,0.028l-0.15,0.028l-0.15,0.026l-0.151,0.026l-0.151,0.024l-0.152,0.024l-0.152,0.023l-0.152,0.021l-0.152,0.021l-0.153,0.02l-0.153,0.019l-0.153,0.018l-0.153,0.017l-0.154,0.016l-0.154,0.016l-0.154,0.014l-0.155,0.013l-0.155,0.012l-0.155,0.012l-0.155,0.01l-0.156,0.009l-0.156,0.009l-0.156,0.007l-0.156,0.007l-0.157,0.005l-0.156,0.005l-0.157,0.003l-0.158,0.003l-0.157,0.001l-0.156,0.001l-268.988,0l-0.155,-0.001l-0.158,-0.001l-0.157,-0.003l-0.157,-0.003l-0.157,-0.005l-0.156,-0.005l-0.157,-0.007l-0.156,-0.007l-0.156,-0.009l-0.155,-0.009l-0.156,-0.01l-0.155,-0.012l-0.155,-0.012l-0.154,-0.013l-0.155,-0.014l-0.154,-0.016l-0.153,-0.016l-0.154,-0.017l-0.153,-0.018l-0.153,-0.019l-0.153,-0.02l-0.152,-0.021l-0.152,-0.021l-0.152,-0.023l-0.151,-0.024l-0.151,-0.024l-0.151,-0.026l-0.151,-0.026l-0.15,-0.028l-0.15,-0.028l-0.149,-0.029l-0.15,-0.03l-0.149,-0.031l-0.148,-0.032l-0.148,-0.033l-0.148,-0.034l-0.148,-0.034l-0.147,-0.036l-0.147,-0.036l-0.147,-0.037l-0.146,-0.038l-0.146,-0.039l-0.145,-0.04l-0.145,-0.041l-0.145,-0.042l-0.145,-0.042l-0.144,-0.044l-0.143,-0.044l-0.144,-0.045l-0.143,-0.046l-0.142,-0.047l-0.142,-0.047l-0.142,-0.049l-0.141,-0.049l-0.141,-0.05l-0.141,-0.051l-0.14,-0.052l-0.14,-0.053l-0.139,-0.053l-0.139,-0.055l-0.138,-0.055l-0.139,-0.056l-0.137,-0.057l-0.137,-0.057l-0.137,-0.059l-0.137,-0.059l-0.136,-0.06l-0.135,-0.061l-0.135,-0.061l-0.135,-0.063l-0.134,-0.063l-0.134,-0.064l-0.133,-0.065l-0.133,-0.065l-0.132,-0.067l-0.132,-0.067l-0.132,-0.068l-0.131,-0.068l-0.13,-0.07l-0.13,-0.07l-0.13,-0.071l-0.129,-0.071l-0.129,-0.073l-0.128,-0.073l-0.128,-0.074l-0.127,-0.075l-0.126,-0.075l-0.127,-0.076l-0.125,-0.077l-0.125,-0.078l-0.125,-0.078l-0.124,-0.079l-0.124,-0.08l-0.123,-0.081l-0.123,-0.081l-0.122,-0.082l-0.121,-0.083l-0.121,-0.083l-0.121,-0.084l-0.12,-0.085l-0.119,-0.086l-0.119,-0.086l-0.119,-0.087l-0.117,-0.087l-0.118,-0.089l-0.116,-0.089l-0.117,-0.089l-0.115,-0.091l-0.115,-0.091l-0.115,-0.091l-0.114,-0.093l-0.113,-0.093l-0.113,-0.093l-0.112,-0.095l-0.112,-0.095l-0.111,-0.095l-0.11,-0.097l-0.11,-0.097l-0.11,-0.097l-0.108,-0.098l-0.109,-0.099l-0.107,-0.1l-0.107,-0.1l-0.106,-0.101l-0.106,-0.101l-0.105,-0.102l-0.105,-0.103l-0.104,-0.103l-0.103,-0.104l-0.103,-0.105l-0.102,-0.105l-0.101,-0.106l-0.101,-0.106l-0.1,-0.107l-0.1,-0.107l-0.099,-0.109l-0.098,-0.108l-0.097,-0.11l-0.097,-0.11l-0.097,-0.11l-0.095,-0.111l-0.095,-0.112l-0.095,-0.112l-0.093,-0.113l-0.093,-0.113l-0.093,-0.114l-0.091,-0.115l-0.091,-0.115l-0.091,-0.115l-0.089,-0.117l-0.089,-0.116l-0.089,-0.118l-0.087,-0.117l-0.087,-0.119l-0.086,-0.119l-0.086,-0.119l-0.085,-0.12l-0.084,-0.121l-0.083,-0.121l-0.083,-0.121l-0.082,-0.122l-0.081,-0.123l-0.081,-0.123l-0.08,-0.124l-0.079,-0.124l-0.078,-0.125l-0.078,-0.125l-0.077,-0.126l-0.076,-0.126l-0.075,-0.126l-0.075,-0.128l-0.074,-0.127l-0.073,-0.128l-0.073,-0.129l-0.071,-0.129l-0.071,-0.13l-0.07,-0.13l-0.07,-0.13l-0.068,-0.131l-0.068,-0.132l-0.067,-0.132l-0.067,-0.132l-0.065,-0.133l-0.065,-0.133l-0.064,-0.134l-0.063,-0.134l-0.063,-0.135l-0.061,-0.135l-0.061,-0.135l-0.06,-0.136l-0.059,-0.137l-0.059,-0.137l-0.057,-0.137l-0.057,-0.138l-0.056,-0.138l-0.055,-0.138l-0.055,-0.139l-0.053,-0.139l-0.053,-0.14l-0.052,-0.14l-0.051,-0.141l-0.05,-0.141l-0.049,-0.141l-0.049,-0.142l-0.047,-0.142l-0.047,-0.143l-0.046,-0.142l-0.045,-0.144l-0.044,-0.143l-0.044,-0.144l-0.042,-0.145l-0.042,-0.145l-0.041,-0.145l-0.04,-0.145l-0.039,-0.146l-0.038,-0.146l-0.037,-0.147l-0.036,-0.147l-0.036,-0.147l-0.035,-0.148l-0.033,-0.148l-0.033,-0.148l-0.032,-0.149l-0.031,-0.148l-0.03,-0.15l-0.029,-0.149l-0.028,-0.15l-0.028,-0.15l-0.026,-0.151l-0.026,-0.151l-0.024,-0.151l-0.024,-0.151l-0.023,-0.152l-0.022,-0.152l-0.02,-0.153l-0.02,-0.152l-0.019,-0.153l-0.018,-0.153l-0.017,-0.154l-0.016,-0.154l-0.016,-0.154l-0.014,-0.154l-0.013,-0.154l-0.012,-0.155l-0.012,-0.155l-0.01,-0.156l-0.009,-0.155l-0.009,-0.156l-0.007,-0.156l-0.007,-0.157l-0.005,-0.156l-0.005,-0.157l-0.003,-0.157l-0.003,-0.157l-0.001,-0.158l-0.001,-0.157l0.001,-0.158l0.001,-0.158l0.003,-0.157l0.003,-0.157l0.005,-0.157l0.005,-0.156l0.007,-0.157l0.007,-0.156l0.009,-0.156l0.009,-0.155l0.01,-0.156l0.012,-0.155l0.012,-0.155l0.013,-0.154l0.014,-0.154l0.016,-0.154l0.016,-0.154l0.017,-0.154l0.018,-0.153l0.019,-0.153l0.02,-0.152l0.02,-0.153l0.022,-0.152l0.023,-0.152l0.024,-0.151l0.024,-0.151l0.026,-0.151l0.026,-0.151l0.028,-0.15l0.028,-0.15l0.029,-0.149l0.03,-0.15l0.031,-0.148l0.032,-0.149l0.033,-0.148l0.033,-0.148l0.035,-0.148l0.036,-0.147l0.036,-0.147l0.037,-0.147l0.038,-0.146l0.039,-0.146l0.04,-0.145l0.041,-0.145l0.042,-0.145l0.042,-0.145l0.044,-0.144l0.044,-0.143l0.045,-0.144l0.046,-0.142l0.047,-0.143l0.047,-0.142l0.049,-0.142l0.049,-0.141l0.05,-0.141l0.051,-0.141l0.052,-0.14l0.053,-0.14l0.053,-0.139l0.055,-0.139l0.055,-0.138l0.056,-0.138l0.057,-0.138l0.057,-0.137l0.059,-0.137l0.059,-0.137l0.06,-0.136l0.061,-0.135l0.061,-0.135l0.063,-0.135l0.063,-0.134l0.064,-0.134l0.065,-0.133l0.065,-0.133l0.067,-0.132l0.067,-0.132l0.068,-0.132l0.068,-0.131l0.07,-0.13l0.07,-0.13l0.071,-0.13l0.071,-0.129l0.073,-0.129l0.073,-0.128l0.074,-0.127l0.075,-0.128l0.075,-0.126l0.076,-0.126l0.077,-0.126l0.078,-0.125l0.078,-0.125l0.079,-0.124l0.08,-0.124l0.081,-0.123l0.081,-0.123l0.082,-0.122l0.083,-0.121l0.083,-0.121l0.084,-0.121l0.085,-0.12l0.086,-0.119l0.086,-0.119l0.087,-0.119l0.087,-0.117l0.089,-0.118l0.089,-0.116l0.089,-0.117l0.091,-0.115l0.091,-0.115l0.091,-0.115l0.093,-0.114l0.093,-0.113l0.093,-0.113l0.095,-0.112l0.095,-0.112l0.095,-0.111l0.097,-0.11l0.097,-0.11l0.097,-0.11l0.098,-0.108l0.099,-0.109l0.1,-0.107l0.1,-0.107l0.101,-0.106l0.101,-0.106l0.102,-0.105l0.103,-0.105l0.103,-0.104l0.104,-0.103l0.105,-0.103l0.105,-0.102l0.106,-0.101l0.106,-0.101l0.107,-0.1l0.107,-0.1l0.109,-0.099l0.108,-0.098l0.11,-0.097l0.11,-0.097l0.11,-0.097l0.111,-0.095l0.112,-0.095l0.112,-0.095l0.113,-0.093l0.113,-0.093l0.114,-0.093l0.115,-0.091l0.115,-0.091l0.115,-0.091l0.117,-0.089l0.116,-0.089l0.118,-0.089l0.117,-0.087l0.119,-0.087l0.119,-0.086l0.119,-0.086l0.12,-0.085l0.121,-0.084l0.121,-0.083l0.121,-0.083l0.122,-0.082l0.123,-0.081l0.123,-0.081l0.124,-0.08l0.124,-0.079l0.125,-0.078l0.125,-0.078l0.125,-0.077l0.127,-0.076l0.126,-0.075l0.127,-0.075l0.128,-0.074l0.128,-0.073l0.129,-0.073l0.129,-0.071l0.13,-0.071l0.13,-0.07l0.13,-0.07l0.131,-0.068l0.132,-0.068l0.132,-0.067l0.132,-0.067l0.133,-0.065l0.133,-0.065l0.134,-0.064l0.134,-0.063l0.135,-0.063l0.135,-0.061l0.135,-0.061l0.136,-0.06l0.137,-0.059l0.137,-0.059l0.137,-0.057l0.137,-0.057l0.139,-0.056l0.138,-0.055l0.139,-0.055l0.139,-0.053l0.14,-0.053l0.14,-0.052l0.141,-0.051l0.141,-0.05l0.141,-0.049l0.142,-0.049l0.142,-0.047l0.142,-0.047l0.143,-0.046l0.144,-0.045l0.143,-0.044l0.144,-0.044l0.145,-0.042l0.145,-0.042l0.145,-0.041l0.145,-0.04l0.146,-0.039l0.146,-0.038l0.147,-0.037l0.147,-0.036l0.147,-0.036l0.148,-0.034l0.148,-0.034l0.148,-0.033l0.148,-0.032l0.149,-0.031l0.15,-0.03l0.149,-0.029l0.15,-0.028l0.15,-0.028l0.151,-0.026l0.151,-0.026l0.151,-0.024l0.151,-0.024l0.152,-0.023l0.152,-0.021l0.152,-0.021l0.153,-0.02l0.153,-0.019l0.153,-0.018l0.154,-0.017l0.153,-0.016l0.154,-0.016l0.155,-0.014l0.154,-0.013l0.155,-0.012l0.155,-0.012l0.156,-0.01l0.155,-0.009l0.156,-0.009l0.156,-0.007l0.157,-0.007l0.156,-0.005l0.157,-0.005l0.157,-0.003l0.157,-0.003l0.158,-0.001l0.155,-0.001l268.988,0l0.156,0.001ZM24.926,134.72l-0.142,0l-0.139,0.002l-0.138,0.002l-0.139,0.003l-0.138,0.004l-0.138,0.005l-0.138,0.005l-0.138,0.007l-0.137,0.007l-0.137,0.009l-0.137,0.009l-0.136,0.01l-0.137,0.01l-0.136,0.012l-0.136,0.013l-0.135,0.013l-0.136,0.014l-0.135,0.015l-0.135,0.016l-0.134,0.017l-0.135,0.017l-0.134,0.019l-0.133,0.019l-0.134,0.02l-0.133,0.021l-0.133,0.021l-0.133,0.023l-0.132,0.023l-0.132,0.024l-0.132,0.025l-0.132,0.026l-0.131,0.026l-0.131,0.027l-0.131,0.028l-0.13,0.029l-0.13,0.03l-0.13,0.03l-0.13,0.031l-0.129,0.032l-0.129,0.033l-0.128,0.034l-0.128,0.034l-0.128,0.035l-0.128,0.036l-0.127,0.037l-0.127,0.037l-0.127,0.038l-0.126,0.039l-0.126,0.04l-0.126,0.04l-0.125,0.041l-0.125,0.042l-0.125,0.043l-0.124,0.043l-0.124,0.044l-0.123,0.045l-0.124,0.046l-0.123,0.046l-0.122,0.047l-0.122,0.048l-0.122,0.048l-0.122,0.05l-0.121,0.049l-0.12,0.051l-0.121,0.051l-0.12,0.053l-0.119,0.052l-0.119,0.054l-0.119,0.054l-0.119,0.055l-0.118,0.056l-0.117,0.056l-0.118,0.057l-0.117,0.058l-0.116,0.058l-0.116,0.059l-0.116,0.06l-0.115,0.06l-0.115,0.061l-0.114,0.062l-0.114,0.062l-0.114,0.063l-0.113,0.064l-0.113,0.065l-0.112,0.065l-0.112,0.065l-0.112,0.067l-0.111,0.067l-0.111,0.068l-0.11,0.068l-0.11,0.069l-0.109,0.07l-0.109,0.07l-0.108,0.071l-0.108,0.071l-0.108,0.073l-0.107,0.072l-0.106,0.074l-0.106,0.074l-0.106,0.075l-0.105,0.075l-0.105,0.076l-0.104,0.076l-0.104,0.077l-0.103,0.078l-0.103,0.079l-0.102,0.079l-0.102,0.079l-0.102,0.08l-0.1,0.081l-0.101,0.081l-0.1,0.082l-0.099,0.083l-0.099,0.083l-0.098,0.084l-0.098,0.084l-0.097,0.085l-0.097,0.085l-0.097,0.086l-0.095,0.087l-0.096,0.087l-0.094,0.088l-0.095,0.088l-0.093,0.089l-0.094,0.089l-0.092,0.09l-0.092,0.09l-0.092,0.091l-0.091,0.092l-0.09,0.092l-0.09,0.093l-0.089,0.093l-0.089,0.093l-0.089,0.095l-0.087,0.094l-0.087,0.096l-0.087,0.095l-0.086,0.097l-0.085,0.097l-0.085,0.097l-0.084,0.098l-0.084,0.098l-0.083,0.099l-0.083,0.099l-0.082,0.1l-0.081,0.101l-0.081,0.101l-0.08,0.101l-0.08,0.102l-0.078,0.102l-0.079,0.103l-0.078,0.103l-0.077,0.104l-0.076,0.104l-0.076,0.105l-0.076,0.105l-0.074,0.106l-0.074,0.106l-0.074,0.106l-0.073,0.108l-0.072,0.107l-0.071,0.108l-0.071,0.108l-0.07,0.109l-0.07,0.11l-0.069,0.109l-0.068,0.111l-0.068,0.11l-0.067,0.111l-0.067,0.112l-0.065,0.112l-0.065,0.112l-0.065,0.113l-0.064,0.113l-0.063,0.114l-0.062,0.114l-0.062,0.114l-0.061,0.115l-0.06,0.115l-0.06,0.116l-0.059,0.116l-0.059,0.116l-0.057,0.117l-0.057,0.118l-0.057,0.117l-0.055,0.118l-0.055,0.119l-0.054,0.119l-0.054,0.119l-0.052,0.119l-0.053,0.12l-0.051,0.121l-0.051,0.12l-0.05,0.121l-0.049,0.122l-0.048,0.122l-0.048,0.122l-0.047,0.122l-0.046,0.123l-0.046,0.124l-0.045,0.123l-0.044,0.124l-0.043,0.124l-0.043,0.125l-0.042,0.125l-0.041,0.125l-0.04,0.126l-0.04,0.126l-0.039,0.126l-0.038,0.127l-0.038,0.127l-0.036,0.127l-0.036,0.128l-0.035,0.128l-0.034,0.128l-0.034,0.128l-0.033,0.129l-0.032,0.13l-0.031,0.129l-0.03,0.13l-0.03,0.13l-0.029,0.13l-0.028,0.131l-0.027,0.131l-0.027,0.131l-0.025,0.132l-0.025,0.132l-0.024,0.132l-0.023,0.132l-0.023,0.133l-0.021,0.133l-0.021,0.133l-0.02,0.134l-0.019,0.133l-0.019,0.134l-0.017,0.135l-0.017,0.134l-0.016,0.135l-0.015,0.135l-0.014,0.136l-0.013,0.135l-0.013,0.136l-0.012,0.136l-0.01,0.137l-0.01,0.136l-0.01,0.137l-0.008,0.137l-0.007,0.138l-0.007,0.137l-0.005,0.138l-0.005,0.138l-0.004,0.138l-0.003,0.139l-0.002,0.138l-0.002,0.139l0,0.14l0,0.139l0.002,0.139l0.002,0.138l0.003,0.139l0.004,0.138l0.005,0.138l0.005,0.138l0.007,0.137l0.007,0.138l0.008,0.137l0.01,0.137l0.01,0.136l0.01,0.137l0.012,0.136l0.013,0.136l0.013,0.135l0.014,0.136l0.015,0.135l0.016,0.135l0.017,0.134l0.017,0.135l0.019,0.134l0.019,0.133l0.02,0.134l0.021,0.133l0.021,0.133l0.023,0.133l0.023,0.132l0.024,0.132l0.025,0.132l0.025,0.132l0.027,0.131l0.027,0.131l0.028,0.131l0.029,0.13l0.03,0.13l0.03,0.13l0.031,0.129l0.032,0.13l0.033,0.128l0.034,0.129l0.034,0.128l0.035,0.128l0.036,0.128l0.036,0.127l0.038,0.127l0.038,0.127l0.039,0.126l0.04,0.126l0.04,0.126l0.041,0.125l0.042,0.125l0.043,0.125l0.043,0.124l0.044,0.124l0.045,0.123l0.046,0.124l0.046,0.123l0.047,0.122l0.048,0.122l0.048,0.122l0.049,0.122l0.05,0.121l0.051,0.12l0.051,0.121l0.053,0.12l0.052,0.119l0.054,0.119l0.054,0.119l0.055,0.119l0.055,0.118l0.057,0.117l0.057,0.118l0.057,0.117l0.059,0.116l0.059,0.116l0.06,0.116l0.06,0.115l0.061,0.115l0.062,0.114l0.062,0.114l0.063,0.114l0.064,0.113l0.065,0.113l0.065,0.112l0.065,0.112l0.067,0.112l0.067,0.111l0.068,0.11l0.068,0.111l0.069,0.109l0.07,0.11l0.07,0.109l0.071,0.108l0.071,0.108l0.072,0.107l0.073,0.108l0.074,0.106l0.074,0.106l0.074,0.106l0.076,0.105l0.076,0.105l0.076,0.104l0.077,0.104l0.078,0.103l0.079,0.103l0.078,0.102l0.08,0.102l0.08,0.101l0.081,0.101l0.081,0.101l0.082,0.1l0.083,0.099l0.083,0.099l0.084,0.098l0.084,0.098l0.085,0.097l0.085,0.097l0.086,0.097l0.087,0.095l0.087,0.096l0.087,0.094l0.089,0.095l0.089,0.093l0.089,0.093l0.09,0.093l0.09,0.092l0.091,0.092l0.092,0.091l0.092,0.09l0.092,0.09l0.094,0.089l0.093,0.089l0.095,0.088l0.094,0.088l0.096,0.087l0.095,0.087l0.097,0.086l0.097,0.085l0.097,0.085l0.098,0.084l0.098,0.084l0.099,0.083l0.099,0.083l0.1,0.082l0.101,0.081l0.1,0.081l0.102,0.08l0.102,0.079l0.102,0.079l0.103,0.079l0.103,0.078l0.104,0.077l0.104,0.076l0.105,0.076l0.105,0.075l0.106,0.075l0.106,0.074l0.106,0.074l0.107,0.072l0.108,0.073l0.108,0.071l0.108,0.071l0.109,0.07l0.109,0.07l0.11,0.069l0.11,0.068l0.111,0.068l0.111,0.067l0.112,0.067l0.112,0.065l0.112,0.065l0.113,0.065l0.113,0.064l0.114,0.063l0.114,0.062l0.114,0.062l0.115,0.061l0.115,0.06l0.116,0.06l0.116,0.059l0.116,0.059l0.117,0.057l0.118,0.057l0.117,0.056l0.118,0.056l0.119,0.055l0.119,0.054l0.119,0.054l0.119,0.052l0.12,0.053l0.121,0.051l0.12,0.051l0.121,0.05l0.122,0.049l0.122,0.048l0.122,0.048l0.122,0.047l0.123,0.046l0.124,0.046l0.123,0.045l0.124,0.044l0.124,0.043l0.125,0.043l0.125,0.042l0.125,0.041l0.126,0.04l0.126,0.04l0.126,0.039l0.127,0.038l0.127,0.037l0.127,0.037l0.128,0.036l0.128,0.035l0.128,0.034l0.128,0.034l0.129,0.033l0.13,0.032l0.129,0.031l0.13,0.03l0.13,0.03l0.13,0.029l0.131,0.028l0.131,0.027l0.131,0.026l0.132,0.026l0.132,0.025l0.132,0.024l0.132,0.023l0.133,0.023l0.133,0.021l0.133,0.021l0.134,0.02l0.133,0.019l0.134,0.019l0.135,0.017l0.134,0.017l0.135,0.016l0.135,0.015l0.136,0.014l0.135,0.013l0.136,0.013l0.136,0.012l0.137,0.01l0.136,0.01l0.137,0.01l0.137,0.008l0.137,0.007l0.138,0.007l0.138,0.005l0.138,0.005l0.138,0.004l0.139,0.003l0.138,0.002l0.139,0.002l0.142,0l268.979,0l0.141,0l0.139,-0.002l0.139,-0.002l0.138,-0.003l0.139,-0.004l0.138,-0.005l0.137,-0.005l0.138,-0.007l0.137,-0.007l0.137,-0.008l0.137,-0.01l0.137,-0.01l0.136,-0.01l0.136,-0.012l0.136,-0.013l0.136,-0.013l0.135,-0.014l0.135,-0.015l0.135,-0.016l0.135,-0.017l0.134,-0.017l0.134,-0.019l0.134,-0.019l0.133,-0.02l0.134,-0.021l0.133,-0.021l0.132,-0.023l0.133,-0.023l0.132,-0.024l0.132,-0.025l0.131,-0.026l0.132,-0.026l0.131,-0.027l0.13,-0.028l0.131,-0.029l0.13,-0.03l0.129,-0.03l0.13,-0.031l0.129,-0.032l0.129,-0.033l0.129,-0.034l0.128,-0.034l0.128,-0.035l0.127,-0.036l0.128,-0.037l0.127,-0.037l0.126,-0.038l0.127,-0.039l0.126,-0.04l0.125,-0.04l0.126,-0.041l0.125,-0.042l0.124,-0.043l0.124,-0.043l0.124,-0.044l0.124,-0.045l0.123,-0.046l0.123,-0.046l0.123,-0.047l0.122,-0.048l0.122,-0.048l0.121,-0.049l0.121,-0.05l0.121,-0.051l0.12,-0.051l0.12,-0.053l0.12,-0.052l0.119,-0.054l0.119,-0.054l0.118,-0.055l0.118,-0.056l0.118,-0.056l0.117,-0.057l0.117,-0.058l0.117,-0.058l0.116,-0.059l0.115,-0.06l0.116,-0.06l0.114,-0.061l0.115,-0.062l0.114,-0.062l0.114,-0.063l0.113,-0.064l0.113,-0.065l0.112,-0.065l0.112,-0.065l0.111,-0.067l0.111,-0.067l0.111,-0.068l0.11,-0.068l0.11,-0.069l0.109,-0.07l0.109,-0.07l0.108,-0.071l0.109,-0.071l0.107,-0.073l0.107,-0.072l0.107,-0.074l0.106,-0.074l0.105,-0.075l0.106,-0.075l0.104,-0.076l0.105,-0.076l0.103,-0.078l0.104,-0.077l0.102,-0.079l0.103,-0.079l0.102,-0.079l0.101,-0.08l0.101,-0.081l0.1,-0.081l0.1,-0.082l0.1,-0.083l0.098,-0.083l0.099,-0.084l0.098,-0.084l0.097,-0.085l0.097,-0.085l0.096,-0.086l0.096,-0.087l0.095,-0.087l0.095,-0.087l0.094,-0.089l0.094,-0.089l0.093,-0.089l0.093,-0.09l0.092,-0.09l0.091,-0.091l0.091,-0.092l0.091,-0.092l0.09,-0.093l0.089,-0.093l0.089,-0.093l0.088,-0.095l0.088,-0.094l0.087,-0.096l0.086,-0.095l0.086,-0.097l0.086,-0.097l0.085,-0.097l0.084,-0.098l0.084,-0.098l0.083,-0.099l0.082,-0.099l0.082,-0.1l0.082,-0.101l0.08,-0.1l0.081,-0.102l0.079,-0.102l0.079,-0.102l0.078,-0.103l0.078,-0.103l0.077,-0.104l0.077,-0.104l0.076,-0.105l0.075,-0.105l0.075,-0.106l0.074,-0.106l0.073,-0.107l0.073,-0.107l0.072,-0.107l0.072,-0.108l0.071,-0.108l0.07,-0.109l0.07,-0.11l0.069,-0.109l0.068,-0.111l0.068,-0.11l0.067,-0.111l0.066,-0.112l0.066,-0.112l0.065,-0.112l0.064,-0.113l0.064,-0.113l0.063,-0.114l0.063,-0.114l0.061,-0.114l0.062,-0.115l0.06,-0.115l0.06,-0.116l0.059,-0.116l0.058,-0.116l0.058,-0.117l0.057,-0.118l0.056,-0.117l0.056,-0.118l0.054,-0.119l0.055,-0.119l0.053,-0.119l0.053,-0.119l0.052,-0.12l0.051,-0.121l0.051,-0.12l0.05,-0.121l0.049,-0.122l0.049,-0.122l0.048,-0.122l0.047,-0.122l0.046,-0.123l0.046,-0.124l0.044,-0.123l0.045,-0.124l0.043,-0.124l0.042,-0.125l0.042,-0.125l0.042,-0.125l0.04,-0.126l0.04,-0.126l0.038,-0.126l0.039,-0.127l0.037,-0.127l0.037,-0.127l0.035,-0.128l0.036,-0.128l0.034,-0.128l0.033,-0.129l0.033,-0.128l0.032,-0.129l0.031,-0.13l0.031,-0.13l0.029,-0.13l0.029,-0.13l0.028,-0.131l0.028,-0.131l0.026,-0.131l0.026,-0.132l0.025,-0.132l0.024,-0.132l0.023,-0.132l0.022,-0.133l0.022,-0.133l0.021,-0.133l0.02,-0.134l0.019,-0.133l0.018,-0.135l0.018,-0.134l0.016,-0.134l0.016,-0.135l0.015,-0.135l0.015,-0.136l0.013,-0.135l0.012,-0.136l0.012,-0.136l0.011,-0.137l0.01,-0.136l0.009,-0.137l0.008,-0.137l0.008,-0.138l0.006,-0.137l0.006,-0.138l0.005,-0.138l0.004,-0.138l0.003,-0.139l0.002,-0.138l0.001,-0.139l0.001,-0.139l-0.001,-0.14l-0.001,-0.139l-0.002,-0.138l-0.003,-0.139l-0.004,-0.138l-0.005,-0.138l-0.006,-0.138l-0.006,-0.137l-0.008,-0.138l-0.008,-0.137l-0.009,-0.137l-0.01,-0.136l-0.011,-0.137l-0.012,-0.136l-0.012,-0.136l-0.013,-0.135l-0.015,-0.136l-0.015,-0.135l-0.016,-0.135l-0.016,-0.134l-0.018,-0.134l-0.018,-0.135l-0.019,-0.133l-0.02,-0.134l-0.021,-0.133l-0.022,-0.133l-0.022,-0.133l-0.023,-0.132l-0.024,-0.132l-0.025,-0.132l-0.026,-0.132l-0.026,-0.131l-0.028,-0.131l-0.028,-0.131l-0.029,-0.13l-0.029,-0.13l-0.031,-0.13l-0.031,-0.13l-0.032,-0.129l-0.033,-0.128l-0.033,-0.129l-0.034,-0.128l-0.036,-0.128l-0.035,-0.128l-0.037,-0.127l-0.037,-0.127l-0.039,-0.127l-0.038,-0.126l-0.04,-0.126l-0.04,-0.126l-0.042,-0.125l-0.042,-0.125l-0.042,-0.125l-0.043,-0.124l-0.045,-0.124l-0.044,-0.123l-0.046,-0.124l-0.046,-0.123l-0.047,-0.122l-0.048,-0.122l-0.049,-0.122l-0.049,-0.122l-0.05,-0.121l-0.051,-0.12l-0.051,-0.121l-0.052,-0.12l-0.053,-0.119l-0.053,-0.119l-0.055,-0.119l-0.054,-0.119l-0.056,-0.118l-0.056,-0.117l-0.057,-0.118l-0.058,-0.117l-0.058,-0.116l-0.059,-0.116l-0.06,-0.116l-0.06,-0.115l-0.062,-0.115l-0.061,-0.114l-0.063,-0.114l-0.063,-0.114l-0.064,-0.113l-0.064,-0.113l-0.065,-0.112l-0.066,-0.112l-0.066,-0.112l-0.067,-0.111l-0.068,-0.11l-0.068,-0.111l-0.069,-0.109l-0.07,-0.11l-0.07,-0.109l-0.071,-0.108l-0.072,-0.108l-0.072,-0.107l-0.073,-0.107l-0.073,-0.107l-0.074,-0.106l-0.075,-0.106l-0.075,-0.105l-0.076,-0.105l-0.077,-0.104l-0.077,-0.104l-0.078,-0.103l-0.078,-0.103l-0.079,-0.102l-0.079,-0.102l-0.081,-0.102l-0.08,-0.1l-0.082,-0.101l-0.082,-0.1l-0.082,-0.099l-0.083,-0.099l-0.084,-0.098l-0.084,-0.098l-0.085,-0.097l-0.086,-0.097l-0.086,-0.097l-0.086,-0.095l-0.087,-0.096l-0.088,-0.094l-0.088,-0.095l-0.089,-0.093l-0.089,-0.093l-0.09,-0.093l-0.091,-0.092l-0.091,-0.092l-0.091,-0.091l-0.092,-0.09l-0.093,-0.09l-0.093,-0.089l-0.094,-0.089l-0.094,-0.089l-0.095,-0.087l-0.095,-0.087l-0.096,-0.087l-0.096,-0.086l-0.097,-0.085l-0.097,-0.085l-0.098,-0.084l-0.099,-0.084l-0.098,-0.083l-0.1,-0.083l-0.1,-0.082l-0.1,-0.081l-0.101,-0.081l-0.101,-0.08l-0.102,-0.079l-0.103,-0.079l-0.102,-0.079l-0.104,-0.077l-0.103,-0.078l-0.105,-0.076l-0.104,-0.076l-0.106,-0.075l-0.105,-0.075l-0.106,-0.074l-0.107,-0.074l-0.107,-0.072l-0.107,-0.073l-0.108,-0.071l-0.109,-0.071l-0.109,-0.07l-0.109,-0.07l-0.11,-0.069l-0.11,-0.068l-0.111,-0.068l-0.111,-0.067l-0.111,-0.067l-0.112,-0.065l-0.112,-0.065l-0.113,-0.065l-0.113,-0.064l-0.114,-0.063l-0.114,-0.062l-0.115,-0.062l-0.114,-0.061l-0.116,-0.06l-0.115,-0.06l-0.116,-0.059l-0.117,-0.058l-0.117,-0.058l-0.117,-0.057l-0.118,-0.056l-0.118,-0.056l-0.118,-0.055l-0.119,-0.054l-0.119,-0.054l-0.12,-0.052l-0.12,-0.053l-0.12,-0.051l-0.121,-0.051l-0.121,-0.049l-0.121,-0.05l-0.122,-0.048l-0.122,-0.048l-0.123,-0.047l-0.123,-0.046l-0.123,-0.046l-0.124,-0.045l-0.124,-0.044l-0.124,-0.043l-0.124,-0.043l-0.125,-0.042l-0.126,-0.041l-0.125,-0.04l-0.126,-0.04l-0.127,-0.039l-0.126,-0.038l-0.127,-0.037l-0.128,-0.037l-0.127,-0.036l-0.128,-0.035l-0.128,-0.034l-0.129,-0.034l-0.129,-0.033l-0.129,-0.032l-0.129,-0.031l-0.13,-0.03l-0.13,-0.03l-0.131,-0.029l-0.13,-0.028l-0.131,-0.027l-0.132,-0.026l-0.131,-0.026l-0.132,-0.025l-0.132,-0.024l-0.133,-0.023l-0.132,-0.023l-0.133,-0.021l-0.134,-0.021l-0.133,-0.02l-0.134,-0.019l-0.134,-0.019l-0.134,-0.017l-0.135,-0.017l-0.135,-0.016l-0.135,-0.015l-0.135,-0.014l-0.136,-0.013l-0.136,-0.013l-0.136,-0.012l-0.136,-0.01l-0.137,-0.01l-0.137,-0.009l-0.137,-0.009l-0.137,-0.007l-0.138,-0.007l-0.137,-0.005l-0.138,-0.005l-0.139,-0.004l-0.138,-0.003l-0.139,-0.002l-0.139,-0.002l-0.141,0l-268.979,0Z" style="fill:#46aeda;"/><path id="Icons/Search" d="M41.876,169.941c0,-0.597 -0.245,-1.176 -0.649,-1.58l-6.014,-6.02c1.42,-2.053 2.174,-4.511 2.174,-7.003c0,-6.828 -5.524,-12.356 -12.345,-12.356c-6.822,0 -12.345,5.528 -12.345,12.356c0,6.828 5.523,12.356 12.345,12.356c2.49,0 4.945,-0.754 6.997,-2.176l6.014,6.003c0.404,0.421 0.982,0.667 1.579,0.667c1.227,0 2.244,-1.018 2.244,-2.247ZM32.898,155.338c0,4.335 -3.525,7.863 -7.856,7.863c-4.332,0 -7.856,-3.528 -7.856,-7.863c0,-4.335 3.524,-7.863 7.856,-7.863c4.331,0 7.856,3.528 7.856,7.863Z" style="fill:#46aeda;"/><g id="index"><path id="Oval-15" d="M156.739,0.019l0.355,0.004l0.354,0.005l0.354,0.008l0.353,0.01l0.353,0.013l0.352,0.014l0.351,0.017l0.351,0.019l0.351,0.021l0.349,0.023l0.35,0.026l0.348,0.027l0.348,0.03l0.348,0.032l0.346,0.034l0.346,0.037l0.346,0.038l0.345,0.041l0.344,0.042l0.344,0.045l0.343,0.047l0.342,0.049l0.341,0.051l0.341,0.054l0.34,0.055l0.34,0.057l0.339,0.06l0.338,0.061l0.337,0.064l0.337,0.066l0.336,0.067l0.335,0.07l0.335,0.072l0.333,0.074l0.333,0.076l0.332,0.077l0.332,0.08l0.33,0.082l0.33,0.084l0.329,0.086l0.328,0.088l0.328,0.089l0.327,0.092l0.325,0.094l0.325,0.095l0.324,0.098l0.324,0.1l0.322,0.101l0.322,0.103l0.321,0.106l0.319,0.107l0.319,0.109l0.319,0.111l0.317,0.113l0.316,0.115l0.316,0.117l0.314,0.118l0.314,0.121l0.312,0.122l0.312,0.124l0.311,0.126l0.31,0.128l0.309,0.129l0.308,0.132l0.307,0.133l0.306,0.135l0.305,0.137l0.304,0.139l0.303,0.14l0.302,0.142l0.301,0.144l0.3,0.146l0.299,0.148l0.298,0.149l0.297,0.151l0.296,0.153l0.295,0.154l0.293,0.156l0.293,0.158l0.292,0.16l0.29,0.161l0.29,0.164l0.288,0.164l0.288,0.167l0.286,0.168l0.285,0.17l0.284,0.171l0.283,0.173l0.282,0.175l0.281,0.176l0.279,0.179l0.278,0.179l0.278,0.182l0.276,0.183l0.275,0.184l0.273,0.186l0.273,0.188l0.271,0.189l0.27,0.191l0.269,0.193l0.268,0.194l0.266,0.195l0.266,0.198l0.264,0.198l0.263,0.201l0.261,0.202l0.261,0.203l0.259,0.205l0.257,0.206l0.257,0.208l0.255,0.21l0.254,0.21l0.253,0.213l0.251,0.214l0.25,0.215l0.249,0.217l0.248,0.218l0.246,0.22l0.245,0.221l0.243,0.223l0.242,0.224l0.241,0.225l0.24,0.227l0.238,0.229l0.237,0.229l0.235,0.232l0.234,0.232l0.232,0.234l0.232,0.235l0.229,0.237l0.229,0.238l0.227,0.24l0.225,0.24l0.224,0.242l0.223,0.244l0.221,0.245l0.22,0.246l0.218,0.247l0.217,0.249l0.215,0.25l0.214,0.252l0.213,0.252l0.211,0.254l0.209,0.256l0.208,0.256l0.207,0.258l0.204,0.259l0.204,0.26l0.202,0.262l0.2,0.263l0.199,0.264l0.197,0.265l0.196,0.266l0.194,0.268l0.192,0.269l0.191,0.27l0.19,0.271l0.187,0.273l0.187,0.274l0.184,0.274l0.183,0.276l0.181,0.278l0.18,0.278l0.178,0.28l0.177,0.28l0.174,0.282l0.174,0.283l0.171,0.284l0.17,0.285l0.168,0.286l0.167,0.287l0.164,0.289l0.163,0.289l0.162,0.291l0.159,0.292l0.158,0.292l0.157,0.294l0.154,0.295l0.153,0.296l0.151,0.297l0.149,0.298l0.148,0.299l0.146,0.3l0.144,0.301l0.142,0.302l0.14,0.303l0.139,0.304l0.137,0.305l0.135,0.306l0.133,0.307l0.132,0.308l0.129,0.309l0.128,0.309l0.126,0.311l0.124,0.312l0.123,0.312l0.12,0.314l0.119,0.315l0.116,0.315l0.115,0.316l0.113,0.317l0.111,0.319l0.109,0.318l0.107,0.32l0.106,0.321l0.103,0.322l0.102,0.322l0.099,0.323l0.098,0.324l0.096,0.325l0.093,0.326l0.092,0.327l0.09,0.327l0.088,0.328l0.085,0.329l0.084,0.33l0.082,0.331l0.08,0.331l0.078,0.332l0.076,0.333l0.074,0.334l0.071,0.334l0.07,0.335l0.068,0.336l0.065,0.337l0.064,0.337l0.062,0.338l0.059,0.339l0.058,0.34l0.055,0.34l0.053,0.341l0.051,0.341l0.049,0.342l0.047,0.343l0.045,0.344l0.043,0.344l0.04,0.345l0.039,0.345l0.036,0.347l0.034,0.346l0.032,0.348l0.03,0.348l0.028,0.348l0.025,0.349l0.024,0.35l0.021,0.35l0.019,0.351l0.016,0.352l0.015,0.352l0.012,0.352l0.01,0.353l0.008,0.354l0.006,0.354l0.003,0.355l0.001,0.355l-0.001,0.355l-0.003,0.355l-0.006,0.354l-0.008,0.354l-0.01,0.353l-0.012,0.353l-0.015,0.352l-0.016,0.351l-0.019,0.351l-0.021,0.35l-0.024,0.35l-0.025,0.349l-0.028,0.349l-0.03,0.348l-0.032,0.347l-0.034,0.347l-0.036,0.346l-0.039,0.345l-0.04,0.345l-0.043,0.344l-0.045,0.344l-0.047,0.343l-0.049,0.342l-0.051,0.342l-0.053,0.34l-0.055,0.341l-0.058,0.339l-0.059,0.339l-0.062,0.338l-0.064,0.337l-0.065,0.337l-0.068,0.336l-0.07,0.335l-0.071,0.334l-0.074,0.334l-0.076,0.333l-0.078,0.332l-0.08,0.332l-0.082,0.33l-0.084,0.33l-0.085,0.329l-0.088,0.328l-0.09,0.328l-0.092,0.326l-0.093,0.326l-0.096,0.325l-0.098,0.324l-0.099,0.323l-0.102,0.323l-0.103,0.321l-0.106,0.321l-0.107,0.32l-0.109,0.319l-0.111,0.318l-0.113,0.317l-0.115,0.316l-0.116,0.316l-0.119,0.314l-0.12,0.314l-0.123,0.312l-0.124,0.312l-0.126,0.311l-0.128,0.31l-0.129,0.309l-0.132,0.307l-0.133,0.307l-0.135,0.306l-0.137,0.305l-0.139,0.304l-0.14,0.303l-0.142,0.303l-0.144,0.301l-0.146,0.3l-0.148,0.299l-0.149,0.298l-0.151,0.296l-0.153,0.296l-0.154,0.295l-0.157,0.294l-0.158,0.293l-0.159,0.291l-0.162,0.291l-0.163,0.289l-0.164,0.289l-0.167,0.287l-0.168,0.286l-0.17,0.286l-0.171,0.284l-0.174,0.282l-0.174,0.282l-0.177,0.281l-0.178,0.279l-0.18,0.279l-0.181,0.277l-0.183,0.276l-0.184,0.275l-0.187,0.273l-0.187,0.273l-0.19,0.271l-0.191,0.27l-0.192,0.269l-0.194,0.268l-0.196,0.266l-0.197,0.266l-0.199,0.264l-0.2,0.262l-0.202,0.262l-0.204,0.26l-0.204,0.259l-0.207,0.258l-0.208,0.257l-0.209,0.255l-0.211,0.254l-0.213,0.253l-0.214,0.251l-0.215,0.25l-0.217,0.249l-0.218,0.247l-0.22,0.247l-0.221,0.244l-0.223,0.244l-0.224,0.242l-0.225,0.241l-0.227,0.239l-0.229,0.238l-0.229,0.237l-0.232,0.235l-0.232,0.234l-0.234,0.233l-0.235,0.231l-0.237,0.23l-0.238,0.228l-0.24,0.227l-0.241,0.225l-0.242,0.225l-0.243,0.222l-0.245,0.221l-0.246,0.22l-0.248,0.218l-0.249,0.217l-0.25,0.216l-0.251,0.213l-0.253,0.213l-0.254,0.211l-0.255,0.209l-0.257,0.208l-0.257,0.207l-0.259,0.204l-0.261,0.204l-0.261,0.202l-0.263,0.2l-0.264,0.199l-0.266,0.197l-0.266,0.195l-0.268,0.195l-0.269,0.192l-0.27,0.191l-0.271,0.189l-0.273,0.188l-0.273,0.186l-0.275,0.185l-0.276,0.183l-0.278,0.181l-0.278,0.18l-0.279,0.178l-0.281,0.176l-0.282,0.175l-0.283,0.173l-0.284,0.172l-0.285,0.169l-0.286,0.169l-0.288,0.166l-0.288,0.165l-0.29,0.163l-0.29,0.161l-0.292,0.16l-0.293,0.158l-0.293,0.156l-0.295,0.155l-0.296,0.152l-0.297,0.151l-0.298,0.15l-0.299,0.147l-0.3,0.146l-0.301,0.144l-0.302,0.142l-0.303,0.141l-0.304,0.138l-0.305,0.137l-0.306,0.135l-0.307,0.134l-0.308,0.131l-0.309,0.13l-0.31,0.127l-0.311,0.126l-0.312,0.125l-0.312,0.122l-0.314,0.12l-0.314,0.119l-0.316,0.116l-0.316,0.115l-0.317,0.113l-0.319,0.111l-0.319,0.109l-0.319,0.108l-0.321,0.105l-0.322,0.103l-0.322,0.102l-0.324,0.099l-0.324,0.098l-0.325,0.095l-0.325,0.094l-0.327,0.092l-0.328,0.09l-0.328,0.088l-0.329,0.085l-0.33,0.084l-0.33,0.082l-0.332,0.08l-0.332,0.078l-0.333,0.076l-0.333,0.073l-0.335,0.072l-0.335,0.07l-0.336,0.068l-0.337,0.065l-0.337,0.064l-0.338,0.061l-0.339,0.06l-0.34,0.057l-0.34,0.056l-0.341,0.053l-0.341,0.051l-0.342,0.049l-0.343,0.047l-0.344,0.045l-0.344,0.043l-0.345,0.04l-0.346,0.039l-0.346,0.036l-0.346,0.034l-0.348,0.032l-0.348,0.03l-0.348,0.028l-0.35,0.025l-0.349,0.023l-0.351,0.021l-0.351,0.019l-0.351,0.017l-0.352,0.015l-0.353,0.012l-0.353,0.01l-0.354,0.008l-0.354,0.006l-0.355,0.003l-0.355,0.001l-0.355,-0.001l-0.355,-0.003l-0.354,-0.006l-0.354,-0.008l-0.353,-0.01l-0.352,-0.012l-0.352,-0.015l-0.352,-0.017l-0.351,-0.019l-0.35,-0.021l-0.35,-0.023l-0.349,-0.025l-0.349,-0.028l-0.348,-0.03l-0.347,-0.032l-0.347,-0.034l-0.346,-0.036l-0.346,-0.039l-0.344,-0.04l-0.345,-0.043l-0.343,-0.045l-0.343,-0.047l-0.342,-0.049l-0.342,-0.051l-0.341,-0.053l-0.34,-0.056l-0.34,-0.057l-0.338,-0.06l-0.338,-0.061l-0.338,-0.064l-0.336,-0.065l-0.336,-0.068l-0.336,-0.07l-0.334,-0.072l-0.334,-0.073l-0.333,-0.076l-0.332,-0.078l-0.331,-0.08l-0.331,-0.082l-0.33,-0.084l-0.329,-0.085l-0.328,-0.088l-0.327,-0.09l-0.327,-0.092l-0.326,-0.094l-0.325,-0.095l-0.324,-0.098l-0.323,-0.099l-0.323,-0.102l-0.321,-0.103l-0.321,-0.105l-0.32,-0.108l-0.319,-0.109l-0.318,-0.111l-0.317,-0.113l-0.317,-0.115l-0.315,-0.116l-0.315,-0.119l-0.313,-0.12l-0.313,-0.122l-0.312,-0.125l-0.31,-0.126l-0.31,-0.127l-0.309,-0.13l-0.308,-0.131l-0.307,-0.134l-0.306,-0.135l-0.305,-0.137l-0.304,-0.138l-0.303,-0.141l-0.302,-0.142l-0.301,-0.144l-0.3,-0.146l-0.299,-0.147l-0.298,-0.15l-0.297,-0.151l-0.296,-0.152l-0.295,-0.155l-0.294,-0.156l-0.293,-0.158l-0.291,-0.16l-0.291,-0.161l-0.289,-0.163l-0.289,-0.165l-0.287,-0.166l-0.287,-0.169l-0.285,-0.169l-0.284,-0.172l-0.283,-0.173l-0.281,-0.175l-0.281,-0.176l-0.28,-0.178l-0.278,-0.18l-0.277,-0.181l-0.276,-0.183l-0.275,-0.185l-0.274,-0.186l-0.272,-0.188l-0.272,-0.189l-0.27,-0.191l-0.269,-0.192l-0.267,-0.195l-0.267,-0.195l-0.265,-0.197l-0.264,-0.199l-0.263,-0.2l-0.262,-0.202l-0.26,-0.204l-0.259,-0.204l-0.258,-0.207l-0.257,-0.208l-0.255,-0.209l-0.254,-0.211l-0.253,-0.213l-0.251,-0.213l-0.25,-0.216l-0.249,-0.217l-0.247,-0.218l-0.246,-0.22l-0.245,-0.221l-0.244,-0.222l-0.242,-0.225l-0.241,-0.225l-0.239,-0.227l-0.238,-0.228l-0.237,-0.23l-0.235,-0.231l-0.234,-0.233l-0.233,-0.234l-0.231,-0.235l-0.23,-0.237l-0.228,-0.238l-0.227,-0.239l-0.226,-0.241l-0.224,-0.242l-0.223,-0.244l-0.221,-0.244l-0.219,-0.247l-0.219,-0.247l-0.217,-0.249l-0.215,-0.25l-0.214,-0.251l-0.212,-0.253l-0.211,-0.254l-0.21,-0.255l-0.208,-0.257l-0.206,-0.258l-0.205,-0.259l-0.203,-0.26l-0.202,-0.262l-0.201,-0.262l-0.198,-0.264l-0.198,-0.266l-0.195,-0.266l-0.194,-0.268l-0.193,-0.269l-0.191,-0.27l-0.189,-0.271l-0.188,-0.273l-0.186,-0.273l-0.185,-0.275l-0.183,-0.276l-0.181,-0.277l-0.18,-0.279l-0.178,-0.279l-0.176,-0.281l-0.175,-0.282l-0.173,-0.282l-0.172,-0.284l-0.169,-0.286l-0.169,-0.286l-0.166,-0.287l-0.165,-0.289l-0.163,-0.289l-0.161,-0.291l-0.16,-0.291l-0.158,-0.293l-0.156,-0.294l-0.155,-0.295l-0.153,-0.296l-0.151,-0.297l-0.149,-0.297l-0.147,-0.299l-0.146,-0.3l-0.144,-0.302l-0.143,-0.302l-0.14,-0.303l-0.139,-0.304l-0.137,-0.305l-0.135,-0.306l-0.133,-0.306l-0.131,-0.308l-0.13,-0.309l-0.128,-0.31l-0.126,-0.311l-0.124,-0.312l-0.122,-0.312l-0.121,-0.314l-0.118,-0.314l-0.117,-0.316l-0.115,-0.316l-0.113,-0.317l-0.111,-0.318l-0.109,-0.319l-0.107,-0.32l-0.105,-0.321l-0.104,-0.321l-0.101,-0.323l-0.1,-0.323l-0.097,-0.324l-0.096,-0.325l-0.094,-0.326l-0.092,-0.326l-0.089,-0.328l-0.088,-0.328l-0.086,-0.329l-0.084,-0.33l-0.082,-0.331l-0.08,-0.331l-0.077,-0.332l-0.076,-0.333l-0.074,-0.334l-0.072,-0.334l-0.07,-0.335l-0.067,-0.336l-0.066,-0.337l-0.064,-0.337l-0.061,-0.338l-0.06,-0.339l-0.057,-0.339l-0.055,-0.341l-0.054,-0.34l-0.051,-0.342l-0.049,-0.342l-0.047,-0.343l-0.045,-0.344l-0.042,-0.344l-0.041,-0.345l-0.038,-0.345l-0.037,-0.346l-0.034,-0.347l-0.032,-0.347l-0.03,-0.348l-0.027,-0.349l-0.026,-0.349l-0.023,-0.35l-0.021,-0.35l-0.019,-0.351l-0.017,-0.351l-0.014,-0.352l-0.013,-0.353l-0.01,-0.353l-0.008,-0.354l-0.005,-0.354l-0.004,-0.355l-0.001,-0.355l0.001,-0.355l0.004,-0.355l0.005,-0.354l0.008,-0.354l0.01,-0.353l0.013,-0.352l0.014,-0.352l0.017,-0.352l0.019,-0.351l0.021,-0.35l0.023,-0.35l0.026,-0.349l0.027,-0.348l0.03,-0.348l0.032,-0.348l0.034,-0.346l0.037,-0.347l0.038,-0.345l0.041,-0.345l0.042,-0.344l0.045,-0.344l0.047,-0.343l0.049,-0.342l0.051,-0.341l0.054,-0.341l0.055,-0.34l0.057,-0.34l0.06,-0.339l0.061,-0.338l0.064,-0.337l0.066,-0.337l0.067,-0.336l0.07,-0.335l0.072,-0.334l0.074,-0.334l0.076,-0.333l0.077,-0.332l0.08,-0.331l0.082,-0.331l0.084,-0.33l0.086,-0.329l0.088,-0.328l0.089,-0.327l0.092,-0.327l0.094,-0.326l0.096,-0.325l0.097,-0.324l0.1,-0.323l0.101,-0.322l0.104,-0.322l0.105,-0.321l0.107,-0.319l0.109,-0.319l0.111,-0.319l0.113,-0.317l0.115,-0.316l0.117,-0.315l0.118,-0.315l0.121,-0.313l0.122,-0.313l0.124,-0.312l0.126,-0.311l0.128,-0.309l0.13,-0.309l0.131,-0.308l0.133,-0.307l0.135,-0.306l0.137,-0.305l0.139,-0.304l0.14,-0.303l0.143,-0.302l0.144,-0.301l0.146,-0.3l0.147,-0.299l0.149,-0.298l0.151,-0.297l0.153,-0.296l0.155,-0.295l0.156,-0.294l0.158,-0.292l0.16,-0.292l0.161,-0.291l0.163,-0.289l0.165,-0.289l0.166,-0.287l0.169,-0.286l0.169,-0.285l0.172,-0.284l0.173,-0.283l0.175,-0.282l0.176,-0.281l0.178,-0.279l0.18,-0.278l0.181,-0.277l0.183,-0.277l0.185,-0.274l0.186,-0.274l0.188,-0.273l0.189,-0.271l0.191,-0.27l0.193,-0.269l0.194,-0.268l0.195,-0.266l0.198,-0.265l0.198,-0.264l0.201,-0.263l0.202,-0.262l0.203,-0.26l0.205,-0.259l0.206,-0.258l0.208,-0.256l0.21,-0.256l0.211,-0.254l0.212,-0.252l0.214,-0.252l0.215,-0.25l0.217,-0.249l0.219,-0.247l0.219,-0.246l0.222,-0.245l0.222,-0.244l0.224,-0.242l0.226,-0.24l0.227,-0.24l0.228,-0.238l0.23,-0.237l0.231,-0.235l0.233,-0.234l0.234,-0.232l0.235,-0.232l0.237,-0.229l0.238,-0.229l0.239,-0.227l0.241,-0.225l0.242,-0.224l0.244,-0.223l0.245,-0.221l0.246,-0.22l0.247,-0.218l0.249,-0.217l0.25,-0.215l0.251,-0.214l0.253,-0.213l0.254,-0.21l0.255,-0.21l0.257,-0.208l0.258,-0.206l0.259,-0.205l0.26,-0.203l0.262,-0.202l0.263,-0.201l0.264,-0.198l0.265,-0.198l0.267,-0.195l0.267,-0.194l0.269,-0.193l0.27,-0.191l0.272,-0.189l0.272,-0.188l0.274,-0.186l0.275,-0.184l0.276,-0.183l0.277,-0.182l0.278,-0.179l0.28,-0.179l0.281,-0.176l0.281,-0.175l0.283,-0.173l0.284,-0.171l0.285,-0.17l0.287,-0.168l0.287,-0.167l0.289,-0.164l0.289,-0.164l0.291,-0.161l0.291,-0.16l0.293,-0.158l0.294,-0.156l0.295,-0.154l0.296,-0.153l0.297,-0.151l0.298,-0.149l0.299,-0.148l0.3,-0.146l0.301,-0.144l0.302,-0.142l0.303,-0.14l0.304,-0.139l0.305,-0.137l0.306,-0.135l0.307,-0.133l0.308,-0.132l0.309,-0.129l0.31,-0.128l0.31,-0.126l0.312,-0.124l0.313,-0.122l0.313,-0.121l0.315,-0.118l0.315,-0.117l0.317,-0.115l0.317,-0.113l0.318,-0.111l0.319,-0.109l0.32,-0.107l0.321,-0.106l0.321,-0.103l0.323,-0.101l0.323,-0.1l0.324,-0.098l0.325,-0.095l0.326,-0.094l0.327,-0.092l0.327,-0.089l0.328,-0.088l0.329,-0.086l0.33,-0.084l0.331,-0.082l0.331,-0.08l0.332,-0.077l0.333,-0.076l0.334,-0.074l0.334,-0.072l0.336,-0.07l0.336,-0.067l0.336,-0.066l0.338,-0.064l0.338,-0.061l0.338,-0.06l0.34,-0.057l0.34,-0.055l0.341,-0.054l0.342,-0.051l0.342,-0.049l0.343,-0.047l0.343,-0.045l0.345,-0.042l0.344,-0.041l0.346,-0.038l0.346,-0.037l0.347,-0.034l0.347,-0.032l0.348,-0.03l0.349,-0.027l0.349,-0.026l0.35,-0.023l0.35,-0.021l0.351,-0.019l0.352,-0.017l0.352,-0.014l0.352,-0.013l0.353,-0.01l0.354,-0.008l0.354,-0.005l0.355,-0.004l0.355,-0.001l0.355,0.001ZM156.048,3.019l-0.336,0.004l-0.335,0.005l-0.335,0.007l-0.334,0.01l-0.333,0.011l-0.333,0.014l-0.333,0.016l-0.332,0.018l-0.331,0.02l-0.331,0.022l-0.33,0.024l-0.33,0.026l-0.329,0.028l-0.329,0.031l-0.327,0.032l-0.328,0.034l-0.326,0.037l-0.326,0.038l-0.326,0.04l-0.325,0.043l-0.324,0.044l-0.323,0.047l-0.323,0.048l-0.323,0.05l-0.321,0.052l-0.321,0.055l-0.32,0.056l-0.32,0.058l-0.319,0.06l-0.318,0.062l-0.317,0.064l-0.317,0.066l-0.316,0.068l-0.316,0.07l-0.314,0.072l-0.314,0.073l-0.313,0.076l-0.313,0.077l-0.312,0.079l-0.311,0.081l-0.31,0.083l-0.309,0.085l-0.309,0.087l-0.308,0.088l-0.307,0.091l-0.306,0.092l-0.306,0.094l-0.304,0.096l-0.304,0.098l-0.303,0.099l-0.303,0.102l-0.301,0.103l-0.301,0.105l-0.3,0.106l-0.299,0.109l-0.298,0.11l-0.297,0.112l-0.296,0.114l-0.296,0.115l-0.294,0.118l-0.294,0.119l-0.293,0.121l-0.292,0.122l-0.291,0.124l-0.29,0.126l-0.289,0.128l-0.289,0.129l-0.287,0.131l-0.286,0.133l-0.286,0.135l-0.284,0.136l-0.284,0.137l-0.283,0.14l-0.281,0.141l-0.281,0.143l-0.28,0.144l-0.279,0.146l-0.277,0.148l-0.277,0.149l-0.276,0.151l-0.275,0.153l-0.273,0.154l-0.273,0.156l-0.272,0.157l-0.27,0.159l-0.27,0.161l-0.269,0.162l-0.267,0.163l-0.266,0.166l-0.266,0.167l-0.264,0.168l-0.263,0.17l-0.262,0.171l-0.261,0.173l-0.26,0.175l-0.259,0.176l-0.258,0.177l-0.256,0.179l-0.256,0.181l-0.254,0.182l-0.253,0.184l-0.252,0.185l-0.251,0.186l-0.25,0.188l-0.249,0.189l-0.247,0.191l-0.246,0.193l-0.245,0.193l-0.244,0.196l-0.243,0.196l-0.241,0.198l-0.24,0.2l-0.239,0.201l-0.238,0.202l-0.237,0.204l-0.235,0.205l-0.234,0.206l-0.233,0.208l-0.232,0.209l-0.23,0.211l-0.229,0.212l-0.228,0.213l-0.226,0.215l-0.225,0.216l-0.224,0.217l-0.223,0.219l-0.221,0.22l-0.22,0.221l-0.219,0.222l-0.217,0.224l-0.216,0.225l-0.215,0.227l-0.213,0.228l-0.212,0.229l-0.211,0.23l-0.209,0.231l-0.208,0.233l-0.206,0.234l-0.205,0.236l-0.204,0.236l-0.202,0.238l-0.201,0.239l-0.2,0.24l-0.198,0.242l-0.196,0.242l-0.196,0.244l-0.193,0.245l-0.193,0.246l-0.191,0.248l-0.189,0.248l-0.188,0.25l-0.187,0.251l-0.185,0.252l-0.183,0.253l-0.182,0.254l-0.181,0.256l-0.179,0.256l-0.177,0.258l-0.177,0.259l-0.174,0.259l-0.173,0.261l-0.172,0.263l-0.169,0.263l-0.169,0.264l-0.167,0.265l-0.165,0.267l-0.164,0.267l-0.162,0.269l-0.16,0.269l-0.159,0.271l-0.158,0.272l-0.155,0.272l-0.155,0.274l-0.152,0.275l-0.151,0.275l-0.15,0.277l-0.147,0.278l-0.146,0.279l-0.145,0.279l-0.143,0.281l-0.141,0.282l-0.139,0.282l-0.138,0.284l-0.136,0.284l-0.135,0.286l-0.132,0.286l-0.131,0.288l-0.13,0.288l-0.127,0.289l-0.126,0.29l-0.125,0.291l-0.122,0.292l-0.121,0.293l-0.119,0.294l-0.117,0.294l-0.116,0.296l-0.114,0.296l-0.112,0.297l-0.11,0.298l-0.109,0.299l-0.106,0.3l-0.105,0.301l-0.103,0.301l-0.102,0.302l-0.099,0.303l-0.098,0.304l-0.096,0.305l-0.094,0.305l-0.092,0.307l-0.091,0.307l-0.088,0.308l-0.087,0.308l-0.085,0.31l-0.083,0.31l-0.081,0.311l-0.079,0.311l-0.077,0.313l-0.076,0.313l-0.073,0.314l-0.072,0.314l-0.07,0.316l-0.068,0.316l-0.066,0.317l-0.064,0.317l-0.062,0.318l-0.06,0.319l-0.058,0.32l-0.056,0.32l-0.055,0.321l-0.052,0.321l-0.05,0.322l-0.049,0.323l-0.046,0.324l-0.044,0.324l-0.043,0.325l-0.04,0.325l-0.038,0.326l-0.037,0.327l-0.034,0.327l-0.032,0.328l-0.031,0.328l-0.028,0.329l-0.026,0.33l-0.024,0.33l-0.022,0.331l-0.02,0.331l-0.018,0.332l-0.016,0.333l-0.014,0.333l-0.011,0.333l-0.01,0.334l-0.007,0.335l-0.006,0.335l-0.003,0.336l-0.001,0.336l0.001,0.336l0.003,0.336l0.006,0.335l0.007,0.335l0.01,0.334l0.011,0.333l0.014,0.334l0.016,0.332l0.018,0.332l0.02,0.331l0.022,0.331l0.024,0.33l0.026,0.33l0.028,0.329l0.031,0.328l0.032,0.328l0.034,0.328l0.037,0.326l0.038,0.326l0.04,0.326l0.043,0.324l0.044,0.325l0.046,0.323l0.049,0.323l0.05,0.322l0.052,0.322l0.055,0.32l0.056,0.321l0.058,0.319l0.06,0.319l0.062,0.318l0.064,0.318l0.066,0.316l0.068,0.316l0.07,0.316l0.072,0.314l0.073,0.314l0.076,0.314l0.077,0.312l0.079,0.312l0.081,0.311l0.083,0.31l0.085,0.309l0.087,0.309l0.088,0.308l0.091,0.307l0.092,0.306l0.094,0.305l0.096,0.305l0.098,0.304l0.099,0.303l0.102,0.302l0.103,0.302l0.105,0.3l0.106,0.3l0.109,0.299l0.11,0.298l0.112,0.297l0.114,0.297l0.116,0.295l0.117,0.295l0.119,0.293l0.121,0.293l0.122,0.292l0.125,0.291l0.126,0.29l0.127,0.289l0.13,0.289l0.131,0.287l0.132,0.286l0.135,0.286l0.136,0.285l0.138,0.283l0.139,0.283l0.141,0.281l0.143,0.281l0.145,0.28l0.146,0.278l0.147,0.278l0.15,0.277l0.151,0.276l0.152,0.274l0.154,0.274l0.156,0.273l0.158,0.271l0.159,0.271l0.16,0.27l0.162,0.268l0.164,0.268l0.165,0.266l0.167,0.265l0.169,0.265l0.169,0.263l0.172,0.262l0.173,0.261l0.174,0.26l0.177,0.259l0.177,0.257l0.179,0.257l0.181,0.255l0.182,0.254l0.183,0.254l0.185,0.252l0.187,0.251l0.188,0.249l0.189,0.249l0.191,0.247l0.193,0.246l0.193,0.245l0.196,0.244l0.196,0.243l0.198,0.241l0.2,0.24l0.201,0.239l0.202,0.238l0.204,0.237l0.205,0.235l0.206,0.234l0.208,0.233l0.209,0.231l0.211,0.231l0.212,0.229l0.213,0.227l0.215,0.227l0.216,0.225l0.217,0.224l0.219,0.222l0.22,0.222l0.221,0.22l0.223,0.218l0.224,0.218l0.225,0.216l0.226,0.214l0.228,0.214l0.229,0.211l0.23,0.211l0.232,0.209l0.233,0.208l0.234,0.207l0.235,0.205l0.237,0.203l0.238,0.203l0.239,0.201l0.24,0.199l0.241,0.198l0.243,0.197l0.244,0.195l0.245,0.194l0.246,0.192l0.247,0.191l0.249,0.189l0.25,0.188l0.251,0.187l0.252,0.185l0.253,0.183l0.254,0.182l0.256,0.181l0.256,0.179l0.258,0.178l0.259,0.176l0.26,0.174l0.261,0.173l0.262,0.171l0.263,0.17l0.264,0.169l0.266,0.167l0.266,0.165l0.267,0.164l0.269,0.162l0.27,0.16l0.27,0.159l0.272,0.158l0.273,0.155l0.273,0.155l0.275,0.152l0.276,0.151l0.277,0.149l0.277,0.148l0.279,0.146l0.28,0.145l0.281,0.142l0.281,0.141l0.283,0.14l0.284,0.138l0.284,0.136l0.286,0.134l0.286,0.133l0.287,0.131l0.289,0.129l0.289,0.128l0.29,0.126l0.291,0.124l0.292,0.123l0.293,0.121l0.294,0.119l0.294,0.117l0.296,0.115l0.296,0.114l0.297,0.112l0.298,0.111l0.299,0.108l0.3,0.107l0.301,0.105l0.301,0.103l0.303,0.101l0.303,0.1l0.304,0.097l0.304,0.096l0.306,0.094l0.306,0.093l0.307,0.09l0.308,0.088l0.309,0.087l0.309,0.085l0.31,0.083l0.311,0.081l0.312,0.079l0.313,0.078l0.313,0.075l0.314,0.074l0.314,0.071l0.316,0.07l0.316,0.068l0.317,0.066l0.317,0.064l0.318,0.062l0.319,0.06l0.32,0.058l0.32,0.057l0.321,0.054l0.321,0.052l0.323,0.05l0.323,0.049l0.323,0.046l0.324,0.045l0.325,0.042l0.326,0.04l0.326,0.039l0.326,0.036l0.328,0.034l0.327,0.033l0.329,0.03l0.329,0.028l0.33,0.026l0.33,0.024l0.331,0.022l0.331,0.02l0.332,0.018l0.333,0.016l0.333,0.014l0.333,0.011l0.334,0.01l0.335,0.007l0.335,0.006l0.336,0.003l0.336,0.001l0.336,-0.001l0.336,-0.003l0.335,-0.006l0.335,-0.007l0.334,-0.01l0.334,-0.011l0.333,-0.014l0.332,-0.016l0.332,-0.018l0.332,-0.02l0.331,-0.022l0.33,-0.024l0.329,-0.026l0.33,-0.028l0.328,-0.03l0.328,-0.033l0.327,-0.034l0.327,-0.036l0.326,-0.039l0.325,-0.04l0.325,-0.042l0.324,-0.045l0.324,-0.046l0.323,-0.049l0.322,-0.05l0.322,-0.052l0.321,-0.054l0.32,-0.057l0.319,-0.058l0.319,-0.06l0.318,-0.062l0.318,-0.064l0.317,-0.066l0.316,-0.068l0.315,-0.07l0.315,-0.071l0.314,-0.074l0.313,-0.075l0.312,-0.078l0.312,-0.079l0.311,-0.081l0.31,-0.083l0.31,-0.085l0.308,-0.087l0.308,-0.088l0.307,-0.09l0.307,-0.093l0.305,-0.094l0.305,-0.096l0.304,-0.097l0.303,-0.1l0.302,-0.101l0.302,-0.103l0.3,-0.105l0.3,-0.107l0.299,-0.108l0.298,-0.111l0.297,-0.112l0.297,-0.114l0.295,-0.115l0.295,-0.117l0.293,-0.119l0.293,-0.121l0.292,-0.123l0.291,-0.124l0.291,-0.126l0.289,-0.128l0.288,-0.129l0.287,-0.131l0.287,-0.133l0.285,-0.134l0.285,-0.136l0.284,-0.138l0.282,-0.14l0.282,-0.141l0.281,-0.142l0.279,-0.145l0.279,-0.146l0.278,-0.148l0.277,-0.149l0.275,-0.151l0.275,-0.152l0.274,-0.155l0.273,-0.155l0.271,-0.158l0.271,-0.159l0.269,-0.16l0.269,-0.162l0.267,-0.164l0.267,-0.165l0.265,-0.167l0.265,-0.169l0.263,-0.17l0.262,-0.171l0.261,-0.173l0.26,-0.174l0.259,-0.176l0.257,-0.178l0.257,-0.179l0.255,-0.181l0.255,-0.182l0.253,-0.183l0.252,-0.185l0.251,-0.187l0.25,-0.188l0.248,-0.189l0.247,-0.191l0.247,-0.192l0.245,-0.194l0.244,-0.195l0.242,-0.197l0.242,-0.198l0.24,-0.199l0.239,-0.201l0.238,-0.203l0.236,-0.203l0.236,-0.205l0.234,-0.207l0.232,-0.208l0.232,-0.209l0.23,-0.21l0.229,-0.212l0.228,-0.214l0.227,-0.214l0.225,-0.216l0.224,-0.218l0.222,-0.218l0.222,-0.22l0.22,-0.222l0.218,-0.222l0.218,-0.224l0.216,-0.225l0.214,-0.227l0.214,-0.227l0.211,-0.229l0.211,-0.231l0.209,-0.231l0.208,-0.233l0.207,-0.234l0.205,-0.235l0.203,-0.237l0.203,-0.238l0.201,-0.239l0.199,-0.24l0.198,-0.241l0.197,-0.243l0.195,-0.244l0.194,-0.245l0.192,-0.246l0.191,-0.247l0.19,-0.249l0.188,-0.249l0.186,-0.251l0.185,-0.252l0.184,-0.254l0.182,-0.254l0.18,-0.255l0.179,-0.257l0.178,-0.258l0.176,-0.258l0.175,-0.26l0.173,-0.261l0.171,-0.262l0.17,-0.263l0.168,-0.265l0.167,-0.265l0.165,-0.266l0.164,-0.268l0.162,-0.268l0.161,-0.27l0.159,-0.271l0.157,-0.271l0.156,-0.273l0.154,-0.274l0.153,-0.274l0.151,-0.276l0.149,-0.277l0.148,-0.278l0.146,-0.278l0.144,-0.28l0.143,-0.281l0.141,-0.281l0.14,-0.283l0.137,-0.283l0.137,-0.285l0.134,-0.285l0.133,-0.287l0.131,-0.287l0.129,-0.289l0.128,-0.289l0.126,-0.29l0.124,-0.291l0.123,-0.292l0.12,-0.293l0.119,-0.293l0.118,-0.295l0.115,-0.295l0.114,-0.297l0.112,-0.297l0.111,-0.298l0.108,-0.299l0.107,-0.3l0.105,-0.3l0.103,-0.302l0.101,-0.302l0.1,-0.303l0.097,-0.304l0.096,-0.305l0.094,-0.305l0.093,-0.306l0.09,-0.307l0.089,-0.308l0.086,-0.309l0.085,-0.309l0.083,-0.31l0.081,-0.311l0.079,-0.312l0.078,-0.313l0.075,-0.313l0.074,-0.314l0.072,-0.314l0.069,-0.316l0.068,-0.316l0.066,-0.316l0.064,-0.318l0.062,-0.318l0.06,-0.319l0.058,-0.319l0.057,-0.321l0.054,-0.32l0.052,-0.322l0.051,-0.322l0.048,-0.323l0.046,-0.324l0.045,-0.324l0.042,-0.324l0.04,-0.326l0.039,-0.326l0.036,-0.327l0.035,-0.327l0.032,-0.328l0.03,-0.328l0.028,-0.329l0.026,-0.33l0.025,-0.33l0.022,-0.331l0.02,-0.331l0.017,-0.332l0.016,-0.332l0.014,-0.334l0.012,-0.333l0.009,-0.334l0.008,-0.335l0.005,-0.335l0.003,-0.336l0.001,-0.336l-0.001,-0.336l-0.003,-0.336l-0.005,-0.335l-0.008,-0.335l-0.009,-0.334l-0.012,-0.333l-0.014,-0.333l-0.016,-0.333l-0.017,-0.332l-0.02,-0.331l-0.022,-0.331l-0.025,-0.33l-0.026,-0.33l-0.028,-0.329l-0.03,-0.328l-0.032,-0.328l-0.035,-0.327l-0.036,-0.327l-0.039,-0.326l-0.04,-0.325l-0.042,-0.325l-0.045,-0.324l-0.046,-0.324l-0.048,-0.323l-0.051,-0.322l-0.052,-0.321l-0.054,-0.321l-0.057,-0.32l-0.058,-0.32l-0.06,-0.319l-0.062,-0.318l-0.064,-0.317l-0.066,-0.317l-0.068,-0.316l-0.069,-0.316l-0.072,-0.314l-0.074,-0.314l-0.075,-0.313l-0.078,-0.313l-0.079,-0.311l-0.081,-0.311l-0.083,-0.31l-0.085,-0.31l-0.086,-0.308l-0.089,-0.308l-0.09,-0.307l-0.093,-0.307l-0.094,-0.305l-0.096,-0.305l-0.097,-0.304l-0.1,-0.303l-0.101,-0.302l-0.103,-0.301l-0.105,-0.301l-0.107,-0.3l-0.108,-0.299l-0.111,-0.298l-0.112,-0.297l-0.114,-0.296l-0.115,-0.296l-0.118,-0.294l-0.119,-0.294l-0.12,-0.293l-0.123,-0.292l-0.124,-0.291l-0.126,-0.29l-0.128,-0.289l-0.129,-0.288l-0.131,-0.288l-0.133,-0.286l-0.134,-0.286l-0.137,-0.284l-0.137,-0.284l-0.14,-0.282l-0.141,-0.282l-0.143,-0.281l-0.144,-0.279l-0.146,-0.279l-0.148,-0.278l-0.149,-0.277l-0.151,-0.275l-0.153,-0.275l-0.154,-0.274l-0.156,-0.272l-0.157,-0.272l-0.159,-0.271l-0.161,-0.269l-0.162,-0.269l-0.164,-0.267l-0.165,-0.267l-0.167,-0.265l-0.168,-0.264l-0.17,-0.263l-0.171,-0.263l-0.173,-0.261l-0.175,-0.259l-0.176,-0.259l-0.178,-0.258l-0.179,-0.256l-0.18,-0.256l-0.182,-0.254l-0.184,-0.253l-0.185,-0.252l-0.186,-0.251l-0.188,-0.25l-0.19,-0.248l-0.191,-0.248l-0.192,-0.246l-0.194,-0.245l-0.195,-0.244l-0.197,-0.242l-0.198,-0.242l-0.199,-0.24l-0.201,-0.239l-0.203,-0.238l-0.203,-0.236l-0.205,-0.236l-0.207,-0.234l-0.208,-0.233l-0.209,-0.231l-0.211,-0.23l-0.211,-0.229l-0.214,-0.228l-0.214,-0.227l-0.216,-0.225l-0.218,-0.224l-0.218,-0.222l-0.22,-0.221l-0.222,-0.22l-0.222,-0.219l-0.224,-0.217l-0.225,-0.216l-0.227,-0.215l-0.228,-0.213l-0.229,-0.212l-0.23,-0.211l-0.232,-0.209l-0.232,-0.208l-0.234,-0.206l-0.236,-0.205l-0.236,-0.204l-0.238,-0.202l-0.239,-0.201l-0.24,-0.2l-0.242,-0.198l-0.242,-0.196l-0.244,-0.196l-0.245,-0.193l-0.247,-0.193l-0.247,-0.191l-0.248,-0.189l-0.25,-0.188l-0.251,-0.186l-0.252,-0.185l-0.253,-0.184l-0.255,-0.182l-0.255,-0.181l-0.257,-0.179l-0.257,-0.177l-0.259,-0.176l-0.26,-0.175l-0.261,-0.173l-0.262,-0.171l-0.263,-0.17l-0.265,-0.168l-0.265,-0.167l-0.267,-0.166l-0.267,-0.163l-0.269,-0.162l-0.269,-0.161l-0.271,-0.159l-0.271,-0.157l-0.273,-0.156l-0.274,-0.154l-0.275,-0.153l-0.275,-0.151l-0.277,-0.149l-0.278,-0.148l-0.279,-0.146l-0.279,-0.144l-0.281,-0.143l-0.282,-0.141l-0.282,-0.14l-0.284,-0.137l-0.285,-0.136l-0.285,-0.135l-0.287,-0.133l-0.287,-0.131l-0.288,-0.129l-0.289,-0.128l-0.291,-0.126l-0.291,-0.124l-0.292,-0.122l-0.292,-0.121l-0.294,-0.119l-0.295,-0.118l-0.295,-0.115l-0.297,-0.114l-0.297,-0.112l-0.298,-0.11l-0.299,-0.109l-0.3,-0.106l-0.3,-0.105l-0.302,-0.103l-0.302,-0.102l-0.303,-0.099l-0.304,-0.098l-0.305,-0.096l-0.305,-0.094l-0.307,-0.092l-0.307,-0.091l-0.308,-0.088l-0.308,-0.087l-0.31,-0.085l-0.31,-0.083l-0.311,-0.081l-0.312,-0.079l-0.312,-0.077l-0.313,-0.076l-0.314,-0.073l-0.315,-0.072l-0.315,-0.07l-0.316,-0.068l-0.317,-0.066l-0.318,-0.064l-0.318,-0.062l-0.319,-0.06l-0.319,-0.058l-0.321,-0.056l-0.32,-0.055l-0.322,-0.052l-0.322,-0.05l-0.323,-0.048l-0.324,-0.047l-0.324,-0.044l-0.325,-0.043l-0.325,-0.04l-0.326,-0.038l-0.327,-0.037l-0.327,-0.034l-0.328,-0.032l-0.328,-0.031l-0.33,-0.028l-0.329,-0.026l-0.33,-0.024l-0.331,-0.022l-0.332,-0.02l-0.332,-0.018l-0.332,-0.016l-0.333,-0.014l-0.334,-0.011l-0.334,-0.01l-0.335,-0.007l-0.335,-0.005l-0.336,-0.004l-0.336,-0.001l-0.336,0.001Z" style="fill:#46aeda;"/><path id="Path-8" d="M156.384,100.858c25.325,0 45.854,-20.527 45.854,-45.849c0,-25.322 -20.529,-45.849 -45.854,-45.849c-25.324,0 -45.853,20.527 -45.853,45.849c0,25.322 20.529,45.849 45.853,45.849ZM156.777,41.442c13.125,0 23.764,-2.553 23.764,-5.702c0,-3.15 -10.639,-5.703 -23.764,-5.703c-13.125,0 -23.765,2.553 -23.765,5.703c0,3.149 10.64,5.702 23.765,5.702ZM180.541,48.757c0,3.149 -10.639,5.702 -23.764,5.702c-13.125,0 -23.765,-2.553 -23.765,-5.702l0,-7.725c0,0 10.64,3.862 23.765,3.862c13.125,0 23.764,-3.862 23.764,-3.862l0,7.725ZM180.541,61.775c0,3.149 -10.639,5.702 -23.764,5.702c-13.125,0 -23.765,-2.553 -23.765,-5.702l0,-7.726c0,0 10.64,3.863 23.765,3.863c13.125,0 23.764,-3.863 23.764,-3.863l0,7.726ZM180.541,74.792c0,3.149 -10.639,5.702 -23.764,5.702c-13.125,0 -23.765,-2.553 -23.765,-5.702l0,-7.725c0,0 10.64,3.862 23.765,3.862c13.125,0 23.764,-3.862 23.764,-3.862l0,7.725Z" style="fill:#fff;"/></g></g><g id="Search-your-document"><text x="52.852px" y="161.192px" style="font-family:Raleway;font-size:16px;fill:#fff;">Search your documentation</text></g><path id="Line" d="M222.221,56.865l0.356,0.003l0.36,0.004l0.363,0.007l0.366,0.008l0.369,0.01l0.371,0.013l0.375,0.014l0.377,0.016l0.379,0.019l0.381,0.02l0.384,0.023l0.386,0.026l0.388,0.028l0.389,0.03l0.391,0.033l0.392,0.035l0.394,0.038l0.395,0.041l0.396,0.044l0.397,0.047l0.398,0.05l0.399,0.052l0.398,0.056l0.201,0.029l0.2,0.03l0.2,0.031l0.199,0.031l0.201,0.033l0.2,0.033l0.2,0.034l0.2,0.035l0.2,0.035l0.2,0.037l0.2,0.037l0.2,0.039l0.199,0.039l0.2,0.04l0.2,0.041l0.199,0.042l0.199,0.043l0.199,0.044l0.199,0.045l0.199,0.046l0.199,0.047l0.198,0.048l0.198,0.048l0.198,0.05l0.197,0.051l0.197,0.052l0.197,0.053l0.197,0.053l0.196,0.055l0.196,0.056l0.195,0.057l0.195,0.058l0.195,0.06l0.194,0.06l0.194,0.061l0.193,0.063l0.193,0.064l0.193,0.064l0.192,0.066l0.191,0.067l0.191,0.069l0.19,0.069l0.189,0.071l0.19,0.072l0.188,0.073l0.188,0.074l0.187,0.076l0.186,0.076l0.186,0.078l0.185,0.08l0.185,0.08l0.184,0.082l0.183,0.083l0.182,0.085l0.181,0.085l0.181,0.087l0.18,0.089l0.179,0.09l0.178,0.091l0.177,0.092l0.176,0.094l0.176,0.096l0.174,0.096l0.174,0.099l0.172,0.099l0.172,0.101l0.17,0.103l0.17,0.104l0.168,0.105l0.168,0.107l0.166,0.109l0.166,0.11l0.164,0.111l0.163,0.113l0.162,0.115l0.16,0.116l0.16,0.117l0.158,0.12l0.157,0.121l0.156,0.122l0.154,0.124l0.153,0.126l0.152,0.127l0.15,0.129l0.149,0.131l0.148,0.132l0.146,0.134l0.145,0.136l0.143,0.137l0.141,0.139l0.141,0.141l0.138,0.142l0.137,0.144l0.136,0.146l0.134,0.148l0.132,0.149l0.13,0.151l0.129,0.153l0.127,0.155l0.125,0.156l0.124,0.158l0.122,0.16l0.12,0.162l0.118,0.163l0.116,0.166l0.114,0.167l0.113,0.169l0.109,0.169l0.057,0.089l0.054,0.088l0.054,0.089l0.053,0.088l0.052,0.088l0.051,0.089l0.049,0.088l0.049,0.089l0.048,0.089l0.047,0.089l0.047,0.089l0.045,0.088l0.044,0.09l0.043,0.089l0.042,0.089l0.042,0.089l0.04,0.09l0.039,0.089l0.039,0.09l0.037,0.089l0.037,0.09l0.036,0.09l0.034,0.089l0.034,0.09l0.033,0.09l0.032,0.09l0.031,0.09l0.03,0.09l0.029,0.09l0.028,0.09l0.027,0.09l0.026,0.09l0.025,0.091l0.025,0.09l0.023,0.09l0.023,0.09l0.021,0.09l0.021,0.091l0.02,0.09l0.019,0.091l0.018,0.09l0.017,0.093l0.031,0.177l0.028,0.181l0.024,0.18l0.02,0.18l0.018,0.18l0.013,0.179l0.01,0.18l0.007,0.179l0.004,0.179l0,0.178l-0.003,0.178l-0.007,0.178l-0.009,0.176l-0.013,0.177l-0.016,0.177l-0.019,0.175l-0.021,0.175l-0.025,0.175l-0.028,0.174l-0.03,0.173l-0.033,0.173l-0.036,0.173l-0.039,0.171l-0.041,0.172l-0.044,0.17l-0.046,0.17l-0.049,0.17l-0.051,0.168l-0.054,0.169l-0.055,0.167l-0.059,0.167l-0.06,0.167l-0.063,0.166l-0.064,0.165l-0.067,0.165l-0.069,0.164l-0.071,0.164l-0.073,0.163l-0.075,0.162l-0.076,0.162l-0.079,0.162l-0.08,0.161l-0.082,0.161l-0.084,0.16l-0.086,0.159l-0.087,0.16l-0.089,0.158l-0.09,0.159l-0.092,0.158l-0.093,0.157l-0.095,0.157l-0.097,0.157l-0.097,0.156l-0.1,0.156l-0.1,0.156l-0.102,0.155l-0.103,0.155l-0.104,0.154l-0.106,0.154l-0.106,0.154l-0.108,0.154l-0.109,0.153l-0.11,0.153l-0.111,0.152l-0.113,0.153l-0.113,0.152l-0.114,0.152l-0.115,0.151l-0.116,0.151l-0.117,0.151l-0.118,0.152l-0.237,0.3l-0.24,0.3l-0.244,0.299l-0.246,0.298l-0.248,0.297l-0.25,0.297l-0.252,0.296l-0.254,0.295l-0.255,0.295l-0.256,0.294l-0.256,0.293l-0.258,0.293l-0.515,0.583l-0.516,0.581l-0.512,0.579l-0.509,0.578l-0.252,0.288l-0.25,0.287l-0.248,0.287l-0.246,0.286l-0.243,0.286l-0.241,0.285l-0.237,0.285l-0.234,0.284l-0.231,0.283l-0.227,0.283l-0.224,0.284l-0.109,0.14l-0.109,0.141l-0.107,0.14l-0.107,0.141l-0.105,0.14l-0.104,0.14l-0.103,0.14l-0.102,0.14l-0.1,0.139l-0.099,0.14l-0.098,0.139l-0.096,0.139l-0.095,0.139l-0.094,0.138l-0.092,0.139l-0.09,0.138l-0.089,0.138l-0.087,0.137l-0.086,0.138l-0.084,0.137l-0.083,0.137l-0.081,0.136l-0.079,0.136l-0.078,0.137l-0.075,0.135l-0.074,0.136l-0.073,0.135l-0.07,0.135l-0.069,0.134l-0.066,0.134l-0.065,0.134l-0.063,0.134l-0.061,0.133l-0.06,0.133l-0.057,0.132l-0.055,0.132l-0.053,0.132l-0.052,0.132l-0.049,0.131l-0.047,0.13l-0.045,0.13l-0.043,0.13l-0.041,0.13l-0.039,0.129l-0.037,0.128l-0.035,0.128l-0.032,0.128l-0.031,0.128l-0.028,0.127l-0.027,0.127l-0.024,0.126l-0.021,0.126l-0.02,0.126l-0.018,0.125l-0.015,0.125l-0.013,0.125l-0.011,0.124l-0.009,0.124l-0.006,0.124l-0.005,0.124l-0.002,0.124l0.001,0.123l0.002,0.124l0.005,0.123l0.008,0.124l0.009,0.123l0.012,0.123l0.014,0.124l0.017,0.123l0.019,0.124l0.023,0.127l0.011,0.059l0.012,0.062l0.013,0.062l0.014,0.062l0.015,0.062l0.015,0.062l0.015,0.063l0.017,0.062l0.017,0.063l0.017,0.063l0.019,0.062l0.019,0.063l0.02,0.063l0.02,0.063l0.021,0.063l0.022,0.064l0.023,0.063l0.023,0.064l0.024,0.064l0.025,0.063l0.025,0.064l0.027,0.064l0.027,0.065l0.028,0.064l0.028,0.065l0.029,0.064l0.031,0.065l0.031,0.065l0.031,0.065l0.033,0.066l0.033,0.065l0.034,0.066l0.035,0.065l0.036,0.066l0.037,0.067l0.037,0.066l0.039,0.066l0.039,0.067l0.04,0.067l0.041,0.067l0.042,0.067l0.042,0.067l0.044,0.068l0.044,0.067l0.046,0.068l0.046,0.068l0.047,0.068l0.047,0.066l0.101,0.14l0.103,0.138l0.106,0.138l0.111,0.14l0.114,0.14l0.119,0.14l0.123,0.142l0.126,0.142l0.127,0.139l0.126,0.136l0.127,0.133l0.126,0.129l0.127,0.126l0.126,0.123l0.126,0.119l0.126,0.116l0.125,0.114l0.126,0.11l0.126,0.107l0.125,0.104l0.125,0.101l0.126,0.098l0.125,0.096l0.125,0.092l0.124,0.09l0.125,0.086l0.125,0.085l0.124,0.081l0.124,0.079l0.125,0.076l0.124,0.074l0.124,0.071l0.124,0.068l0.124,0.066l0.124,0.064l0.124,0.061l0.124,0.059l0.124,0.057l0.124,0.054l0.124,0.052l0.124,0.05l0.125,0.048l0.124,0.045l0.124,0.044l0.125,0.041l0.124,0.039l0.125,0.038l0.125,0.035l0.126,0.033l0.125,0.031l0.126,0.03l0.126,0.027l0.126,0.026l0.126,0.024l0.127,0.021l0.127,0.02l0.128,0.019l0.128,0.016l0.128,0.015l0.128,0.013l0.129,0.011l0.13,0.009l0.13,0.008l0.13,0.006l0.13,0.004l0.131,0.003l0.132,0.001l0.132,0l0.132,-0.003l0.133,-0.003l0.134,-0.006l0.133,-0.007l0.135,-0.008l0.134,-0.01l0.136,-0.012l0.135,-0.013l0.137,-0.015l0.136,-0.016l0.137,-0.017l0.138,-0.019l0.138,-0.021l0.138,-0.022l0.14,-0.023l0.139,-0.025l0.14,-0.026l0.14,-0.027l0.141,-0.029l0.141,-0.03l0.142,-0.031l0.142,-0.033l0.143,-0.034l0.143,-0.035l0.143,-0.037l0.144,-0.037l0.145,-0.039l0.144,-0.04l0.146,-0.041l0.145,-0.042l0.146,-0.044l0.146,-0.044l0.147,-0.046l0.147,-0.046l0.148,-0.048l0.147,-0.048l0.149,-0.05l0.148,-0.05l0.149,-0.052l0.149,-0.052l0.149,-0.053l0.301,-0.109l0.302,-0.112l0.303,-0.116l0.304,-0.118l0.306,-0.121l0.306,-0.123l0.308,-0.126l0.309,-0.128l0.311,-0.13l0.311,-0.131l0.312,-0.133l0.628,-0.27l0.632,-0.274l0.637,-0.276l0.639,-0.276l0.322,-0.138l0.322,-0.138l0.323,-0.136l0.325,-0.136l0.325,-0.135l0.326,-0.134l0.327,-0.132l0.329,-0.13l0.329,-0.128l0.33,-0.126l0.331,-0.124l0.332,-0.122l0.331,-0.118l0.169,-0.058l0.167,-0.058l0.167,-0.056l0.168,-0.056l0.168,-0.055l0.168,-0.054l0.168,-0.053l0.169,-0.052l0.169,-0.051l0.169,-0.05l0.169,-0.05l0.17,-0.048l0.17,-0.047l0.17,-0.046l0.171,-0.044l0.171,-0.044l0.171,-0.042l0.171,-0.041l0.172,-0.04l0.171,-0.039l0.173,-0.037l0.172,-0.036l0.173,-0.034l0.173,-0.034l0.173,-0.031l0.173,-0.03l0.174,-0.029l0.174,-0.027l0.175,-0.026l0.174,-0.023l0.175,-0.023l0.175,-0.02l0.176,-0.019l0.176,-0.017l0.176,-0.016l0.176,-0.013l0.176,-0.012l0.177,-0.01l0.177,-0.008l0.177,-0.006l0.178,-0.004l0.177,-0.002l0.178,0l0.178,0.002l0.178,0.004l0.179,0.007l0.179,0.008l0.178,0.011l0.179,0.013l0.18,0.015l0.179,0.018l0.179,0.02l0.18,0.022l0.179,0.024l0.18,0.028l0.18,0.029l0.18,0.032l0.18,0.035l0.18,0.037l0.18,0.039l0.18,0.042l0.18,0.045l0.179,0.048l0.18,0.05l0.18,0.053l0.18,0.055l0.179,0.058l0.18,0.061l0.179,0.064l0.18,0.067l0.179,0.069l0.179,0.072l0.178,0.076l0.179,0.078l0.178,0.08l0.178,0.084l0.178,0.087l0.177,0.09l0.178,0.092l0.177,0.096l0.176,0.099l0.177,0.101l0.176,0.105l0.175,0.108l0.176,0.11l0.175,0.114l0.175,0.117l0.174,0.12l0.174,0.123l0.172,0.125l0.168,0.125l0.164,0.124l0.163,0.124l0.161,0.125l0.16,0.126l0.158,0.126l0.157,0.127l0.155,0.128l0.153,0.128l0.152,0.129l0.15,0.129l0.149,0.13l0.147,0.131l0.146,0.131l0.144,0.132l0.142,0.132l0.141,0.132l0.14,0.133l0.138,0.134l0.137,0.134l0.135,0.135l0.133,0.135l0.133,0.135l0.13,0.136l0.129,0.137l0.128,0.136l0.127,0.138l0.124,0.138l0.124,0.138l0.122,0.138l0.12,0.139l0.12,0.139l0.117,0.14l0.117,0.14l0.115,0.14l0.113,0.141l0.113,0.141l0.11,0.141l0.11,0.142l0.108,0.141l0.107,0.143l0.105,0.142l0.104,0.143l0.103,0.143l0.101,0.143l0.1,0.143l0.099,0.144l0.098,0.144l0.096,0.144l0.095,0.145l0.093,0.144l0.093,0.145l0.091,0.145l0.09,0.145l0.088,0.145l0.088,0.145l0.086,0.146l0.085,0.145l0.083,0.146l0.083,0.146l0.081,0.146l0.08,0.146l0.079,0.146l0.077,0.146l0.077,0.146l0.075,0.147l0.074,0.146l0.073,0.146l0.072,0.146l0.071,0.147l0.07,0.146l0.068,0.147l0.067,0.146l0.067,0.146l0.065,0.146l0.064,0.147l0.063,0.146l0.062,0.146l0.061,0.146l0.06,0.146l0.058,0.146l0.058,0.146l0.057,0.145l0.056,0.146l0.054,0.145l0.054,0.146l0.053,0.145l0.051,0.145l0.051,0.144l0.05,0.145l0.049,0.145l0.048,0.144l0.046,0.144l0.046,0.144l0.045,0.144l0.045,0.143l0.043,0.143l0.043,0.145l0.081,0.284l0.078,0.284l0.075,0.283l0.072,0.282l0.068,0.28l0.065,0.28l0.061,0.278l0.059,0.276l0.055,0.275l0.053,0.273l0.049,0.272l0.047,0.27l0.044,0.268l0.041,0.266l0.039,0.265l0.036,0.262l0.033,0.261l0.031,0.258l0.028,0.256l0.026,0.254l0.024,0.251l0.022,0.249l0.019,0.247l0.017,0.244l0.016,0.242l0.013,0.239l0.011,0.236l0.01,0.233l0.008,0.231l0.006,0.228l0.004,0.225l0.003,0.221l0.002,0.219l-0.001,0.216l-0.001,0.212l-0.003,0.209l-0.004,0.206l-0.005,0.202l-0.007,0.199l-0.007,0.196l-0.009,0.192l-0.009,0.188l-0.011,0.184l-0.011,0.181l-0.012,0.177l-0.013,0.173l-0.013,0.169l-0.014,0.165l-0.015,0.16l-0.015,0.157l-0.015,0.154l-0.032,0.29l-0.032,0.274l-0.033,0.257l-0.033,0.237l-0.033,0.218l-0.031,0.199l-0.029,0.178l-0.028,0.157l-0.025,0.137l-0.022,0.116l-0.032,0.158l-0.328,1.508l-2.902,-0.631l0.323,-1.489l0.025,-0.121l0.017,-0.089l0.021,-0.112l0.023,-0.133l0.025,-0.153l0.027,-0.173l0.029,-0.191l0.029,-0.21l0.029,-0.227l0.029,-0.245l0.029,-0.264l0.014,-0.135l0.013,-0.142l0.013,-0.145l0.013,-0.148l0.012,-0.153l0.011,-0.156l0.011,-0.16l0.01,-0.164l0.01,-0.167l0.009,-0.171l0.007,-0.174l0.007,-0.177l0.006,-0.181l0.005,-0.184l0.004,-0.187l0.002,-0.189l0.002,-0.193l0,-0.196l-0.002,-0.199l-0.002,-0.202l-0.004,-0.204l-0.006,-0.207l-0.007,-0.209l-0.009,-0.213l-0.01,-0.214l-0.012,-0.217l-0.014,-0.219l-0.016,-0.221l-0.017,-0.224l-0.02,-0.226l-0.021,-0.228l-0.024,-0.229l-0.026,-0.232l-0.028,-0.234l-0.03,-0.235l-0.032,-0.237l-0.035,-0.239l-0.037,-0.24l-0.04,-0.242l-0.042,-0.243l-0.044,-0.245l-0.048,-0.246l-0.05,-0.247l-0.052,-0.249l-0.056,-0.249l-0.058,-0.251l-0.061,-0.252l-0.064,-0.252l-0.067,-0.254l-0.07,-0.254l-0.074,-0.257l-0.037,-0.126l-0.039,-0.128l-0.039,-0.128l-0.04,-0.128l-0.041,-0.129l-0.042,-0.128l-0.043,-0.129l-0.043,-0.129l-0.045,-0.129l-0.045,-0.129l-0.046,-0.129l-0.047,-0.129l-0.047,-0.129l-0.049,-0.13l-0.05,-0.129l-0.05,-0.13l-0.051,-0.129l-0.053,-0.13l-0.053,-0.129l-0.054,-0.13l-0.055,-0.13l-0.056,-0.129l-0.057,-0.13l-0.057,-0.13l-0.059,-0.129l-0.06,-0.13l-0.06,-0.13l-0.062,-0.129l-0.063,-0.13l-0.063,-0.129l-0.065,-0.13l-0.066,-0.129l-0.066,-0.13l-0.068,-0.129l-0.068,-0.129l-0.07,-0.129l-0.071,-0.129l-0.072,-0.129l-0.072,-0.129l-0.074,-0.129l-0.075,-0.128l-0.076,-0.129l-0.077,-0.128l-0.079,-0.128l-0.079,-0.128l-0.08,-0.128l-0.082,-0.128l-0.082,-0.127l-0.084,-0.128l-0.085,-0.127l-0.086,-0.127l-0.087,-0.127l-0.088,-0.126l-0.09,-0.127l-0.091,-0.126l-0.092,-0.126l-0.093,-0.126l-0.094,-0.125l-0.095,-0.125l-0.097,-0.125l-0.098,-0.125l-0.099,-0.125l-0.1,-0.124l-0.102,-0.124l-0.102,-0.123l-0.105,-0.124l-0.105,-0.123l-0.107,-0.123l-0.107,-0.122l-0.11,-0.122l-0.11,-0.122l-0.112,-0.121l-0.113,-0.122l-0.115,-0.121l-0.115,-0.12l-0.117,-0.12l-0.119,-0.12l-0.12,-0.119l-0.121,-0.119l-0.123,-0.119l-0.123,-0.118l-0.126,-0.118l-0.127,-0.117l-0.128,-0.117l-0.129,-0.117l-0.131,-0.116l-0.133,-0.116l-0.134,-0.115l-0.135,-0.115l-0.137,-0.114l-0.138,-0.114l-0.14,-0.114l-0.142,-0.113l-0.142,-0.112l-0.145,-0.112l-0.145,-0.112l-0.148,-0.111l-0.147,-0.109l-0.145,-0.105l-0.142,-0.101l-0.143,-0.098l-0.142,-0.095l-0.142,-0.093l-0.142,-0.089l-0.142,-0.087l-0.142,-0.084l-0.141,-0.082l-0.141,-0.079l-0.141,-0.076l-0.141,-0.074l-0.141,-0.071l-0.141,-0.068l-0.14,-0.067l-0.141,-0.063l-0.14,-0.062l-0.14,-0.059l-0.141,-0.056l-0.14,-0.055l-0.14,-0.052l-0.14,-0.05l-0.14,-0.047l-0.14,-0.046l-0.14,-0.043l-0.14,-0.041l-0.14,-0.039l-0.14,-0.037l-0.14,-0.035l-0.14,-0.033l-0.141,-0.031l-0.14,-0.028l-0.141,-0.027l-0.14,-0.025l-0.141,-0.024l-0.141,-0.021l-0.141,-0.019l-0.142,-0.018l-0.141,-0.015l-0.142,-0.014l-0.142,-0.012l-0.142,-0.01l-0.142,-0.009l-0.143,-0.007l-0.142,-0.005l-0.143,-0.003l-0.144,-0.002l-0.143,0l-0.144,0.002l-0.144,0.003l-0.144,0.005l-0.145,0.006l-0.145,0.008l-0.145,0.01l-0.145,0.011l-0.146,0.013l-0.146,0.014l-0.146,0.016l-0.147,0.017l-0.147,0.019l-0.147,0.02l-0.147,0.022l-0.148,0.023l-0.148,0.024l-0.148,0.026l-0.149,0.027l-0.148,0.028l-0.15,0.03l-0.149,0.031l-0.149,0.033l-0.15,0.033l-0.15,0.035l-0.151,0.036l-0.15,0.037l-0.151,0.039l-0.151,0.04l-0.152,0.04l-0.151,0.042l-0.152,0.043l-0.152,0.044l-0.153,0.046l-0.152,0.046l-0.153,0.047l-0.153,0.048l-0.153,0.049l-0.153,0.051l-0.154,0.051l-0.154,0.052l-0.154,0.052l-0.152,0.054l-0.311,0.11l-0.309,0.113l-0.31,0.116l-0.311,0.119l-0.312,0.122l-0.312,0.124l-0.313,0.126l-0.313,0.128l-0.314,0.13l-0.314,0.132l-0.315,0.133l-0.316,0.134l-0.315,0.136l-0.634,0.273l-0.635,0.276l-0.636,0.275l-0.637,0.274l-0.32,0.137l-0.32,0.135l-0.321,0.134l-0.32,0.133l-0.322,0.131l-0.321,0.129l-0.322,0.128l-0.323,0.125l-0.323,0.123l-0.323,0.12l-0.322,0.117l-0.164,0.059l-0.162,0.056l-0.163,0.056l-0.162,0.056l-0.163,0.054l-0.162,0.053l-0.163,0.053l-0.163,0.052l-0.163,0.05l-0.164,0.05l-0.163,0.048l-0.164,0.048l-0.164,0.046l-0.163,0.045l-0.165,0.044l-0.164,0.043l-0.164,0.042l-0.165,0.041l-0.164,0.039l-0.165,0.038l-0.165,0.036l-0.165,0.035l-0.166,0.034l-0.165,0.033l-0.166,0.03l-0.166,0.03l-0.166,0.028l-0.166,0.026l-0.167,0.025l-0.166,0.023l-0.167,0.021l-0.167,0.02l-0.167,0.018l-0.168,0.016l-0.167,0.014l-0.168,0.013l-0.167,0.01l-0.168,0.009l-0.168,0.007l-0.169,0.005l-0.168,0.002l-0.169,0.001l-0.168,-0.001l-0.169,-0.004l-0.169,-0.005l-0.169,-0.008l-0.169,-0.01l-0.169,-0.013l-0.169,-0.014l-0.169,-0.017l-0.169,-0.02l-0.17,-0.021l-0.169,-0.025l-0.169,-0.026l-0.169,-0.029l-0.169,-0.032l-0.17,-0.034l-0.169,-0.037l-0.168,-0.04l-0.169,-0.042l-0.169,-0.044l-0.168,-0.048l-0.168,-0.05l-0.168,-0.053l-0.168,-0.056l-0.168,-0.058l-0.167,-0.061l-0.167,-0.065l-0.166,-0.067l-0.167,-0.069l-0.166,-0.073l-0.165,-0.076l-0.165,-0.078l-0.165,-0.082l-0.165,-0.084l-0.163,-0.087l-0.164,-0.091l-0.163,-0.093l-0.162,-0.096l-0.162,-0.099l-0.162,-0.103l-0.161,-0.105l-0.16,-0.108l-0.16,-0.112l-0.159,-0.114l-0.159,-0.118l-0.158,-0.12l-0.158,-0.124l-0.157,-0.127l-0.156,-0.13l-0.156,-0.133l-0.156,-0.136l-0.154,-0.139l-0.155,-0.143l-0.153,-0.145l-0.153,-0.149l-0.153,-0.152l-0.152,-0.155l-0.151,-0.159l-0.151,-0.161l-0.15,-0.165l-0.15,-0.169l-0.149,-0.172l-0.146,-0.173l-0.142,-0.174l-0.138,-0.173l-0.133,-0.174l-0.13,-0.175l-0.125,-0.172l-0.063,-0.09l-0.061,-0.087l-0.06,-0.088l-0.058,-0.088l-0.058,-0.088l-0.057,-0.088l-0.056,-0.087l-0.055,-0.089l-0.054,-0.088l-0.052,-0.088l-0.053,-0.088l-0.051,-0.089l-0.05,-0.089l-0.049,-0.088l-0.048,-0.089l-0.047,-0.089l-0.046,-0.089l-0.046,-0.089l-0.044,-0.089l-0.043,-0.089l-0.043,-0.089l-0.041,-0.089l-0.041,-0.09l-0.04,-0.089l-0.038,-0.09l-0.038,-0.089l-0.037,-0.09l-0.036,-0.089l-0.034,-0.09l-0.034,-0.09l-0.033,-0.09l-0.032,-0.09l-0.031,-0.09l-0.031,-0.09l-0.029,-0.09l-0.028,-0.09l-0.027,-0.09l-0.027,-0.09l-0.025,-0.091l-0.025,-0.09l-0.023,-0.09l-0.023,-0.09l-0.022,-0.09l-0.021,-0.091l-0.02,-0.09l-0.019,-0.09l-0.018,-0.091l-0.018,-0.093l-0.031,-0.177l-0.028,-0.181l-0.024,-0.18l-0.021,-0.18l-0.018,-0.18l-0.014,-0.179l-0.01,-0.18l-0.007,-0.179l-0.004,-0.179l0,-0.178l0.002,-0.178l0.006,-0.178l0.01,-0.177l0.012,-0.177l0.016,-0.176l0.018,-0.175l0.022,-0.176l0.024,-0.174l0.027,-0.174l0.03,-0.174l0.033,-0.173l0.036,-0.172l0.038,-0.172l0.041,-0.171l0.044,-0.171l0.046,-0.17l0.048,-0.17l0.051,-0.168l0.054,-0.169l0.055,-0.167l0.058,-0.167l0.061,-0.167l0.062,-0.166l0.065,-0.165l0.066,-0.165l0.069,-0.164l0.071,-0.164l0.072,-0.163l0.075,-0.163l0.076,-0.162l0.079,-0.162l0.08,-0.161l0.082,-0.161l0.084,-0.16l0.085,-0.159l0.087,-0.16l0.089,-0.158l0.09,-0.159l0.092,-0.158l0.093,-0.157l0.095,-0.157l0.096,-0.157l0.098,-0.156l0.099,-0.156l0.1,-0.156l0.102,-0.155l0.103,-0.155l0.104,-0.155l0.105,-0.154l0.107,-0.154l0.107,-0.153l0.109,-0.153l0.11,-0.153l0.111,-0.153l0.112,-0.152l0.113,-0.152l0.114,-0.152l0.115,-0.152l0.116,-0.151l0.117,-0.151l0.118,-0.152l0.237,-0.3l0.24,-0.3l0.244,-0.299l0.245,-0.298l0.248,-0.297l0.251,-0.297l0.252,-0.296l0.253,-0.295l0.255,-0.295l0.256,-0.294l0.257,-0.294l0.515,-0.584l0.515,-0.582l0.515,-0.58l0.511,-0.579l0.253,-0.288l0.252,-0.288l0.251,-0.287l0.248,-0.287l0.246,-0.287l0.243,-0.285l0.241,-0.286l0.238,-0.284l0.234,-0.284l0.231,-0.284l0.227,-0.283l0.224,-0.284l0.109,-0.14l0.109,-0.14l0.108,-0.141l0.106,-0.141l0.106,-0.14l0.104,-0.14l0.103,-0.14l0.102,-0.14l0.1,-0.139l0.099,-0.14l0.098,-0.139l0.097,-0.139l0.095,-0.139l0.093,-0.138l0.092,-0.139l0.091,-0.138l0.089,-0.138l0.088,-0.137l0.085,-0.138l0.085,-0.137l0.082,-0.137l0.082,-0.136l0.079,-0.137l0.078,-0.136l0.076,-0.136l0.074,-0.135l0.072,-0.135l0.071,-0.135l0.069,-0.135l0.067,-0.134l0.065,-0.134l0.063,-0.133l0.061,-0.134l0.059,-0.132l0.058,-0.133l0.055,-0.132l0.054,-0.132l0.051,-0.131l0.05,-0.131l0.047,-0.131l0.045,-0.13l0.044,-0.13l0.041,-0.129l0.039,-0.129l0.037,-0.129l0.035,-0.128l0.033,-0.128l0.031,-0.128l0.028,-0.127l0.027,-0.127l0.024,-0.126l0.022,-0.126l0.02,-0.126l0.018,-0.125l0.015,-0.125l0.014,-0.125l0.011,-0.124l0.009,-0.125l0.006,-0.124l0.005,-0.124l0.002,-0.123l0,-0.124l-0.003,-0.123l-0.004,-0.124l-0.007,-0.123l-0.01,-0.123l-0.011,-0.123l-0.015,-0.124l-0.016,-0.123l-0.019,-0.124l-0.022,-0.127l-0.011,-0.059l-0.013,-0.062l-0.013,-0.062l-0.013,-0.062l-0.014,-0.062l-0.015,-0.063l-0.016,-0.062l-0.016,-0.062l-0.017,-0.063l-0.017,-0.063l-0.019,-0.062l-0.019,-0.063l-0.019,-0.063l-0.021,-0.063l-0.021,-0.063l-0.021,-0.064l-0.023,-0.063l-0.023,-0.064l-0.024,-0.063l-0.025,-0.064l-0.025,-0.064l-0.026,-0.064l-0.027,-0.065l-0.028,-0.064l-0.028,-0.064l-0.029,-0.065l-0.03,-0.065l-0.031,-0.065l-0.032,-0.065l-0.032,-0.065l-0.033,-0.066l-0.034,-0.065l-0.035,-0.066l-0.036,-0.066l-0.036,-0.066l-0.038,-0.066l-0.038,-0.067l-0.039,-0.066l-0.04,-0.067l-0.04,-0.067l-0.042,-0.067l-0.042,-0.066l-0.09,-0.14l-0.092,-0.137l-0.092,-0.136l-0.095,-0.134l-0.096,-0.133l-0.098,-0.132l-0.099,-0.13l-0.101,-0.129l-0.102,-0.128l-0.104,-0.126l-0.105,-0.125l-0.107,-0.124l-0.109,-0.123l-0.11,-0.121l-0.111,-0.12l-0.113,-0.119l-0.115,-0.118l-0.116,-0.116l-0.117,-0.115l-0.119,-0.114l-0.12,-0.113l-0.122,-0.112l-0.123,-0.11l-0.125,-0.109l-0.126,-0.108l-0.127,-0.107l-0.129,-0.106l-0.13,-0.104l-0.131,-0.104l-0.133,-0.102l-0.134,-0.101l-0.136,-0.1l-0.136,-0.099l-0.138,-0.098l-0.14,-0.096l-0.14,-0.096l-0.142,-0.094l-0.143,-0.093l-0.145,-0.092l-0.145,-0.091l-0.147,-0.09l-0.148,-0.089l-0.149,-0.088l-0.15,-0.087l-0.151,-0.085l-0.153,-0.085l-0.153,-0.083l-0.155,-0.083l-0.155,-0.081l-0.157,-0.08l-0.158,-0.079l-0.159,-0.079l-0.16,-0.077l-0.161,-0.076l-0.161,-0.075l-0.163,-0.074l-0.164,-0.073l-0.164,-0.071l-0.166,-0.071l-0.166,-0.07l-0.168,-0.069l-0.168,-0.068l-0.169,-0.067l-0.17,-0.066l-0.17,-0.065l-0.172,-0.063l-0.172,-0.063l-0.173,-0.062l-0.174,-0.061l-0.174,-0.06l-0.175,-0.059l-0.176,-0.058l-0.177,-0.057l-0.177,-0.056l-0.177,-0.055l-0.179,-0.055l-0.179,-0.053l-0.179,-0.052l-0.18,-0.052l-0.181,-0.05l-0.181,-0.05l-0.182,-0.049l-0.182,-0.048l-0.183,-0.047l-0.183,-0.046l-0.183,-0.045l-0.184,-0.044l-0.184,-0.044l-0.185,-0.042l-0.185,-0.042l-0.185,-0.041l-0.186,-0.04l-0.186,-0.039l-0.187,-0.039l-0.186,-0.037l-0.187,-0.037l-0.187,-0.036l-0.187,-0.035l-0.188,-0.034l-0.188,-0.034l-0.187,-0.032l-0.188,-0.032l-0.188,-0.032l-0.189,-0.03l-0.188,-0.03l-0.188,-0.029l-0.189,-0.028l-0.187,-0.027l-0.378,-0.053l-0.377,-0.05l-0.377,-0.047l-0.376,-0.044l-0.376,-0.042l-0.375,-0.038l-0.375,-0.037l-0.373,-0.034l-0.373,-0.031l-0.371,-0.029l-0.37,-0.026l-0.368,-0.025l-0.367,-0.022l-0.365,-0.019l-0.363,-0.018l-0.361,-0.016l-0.359,-0.013l-0.356,-0.012l-0.354,-0.01l-0.351,-0.008l-0.349,-0.006l-0.345,-0.004l-0.343,-0.003l-0.339,-0.001l-0.337,0l-0.332,0.002l-0.329,0.003l-0.325,0.004l-0.322,0.006l-0.317,0.007l-0.313,0.008l-0.309,0.01l-0.304,0.01l-0.3,0.011l-0.295,0.013l-0.29,0.013l-0.285,0.014l-0.28,0.014l-0.275,0.016l-0.269,0.015l-0.264,0.017l-0.258,0.017l-0.252,0.017l-0.246,0.018l-0.24,0.018l-0.233,0.019l-0.449,0.037l-0.422,0.037l-0.393,0.038l-0.365,0.036l-0.335,0.036l-0.303,0.033l-0.271,0.032l-0.238,0.028l-0.204,0.026l-0.166,0.022l-0.228,0.031l-1.545,0.222l-0.423,-2.94l1.556,-0.224l0.248,-0.033l0.182,-0.024l0.217,-0.027l0.252,-0.031l0.286,-0.033l0.318,-0.035l0.35,-0.037l0.381,-0.038l0.41,-0.039l0.438,-0.039l0.465,-0.039l0.244,-0.019l0.249,-0.019l0.256,-0.018l0.261,-0.018l0.268,-0.018l0.273,-0.017l0.28,-0.016l0.285,-0.016l0.29,-0.016l0.296,-0.014l0.3,-0.014l0.306,-0.012l0.311,-0.012l0.316,-0.011l0.32,-0.009l0.325,-0.009l0.33,-0.007l0.333,-0.006l0.338,-0.005l0.342,-0.003l0.345,-0.002l0.35,0l0.353,0.001Z" style="fill:#46aeda;"/></g></svg>