<?xml version="1.0" standalone="no"?><!DOCTYPE svg PUBLIC "-//W3C//DTD SVG 1.1//EN" "http://www.w3.org/Graphics/SVG/1.1/DTD/svg11.dtd"><svg width="319px" height="181px" version="1.1" xmlns="http://www.w3.org/2000/svg" xmlns:xlink="http://www.w3.org/1999/xlink" xml:space="preserve" style="fill-rule:evenodd;clip-rule:evenodd;stroke-linejoin:round;stroke-miterlimit:1.41421;"><ellipse cx="159.236" cy="58.236" rx="52.381" ry="51.925" style="fill:#0e1823;"/><g id="illus-index"><g id="Icons/Search-+-illus-header"><path id="illus-header-bg" d="M316.959,155.479c0,-12.676 -10.291,-22.968 -22.967,-22.968l-268.984,0c-12.676,0 -22.967,10.292 -22.967,22.968c0,12.676 10.291,22.967 22.967,22.967l268.984,0c12.676,0 22.967,-10.291 22.967,-22.967Z" style="fill:#0e1823;"/><path d="M294.15,131.048l0.157,0.002l0.157,0.002l0.157,0.004l0.157,0.004l0.157,0.006l0.156,0.006l0.156,0.008l0.156,0.008l0.156,0.009l0.155,0.011l0.155,0.011l0.155,0.012l0.154,0.014l0.155,0.014l0.154,0.015l0.154,0.016l0.153,0.017l0.153,0.018l0.153,0.019l0.153,0.02l0.152,0.021l0.152,0.022l0.152,0.022l0.151,0.024l0.151,0.025l0.151,0.025l0.151,0.027l0.15,0.027l0.15,0.028l0.15,0.029l0.149,0.031l0.149,0.031l0.148,0.031l0.149,0.033l0.148,0.034l0.147,0.035l0.147,0.035l0.147,0.036l0.147,0.038l0.146,0.038l0.146,0.039l0.146,0.04l0.145,0.04l0.144,0.042l0.145,0.043l0.144,0.043l0.143,0.044l0.144,0.045l0.143,0.046l0.142,0.047l0.142,0.048l0.142,0.048l0.141,0.05l0.141,0.05l0.141,0.051l0.14,0.052l0.14,0.052l0.139,0.054l0.139,0.054l0.139,0.055l0.138,0.056l0.138,0.057l0.137,0.058l0.136,0.058l0.137,0.059l0.136,0.06l0.135,0.061l0.135,0.062l0.135,0.062l0.134,0.063l0.134,0.064l0.133,0.065l0.133,0.066l0.133,0.066l0.132,0.067l0.131,0.068l0.131,0.069l0.131,0.069l0.13,0.07l0.129,0.071l0.129,0.072l0.129,0.072l0.128,0.073l0.128,0.074l0.127,0.075l0.127,0.076l0.126,0.076l0.126,0.077l0.125,0.077l0.124,0.079l0.124,0.079l0.124,0.08l0.123,0.08l0.123,0.081l0.122,0.082l0.122,0.083l0.121,0.084l0.12,0.084l0.12,0.084l0.12,0.086l0.118,0.086l0.119,0.087l0.118,0.088l0.117,0.088l0.117,0.089l0.116,0.09l0.116,0.09l0.115,0.091l0.114,0.092l0.114,0.092l0.113,0.093l0.113,0.094l0.112,0.094l0.112,0.095l0.111,0.096l0.111,0.096l0.11,0.097l0.109,0.098l0.109,0.098l0.108,0.099l0.107,0.099l0.107,0.1l0.107,0.101l0.105,0.102l0.106,0.102l0.104,0.102l0.104,0.104l0.103,0.104l0.103,0.104l0.102,0.105l0.101,0.106l0.101,0.106l0.1,0.107l0.1,0.108l0.099,0.108l0.098,0.109l0.098,0.109l0.097,0.11l0.096,0.11l0.096,0.112l0.095,0.111l0.094,0.112l0.094,0.113l0.093,0.114l0.092,0.114l0.092,0.114l0.091,0.115l0.09,0.116l0.09,0.116l0.089,0.117l0.088,0.117l0.088,0.118l0.086,0.118l0.087,0.119l0.085,0.12l0.085,0.12l0.084,0.12l0.084,0.121l0.082,0.122l0.082,0.122l0.082,0.123l0.08,0.123l0.08,0.123l0.079,0.124l0.078,0.125l0.078,0.125l0.077,0.126l0.076,0.126l0.076,0.127l0.074,0.127l0.074,0.127l0.073,0.129l0.073,0.128l0.072,0.129l0.071,0.13l0.07,0.13l0.069,0.131l0.069,0.131l0.068,0.131l0.067,0.132l0.066,0.132l0.066,0.133l0.064,0.133l0.064,0.134l0.064,0.135l0.062,0.134l0.062,0.135l0.06,0.136l0.06,0.136l0.06,0.136l0.058,0.137l0.058,0.137l0.056,0.138l0.056,0.138l0.056,0.139l0.054,0.138l0.053,0.14l0.053,0.14l0.052,0.14l0.051,0.14l0.05,0.141l0.049,0.141l0.049,0.142l0.048,0.143l0.046,0.142l0.046,0.143l0.045,0.143l0.045,0.144l0.043,0.144l0.043,0.144l0.041,0.145l0.041,0.145l0.04,0.146l0.039,0.146l0.038,0.146l0.037,0.146l0.037,0.147l0.035,0.147l0.035,0.148l0.033,0.148l0.033,0.148l0.032,0.149l0.031,0.149l0.03,0.149l0.029,0.15l0.029,0.15l0.027,0.15l0.026,0.15l0.026,0.151l0.025,0.151l0.023,0.152l0.023,0.152l0.022,0.152l0.021,0.152l0.02,0.153l0.018,0.152l0.019,0.154l0.017,0.153l0.016,0.154l0.015,0.154l0.014,0.154l0.013,0.155l0.013,0.155l0.011,0.155l0.01,0.155l0.01,0.156l0.008,0.155l0.008,0.157l0.006,0.156l0.005,0.156l0.005,0.157l0.003,0.157l0.003,0.158l0.001,0.157l0.001,0.158l-0.001,0.158l-0.001,0.157l-0.003,0.157l-0.003,0.157l-0.005,0.157l-0.005,0.157l-0.006,0.156l-0.008,0.156l-0.008,0.156l-0.01,0.156l-0.01,0.155l-0.011,0.155l-0.013,0.155l-0.013,0.155l-0.014,0.154l-0.015,0.154l-0.016,0.153l-0.017,0.154l-0.019,0.153l-0.018,0.153l-0.02,0.153l-0.021,0.152l-0.022,0.152l-0.023,0.152l-0.023,0.151l-0.025,0.152l-0.026,0.15l-0.026,0.151l-0.027,0.15l-0.029,0.15l-0.029,0.15l-0.03,0.149l-0.031,0.149l-0.032,0.148l-0.033,0.149l-0.033,0.148l-0.035,0.147l-0.035,0.147l-0.037,0.147l-0.037,0.147l-0.038,0.146l-0.039,0.146l-0.04,0.146l-0.041,0.145l-0.041,0.145l-0.043,0.144l-0.043,0.144l-0.045,0.143l-0.045,0.144l-0.046,0.143l-0.046,0.142l-0.048,0.142l-0.049,0.142l-0.049,0.142l-0.05,0.141l-0.051,0.14l-0.052,0.14l-0.053,0.14l-0.053,0.139l-0.054,0.139l-0.056,0.139l-0.056,0.138l-0.056,0.138l-0.058,0.137l-0.058,0.137l-0.06,0.136l-0.06,0.136l-0.06,0.136l-0.062,0.135l-0.062,0.134l-0.064,0.134l-0.064,0.134l-0.064,0.134l-0.066,0.132l-0.066,0.133l-0.067,0.132l-0.068,0.131l-0.069,0.131l-0.069,0.131l-0.07,0.13l-0.071,0.129l-0.072,0.129l-0.073,0.129l-0.073,0.128l-0.074,0.128l-0.074,0.127l-0.076,0.127l-0.076,0.126l-0.077,0.125l-0.078,0.126l-0.078,0.124l-0.079,0.125l-0.08,0.123l-0.08,0.123l-0.082,0.123l-0.082,0.122l-0.082,0.122l-0.084,0.121l-0.084,0.12l-0.085,0.12l-0.085,0.12l-0.087,0.119l-0.086,0.118l-0.088,0.118l-0.088,0.117l-0.089,0.117l-0.09,0.116l-0.09,0.116l-0.091,0.115l-0.092,0.114l-0.092,0.114l-0.093,0.113l-0.094,0.113l-0.094,0.113l-0.095,0.111l-0.096,0.111l-0.096,0.111l-0.097,0.11l-0.098,0.109l-0.098,0.109l-0.099,0.108l-0.1,0.108l-0.1,0.106l-0.101,0.107l-0.101,0.106l-0.102,0.105l-0.103,0.104l-0.103,0.104l-0.104,0.103l-0.104,0.103l-0.105,0.102l-0.106,0.102l-0.107,0.1l-0.107,0.101l-0.107,0.099l-0.108,0.099l-0.109,0.098l-0.109,0.098l-0.11,0.097l-0.111,0.096l-0.111,0.096l-0.112,0.095l-0.112,0.094l-0.113,0.094l-0.113,0.093l-0.114,0.092l-0.114,0.092l-0.115,0.091l-0.116,0.09l-0.116,0.09l-0.117,0.089l-0.117,0.088l-0.118,0.088l-0.119,0.087l-0.118,0.086l-0.12,0.085l-0.12,0.085l-0.12,0.084l-0.121,0.084l-0.122,0.082l-0.122,0.082l-0.123,0.082l-0.123,0.08l-0.124,0.08l-0.124,0.079l-0.124,0.078l-0.125,0.078l-0.126,0.077l-0.126,0.076l-0.127,0.076l-0.127,0.074l-0.128,0.074l-0.128,0.073l-0.129,0.073l-0.129,0.072l-0.129,0.071l-0.13,0.07l-0.131,0.069l-0.131,0.069l-0.131,0.068l-0.132,0.067l-0.133,0.066l-0.133,0.066l-0.133,0.064l-0.134,0.064l-0.134,0.064l-0.134,0.062l-0.136,0.062l-0.135,0.06l-0.136,0.061l-0.137,0.059l-0.136,0.058l-0.137,0.058l-0.138,0.057l-0.138,0.056l-0.139,0.055l-0.139,0.054l-0.139,0.053l-0.14,0.053l-0.14,0.052l-0.141,0.051l-0.141,0.05l-0.141,0.05l-0.142,0.048l-0.142,0.048l-0.142,0.046l-0.143,0.046l-0.143,0.046l-0.144,0.044l-0.144,0.043l-0.145,0.043l-0.144,0.041l-0.146,0.041l-0.145,0.04l-0.146,0.039l-0.146,0.038l-0.147,0.037l-0.147,0.037l-0.147,0.035l-0.147,0.035l-0.148,0.034l-0.149,0.032l-0.148,0.032l-0.149,0.031l-0.149,0.03l-0.15,0.03l-0.15,0.028l-0.15,0.027l-0.151,0.027l-0.151,0.025l-0.151,0.025l-0.151,0.023l-0.152,0.023l-0.152,0.022l-0.152,0.021l-0.153,0.02l-0.153,0.019l-0.153,0.018l-0.153,0.017l-0.154,0.016l-0.154,0.015l-0.155,0.014l-0.154,0.013l-0.155,0.013l-0.155,0.011l-0.155,0.01l-0.156,0.01l-0.156,0.008l-0.156,0.008l-0.156,0.006l-0.157,0.006l-0.157,0.004l-0.157,0.004l-0.157,0.002l-0.157,0.001l-0.156,0.001l-268.988,0l-0.156,-0.001l-0.157,-0.001l-0.157,-0.002l-0.157,-0.004l-0.157,-0.004l-0.157,-0.006l-0.156,-0.006l-0.156,-0.008l-0.156,-0.008l-0.156,-0.01l-0.155,-0.01l-0.155,-0.011l-0.155,-0.013l-0.154,-0.013l-0.155,-0.014l-0.154,-0.015l-0.154,-0.016l-0.153,-0.017l-0.153,-0.018l-0.153,-0.019l-0.153,-0.02l-0.152,-0.021l-0.152,-0.022l-0.152,-0.023l-0.151,-0.023l-0.151,-0.025l-0.151,-0.025l-0.151,-0.027l-0.15,-0.027l-0.15,-0.028l-0.15,-0.03l-0.149,-0.03l-0.149,-0.031l-0.148,-0.032l-0.149,-0.032l-0.148,-0.034l-0.147,-0.035l-0.147,-0.035l-0.147,-0.037l-0.147,-0.037l-0.146,-0.038l-0.146,-0.039l-0.145,-0.04l-0.146,-0.041l-0.144,-0.041l-0.145,-0.043l-0.144,-0.043l-0.144,-0.044l-0.143,-0.046l-0.143,-0.046l-0.142,-0.046l-0.142,-0.048l-0.142,-0.048l-0.141,-0.05l-0.141,-0.05l-0.141,-0.051l-0.14,-0.052l-0.14,-0.053l-0.139,-0.053l-0.139,-0.054l-0.139,-0.056l-0.138,-0.055l-0.137,-0.057l-0.138,-0.058l-0.136,-0.058l-0.137,-0.059l-0.136,-0.061l-0.135,-0.06l-0.136,-0.062l-0.134,-0.062l-0.134,-0.064l-0.134,-0.064l-0.133,-0.064l-0.133,-0.066l-0.133,-0.066l-0.132,-0.067l-0.131,-0.068l-0.131,-0.069l-0.131,-0.069l-0.13,-0.07l-0.129,-0.071l-0.129,-0.072l-0.129,-0.073l-0.128,-0.073l-0.128,-0.074l-0.127,-0.074l-0.127,-0.076l-0.126,-0.076l-0.125,-0.077l-0.126,-0.078l-0.124,-0.078l-0.125,-0.079l-0.123,-0.08l-0.123,-0.08l-0.123,-0.082l-0.122,-0.082l-0.122,-0.082l-0.121,-0.084l-0.12,-0.084l-0.12,-0.085l-0.12,-0.085l-0.118,-0.086l-0.119,-0.087l-0.118,-0.088l-0.117,-0.088l-0.117,-0.089l-0.116,-0.09l-0.116,-0.09l-0.115,-0.091l-0.114,-0.092l-0.114,-0.092l-0.113,-0.093l-0.113,-0.094l-0.113,-0.094l-0.111,-0.095l-0.111,-0.096l-0.111,-0.096l-0.11,-0.097l-0.109,-0.098l-0.109,-0.098l-0.108,-0.099l-0.107,-0.1l-0.107,-0.1l-0.107,-0.1l-0.105,-0.102l-0.106,-0.102l-0.104,-0.103l-0.104,-0.103l-0.103,-0.104l-0.103,-0.104l-0.102,-0.105l-0.101,-0.106l-0.101,-0.107l-0.1,-0.106l-0.1,-0.108l-0.099,-0.108l-0.098,-0.109l-0.098,-0.109l-0.097,-0.11l-0.096,-0.111l-0.096,-0.111l-0.095,-0.111l-0.094,-0.113l-0.094,-0.113l-0.093,-0.113l-0.092,-0.114l-0.092,-0.114l-0.091,-0.115l-0.09,-0.116l-0.09,-0.116l-0.089,-0.117l-0.088,-0.117l-0.088,-0.118l-0.086,-0.118l-0.087,-0.119l-0.085,-0.12l-0.085,-0.12l-0.084,-0.12l-0.084,-0.121l-0.082,-0.122l-0.082,-0.122l-0.081,-0.123l-0.081,-0.123l-0.08,-0.123l-0.079,-0.125l-0.078,-0.124l-0.078,-0.125l-0.077,-0.126l-0.076,-0.126l-0.076,-0.127l-0.074,-0.127l-0.074,-0.128l-0.073,-0.128l-0.073,-0.129l-0.072,-0.129l-0.07,-0.129l-0.071,-0.13l-0.069,-0.131l-0.069,-0.131l-0.068,-0.131l-0.067,-0.132l-0.066,-0.133l-0.066,-0.132l-0.064,-0.134l-0.064,-0.134l-0.064,-0.134l-0.062,-0.134l-0.062,-0.135l-0.06,-0.136l-0.06,-0.136l-0.06,-0.136l-0.058,-0.137l-0.058,-0.137l-0.056,-0.138l-0.056,-0.138l-0.056,-0.139l-0.054,-0.139l-0.053,-0.139l-0.053,-0.14l-0.052,-0.14l-0.051,-0.141l-0.05,-0.14l-0.049,-0.142l-0.049,-0.142l-0.048,-0.142l-0.046,-0.142l-0.046,-0.143l-0.045,-0.143l-0.045,-0.144l-0.043,-0.144l-0.043,-0.144l-0.041,-0.145l-0.041,-0.145l-0.04,-0.146l-0.039,-0.146l-0.038,-0.146l-0.037,-0.147l-0.037,-0.146l-0.035,-0.148l-0.035,-0.147l-0.033,-0.148l-0.033,-0.149l-0.032,-0.148l-0.031,-0.149l-0.03,-0.149l-0.029,-0.15l-0.029,-0.15l-0.027,-0.15l-0.026,-0.151l-0.026,-0.15l-0.025,-0.152l-0.023,-0.151l-0.023,-0.152l-0.022,-0.152l-0.021,-0.152l-0.02,-0.153l-0.019,-0.153l-0.018,-0.153l-0.017,-0.153l-0.016,-0.154l-0.015,-0.154l-0.014,-0.154l-0.013,-0.155l-0.013,-0.155l-0.011,-0.155l-0.01,-0.155l-0.01,-0.156l-0.008,-0.156l-0.008,-0.156l-0.006,-0.156l-0.005,-0.157l-0.005,-0.157l-0.003,-0.157l-0.003,-0.157l-0.001,-0.157l-0.001,-0.158l0.001,-0.158l0.001,-0.157l0.003,-0.158l0.003,-0.157l0.005,-0.156l0.005,-0.157l0.006,-0.156l0.008,-0.156l0.008,-0.156l0.01,-0.156l0.01,-0.155l0.011,-0.155l0.013,-0.155l0.013,-0.155l0.014,-0.154l0.015,-0.154l0.016,-0.154l0.017,-0.153l0.018,-0.154l0.019,-0.152l0.02,-0.153l0.021,-0.152l0.022,-0.152l0.023,-0.152l0.023,-0.152l0.025,-0.151l0.026,-0.151l0.026,-0.15l0.027,-0.15l0.029,-0.15l0.029,-0.15l0.03,-0.149l0.031,-0.149l0.032,-0.149l0.033,-0.148l0.033,-0.148l0.035,-0.148l0.035,-0.147l0.037,-0.147l0.037,-0.146l0.038,-0.146l0.039,-0.146l0.04,-0.146l0.041,-0.145l0.041,-0.145l0.043,-0.144l0.043,-0.144l0.045,-0.144l0.045,-0.143l0.046,-0.143l0.046,-0.143l0.048,-0.142l0.049,-0.141l0.049,-0.142l0.05,-0.141l0.051,-0.14l0.052,-0.14l0.053,-0.14l0.053,-0.14l0.054,-0.138l0.056,-0.139l0.056,-0.138l0.056,-0.138l0.058,-0.137l0.058,-0.137l0.06,-0.136l0.06,-0.136l0.06,-0.136l0.062,-0.135l0.062,-0.134l0.064,-0.135l0.064,-0.133l0.064,-0.134l0.066,-0.133l0.066,-0.132l0.067,-0.132l0.068,-0.131l0.069,-0.131l0.069,-0.131l0.071,-0.13l0.07,-0.13l0.072,-0.129l0.073,-0.128l0.073,-0.128l0.074,-0.128l0.074,-0.127l0.076,-0.127l0.076,-0.126l0.077,-0.126l0.078,-0.125l0.078,-0.125l0.079,-0.124l0.08,-0.123l0.081,-0.124l0.081,-0.122l0.082,-0.122l0.082,-0.122l0.084,-0.121l0.084,-0.12l0.085,-0.12l0.085,-0.12l0.087,-0.119l0.086,-0.118l0.088,-0.118l0.088,-0.117l0.089,-0.117l0.09,-0.116l0.09,-0.116l0.091,-0.115l0.092,-0.114l0.092,-0.114l0.093,-0.114l0.094,-0.113l0.094,-0.112l0.095,-0.111l0.096,-0.112l0.096,-0.11l0.097,-0.11l0.098,-0.109l0.098,-0.109l0.099,-0.108l0.1,-0.108l0.1,-0.107l0.101,-0.106l0.101,-0.106l0.102,-0.105l0.103,-0.104l0.103,-0.104l0.104,-0.104l0.104,-0.102l0.106,-0.102l0.105,-0.102l0.107,-0.101l0.107,-0.1l0.107,-0.099l0.108,-0.099l0.109,-0.098l0.109,-0.098l0.11,-0.097l0.111,-0.096l0.111,-0.096l0.112,-0.095l0.112,-0.094l0.113,-0.094l0.113,-0.093l0.114,-0.092l0.114,-0.092l0.115,-0.091l0.116,-0.09l0.116,-0.09l0.117,-0.089l0.117,-0.088l0.118,-0.088l0.119,-0.087l0.118,-0.086l0.12,-0.086l0.12,-0.084l0.12,-0.084l0.121,-0.084l0.122,-0.083l0.122,-0.082l0.123,-0.081l0.123,-0.08l0.124,-0.08l0.124,-0.079l0.124,-0.079l0.126,-0.077l0.125,-0.077l0.126,-0.076l0.127,-0.076l0.127,-0.075l0.128,-0.074l0.128,-0.073l0.129,-0.072l0.129,-0.072l0.129,-0.071l0.13,-0.07l0.131,-0.069l0.131,-0.069l0.131,-0.068l0.132,-0.067l0.133,-0.066l0.133,-0.066l0.133,-0.065l0.134,-0.064l0.134,-0.063l0.134,-0.062l0.136,-0.062l0.135,-0.061l0.136,-0.06l0.136,-0.059l0.137,-0.058l0.138,-0.058l0.137,-0.057l0.138,-0.056l0.139,-0.055l0.139,-0.054l0.139,-0.054l0.14,-0.052l0.14,-0.052l0.141,-0.051l0.141,-0.05l0.141,-0.05l0.142,-0.048l0.142,-0.048l0.142,-0.047l0.143,-0.046l0.143,-0.045l0.144,-0.044l0.144,-0.043l0.145,-0.043l0.144,-0.042l0.145,-0.04l0.146,-0.04l0.146,-0.039l0.146,-0.038l0.147,-0.038l0.147,-0.036l0.147,-0.035l0.147,-0.035l0.148,-0.034l0.149,-0.033l0.148,-0.031l0.149,-0.031l0.149,-0.031l0.15,-0.029l0.15,-0.028l0.15,-0.027l0.151,-0.027l0.151,-0.025l0.151,-0.025l0.151,-0.024l0.152,-0.022l0.152,-0.022l0.152,-0.021l0.153,-0.02l0.153,-0.019l0.153,-0.018l0.153,-0.017l0.154,-0.016l0.154,-0.015l0.155,-0.014l0.154,-0.014l0.155,-0.012l0.155,-0.011l0.155,-0.011l0.156,-0.009l0.156,-0.008l0.156,-0.008l0.156,-0.006l0.157,-0.006l0.157,-0.004l0.157,-0.004l0.157,-0.002l0.157,-0.002l0.156,0l268.988,0l0.156,0ZM25.011,133.975l-0.142,0.001l-0.139,0.001l-0.139,0.002l-0.138,0.003l-0.138,0.004l-0.138,0.005l-0.138,0.006l-0.138,0.006l-0.137,0.008l-0.137,0.008l-0.137,0.009l-0.137,0.01l-0.136,0.011l-0.136,0.011l-0.136,0.013l-0.136,0.013l-0.135,0.015l-0.135,0.015l-0.135,0.015l-0.135,0.017l-0.134,0.018l-0.134,0.018l-0.134,0.019l-0.133,0.02l-0.133,0.021l-0.133,0.022l-0.133,0.022l-0.133,0.023l-0.132,0.024l-0.132,0.025l-0.131,0.026l-0.131,0.026l-0.131,0.028l-0.131,0.028l-0.13,0.029l-0.131,0.029l-0.129,0.031l-0.13,0.031l-0.129,0.032l-0.129,0.033l-0.128,0.033l-0.129,0.034l-0.128,0.035l-0.127,0.036l-0.127,0.037l-0.127,0.037l-0.127,0.038l-0.126,0.039l-0.126,0.04l-0.126,0.04l-0.125,0.042l-0.125,0.041l-0.125,0.043l-0.124,0.043l-0.124,0.045l-0.124,0.044l-0.123,0.046l-0.123,0.046l-0.122,0.047l-0.123,0.048l-0.121,0.049l-0.122,0.049l-0.121,0.05l-0.121,0.051l-0.12,0.051l-0.12,0.052l-0.12,0.053l-0.119,0.053l-0.119,0.054l-0.118,0.055l-0.118,0.056l-0.118,0.056l-0.117,0.057l-0.117,0.058l-0.116,0.058l-0.116,0.059l-0.116,0.06l-0.115,0.06l-0.115,0.062l-0.115,0.061l-0.114,0.063l-0.113,0.063l-0.114,0.064l-0.112,0.064l-0.113,0.065l-0.112,0.066l-0.111,0.066l-0.111,0.067l-0.111,0.068l-0.11,0.068l-0.11,0.069l-0.109,0.07l-0.109,0.07l-0.108,0.071l-0.108,0.072l-0.108,0.072l-0.107,0.073l-0.106,0.073l-0.107,0.074l-0.105,0.075l-0.105,0.075l-0.105,0.076l-0.104,0.077l-0.104,0.077l-0.103,0.078l-0.103,0.078l-0.103,0.079l-0.101,0.08l-0.102,0.08l-0.101,0.08l-0.1,0.082l-0.1,0.082l-0.099,0.082l-0.099,0.083l-0.099,0.084l-0.097,0.084l-0.098,0.085l-0.097,0.086l-0.096,0.086l-0.096,0.086l-0.095,0.087l-0.095,0.088l-0.094,0.088l-0.094,0.089l-0.093,0.089l-0.092,0.09l-0.092,0.091l-0.092,0.091l-0.091,0.091l-0.09,0.092l-0.09,0.093l-0.09,0.093l-0.089,0.094l-0.088,0.094l-0.087,0.095l-0.088,0.095l-0.086,0.096l-0.086,0.096l-0.086,0.097l-0.084,0.097l-0.085,0.098l-0.083,0.099l-0.083,0.098l-0.083,0.1l-0.082,0.1l-0.081,0.1l-0.081,0.101l-0.08,0.101l-0.08,0.102l-0.079,0.102l-0.078,0.103l-0.078,0.104l-0.077,0.103l-0.077,0.105l-0.075,0.104l-0.076,0.105l-0.074,0.106l-0.075,0.106l-0.073,0.107l-0.073,0.107l-0.072,0.107l-0.072,0.108l-0.07,0.109l-0.071,0.109l-0.069,0.109l-0.069,0.11l-0.069,0.11l-0.067,0.111l-0.067,0.111l-0.067,0.111l-0.066,0.112l-0.065,0.112l-0.064,0.113l-0.064,0.113l-0.063,0.114l-0.062,0.114l-0.062,0.114l-0.061,0.115l-0.061,0.116l-0.059,0.115l-0.059,0.116l-0.059,0.117l-0.057,0.117l-0.057,0.117l-0.057,0.118l-0.055,0.118l-0.055,0.118l-0.054,0.119l-0.054,0.119l-0.053,0.12l-0.052,0.12l-0.051,0.12l-0.051,0.121l-0.05,0.121l-0.049,0.121l-0.049,0.122l-0.047,0.122l-0.047,0.123l-0.047,0.123l-0.045,0.123l-0.045,0.124l-0.044,0.123l-0.044,0.125l-0.042,0.124l-0.042,0.125l-0.041,0.126l-0.041,0.125l-0.039,0.126l-0.039,0.127l-0.038,0.126l-0.038,0.127l-0.036,0.128l-0.036,0.127l-0.035,0.128l-0.035,0.128l-0.033,0.129l-0.033,0.129l-0.032,0.129l-0.031,0.129l-0.031,0.13l-0.029,0.13l-0.029,0.131l-0.028,0.13l-0.027,0.131l-0.027,0.132l-0.025,0.131l-0.025,0.132l-0.024,0.132l-0.024,0.133l-0.022,0.132l-0.022,0.133l-0.02,0.133l-0.02,0.134l-0.02,0.134l-0.018,0.134l-0.018,0.134l-0.016,0.135l-0.016,0.135l-0.015,0.135l-0.014,0.135l-0.014,0.136l-0.012,0.136l-0.012,0.136l-0.011,0.136l-0.01,0.137l-0.009,0.137l-0.008,0.137l-0.007,0.137l-0.007,0.138l-0.006,0.137l-0.005,0.138l-0.003,0.139l-0.004,0.138l-0.002,0.139l-0.001,0.139l-0.001,0.139l0.001,0.139l0.001,0.139l0.002,0.139l0.004,0.138l0.003,0.138l0.005,0.138l0.006,0.138l0.007,0.138l0.007,0.137l0.008,0.137l0.009,0.137l0.01,0.137l0.011,0.136l0.012,0.136l0.012,0.136l0.014,0.136l0.014,0.135l0.015,0.135l0.016,0.135l0.016,0.135l0.018,0.134l0.018,0.134l0.02,0.134l0.02,0.133l0.02,0.134l0.022,0.133l0.022,0.132l0.024,0.133l0.024,0.132l0.025,0.132l0.025,0.131l0.027,0.131l0.027,0.131l0.028,0.131l0.029,0.13l0.029,0.131l0.031,0.129l0.031,0.13l0.032,0.129l0.033,0.129l0.033,0.128l0.035,0.129l0.035,0.128l0.036,0.127l0.036,0.128l0.038,0.127l0.038,0.126l0.039,0.126l0.039,0.126l0.041,0.126l0.041,0.125l0.042,0.125l0.042,0.125l0.044,0.124l0.044,0.124l0.045,0.124l0.045,0.123l0.047,0.123l0.047,0.122l0.047,0.123l0.049,0.121l0.049,0.122l0.05,0.121l0.051,0.121l0.051,0.12l0.052,0.12l0.053,0.12l0.054,0.119l0.054,0.119l0.055,0.118l0.055,0.118l0.057,0.118l0.057,0.117l0.057,0.117l0.059,0.116l0.059,0.117l0.059,0.115l0.061,0.115l0.061,0.115l0.062,0.115l0.062,0.114l0.063,0.113l0.064,0.114l0.064,0.112l0.065,0.113l0.066,0.112l0.067,0.111l0.067,0.111l0.067,0.111l0.069,0.11l0.069,0.11l0.069,0.109l0.071,0.109l0.07,0.108l0.072,0.108l0.072,0.108l0.073,0.107l0.073,0.107l0.075,0.106l0.074,0.105l0.076,0.105l0.075,0.105l0.077,0.104l0.077,0.104l0.078,0.104l0.078,0.102l0.079,0.103l0.08,0.102l0.08,0.101l0.081,0.101l0.081,0.1l0.082,0.1l0.083,0.099l0.083,0.099l0.083,0.099l0.085,0.097l0.084,0.098l0.086,0.097l0.086,0.096l0.086,0.096l0.088,0.095l0.087,0.095l0.088,0.094l0.089,0.094l0.09,0.093l0.09,0.092l0.09,0.093l0.091,0.091l0.091,0.091l0.093,0.091l0.092,0.09l0.093,0.089l0.094,0.089l0.094,0.088l0.095,0.088l0.095,0.087l0.096,0.086l0.096,0.086l0.097,0.086l0.098,0.084l0.097,0.085l0.099,0.083l0.099,0.084l0.099,0.082l0.1,0.082l0.1,0.081l0.101,0.081l0.102,0.08l0.101,0.08l0.103,0.079l0.103,0.078l0.103,0.078l0.104,0.077l0.104,0.077l0.105,0.076l0.105,0.075l0.105,0.074l0.107,0.075l0.106,0.073l0.107,0.073l0.108,0.072l0.108,0.072l0.108,0.071l0.109,0.07l0.109,0.069l0.11,0.069l0.11,0.069l0.111,0.067l0.111,0.068l0.111,0.066l0.112,0.066l0.113,0.065l0.113,0.064l0.113,0.064l0.113,0.063l0.114,0.062l0.115,0.062l0.115,0.061l0.115,0.061l0.116,0.059l0.116,0.06l0.116,0.058l0.117,0.058l0.117,0.057l0.118,0.056l0.118,0.055l0.118,0.055l0.119,0.055l0.119,0.053l0.12,0.053l0.12,0.052l0.12,0.051l0.121,0.051l0.121,0.05l0.122,0.049l0.121,0.049l0.123,0.047l0.122,0.047l0.123,0.047l0.123,0.045l0.124,0.045l0.124,0.044l0.124,0.044l0.125,0.042l0.125,0.042l0.125,0.041l0.126,0.041l0.126,0.039l0.126,0.039l0.127,0.038l0.126,0.038l0.128,0.036l0.127,0.036l0.128,0.035l0.129,0.035l0.128,0.033l0.129,0.033l0.129,0.032l0.13,0.031l0.13,0.031l0.13,0.029l0.13,0.029l0.131,0.028l0.131,0.027l0.131,0.027l0.132,0.026l0.131,0.024l0.132,0.024l0.133,0.024l0.133,0.022l0.132,0.022l0.134,0.021l0.133,0.02l0.134,0.019l0.134,0.018l0.134,0.018l0.135,0.016l0.135,0.016l0.135,0.015l0.135,0.014l0.136,0.014l0.136,0.012l0.136,0.012l0.136,0.011l0.137,0.01l0.137,0.009l0.137,0.008l0.137,0.008l0.138,0.006l0.138,0.006l0.138,0.005l0.138,0.004l0.138,0.003l0.139,0.002l0.139,0.001l0.142,0.001l268.978,0l0.142,-0.001l0.139,-0.001l0.139,-0.002l0.138,-0.003l0.138,-0.004l0.138,-0.005l0.138,-0.006l0.138,-0.006l0.137,-0.008l0.137,-0.008l0.137,-0.009l0.137,-0.01l0.136,-0.011l0.136,-0.012l0.136,-0.012l0.136,-0.014l0.135,-0.014l0.135,-0.015l0.135,-0.016l0.135,-0.016l0.134,-0.018l0.134,-0.018l0.134,-0.019l0.133,-0.02l0.134,-0.021l0.132,-0.022l0.133,-0.022l0.133,-0.024l0.132,-0.024l0.131,-0.024l0.132,-0.026l0.131,-0.027l0.131,-0.027l0.131,-0.028l0.13,-0.029l0.13,-0.029l0.13,-0.031l0.13,-0.031l0.129,-0.032l0.129,-0.033l0.128,-0.033l0.129,-0.035l0.128,-0.035l0.127,-0.036l0.128,-0.036l0.126,-0.038l0.127,-0.038l0.126,-0.039l0.126,-0.039l0.126,-0.041l0.125,-0.041l0.125,-0.042l0.125,-0.042l0.124,-0.044l0.124,-0.044l0.124,-0.045l0.123,-0.045l0.123,-0.047l0.122,-0.047l0.123,-0.047l0.121,-0.049l0.122,-0.049l0.121,-0.05l0.121,-0.051l0.12,-0.051l0.12,-0.052l0.12,-0.053l0.119,-0.053l0.119,-0.055l0.118,-0.055l0.118,-0.055l0.118,-0.056l0.117,-0.057l0.117,-0.058l0.116,-0.059l0.117,-0.059l0.115,-0.059l0.115,-0.061l0.115,-0.061l0.115,-0.062l0.114,-0.062l0.113,-0.063l0.113,-0.064l0.113,-0.064l0.113,-0.065l0.112,-0.066l0.111,-0.066l0.111,-0.068l0.111,-0.067l0.11,-0.069l0.11,-0.069l0.109,-0.069l0.109,-0.07l0.108,-0.071l0.108,-0.072l0.108,-0.072l0.107,-0.073l0.106,-0.073l0.107,-0.075l0.105,-0.074l0.105,-0.075l0.105,-0.076l0.104,-0.077l0.104,-0.077l0.103,-0.078l0.103,-0.078l0.103,-0.079l0.101,-0.08l0.102,-0.08l0.101,-0.081l0.1,-0.081l0.1,-0.082l0.099,-0.082l0.099,-0.084l0.099,-0.083l0.097,-0.084l0.098,-0.085l0.097,-0.086l0.096,-0.086l0.096,-0.086l0.095,-0.087l0.095,-0.088l0.094,-0.088l0.094,-0.089l0.093,-0.089l0.092,-0.09l0.093,-0.091l0.091,-0.091l0.091,-0.091l0.09,-0.093l0.09,-0.092l0.09,-0.093l0.089,-0.094l0.088,-0.094l0.087,-0.095l0.088,-0.095l0.086,-0.096l0.086,-0.096l0.086,-0.097l0.084,-0.098l0.085,-0.097l0.083,-0.099l0.083,-0.099l0.083,-0.099l0.082,-0.1l0.081,-0.1l0.081,-0.101l0.08,-0.101l0.08,-0.102l0.079,-0.103l0.078,-0.102l0.078,-0.104l0.077,-0.104l0.077,-0.104l0.075,-0.105l0.076,-0.105l0.074,-0.105l0.075,-0.107l0.073,-0.106l0.073,-0.107l0.072,-0.108l0.071,-0.108l0.071,-0.108l0.071,-0.109l0.069,-0.109l0.069,-0.11l0.069,-0.11l0.067,-0.111l0.068,-0.111l0.066,-0.111l0.066,-0.112l0.065,-0.113l0.064,-0.112l0.064,-0.114l0.063,-0.113l0.062,-0.114l0.062,-0.115l0.061,-0.114l0.061,-0.116l0.059,-0.116l0.059,-0.116l0.059,-0.116l0.058,-0.117l0.057,-0.117l0.056,-0.118l0.055,-0.118l0.055,-0.118l0.054,-0.119l0.054,-0.119l0.053,-0.12l0.052,-0.12l0.051,-0.12l0.051,-0.121l0.05,-0.121l0.049,-0.121l0.049,-0.122l0.047,-0.123l0.047,-0.122l0.047,-0.123l0.045,-0.123l0.045,-0.124l0.044,-0.124l0.044,-0.124l0.042,-0.125l0.042,-0.125l0.041,-0.125l0.041,-0.126l0.039,-0.125l0.039,-0.127l0.038,-0.127l0.038,-0.127l0.036,-0.127l0.036,-0.127l0.035,-0.128l0.035,-0.129l0.033,-0.128l0.033,-0.129l0.032,-0.129l0.031,-0.13l0.031,-0.129l0.029,-0.131l0.029,-0.13l0.028,-0.131l0.027,-0.131l0.027,-0.131l0.025,-0.131l0.025,-0.132l0.024,-0.132l0.024,-0.133l0.022,-0.133l0.022,-0.132l0.021,-0.134l0.02,-0.133l0.019,-0.134l0.018,-0.134l0.018,-0.134l0.016,-0.135l0.016,-0.135l0.015,-0.135l0.014,-0.135l0.014,-0.136l0.012,-0.136l0.012,-0.136l0.011,-0.136l0.01,-0.137l0.009,-0.137l0.008,-0.137l0.007,-0.137l0.007,-0.138l0.006,-0.137l0.005,-0.139l0.003,-0.138l0.004,-0.138l0.002,-0.139l0.001,-0.139l0.001,-0.139l-0.001,-0.139l-0.001,-0.139l-0.002,-0.139l-0.004,-0.138l-0.003,-0.139l-0.005,-0.138l-0.006,-0.138l-0.007,-0.137l-0.007,-0.137l-0.008,-0.137l-0.009,-0.137l-0.01,-0.137l-0.011,-0.136l-0.012,-0.136l-0.012,-0.136l-0.014,-0.136l-0.014,-0.135l-0.015,-0.135l-0.016,-0.135l-0.016,-0.135l-0.018,-0.134l-0.018,-0.134l-0.019,-0.134l-0.02,-0.134l-0.021,-0.133l-0.022,-0.133l-0.022,-0.132l-0.024,-0.133l-0.024,-0.132l-0.025,-0.132l-0.025,-0.132l-0.027,-0.131l-0.027,-0.131l-0.028,-0.13l-0.029,-0.131l-0.029,-0.13l-0.031,-0.13l-0.031,-0.129l-0.032,-0.129l-0.033,-0.129l-0.033,-0.129l-0.035,-0.128l-0.035,-0.128l-0.036,-0.127l-0.036,-0.128l-0.038,-0.127l-0.038,-0.126l-0.039,-0.127l-0.039,-0.126l-0.041,-0.125l-0.041,-0.126l-0.042,-0.125l-0.042,-0.124l-0.044,-0.124l-0.044,-0.124l-0.045,-0.124l-0.045,-0.123l-0.047,-0.123l-0.047,-0.123l-0.047,-0.122l-0.049,-0.122l-0.049,-0.121l-0.05,-0.121l-0.051,-0.121l-0.051,-0.12l-0.052,-0.12l-0.053,-0.12l-0.054,-0.119l-0.054,-0.119l-0.055,-0.118l-0.055,-0.118l-0.056,-0.118l-0.058,-0.117l-0.057,-0.117l-0.059,-0.117l-0.059,-0.116l-0.059,-0.115l-0.061,-0.116l-0.061,-0.115l-0.062,-0.114l-0.062,-0.114l-0.063,-0.114l-0.064,-0.113l-0.064,-0.113l-0.065,-0.112l-0.066,-0.112l-0.066,-0.111l-0.068,-0.111l-0.067,-0.111l-0.069,-0.11l-0.069,-0.11l-0.069,-0.109l-0.071,-0.109l-0.071,-0.109l-0.071,-0.108l-0.072,-0.107l-0.073,-0.107l-0.073,-0.107l-0.075,-0.106l-0.074,-0.106l-0.076,-0.105l-0.075,-0.104l-0.077,-0.105l-0.077,-0.103l-0.078,-0.104l-0.078,-0.103l-0.079,-0.102l-0.08,-0.102l-0.08,-0.101l-0.081,-0.101l-0.081,-0.1l-0.082,-0.1l-0.083,-0.1l-0.083,-0.098l-0.083,-0.099l-0.085,-0.098l-0.084,-0.097l-0.086,-0.097l-0.086,-0.096l-0.086,-0.096l-0.088,-0.095l-0.087,-0.095l-0.088,-0.094l-0.089,-0.094l-0.09,-0.093l-0.09,-0.093l-0.09,-0.092l-0.091,-0.091l-0.091,-0.091l-0.093,-0.091l-0.092,-0.09l-0.093,-0.089l-0.094,-0.089l-0.094,-0.088l-0.095,-0.088l-0.095,-0.087l-0.096,-0.086l-0.096,-0.086l-0.097,-0.086l-0.098,-0.085l-0.097,-0.084l-0.099,-0.084l-0.099,-0.083l-0.099,-0.082l-0.1,-0.082l-0.1,-0.082l-0.101,-0.08l-0.102,-0.081l-0.101,-0.079l-0.103,-0.079l-0.103,-0.078l-0.103,-0.078l-0.104,-0.077l-0.104,-0.077l-0.105,-0.076l-0.105,-0.075l-0.105,-0.075l-0.107,-0.074l-0.106,-0.073l-0.107,-0.073l-0.108,-0.072l-0.108,-0.072l-0.108,-0.071l-0.109,-0.07l-0.109,-0.07l-0.11,-0.069l-0.11,-0.068l-0.111,-0.068l-0.111,-0.067l-0.111,-0.066l-0.112,-0.066l-0.113,-0.065l-0.112,-0.064l-0.114,-0.064l-0.113,-0.063l-0.114,-0.063l-0.115,-0.061l-0.115,-0.062l-0.115,-0.06l-0.116,-0.06l-0.116,-0.059l-0.116,-0.058l-0.117,-0.058l-0.117,-0.057l-0.118,-0.056l-0.118,-0.056l-0.118,-0.055l-0.119,-0.054l-0.119,-0.053l-0.12,-0.053l-0.12,-0.052l-0.12,-0.051l-0.121,-0.051l-0.121,-0.05l-0.122,-0.049l-0.121,-0.049l-0.123,-0.048l-0.122,-0.047l-0.123,-0.046l-0.123,-0.046l-0.124,-0.044l-0.124,-0.045l-0.124,-0.043l-0.125,-0.043l-0.125,-0.041l-0.125,-0.042l-0.126,-0.04l-0.126,-0.04l-0.126,-0.039l-0.127,-0.038l-0.127,-0.037l-0.127,-0.037l-0.127,-0.036l-0.128,-0.035l-0.129,-0.034l-0.128,-0.033l-0.129,-0.033l-0.129,-0.032l-0.13,-0.031l-0.129,-0.031l-0.131,-0.029l-0.13,-0.029l-0.131,-0.028l-0.131,-0.028l-0.131,-0.026l-0.131,-0.026l-0.132,-0.025l-0.132,-0.024l-0.133,-0.023l-0.133,-0.022l-0.133,-0.022l-0.133,-0.021l-0.133,-0.02l-0.134,-0.019l-0.134,-0.018l-0.134,-0.018l-0.135,-0.017l-0.135,-0.015l-0.135,-0.015l-0.135,-0.015l-0.136,-0.013l-0.136,-0.013l-0.136,-0.011l-0.136,-0.011l-0.137,-0.01l-0.137,-0.009l-0.137,-0.008l-0.137,-0.008l-0.138,-0.006l-0.138,-0.006l-0.138,-0.005l-0.138,-0.004l-0.138,-0.003l-0.139,-0.002l-0.139,-0.001l-0.142,-0.001l-268.978,0Z" style="fill:#46aeda;"/><path id="Icons/Search" d="M41.697,171.75c0,-0.597 -0.246,-1.176 -0.649,-1.58l-6.015,-6.02c1.421,-2.053 2.175,-4.511 2.175,-7.003c0,-6.827 -5.524,-12.356 -12.345,-12.356c-6.822,0 -12.346,5.529 -12.346,12.356c0,6.828 5.524,12.356 12.346,12.356c2.49,0 4.945,-0.754 6.996,-2.176l6.015,6.003c0.404,0.421 0.982,0.667 1.578,0.667c1.228,0 2.245,-1.018 2.245,-2.247ZM32.719,157.147c0,4.335 -3.525,7.863 -7.856,7.863c-4.332,0 -7.856,-3.528 -7.856,-7.863c0,-4.335 3.524,-7.863 7.856,-7.863c4.331,0 7.856,3.528 7.856,7.863Z" style="fill:#46aeda;"/><g id="index"><path id="Oval-15" d="M159.855,3.247l0.355,0.003l0.354,0.006l0.354,0.008l0.353,0.01l0.353,0.012l0.352,0.014l0.351,0.017l0.351,0.019l0.35,0.021l0.35,0.024l0.349,0.025l0.349,0.028l0.348,0.03l0.347,0.032l0.347,0.034l0.346,0.036l0.346,0.038l0.345,0.041l0.344,0.043l0.343,0.045l0.343,0.046l0.343,0.05l0.341,0.051l0.341,0.053l0.34,0.055l0.34,0.058l0.339,0.059l0.338,0.062l0.337,0.063l0.337,0.066l0.336,0.068l0.335,0.069l0.334,0.072l0.334,0.074l0.333,0.076l0.332,0.078l0.331,0.08l0.331,0.081l0.33,0.084l0.329,0.086l0.328,0.088l0.328,0.09l0.326,0.091l0.326,0.094l0.325,0.096l0.324,0.097l0.324,0.1l0.322,0.101l0.322,0.104l0.32,0.105l0.32,0.107l0.319,0.109l0.318,0.111l0.318,0.113l0.316,0.115l0.315,0.117l0.315,0.118l0.313,0.121l0.313,0.122l0.312,0.124l0.311,0.126l0.309,0.128l0.309,0.13l0.308,0.131l0.307,0.133l0.306,0.135l0.305,0.137l0.304,0.139l0.303,0.14l0.302,0.143l0.302,0.144l0.3,0.145l0.299,0.148l0.298,0.149l0.296,0.151l0.296,0.153l0.295,0.155l0.294,0.156l0.293,0.158l0.292,0.159l0.29,0.162l0.29,0.163l0.288,0.165l0.288,0.166l0.286,0.168l0.285,0.17l0.284,0.171l0.283,0.174l0.282,0.174l0.28,0.177l0.28,0.178l0.278,0.18l0.277,0.181l0.276,0.183l0.275,0.184l0.274,0.187l0.273,0.187l0.271,0.19l0.27,0.191l0.269,0.192l0.268,0.194l0.266,0.196l0.265,0.197l0.265,0.199l0.262,0.2l0.262,0.202l0.26,0.203l0.259,0.205l0.258,0.207l0.257,0.207l0.255,0.21l0.254,0.211l0.253,0.212l0.251,0.214l0.25,0.215l0.249,0.217l0.248,0.219l0.246,0.219l0.245,0.221l0.243,0.223l0.242,0.224l0.241,0.226l0.239,0.227l0.239,0.228l0.236,0.23l0.236,0.231l0.234,0.232l0.232,0.234l0.231,0.236l0.23,0.236l0.228,0.238l0.227,0.24l0.226,0.241l0.224,0.242l0.223,0.243l0.221,0.245l0.22,0.246l0.218,0.248l0.217,0.248l0.215,0.251l0.214,0.251l0.213,0.253l0.211,0.254l0.209,0.255l0.208,0.256l0.206,0.258l0.205,0.259l0.204,0.261l0.201,0.261l0.201,0.263l0.199,0.264l0.197,0.265l0.195,0.267l0.194,0.267l0.193,0.269l0.191,0.27l0.189,0.272l0.188,0.272l0.186,0.274l0.185,0.275l0.183,0.276l0.181,0.277l0.18,0.278l0.178,0.28l0.176,0.28l0.175,0.282l0.173,0.283l0.172,0.284l0.17,0.285l0.168,0.286l0.166,0.288l0.165,0.288l0.163,0.29l0.162,0.29l0.159,0.292l0.158,0.293l0.156,0.293l0.155,0.295l0.153,0.296l0.151,0.297l0.149,0.298l0.148,0.299l0.145,0.3l0.144,0.301l0.143,0.302l0.14,0.303l0.139,0.304l0.137,0.305l0.135,0.306l0.133,0.307l0.132,0.308l0.129,0.309l0.128,0.31l0.126,0.31l0.124,0.312l0.122,0.313l0.121,0.313l0.118,0.315l0.117,0.315l0.115,0.317l0.113,0.317l0.111,0.318l0.109,0.319l0.107,0.32l0.106,0.32l0.103,0.322l0.101,0.322l0.1,0.324l0.098,0.324l0.095,0.325l0.094,0.325l0.092,0.327l0.09,0.328l0.087,0.328l0.086,0.329l0.084,0.33l0.082,0.33l0.08,0.332l0.078,0.332l0.075,0.333l0.074,0.333l0.072,0.335l0.07,0.335l0.068,0.336l0.065,0.336l0.064,0.338l0.061,0.338l0.06,0.339l0.057,0.339l0.056,0.34l0.053,0.341l0.051,0.342l0.049,0.342l0.047,0.343l0.045,0.343l0.043,0.344l0.04,0.345l0.039,0.346l0.036,0.346l0.034,0.347l0.032,0.347l0.03,0.348l0.028,0.348l0.025,0.35l0.023,0.349l0.021,0.351l0.019,0.351l0.017,0.351l0.015,0.352l0.012,0.353l0.01,0.353l0.008,0.353l0.006,0.355l0.003,0.354l0.001,0.355l-0.001,0.356l-0.003,0.354l-0.006,0.355l-0.008,0.353l-0.01,0.353l-0.012,0.353l-0.015,0.352l-0.017,0.351l-0.019,0.351l-0.021,0.351l-0.023,0.349l-0.025,0.35l-0.028,0.348l-0.03,0.348l-0.032,0.347l-0.034,0.347l-0.036,0.346l-0.039,0.346l-0.04,0.345l-0.043,0.344l-0.045,0.343l-0.047,0.343l-0.049,0.342l-0.051,0.342l-0.053,0.341l-0.056,0.34l-0.057,0.339l-0.06,0.339l-0.061,0.338l-0.064,0.338l-0.065,0.336l-0.068,0.336l-0.07,0.335l-0.072,0.335l-0.074,0.333l-0.075,0.333l-0.078,0.332l-0.08,0.332l-0.082,0.33l-0.084,0.33l-0.086,0.329l-0.087,0.328l-0.09,0.328l-0.092,0.326l-0.094,0.326l-0.095,0.325l-0.098,0.324l-0.1,0.324l-0.101,0.322l-0.103,0.322l-0.106,0.32l-0.107,0.32l-0.109,0.319l-0.111,0.318l-0.113,0.317l-0.115,0.317l-0.117,0.315l-0.118,0.315l-0.121,0.313l-0.122,0.313l-0.124,0.311l-0.126,0.311l-0.128,0.31l-0.129,0.309l-0.132,0.308l-0.133,0.307l-0.135,0.306l-0.137,0.305l-0.139,0.304l-0.14,0.303l-0.143,0.302l-0.144,0.301l-0.145,0.3l-0.148,0.299l-0.149,0.298l-0.151,0.297l-0.153,0.296l-0.155,0.294l-0.156,0.294l-0.158,0.293l-0.159,0.292l-0.162,0.29l-0.163,0.29l-0.165,0.288l-0.166,0.287l-0.168,0.287l-0.17,0.285l-0.172,0.284l-0.173,0.283l-0.175,0.281l-0.176,0.281l-0.178,0.28l-0.18,0.278l-0.181,0.277l-0.183,0.276l-0.185,0.275l-0.186,0.274l-0.188,0.272l-0.189,0.271l-0.191,0.271l-0.193,0.269l-0.194,0.267l-0.195,0.267l-0.197,0.265l-0.199,0.264l-0.201,0.263l-0.201,0.261l-0.204,0.261l-0.205,0.259l-0.206,0.258l-0.208,0.256l-0.209,0.255l-0.211,0.254l-0.213,0.253l-0.214,0.251l-0.215,0.25l-0.217,0.249l-0.218,0.248l-0.22,0.246l-0.221,0.245l-0.223,0.243l-0.224,0.242l-0.226,0.241l-0.227,0.239l-0.228,0.239l-0.23,0.236l-0.231,0.236l-0.232,0.234l-0.234,0.232l-0.236,0.231l-0.236,0.23l-0.239,0.228l-0.239,0.227l-0.241,0.226l-0.242,0.224l-0.243,0.222l-0.245,0.222l-0.246,0.219l-0.248,0.219l-0.249,0.217l-0.25,0.215l-0.251,0.214l-0.253,0.212l-0.254,0.211l-0.255,0.209l-0.257,0.208l-0.258,0.207l-0.259,0.205l-0.26,0.203l-0.262,0.202l-0.262,0.2l-0.265,0.199l-0.265,0.197l-0.266,0.196l-0.268,0.194l-0.269,0.192l-0.27,0.191l-0.271,0.19l-0.273,0.187l-0.274,0.187l-0.275,0.184l-0.276,0.183l-0.277,0.181l-0.278,0.18l-0.28,0.178l-0.28,0.177l-0.282,0.174l-0.283,0.173l-0.284,0.172l-0.285,0.17l-0.286,0.168l-0.288,0.166l-0.288,0.165l-0.29,0.163l-0.29,0.162l-0.292,0.159l-0.293,0.158l-0.294,0.156l-0.295,0.155l-0.296,0.153l-0.296,0.151l-0.298,0.149l-0.299,0.148l-0.3,0.145l-0.301,0.144l-0.303,0.143l-0.303,0.14l-0.304,0.139l-0.305,0.137l-0.306,0.135l-0.307,0.133l-0.308,0.131l-0.309,0.13l-0.309,0.128l-0.311,0.126l-0.312,0.124l-0.313,0.122l-0.313,0.121l-0.315,0.118l-0.315,0.117l-0.316,0.115l-0.318,0.112l-0.318,0.111l-0.319,0.11l-0.32,0.107l-0.32,0.105l-0.322,0.104l-0.322,0.101l-0.324,0.1l-0.324,0.097l-0.325,0.096l-0.326,0.094l-0.326,0.091l-0.328,0.09l-0.328,0.088l-0.329,0.086l-0.33,0.084l-0.33,0.081l-0.332,0.08l-0.332,0.078l-0.333,0.076l-0.334,0.074l-0.334,0.072l-0.335,0.069l-0.336,0.068l-0.337,0.066l-0.337,0.063l-0.338,0.062l-0.339,0.059l-0.34,0.058l-0.34,0.055l-0.341,0.053l-0.341,0.051l-0.343,0.049l-0.343,0.047l-0.343,0.045l-0.344,0.043l-0.345,0.041l-0.346,0.038l-0.346,0.036l-0.347,0.034l-0.347,0.032l-0.348,0.03l-0.349,0.028l-0.349,0.025l-0.35,0.024l-0.35,0.021l-0.351,0.019l-0.351,0.016l-0.352,0.015l-0.353,0.012l-0.353,0.01l-0.354,0.008l-0.354,0.006l-0.355,0.003l-0.355,0.001l-0.355,-0.001l-0.355,-0.003l-0.354,-0.006l-0.354,-0.008l-0.353,-0.01l-0.353,-0.012l-0.352,-0.015l-0.351,-0.016l-0.351,-0.019l-0.35,-0.021l-0.35,-0.024l-0.349,-0.025l-0.349,-0.028l-0.348,-0.03l-0.347,-0.032l-0.347,-0.034l-0.346,-0.036l-0.346,-0.038l-0.345,-0.041l-0.344,-0.043l-0.343,-0.045l-0.343,-0.047l-0.343,-0.049l-0.341,-0.051l-0.341,-0.053l-0.34,-0.055l-0.34,-0.058l-0.339,-0.059l-0.338,-0.062l-0.337,-0.063l-0.337,-0.066l-0.336,-0.068l-0.335,-0.069l-0.334,-0.072l-0.334,-0.074l-0.333,-0.076l-0.332,-0.078l-0.332,-0.08l-0.33,-0.081l-0.33,-0.084l-0.329,-0.086l-0.328,-0.088l-0.328,-0.09l-0.326,-0.091l-0.326,-0.094l-0.325,-0.096l-0.324,-0.097l-0.324,-0.1l-0.322,-0.101l-0.322,-0.104l-0.32,-0.105l-0.32,-0.107l-0.319,-0.11l-0.318,-0.111l-0.318,-0.112l-0.316,-0.115l-0.315,-0.117l-0.315,-0.118l-0.313,-0.121l-0.313,-0.122l-0.312,-0.124l-0.311,-0.126l-0.309,-0.128l-0.309,-0.13l-0.308,-0.131l-0.307,-0.133l-0.306,-0.135l-0.305,-0.137l-0.304,-0.139l-0.303,-0.14l-0.302,-0.143l-0.302,-0.144l-0.3,-0.145l-0.299,-0.148l-0.298,-0.149l-0.297,-0.151l-0.295,-0.153l-0.295,-0.155l-0.294,-0.156l-0.293,-0.158l-0.292,-0.159l-0.29,-0.162l-0.29,-0.163l-0.288,-0.165l-0.288,-0.166l-0.286,-0.168l-0.285,-0.17l-0.284,-0.172l-0.283,-0.173l-0.282,-0.174l-0.28,-0.177l-0.28,-0.178l-0.278,-0.18l-0.277,-0.181l-0.276,-0.183l-0.275,-0.184l-0.274,-0.187l-0.273,-0.187l-0.271,-0.19l-0.27,-0.191l-0.269,-0.192l-0.268,-0.194l-0.266,-0.196l-0.265,-0.197l-0.265,-0.199l-0.262,-0.2l-0.262,-0.202l-0.26,-0.203l-0.259,-0.205l-0.258,-0.207l-0.257,-0.208l-0.255,-0.209l-0.254,-0.211l-0.253,-0.212l-0.251,-0.214l-0.25,-0.215l-0.249,-0.217l-0.248,-0.219l-0.246,-0.219l-0.245,-0.222l-0.243,-0.222l-0.242,-0.224l-0.241,-0.226l-0.239,-0.227l-0.239,-0.228l-0.236,-0.23l-0.236,-0.231l-0.234,-0.232l-0.232,-0.234l-0.231,-0.236l-0.23,-0.236l-0.228,-0.239l-0.227,-0.239l-0.226,-0.241l-0.224,-0.242l-0.223,-0.243l-0.221,-0.245l-0.22,-0.246l-0.218,-0.248l-0.217,-0.249l-0.215,-0.25l-0.214,-0.251l-0.213,-0.253l-0.211,-0.254l-0.209,-0.255l-0.208,-0.256l-0.206,-0.258l-0.205,-0.259l-0.204,-0.261l-0.201,-0.261l-0.201,-0.263l-0.199,-0.264l-0.197,-0.265l-0.195,-0.267l-0.194,-0.267l-0.193,-0.269l-0.191,-0.271l-0.189,-0.271l-0.188,-0.272l-0.186,-0.274l-0.185,-0.275l-0.183,-0.276l-0.181,-0.277l-0.18,-0.278l-0.178,-0.28l-0.176,-0.28l-0.175,-0.282l-0.173,-0.283l-0.172,-0.284l-0.17,-0.285l-0.168,-0.287l-0.166,-0.287l-0.165,-0.288l-0.163,-0.29l-0.162,-0.29l-0.159,-0.292l-0.158,-0.293l-0.156,-0.294l-0.155,-0.294l-0.153,-0.296l-0.151,-0.297l-0.149,-0.298l-0.148,-0.299l-0.145,-0.3l-0.144,-0.301l-0.143,-0.302l-0.14,-0.303l-0.139,-0.304l-0.137,-0.305l-0.135,-0.306l-0.133,-0.307l-0.132,-0.308l-0.129,-0.309l-0.128,-0.31l-0.126,-0.311l-0.124,-0.311l-0.122,-0.313l-0.121,-0.313l-0.118,-0.315l-0.117,-0.315l-0.115,-0.317l-0.113,-0.317l-0.111,-0.318l-0.109,-0.319l-0.107,-0.32l-0.106,-0.32l-0.103,-0.322l-0.101,-0.322l-0.1,-0.324l-0.098,-0.324l-0.095,-0.325l-0.094,-0.326l-0.092,-0.326l-0.09,-0.328l-0.087,-0.328l-0.086,-0.329l-0.084,-0.33l-0.082,-0.33l-0.08,-0.332l-0.078,-0.332l-0.075,-0.333l-0.074,-0.333l-0.072,-0.335l-0.07,-0.335l-0.068,-0.336l-0.065,-0.336l-0.064,-0.338l-0.061,-0.338l-0.06,-0.339l-0.057,-0.339l-0.056,-0.34l-0.053,-0.341l-0.051,-0.342l-0.049,-0.342l-0.047,-0.343l-0.045,-0.343l-0.043,-0.344l-0.04,-0.345l-0.039,-0.346l-0.036,-0.346l-0.034,-0.347l-0.032,-0.347l-0.03,-0.348l-0.028,-0.348l-0.025,-0.35l-0.023,-0.349l-0.021,-0.351l-0.019,-0.351l-0.017,-0.351l-0.015,-0.352l-0.012,-0.353l-0.01,-0.353l-0.008,-0.353l-0.006,-0.355l-0.003,-0.354l-0.001,-0.356l0.001,-0.355l0.003,-0.354l0.006,-0.355l0.008,-0.353l0.01,-0.353l0.012,-0.353l0.015,-0.352l0.017,-0.351l0.019,-0.351l0.021,-0.351l0.023,-0.349l0.025,-0.35l0.028,-0.348l0.03,-0.348l0.032,-0.347l0.034,-0.347l0.036,-0.346l0.039,-0.346l0.04,-0.345l0.043,-0.344l0.045,-0.343l0.047,-0.343l0.049,-0.342l0.051,-0.342l0.053,-0.341l0.056,-0.34l0.057,-0.339l0.06,-0.339l0.061,-0.338l0.064,-0.338l0.065,-0.336l0.068,-0.336l0.07,-0.335l0.072,-0.335l0.074,-0.333l0.075,-0.333l0.078,-0.332l0.08,-0.332l0.082,-0.33l0.084,-0.33l0.086,-0.329l0.087,-0.329l0.09,-0.327l0.092,-0.327l0.094,-0.325l0.095,-0.325l0.098,-0.324l0.1,-0.324l0.101,-0.322l0.103,-0.322l0.106,-0.32l0.107,-0.32l0.109,-0.319l0.111,-0.318l0.113,-0.317l0.115,-0.317l0.117,-0.315l0.118,-0.315l0.121,-0.313l0.122,-0.313l0.124,-0.311l0.126,-0.311l0.128,-0.31l0.129,-0.309l0.132,-0.308l0.133,-0.307l0.135,-0.306l0.137,-0.305l0.139,-0.304l0.14,-0.303l0.142,-0.302l0.145,-0.301l0.145,-0.3l0.148,-0.299l0.149,-0.298l0.151,-0.297l0.153,-0.296l0.155,-0.295l0.156,-0.293l0.158,-0.293l0.159,-0.292l0.162,-0.29l0.163,-0.29l0.165,-0.288l0.166,-0.288l0.168,-0.286l0.17,-0.285l0.172,-0.284l0.173,-0.283l0.175,-0.282l0.176,-0.28l0.178,-0.28l0.18,-0.278l0.181,-0.277l0.183,-0.276l0.185,-0.275l0.186,-0.274l0.188,-0.272l0.189,-0.272l0.191,-0.27l0.193,-0.269l0.194,-0.267l0.195,-0.267l0.197,-0.265l0.199,-0.264l0.201,-0.263l0.201,-0.261l0.204,-0.261l0.205,-0.259l0.206,-0.258l0.208,-0.256l0.209,-0.255l0.211,-0.254l0.213,-0.253l0.214,-0.251l0.215,-0.251l0.217,-0.248l0.218,-0.248l0.22,-0.246l0.221,-0.245l0.223,-0.243l0.224,-0.242l0.226,-0.241l0.227,-0.24l0.228,-0.238l0.23,-0.236l0.231,-0.236l0.232,-0.234l0.234,-0.232l0.236,-0.231l0.236,-0.23l0.239,-0.228l0.239,-0.227l0.241,-0.226l0.242,-0.224l0.243,-0.223l0.245,-0.221l0.246,-0.219l0.248,-0.219l0.249,-0.217l0.25,-0.215l0.251,-0.214l0.253,-0.212l0.254,-0.211l0.255,-0.21l0.257,-0.207l0.258,-0.207l0.259,-0.205l0.26,-0.203l0.262,-0.202l0.262,-0.2l0.265,-0.199l0.265,-0.197l0.266,-0.196l0.268,-0.194l0.269,-0.192l0.27,-0.191l0.271,-0.19l0.273,-0.187l0.274,-0.187l0.275,-0.184l0.276,-0.183l0.277,-0.181l0.278,-0.18l0.28,-0.178l0.28,-0.177l0.282,-0.174l0.283,-0.174l0.284,-0.171l0.285,-0.17l0.286,-0.168l0.288,-0.166l0.288,-0.165l0.29,-0.163l0.29,-0.162l0.292,-0.159l0.293,-0.158l0.294,-0.156l0.295,-0.155l0.295,-0.153l0.297,-0.151l0.298,-0.149l0.299,-0.148l0.3,-0.145l0.302,-0.144l0.302,-0.143l0.303,-0.14l0.304,-0.139l0.305,-0.137l0.306,-0.135l0.307,-0.133l0.308,-0.131l0.309,-0.13l0.309,-0.128l0.311,-0.126l0.312,-0.124l0.313,-0.122l0.313,-0.121l0.315,-0.118l0.315,-0.117l0.316,-0.115l0.318,-0.113l0.318,-0.111l0.319,-0.109l0.32,-0.107l0.32,-0.105l0.322,-0.104l0.322,-0.101l0.324,-0.1l0.324,-0.097l0.325,-0.096l0.326,-0.094l0.326,-0.091l0.328,-0.09l0.328,-0.088l0.329,-0.086l0.33,-0.084l0.331,-0.081l0.331,-0.08l0.332,-0.078l0.333,-0.076l0.334,-0.074l0.334,-0.072l0.335,-0.069l0.336,-0.068l0.337,-0.066l0.337,-0.063l0.338,-0.062l0.339,-0.059l0.34,-0.058l0.34,-0.055l0.341,-0.053l0.341,-0.051l0.343,-0.05l0.343,-0.046l0.343,-0.045l0.344,-0.043l0.345,-0.041l0.346,-0.038l0.346,-0.036l0.347,-0.034l0.347,-0.032l0.348,-0.03l0.349,-0.028l0.349,-0.025l0.35,-0.024l0.35,-0.021l0.351,-0.019l0.351,-0.017l0.352,-0.014l0.353,-0.012l0.353,-0.01l0.354,-0.008l0.354,-0.006l0.355,-0.003l0.355,-0.001l0.355,0.001ZM159.164,6.247l-0.336,0.003l-0.335,0.005l-0.335,0.008l-0.334,0.009l-0.334,0.012l-0.333,0.014l-0.332,0.015l-0.332,0.018l-0.331,0.02l-0.331,0.022l-0.331,0.024l-0.329,0.027l-0.329,0.028l-0.329,0.03l-0.328,0.032l-0.327,0.035l-0.327,0.036l-0.326,0.038l-0.325,0.041l-0.325,0.042l-0.324,0.044l-0.324,0.047l-0.323,0.048l-0.322,0.051l-0.321,0.052l-0.321,0.054l-0.321,0.056l-0.319,0.058l-0.319,0.061l-0.318,0.062l-0.318,0.064l-0.316,0.066l-0.317,0.067l-0.315,0.07l-0.315,0.072l-0.313,0.073l-0.314,0.076l-0.312,0.077l-0.312,0.079l-0.311,0.082l-0.31,0.083l-0.309,0.084l-0.309,0.087l-0.308,0.089l-0.307,0.09l-0.306,0.092l-0.306,0.094l-0.305,0.096l-0.304,0.098l-0.303,0.099l-0.302,0.102l-0.301,0.103l-0.301,0.105l-0.3,0.107l-0.299,0.108l-0.298,0.11l-0.297,0.112l-0.296,0.114l-0.296,0.116l-0.295,0.117l-0.293,0.119l-0.293,0.121l-0.292,0.122l-0.291,0.125l-0.29,0.126l-0.29,0.127l-0.288,0.13l-0.287,0.131l-0.287,0.132l-0.285,0.135l-0.285,0.136l-0.283,0.138l-0.283,0.139l-0.282,0.141l-0.28,0.143l-0.28,0.145l-0.279,0.146l-0.278,0.147l-0.276,0.15l-0.276,0.151l-0.275,0.152l-0.274,0.154l-0.272,0.156l-0.272,0.157l-0.271,0.159l-0.269,0.161l-0.269,0.162l-0.267,0.164l-0.267,0.165l-0.265,0.167l-0.264,0.168l-0.264,0.17l-0.262,0.172l-0.261,0.173l-0.26,0.174l-0.258,0.176l-0.258,0.178l-0.257,0.179l-0.255,0.18l-0.254,0.182l-0.254,0.184l-0.252,0.185l-0.251,0.186l-0.249,0.188l-0.249,0.19l-0.247,0.191l-0.246,0.192l-0.245,0.194l-0.244,0.195l-0.243,0.197l-0.241,0.198l-0.241,0.199l-0.239,0.201l-0.237,0.202l-0.237,0.204l-0.235,0.205l-0.234,0.206l-0.233,0.208l-0.232,0.21l-0.23,0.21l-0.229,0.212l-0.228,0.213l-0.226,0.215l-0.226,0.216l-0.223,0.217l-0.223,0.219l-0.221,0.22l-0.22,0.221l-0.219,0.223l-0.217,0.224l-0.216,0.225l-0.215,0.226l-0.213,0.228l-0.212,0.229l-0.211,0.23l-0.209,0.232l-0.208,0.233l-0.206,0.234l-0.206,0.235l-0.203,0.236l-0.203,0.238l-0.2,0.239l-0.2,0.24l-0.198,0.242l-0.197,0.242l-0.195,0.244l-0.194,0.245l-0.192,0.246l-0.191,0.248l-0.189,0.248l-0.188,0.25l-0.187,0.251l-0.185,0.252l-0.183,0.253l-0.183,0.254l-0.18,0.256l-0.179,0.256l-0.178,0.258l-0.176,0.259l-0.174,0.26l-0.173,0.261l-0.172,0.262l-0.17,0.263l-0.168,0.264l-0.167,0.266l-0.165,0.266l-0.164,0.268l-0.162,0.268l-0.161,0.27l-0.159,0.27l-0.157,0.272l-0.156,0.273l-0.154,0.273l-0.152,0.275l-0.151,0.276l-0.15,0.276l-0.148,0.278l-0.146,0.279l-0.144,0.28l-0.143,0.28l-0.141,0.282l-0.139,0.283l-0.138,0.283l-0.136,0.285l-0.135,0.285l-0.133,0.287l-0.131,0.287l-0.129,0.288l-0.128,0.289l-0.126,0.29l-0.124,0.291l-0.122,0.292l-0.121,0.293l-0.119,0.294l-0.118,0.295l-0.115,0.295l-0.114,0.296l-0.112,0.298l-0.11,0.298l-0.109,0.299l-0.106,0.299l-0.105,0.301l-0.104,0.301l-0.101,0.303l-0.099,0.303l-0.098,0.303l-0.096,0.305l-0.094,0.306l-0.092,0.306l-0.091,0.307l-0.088,0.308l-0.087,0.308l-0.085,0.31l-0.083,0.31l-0.081,0.311l-0.079,0.312l-0.078,0.312l-0.075,0.313l-0.074,0.314l-0.071,0.315l-0.07,0.315l-0.068,0.316l-0.066,0.317l-0.064,0.317l-0.062,0.319l-0.06,0.318l-0.058,0.32l-0.056,0.32l-0.055,0.321l-0.052,0.322l-0.05,0.322l-0.049,0.323l-0.046,0.323l-0.044,0.324l-0.043,0.325l-0.04,0.325l-0.039,0.326l-0.036,0.327l-0.034,0.327l-0.033,0.328l-0.03,0.329l-0.028,0.329l-0.026,0.329l-0.024,0.331l-0.022,0.33l-0.02,0.332l-0.018,0.332l-0.016,0.332l-0.014,0.333l-0.011,0.334l-0.01,0.334l-0.007,0.334l-0.006,0.336l-0.003,0.335l-0.001,0.336l0.001,0.337l0.003,0.335l0.006,0.335l0.007,0.335l0.01,0.334l0.011,0.334l0.014,0.333l0.016,0.332l0.018,0.332l0.02,0.332l0.022,0.33l0.024,0.331l0.026,0.329l0.028,0.329l0.03,0.329l0.033,0.328l0.034,0.327l0.036,0.326l0.039,0.326l0.04,0.326l0.043,0.325l0.044,0.324l0.046,0.323l0.049,0.323l0.05,0.322l0.052,0.322l0.055,0.321l0.056,0.32l0.058,0.32l0.06,0.318l0.062,0.319l0.064,0.317l0.066,0.317l0.068,0.316l0.07,0.315l0.071,0.315l0.074,0.314l0.075,0.313l0.078,0.312l0.079,0.312l0.081,0.311l0.083,0.31l0.085,0.309l0.087,0.309l0.088,0.308l0.091,0.307l0.092,0.306l0.094,0.306l0.096,0.304l0.098,0.304l0.099,0.303l0.101,0.303l0.104,0.301l0.105,0.301l0.106,0.299l0.109,0.299l0.11,0.298l0.112,0.298l0.114,0.296l0.115,0.295l0.118,0.295l0.119,0.294l0.121,0.293l0.122,0.291l0.124,0.291l0.126,0.291l0.128,0.289l0.129,0.288l0.131,0.287l0.133,0.287l0.135,0.285l0.136,0.285l0.138,0.283l0.139,0.283l0.141,0.282l0.143,0.28l0.144,0.28l0.146,0.279l0.148,0.278l0.15,0.276l0.151,0.276l0.152,0.275l0.154,0.273l0.156,0.273l0.157,0.272l0.159,0.27l0.161,0.27l0.162,0.268l0.164,0.268l0.165,0.266l0.167,0.266l0.168,0.264l0.17,0.263l0.172,0.262l0.173,0.261l0.174,0.26l0.176,0.259l0.178,0.258l0.179,0.256l0.18,0.255l0.183,0.255l0.183,0.253l0.185,0.252l0.187,0.251l0.188,0.25l0.189,0.248l0.191,0.247l0.192,0.247l0.194,0.245l0.195,0.243l0.197,0.243l0.198,0.241l0.2,0.241l0.2,0.239l0.203,0.237l0.203,0.237l0.206,0.235l0.206,0.234l0.208,0.233l0.209,0.232l0.211,0.23l0.212,0.229l0.213,0.228l0.215,0.226l0.216,0.225l0.217,0.224l0.219,0.223l0.22,0.221l0.221,0.22l0.223,0.219l0.223,0.217l0.226,0.216l0.226,0.215l0.228,0.213l0.229,0.212l0.23,0.21l0.232,0.21l0.233,0.207l0.234,0.207l0.235,0.205l0.237,0.204l0.237,0.202l0.239,0.201l0.241,0.199l0.241,0.198l0.243,0.197l0.243,0.195l0.246,0.194l0.246,0.192l0.247,0.191l0.249,0.19l0.249,0.188l0.251,0.186l0.252,0.185l0.254,0.184l0.254,0.182l0.255,0.18l0.257,0.179l0.258,0.178l0.258,0.176l0.26,0.174l0.261,0.173l0.262,0.172l0.264,0.17l0.264,0.168l0.265,0.167l0.267,0.165l0.267,0.164l0.269,0.162l0.269,0.161l0.271,0.158l0.272,0.158l0.272,0.156l0.274,0.154l0.275,0.152l0.276,0.151l0.276,0.15l0.278,0.147l0.279,0.146l0.28,0.145l0.28,0.143l0.282,0.141l0.283,0.139l0.283,0.138l0.285,0.136l0.285,0.135l0.287,0.132l0.287,0.131l0.288,0.13l0.29,0.127l0.29,0.126l0.291,0.125l0.292,0.122l0.293,0.121l0.293,0.119l0.295,0.117l0.296,0.116l0.296,0.114l0.297,0.112l0.298,0.11l0.299,0.108l0.3,0.107l0.301,0.105l0.301,0.103l0.302,0.101l0.303,0.1l0.304,0.098l0.305,0.096l0.306,0.094l0.306,0.092l0.307,0.09l0.308,0.089l0.309,0.087l0.309,0.084l0.31,0.083l0.311,0.081l0.312,0.08l0.312,0.077l0.314,0.076l0.313,0.073l0.315,0.072l0.315,0.07l0.317,0.067l0.316,0.066l0.318,0.064l0.318,0.062l0.319,0.06l0.32,0.059l0.32,0.056l0.321,0.054l0.321,0.052l0.322,0.051l0.323,0.048l0.324,0.046l0.324,0.045l0.325,0.042l0.325,0.041l0.326,0.038l0.327,0.036l0.327,0.035l0.328,0.032l0.329,0.03l0.329,0.028l0.329,0.027l0.331,0.024l0.331,0.022l0.331,0.02l0.332,0.018l0.332,0.015l0.333,0.014l0.334,0.012l0.334,0.009l0.335,0.008l0.335,0.005l0.336,0.003l0.336,0.001l0.336,-0.001l0.336,-0.003l0.335,-0.005l0.335,-0.008l0.334,-0.009l0.334,-0.012l0.333,-0.014l0.332,-0.015l0.332,-0.018l0.331,-0.02l0.331,-0.022l0.331,-0.024l0.329,-0.027l0.329,-0.028l0.329,-0.03l0.328,-0.032l0.327,-0.035l0.327,-0.036l0.326,-0.038l0.325,-0.041l0.325,-0.042l0.324,-0.045l0.324,-0.046l0.323,-0.048l0.322,-0.051l0.321,-0.052l0.321,-0.054l0.32,-0.056l0.32,-0.059l0.319,-0.06l0.318,-0.062l0.318,-0.064l0.316,-0.066l0.317,-0.067l0.315,-0.07l0.315,-0.072l0.313,-0.073l0.314,-0.076l0.312,-0.077l0.312,-0.08l0.311,-0.081l0.31,-0.083l0.309,-0.084l0.309,-0.087l0.308,-0.089l0.307,-0.09l0.306,-0.092l0.306,-0.094l0.305,-0.096l0.304,-0.098l0.303,-0.1l0.302,-0.101l0.301,-0.103l0.301,-0.105l0.3,-0.107l0.299,-0.108l0.298,-0.11l0.297,-0.112l0.296,-0.114l0.296,-0.116l0.295,-0.117l0.293,-0.119l0.293,-0.121l0.292,-0.122l0.291,-0.125l0.29,-0.126l0.289,-0.127l0.289,-0.13l0.287,-0.131l0.287,-0.132l0.285,-0.135l0.285,-0.136l0.283,-0.138l0.283,-0.139l0.282,-0.141l0.28,-0.143l0.28,-0.145l0.279,-0.146l0.278,-0.147l0.276,-0.15l0.276,-0.151l0.275,-0.152l0.274,-0.154l0.272,-0.156l0.272,-0.158l0.271,-0.158l0.269,-0.161l0.269,-0.162l0.267,-0.164l0.267,-0.165l0.265,-0.167l0.264,-0.168l0.264,-0.17l0.262,-0.172l0.261,-0.173l0.26,-0.174l0.258,-0.176l0.258,-0.178l0.257,-0.179l0.255,-0.18l0.254,-0.182l0.254,-0.184l0.252,-0.185l0.251,-0.186l0.249,-0.188l0.249,-0.19l0.247,-0.191l0.246,-0.192l0.246,-0.194l0.243,-0.195l0.243,-0.197l0.241,-0.198l0.241,-0.199l0.239,-0.201l0.237,-0.202l0.237,-0.204l0.235,-0.205l0.234,-0.207l0.233,-0.207l0.232,-0.21l0.23,-0.21l0.229,-0.212l0.228,-0.213l0.226,-0.215l0.226,-0.216l0.223,-0.217l0.223,-0.219l0.221,-0.22l0.22,-0.221l0.219,-0.223l0.217,-0.224l0.216,-0.225l0.215,-0.226l0.213,-0.228l0.212,-0.229l0.211,-0.23l0.209,-0.232l0.208,-0.233l0.206,-0.234l0.206,-0.235l0.203,-0.237l0.203,-0.237l0.2,-0.239l0.2,-0.24l0.198,-0.242l0.197,-0.243l0.195,-0.243l0.194,-0.245l0.192,-0.247l0.191,-0.247l0.189,-0.248l0.188,-0.25l0.187,-0.251l0.185,-0.252l0.183,-0.253l0.183,-0.254l0.18,-0.256l0.179,-0.256l0.178,-0.258l0.176,-0.259l0.174,-0.26l0.173,-0.261l0.172,-0.262l0.17,-0.263l0.168,-0.264l0.167,-0.266l0.165,-0.266l0.164,-0.268l0.162,-0.268l0.161,-0.27l0.159,-0.27l0.157,-0.272l0.156,-0.273l0.154,-0.273l0.152,-0.275l0.151,-0.276l0.15,-0.276l0.148,-0.278l0.146,-0.279l0.144,-0.28l0.143,-0.28l0.141,-0.282l0.139,-0.283l0.138,-0.283l0.136,-0.285l0.135,-0.285l0.133,-0.287l0.131,-0.287l0.129,-0.288l0.128,-0.289l0.126,-0.29l0.124,-0.292l0.122,-0.291l0.121,-0.293l0.119,-0.294l0.118,-0.295l0.115,-0.295l0.114,-0.296l0.112,-0.298l0.11,-0.298l0.109,-0.299l0.106,-0.299l0.105,-0.301l0.104,-0.301l0.101,-0.303l0.099,-0.303l0.098,-0.304l0.096,-0.304l0.094,-0.306l0.092,-0.306l0.091,-0.307l0.088,-0.308l0.087,-0.309l0.085,-0.309l0.083,-0.31l0.081,-0.311l0.079,-0.312l0.078,-0.312l0.075,-0.313l0.074,-0.314l0.071,-0.315l0.07,-0.315l0.068,-0.316l0.066,-0.317l0.064,-0.317l0.062,-0.319l0.06,-0.318l0.058,-0.32l0.056,-0.32l0.055,-0.321l0.052,-0.322l0.05,-0.322l0.049,-0.323l0.046,-0.323l0.044,-0.324l0.043,-0.325l0.04,-0.326l0.039,-0.326l0.036,-0.326l0.034,-0.327l0.033,-0.328l0.03,-0.329l0.028,-0.329l0.026,-0.329l0.024,-0.331l0.022,-0.33l0.02,-0.332l0.018,-0.332l0.016,-0.332l0.014,-0.333l0.011,-0.334l0.01,-0.334l0.007,-0.334l0.006,-0.336l0.003,-0.335l0.001,-0.337l-0.001,-0.336l-0.003,-0.335l-0.006,-0.336l-0.007,-0.334l-0.01,-0.334l-0.011,-0.334l-0.014,-0.333l-0.016,-0.332l-0.018,-0.332l-0.02,-0.332l-0.022,-0.33l-0.024,-0.331l-0.026,-0.329l-0.028,-0.329l-0.03,-0.329l-0.033,-0.328l-0.034,-0.327l-0.036,-0.327l-0.039,-0.326l-0.04,-0.325l-0.043,-0.325l-0.044,-0.324l-0.046,-0.323l-0.049,-0.323l-0.05,-0.322l-0.052,-0.322l-0.055,-0.321l-0.056,-0.32l-0.058,-0.32l-0.06,-0.318l-0.062,-0.319l-0.064,-0.317l-0.066,-0.317l-0.068,-0.316l-0.07,-0.315l-0.071,-0.315l-0.074,-0.314l-0.075,-0.313l-0.078,-0.312l-0.079,-0.312l-0.081,-0.311l-0.083,-0.31l-0.085,-0.309l-0.087,-0.309l-0.088,-0.308l-0.091,-0.307l-0.092,-0.306l-0.094,-0.306l-0.096,-0.305l-0.098,-0.303l-0.099,-0.303l-0.101,-0.303l-0.104,-0.301l-0.105,-0.301l-0.106,-0.3l-0.109,-0.298l-0.11,-0.298l-0.112,-0.298l-0.114,-0.296l-0.115,-0.295l-0.118,-0.295l-0.119,-0.294l-0.121,-0.293l-0.122,-0.291l-0.124,-0.292l-0.126,-0.29l-0.128,-0.289l-0.129,-0.288l-0.131,-0.287l-0.133,-0.287l-0.135,-0.285l-0.136,-0.285l-0.138,-0.283l-0.139,-0.283l-0.141,-0.282l-0.143,-0.28l-0.144,-0.28l-0.146,-0.279l-0.148,-0.278l-0.15,-0.276l-0.151,-0.276l-0.152,-0.275l-0.154,-0.273l-0.156,-0.273l-0.157,-0.272l-0.159,-0.27l-0.161,-0.27l-0.162,-0.268l-0.164,-0.268l-0.165,-0.266l-0.167,-0.266l-0.168,-0.264l-0.17,-0.263l-0.172,-0.262l-0.173,-0.261l-0.174,-0.26l-0.176,-0.259l-0.178,-0.258l-0.179,-0.256l-0.18,-0.256l-0.183,-0.254l-0.183,-0.253l-0.185,-0.252l-0.187,-0.251l-0.188,-0.25l-0.189,-0.248l-0.191,-0.248l-0.192,-0.246l-0.194,-0.245l-0.195,-0.244l-0.197,-0.242l-0.198,-0.242l-0.2,-0.24l-0.2,-0.239l-0.203,-0.238l-0.203,-0.236l-0.206,-0.235l-0.206,-0.234l-0.208,-0.233l-0.209,-0.232l-0.211,-0.23l-0.212,-0.229l-0.213,-0.228l-0.215,-0.226l-0.216,-0.225l-0.217,-0.224l-0.219,-0.223l-0.22,-0.221l-0.221,-0.22l-0.223,-0.219l-0.223,-0.217l-0.226,-0.216l-0.226,-0.215l-0.228,-0.213l-0.229,-0.212l-0.23,-0.21l-0.232,-0.21l-0.233,-0.208l-0.234,-0.206l-0.235,-0.205l-0.237,-0.204l-0.237,-0.202l-0.239,-0.201l-0.241,-0.199l-0.241,-0.198l-0.243,-0.197l-0.243,-0.195l-0.246,-0.194l-0.246,-0.192l-0.247,-0.191l-0.249,-0.19l-0.249,-0.188l-0.251,-0.186l-0.252,-0.185l-0.254,-0.184l-0.254,-0.182l-0.255,-0.18l-0.257,-0.179l-0.258,-0.178l-0.258,-0.176l-0.26,-0.174l-0.261,-0.173l-0.262,-0.172l-0.264,-0.17l-0.264,-0.168l-0.265,-0.167l-0.267,-0.165l-0.267,-0.164l-0.269,-0.162l-0.269,-0.161l-0.271,-0.159l-0.272,-0.157l-0.272,-0.156l-0.274,-0.154l-0.275,-0.152l-0.276,-0.151l-0.276,-0.15l-0.278,-0.147l-0.279,-0.146l-0.28,-0.145l-0.28,-0.143l-0.282,-0.141l-0.283,-0.139l-0.283,-0.138l-0.285,-0.136l-0.285,-0.135l-0.287,-0.132l-0.287,-0.131l-0.289,-0.13l-0.289,-0.127l-0.29,-0.126l-0.291,-0.125l-0.292,-0.122l-0.293,-0.121l-0.293,-0.119l-0.295,-0.117l-0.296,-0.116l-0.296,-0.114l-0.297,-0.112l-0.298,-0.11l-0.299,-0.108l-0.3,-0.107l-0.301,-0.105l-0.301,-0.103l-0.302,-0.101l-0.303,-0.1l-0.304,-0.098l-0.305,-0.096l-0.306,-0.094l-0.306,-0.092l-0.307,-0.09l-0.308,-0.089l-0.309,-0.087l-0.309,-0.084l-0.31,-0.083l-0.311,-0.082l-0.312,-0.079l-0.312,-0.077l-0.314,-0.076l-0.313,-0.073l-0.315,-0.072l-0.315,-0.07l-0.317,-0.067l-0.316,-0.066l-0.318,-0.064l-0.318,-0.062l-0.319,-0.061l-0.32,-0.058l-0.32,-0.056l-0.321,-0.054l-0.321,-0.052l-0.322,-0.051l-0.323,-0.048l-0.324,-0.047l-0.324,-0.044l-0.325,-0.042l-0.325,-0.041l-0.326,-0.038l-0.327,-0.036l-0.327,-0.035l-0.328,-0.032l-0.329,-0.03l-0.329,-0.028l-0.329,-0.027l-0.331,-0.024l-0.331,-0.022l-0.331,-0.02l-0.332,-0.018l-0.332,-0.015l-0.333,-0.014l-0.334,-0.012l-0.334,-0.009l-0.335,-0.008l-0.335,-0.005l-0.336,-0.003l-0.336,-0.001l-0.336,0.001Z" style="fill:#46aeda;"/><path id="Path-8" d="M159.5,104.086c25.324,0 45.854,-20.528 45.854,-45.85c0,-25.321 -20.53,-45.849 -45.854,-45.849c-25.324,0 -45.854,20.528 -45.854,45.849c0,25.322 20.53,45.85 45.854,45.85ZM159.892,44.669c13.125,0 23.765,-2.553 23.765,-5.702c0,-3.149 -10.64,-5.702 -23.765,-5.702c-13.125,0 -23.764,2.553 -23.764,5.702c0,3.149 10.639,5.702 23.764,5.702ZM183.657,51.984c0,3.15 -10.64,5.703 -23.765,5.703c-13.125,0 -23.764,-2.553 -23.764,-5.703l0,-7.725c0,0 10.639,3.863 23.764,3.863c13.125,0 23.765,-3.863 23.765,-3.863l0,7.725ZM183.657,65.002c0,3.149 -10.64,5.702 -23.765,5.702c-13.125,0 -23.764,-2.553 -23.764,-5.702l0,-7.726c0,0 10.639,3.863 23.764,3.863c13.125,0 23.765,-3.863 23.765,-3.863l0,7.726ZM183.657,78.019c0,3.15 -10.64,5.703 -23.765,5.703c-13.125,0 -23.764,-2.553 -23.764,-5.703l0,-7.725c0,0 10.639,3.863 23.764,3.863c13.125,0 23.765,-3.863 23.765,-3.863l0,7.725Z" style="fill:#fff;"/></g></g><g id="Search-your-document"><text x="52.852px" y="159.447px" style="font-family:Raleway;font-size:16px;fill:#fff;">Search your documentation</text></g><path id="Line" d="M224.134,55.908l0.347,0.002l0.35,0.005l0.353,0.006l0.356,0.009l0.358,0.01l0.362,0.012l0.364,0.014l0.367,0.016l0.369,0.018l0.371,0.021l0.373,0.022l0.375,0.025l0.377,0.028l0.379,0.03l0.38,0.032l0.382,0.036l0.383,0.037l0.384,0.041l0.386,0.043l0.386,0.046l0.387,0.049l0.388,0.052l0.387,0.055l0.195,0.029l0.195,0.03l0.194,0.03l0.195,0.031l0.194,0.032l0.195,0.033l0.195,0.034l0.194,0.034l0.195,0.036l0.194,0.036l0.195,0.037l0.194,0.038l0.195,0.039l0.194,0.039l0.194,0.041l0.194,0.042l0.194,0.042l0.194,0.044l0.193,0.044l0.194,0.045l0.193,0.046l0.193,0.048l0.193,0.048l0.192,0.049l0.192,0.05l0.192,0.052l0.192,0.052l0.191,0.053l0.191,0.054l0.19,0.056l0.19,0.056l0.19,0.058l0.19,0.058l0.189,0.06l0.188,0.061l0.188,0.061l0.188,0.063l0.187,0.064l0.187,0.066l0.186,0.066l0.186,0.068l0.185,0.068l0.184,0.07l0.184,0.071l0.183,0.072l0.183,0.074l0.182,0.075l0.182,0.075l0.181,0.078l0.18,0.078l0.179,0.08l0.179,0.081l0.178,0.082l0.177,0.083l0.177,0.085l0.176,0.086l0.174,0.088l0.175,0.089l0.173,0.09l0.172,0.091l0.172,0.093l0.171,0.094l0.169,0.096l0.169,0.097l0.168,0.099l0.167,0.099l0.166,0.102l0.165,0.103l0.164,0.104l0.163,0.106l0.162,0.107l0.16,0.109l0.16,0.11l0.159,0.112l0.157,0.113l0.156,0.115l0.156,0.116l0.153,0.118l0.153,0.119l0.151,0.121l0.151,0.123l0.148,0.124l0.148,0.126l0.146,0.128l0.145,0.129l0.144,0.13l0.142,0.133l0.14,0.134l0.14,0.135l0.137,0.138l0.137,0.139l0.134,0.141l0.134,0.142l0.131,0.144l0.13,0.146l0.129,0.147l0.127,0.15l0.125,0.151l0.123,0.152l0.122,0.155l0.12,0.156l0.118,0.158l0.117,0.16l0.115,0.161l0.113,0.163l0.111,0.165l0.109,0.167l0.108,0.169l0.106,0.173l0.103,0.174l0.1,0.175l0.095,0.172l0.048,0.09l0.045,0.088l0.045,0.087l0.044,0.088l0.043,0.088l0.042,0.088l0.041,0.088l0.04,0.088l0.039,0.088l0.038,0.088l0.037,0.088l0.037,0.088l0.035,0.089l0.035,0.088l0.033,0.089l0.033,0.089l0.032,0.088l0.031,0.089l0.03,0.088l0.03,0.092l0.054,0.174l0.052,0.178l0.048,0.178l0.045,0.177l0.041,0.178l0.037,0.178l0.034,0.178l0.03,0.177l0.027,0.178l0.024,0.177l0.019,0.178l0.017,0.176l0.013,0.177l0.01,0.177l0.007,0.176l0.003,0.176l0,0.176l-0.003,0.175l-0.006,0.175l-0.009,0.174l-0.013,0.174l-0.015,0.173l-0.018,0.173l-0.021,0.173l-0.024,0.172l-0.027,0.171l-0.029,0.171l-0.033,0.17l-0.034,0.17l-0.038,0.17l-0.04,0.168l-0.042,0.168l-0.045,0.168l-0.047,0.167l-0.05,0.166l-0.052,0.166l-0.054,0.165l-0.057,0.165l-0.058,0.164l-0.061,0.164l-0.063,0.163l-0.065,0.162l-0.067,0.162l-0.068,0.162l-0.071,0.16l-0.073,0.161l-0.074,0.16l-0.076,0.159l-0.078,0.159l-0.08,0.159l-0.082,0.158l-0.083,0.157l-0.084,0.157l-0.087,0.157l-0.087,0.156l-0.09,0.156l-0.09,0.156l-0.093,0.155l-0.093,0.155l-0.095,0.154l-0.096,0.154l-0.098,0.153l-0.099,0.154l-0.1,0.153l-0.101,0.152l-0.103,0.152l-0.104,0.152l-0.105,0.152l-0.105,0.151l-0.107,0.151l-0.108,0.151l-0.109,0.151l-0.11,0.15l-0.111,0.15l-0.112,0.149l-0.113,0.15l-0.113,0.149l-0.115,0.15l-0.23,0.296l-0.234,0.296l-0.237,0.296l-0.239,0.294l-0.241,0.294l-0.243,0.293l-0.245,0.292l-0.247,0.292l-0.248,0.291l-0.249,0.291l-0.249,0.289l-0.251,0.29l-0.501,0.576l-0.5,0.574l-0.499,0.572l-0.495,0.571l-0.244,0.284l-0.244,0.284l-0.241,0.284l-0.239,0.282l-0.236,0.283l-0.234,0.282l-0.231,0.281l-0.228,0.281l-0.224,0.28l-0.221,0.28l-0.217,0.28l-0.106,0.138l-0.106,0.139l-0.105,0.139l-0.104,0.139l-0.102,0.139l-0.101,0.138l-0.1,0.138l-0.099,0.139l-0.098,0.138l-0.096,0.137l-0.095,0.138l-0.094,0.137l-0.092,0.137l-0.091,0.137l-0.089,0.137l-0.088,0.137l-0.087,0.136l-0.085,0.136l-0.083,0.136l-0.082,0.136l-0.081,0.135l-0.078,0.135l-0.077,0.135l-0.076,0.134l-0.074,0.135l-0.072,0.134l-0.07,0.133l-0.068,0.134l-0.067,0.133l-0.065,0.133l-0.063,0.132l-0.062,0.132l-0.059,0.132l-0.058,0.132l-0.056,0.131l-0.054,0.131l-0.051,0.13l-0.05,0.13l-0.048,0.13l-0.046,0.129l-0.044,0.129l-0.042,0.129l-0.04,0.128l-0.038,0.128l-0.036,0.127l-0.034,0.128l-0.032,0.126l-0.03,0.127l-0.027,0.126l-0.026,0.125l-0.024,0.126l-0.021,0.125l-0.019,0.125l-0.017,0.124l-0.015,0.124l-0.013,0.124l-0.011,0.124l-0.008,0.123l-0.007,0.123l-0.004,0.123l-0.002,0.123l0.001,0.123l0.002,0.122l0.005,0.123l0.007,0.122l0.009,0.123l0.012,0.122l0.014,0.123l0.016,0.122l0.019,0.123l0.022,0.123l0.023,0.123l0.026,0.124l0.029,0.123l0.031,0.125l0.034,0.124l0.037,0.124l0.04,0.129l0.02,0.059l0.021,0.063l0.022,0.063l0.023,0.063l0.024,0.063l0.024,0.064l0.025,0.063l0.025,0.064l0.027,0.063l0.027,0.064l0.028,0.064l0.028,0.064l0.03,0.064l0.03,0.065l0.031,0.064l0.031,0.065l0.033,0.065l0.033,0.065l0.034,0.065l0.034,0.063l0.073,0.134l0.076,0.131l0.079,0.133l0.082,0.133l0.086,0.134l0.089,0.134l0.093,0.135l0.097,0.136l0.1,0.136l0.104,0.137l0.107,0.138l0.112,0.138l0.115,0.139l0.119,0.141l0.123,0.14l0.123,0.138l0.123,0.134l0.123,0.131l0.123,0.127l0.123,0.125l0.123,0.121l0.122,0.118l0.123,0.115l0.122,0.112l0.122,0.109l0.122,0.105l0.122,0.103l0.122,0.1l0.121,0.097l0.122,0.094l0.121,0.091l0.121,0.089l0.121,0.085l0.121,0.083l0.121,0.081l0.121,0.078l0.12,0.075l0.121,0.072l0.12,0.07l0.121,0.068l0.12,0.065l0.12,0.063l0.121,0.06l0.12,0.058l0.12,0.056l0.12,0.054l0.121,0.051l0.12,0.049l0.12,0.047l0.121,0.045l0.12,0.043l0.121,0.04l0.121,0.039l0.121,0.037l0.121,0.034l0.121,0.033l0.122,0.031l0.121,0.029l0.122,0.027l0.123,0.025l0.122,0.023l0.123,0.022l0.123,0.02l0.123,0.018l0.124,0.016l0.124,0.014l0.125,0.013l0.125,0.011l0.125,0.009l0.126,0.008l0.126,0.006l0.127,0.004l0.126,0.003l0.128,0.001l0.128,-0.001l0.128,-0.002l0.129,-0.004l0.129,-0.005l0.13,-0.007l0.13,-0.008l0.131,-0.01l0.131,-0.012l0.131,-0.012l0.132,-0.015l0.133,-0.016l0.133,-0.017l0.133,-0.019l0.134,-0.02l0.134,-0.022l0.135,-0.023l0.135,-0.024l0.136,-0.026l0.136,-0.027l0.137,-0.028l0.137,-0.03l0.138,-0.031l0.138,-0.032l0.138,-0.033l0.139,-0.035l0.139,-0.036l0.14,-0.037l0.14,-0.038l0.14,-0.04l0.141,-0.04l0.142,-0.042l0.141,-0.043l0.142,-0.044l0.143,-0.045l0.143,-0.045l0.143,-0.047l0.144,-0.048l0.144,-0.049l0.144,-0.05l0.143,-0.05l0.292,-0.105l0.292,-0.108l0.293,-0.11l0.294,-0.114l0.296,-0.117l0.297,-0.119l0.298,-0.122l0.299,-0.125l0.3,-0.126l0.302,-0.128l0.302,-0.13l0.303,-0.131l0.611,-0.267l0.615,-0.271l0.618,-0.272l0.622,-0.273l0.313,-0.137l0.313,-0.135l0.315,-0.136l0.315,-0.134l0.316,-0.133l0.317,-0.132l0.319,-0.13l0.319,-0.129l0.32,-0.127l0.321,-0.125l0.322,-0.122l0.323,-0.12l0.322,-0.117l0.164,-0.058l0.163,-0.057l0.163,-0.056l0.163,-0.055l0.163,-0.054l0.164,-0.053l0.163,-0.053l0.165,-0.051l0.164,-0.051l0.165,-0.05l0.165,-0.048l0.165,-0.048l0.165,-0.046l0.166,-0.046l0.166,-0.044l0.166,-0.043l0.167,-0.042l0.166,-0.041l0.167,-0.039l0.168,-0.038l0.167,-0.037l0.168,-0.036l0.168,-0.034l0.169,-0.033l0.168,-0.031l0.169,-0.03l0.17,-0.028l0.169,-0.027l0.17,-0.025l0.17,-0.024l0.171,-0.022l0.17,-0.02l0.171,-0.019l0.171,-0.017l0.172,-0.015l0.171,-0.014l0.172,-0.011l0.172,-0.01l0.173,-0.008l0.172,-0.006l0.173,-0.004l0.173,-0.002l0.174,0l0.173,0.002l0.174,0.005l0.174,0.006l0.174,0.008l0.174,0.011l0.175,0.013l0.174,0.015l0.175,0.017l0.175,0.02l0.175,0.022l0.175,0.024l0.175,0.027l0.175,0.029l0.176,0.032l0.175,0.034l0.176,0.037l0.175,0.039l0.175,0.042l0.176,0.044l0.175,0.047l0.175,0.05l0.175,0.052l0.175,0.055l0.175,0.058l0.175,0.06l0.175,0.063l0.175,0.066l0.174,0.069l0.174,0.072l0.174,0.074l0.174,0.077l0.174,0.08l0.173,0.083l0.173,0.086l0.173,0.089l0.173,0.091l0.172,0.095l0.172,0.098l0.172,0.1l0.171,0.104l0.171,0.106l0.171,0.11l0.17,0.112l0.17,0.116l0.17,0.119l0.169,0.121l0.167,0.124l0.163,0.123l0.16,0.122l0.159,0.123l0.157,0.124l0.155,0.124l0.153,0.125l0.153,0.126l0.15,0.126l0.149,0.127l0.148,0.127l0.146,0.128l0.145,0.128l0.143,0.129l0.142,0.13l0.14,0.13l0.138,0.13l0.138,0.131l0.135,0.132l0.134,0.132l0.133,0.132l0.132,0.133l0.13,0.134l0.128,0.134l0.127,0.134l0.126,0.135l0.124,0.135l0.123,0.136l0.121,0.136l0.12,0.136l0.119,0.137l0.117,0.137l0.116,0.138l0.114,0.137l0.113,0.139l0.112,0.138l0.11,0.139l0.109,0.139l0.108,0.14l0.106,0.14l0.105,0.14l0.104,0.14l0.103,0.141l0.101,0.141l0.1,0.141l0.098,0.142l0.097,0.141l0.096,0.142l0.095,0.142l0.094,0.143l0.092,0.142l0.091,0.143l0.089,0.143l0.089,0.143l0.087,0.143l0.086,0.143l0.085,0.144l0.084,0.144l0.082,0.143l0.081,0.144l0.081,0.144l0.078,0.144l0.078,0.144l0.077,0.145l0.075,0.144l0.074,0.144l0.074,0.145l0.072,0.144l0.071,0.144l0.069,0.145l0.069,0.144l0.068,0.145l0.066,0.144l0.066,0.145l0.064,0.144l0.063,0.144l0.063,0.145l0.061,0.144l0.06,0.145l0.059,0.144l0.058,0.144l0.057,0.144l0.057,0.144l0.055,0.143l0.054,0.144l0.053,0.144l0.052,0.143l0.051,0.143l0.05,0.143l0.05,0.143l0.048,0.143l0.047,0.143l0.047,0.142l0.045,0.142l0.045,0.142l0.044,0.142l0.043,0.144l0.082,0.28l0.08,0.282l0.076,0.28l0.073,0.28l0.069,0.278l0.066,0.277l0.063,0.276l0.06,0.274l0.057,0.273l0.054,0.271l0.051,0.27l0.048,0.268l0.046,0.266l0.042,0.265l0.04,0.263l0.037,0.261l0.035,0.259l0.033,0.257l0.03,0.255l0.027,0.252l0.026,0.251l0.023,0.248l0.021,0.246l0.018,0.243l0.017,0.241l0.015,0.239l0.013,0.235l0.011,0.234l0.01,0.23l0.007,0.228l0.006,0.225l0.004,0.221l0.003,0.219l0.001,0.216l0,0.213l-0.001,0.21l-0.003,0.206l-0.004,0.203l-0.005,0.2l-0.006,0.196l-0.008,0.193l-0.008,0.189l-0.009,0.186l-0.01,0.182l-0.011,0.178l-0.012,0.175l-0.012,0.17l-0.013,0.167l-0.014,0.163l-0.014,0.159l-0.015,0.154l-0.015,0.152l-0.03,0.287l-0.032,0.27l-0.032,0.253l-0.032,0.234l-0.031,0.215l-0.03,0.196l-0.029,0.176l-0.027,0.156l-0.024,0.134l-0.022,0.115l-0.031,0.155l-0.316,1.479l-2.846,-0.609l0.312,-1.46l0.024,-0.12l0.017,-0.088l0.02,-0.112l0.023,-0.131l0.024,-0.152l0.027,-0.17l0.027,-0.19l0.029,-0.207l0.028,-0.226l0.029,-0.242l0.027,-0.261l0.014,-0.134l0.013,-0.139l0.013,-0.144l0.012,-0.147l0.012,-0.151l0.011,-0.155l0.01,-0.158l0.01,-0.162l0.01,-0.165l0.008,-0.169l0.008,-0.172l0.006,-0.176l0.006,-0.178l0.005,-0.182l0.003,-0.185l0.003,-0.188l0.001,-0.191l0,-0.194l-0.001,-0.196l-0.003,-0.2l-0.003,-0.202l-0.006,-0.204l-0.007,-0.208l-0.008,-0.209l-0.01,-0.213l-0.012,-0.214l-0.014,-0.217l-0.015,-0.219l-0.017,-0.221l-0.019,-0.224l-0.021,-0.225l-0.023,-0.227l-0.025,-0.23l-0.027,-0.231l-0.03,-0.232l-0.031,-0.235l-0.034,-0.236l-0.036,-0.238l-0.039,-0.239l-0.041,-0.241l-0.043,-0.242l-0.046,-0.243l-0.049,-0.245l-0.051,-0.246l-0.054,-0.247l-0.057,-0.248l-0.059,-0.249l-0.062,-0.249l-0.066,-0.251l-0.068,-0.252l-0.071,-0.252l-0.075,-0.255l-0.038,-0.125l-0.039,-0.127l-0.04,-0.127l-0.041,-0.127l-0.041,-0.127l-0.042,-0.128l-0.044,-0.127l-0.043,-0.128l-0.045,-0.127l-0.046,-0.128l-0.046,-0.128l-0.048,-0.128l-0.048,-0.128l-0.049,-0.128l-0.05,-0.128l-0.051,-0.129l-0.052,-0.128l-0.052,-0.128l-0.054,-0.128l-0.054,-0.128l-0.055,-0.129l-0.057,-0.128l-0.057,-0.128l-0.058,-0.129l-0.059,-0.128l-0.06,-0.128l-0.061,-0.128l-0.062,-0.128l-0.063,-0.128l-0.063,-0.128l-0.065,-0.128l-0.066,-0.128l-0.067,-0.128l-0.068,-0.127l-0.069,-0.128l-0.069,-0.128l-0.071,-0.127l-0.072,-0.127l-0.073,-0.127l-0.074,-0.127l-0.075,-0.127l-0.076,-0.127l-0.077,-0.127l-0.078,-0.126l-0.08,-0.126l-0.08,-0.126l-0.082,-0.126l-0.082,-0.126l-0.084,-0.126l-0.085,-0.125l-0.086,-0.125l-0.086,-0.125l-0.089,-0.125l-0.089,-0.124l-0.091,-0.125l-0.091,-0.124l-0.093,-0.123l-0.094,-0.124l-0.095,-0.123l-0.097,-0.123l-0.097,-0.123l-0.099,-0.123l-0.1,-0.122l-0.101,-0.122l-0.103,-0.121l-0.103,-0.122l-0.105,-0.121l-0.106,-0.12l-0.108,-0.121l-0.108,-0.12l-0.11,-0.12l-0.112,-0.119l-0.112,-0.119l-0.114,-0.119l-0.115,-0.118l-0.117,-0.118l-0.118,-0.118l-0.119,-0.117l-0.12,-0.117l-0.122,-0.116l-0.123,-0.116l-0.125,-0.116l-0.126,-0.115l-0.127,-0.115l-0.129,-0.114l-0.13,-0.114l-0.132,-0.113l-0.133,-0.113l-0.134,-0.113l-0.136,-0.112l-0.138,-0.112l-0.138,-0.111l-0.14,-0.11l-0.142,-0.11l-0.143,-0.11l-0.144,-0.108l-0.14,-0.104l-0.139,-0.099l-0.138,-0.097l-0.138,-0.094l-0.138,-0.091l-0.138,-0.089l-0.138,-0.085l-0.137,-0.084l-0.137,-0.08l-0.138,-0.078l-0.137,-0.075l-0.136,-0.073l-0.137,-0.07l-0.136,-0.067l-0.137,-0.066l-0.136,-0.062l-0.136,-0.061l-0.136,-0.058l-0.136,-0.056l-0.136,-0.053l-0.136,-0.052l-0.136,-0.049l-0.135,-0.047l-0.136,-0.045l-0.136,-0.042l-0.136,-0.041l-0.135,-0.038l-0.136,-0.037l-0.136,-0.034l-0.136,-0.032l-0.136,-0.031l-0.136,-0.028l-0.136,-0.027l-0.137,-0.024l-0.136,-0.023l-0.137,-0.021l-0.136,-0.019l-0.137,-0.017l-0.137,-0.016l-0.138,-0.013l-0.137,-0.012l-0.138,-0.01l-0.138,-0.009l-0.138,-0.006l-0.138,-0.005l-0.139,-0.004l-0.139,-0.001l-0.139,0l-0.139,0.001l-0.14,0.003l-0.14,0.005l-0.14,0.007l-0.141,0.008l-0.14,0.009l-0.141,0.011l-0.142,0.013l-0.141,0.014l-0.142,0.015l-0.142,0.017l-0.143,0.019l-0.142,0.019l-0.143,0.022l-0.144,0.022l-0.143,0.024l-0.144,0.026l-0.144,0.027l-0.144,0.028l-0.145,0.029l-0.145,0.031l-0.145,0.032l-0.146,0.033l-0.145,0.034l-0.146,0.036l-0.147,0.037l-0.146,0.038l-0.147,0.039l-0.147,0.04l-0.147,0.041l-0.147,0.043l-0.148,0.043l-0.148,0.045l-0.148,0.045l-0.148,0.047l-0.149,0.048l-0.149,0.048l-0.149,0.05l-0.149,0.05l-0.149,0.051l-0.15,0.053l-0.148,0.052l-0.301,0.109l-0.301,0.112l-0.302,0.115l-0.302,0.117l-0.302,0.12l-0.304,0.122l-0.304,0.125l-0.304,0.127l-0.305,0.128l-0.306,0.13l-0.306,0.132l-0.306,0.132l-0.307,0.134l-0.616,0.271l-0.617,0.272l-0.619,0.272l-0.619,0.271l-0.312,0.134l-0.311,0.134l-0.311,0.133l-0.312,0.131l-0.313,0.129l-0.312,0.128l-0.314,0.126l-0.313,0.124l-0.314,0.122l-0.315,0.119l-0.315,0.116l-0.314,0.113l-0.159,0.055l-0.159,0.055l-0.158,0.054l-0.158,0.053l-0.159,0.052l-0.158,0.051l-0.159,0.05l-0.159,0.049l-0.159,0.048l-0.159,0.047l-0.16,0.046l-0.159,0.044l-0.16,0.044l-0.16,0.042l-0.16,0.042l-0.16,0.04l-0.16,0.039l-0.161,0.037l-0.161,0.036l-0.16,0.035l-0.161,0.033l-0.162,0.032l-0.161,0.031l-0.162,0.029l-0.161,0.028l-0.162,0.026l-0.162,0.024l-0.163,0.023l-0.162,0.021l-0.163,0.02l-0.163,0.017l-0.163,0.016l-0.163,0.015l-0.163,0.012l-0.164,0.011l-0.163,0.008l-0.164,0.007l-0.164,0.005l-0.164,0.002l-0.165,0.001l-0.164,-0.001l-0.165,-0.004l-0.164,-0.005l-0.165,-0.008l-0.165,-0.01l-0.164,-0.012l-0.165,-0.015l-0.165,-0.017l-0.165,-0.019l-0.165,-0.021l-0.165,-0.024l-0.165,-0.027l-0.165,-0.029l-0.165,-0.031l-0.165,-0.034l-0.165,-0.036l-0.164,-0.04l-0.165,-0.041l-0.164,-0.045l-0.164,-0.047l-0.164,-0.049l-0.164,-0.053l-0.164,-0.055l-0.163,-0.058l-0.163,-0.061l-0.162,-0.063l-0.163,-0.066l-0.162,-0.069l-0.161,-0.072l-0.162,-0.075l-0.161,-0.078l-0.16,-0.081l-0.16,-0.083l-0.16,-0.087l-0.159,-0.089l-0.158,-0.092l-0.159,-0.095l-0.157,-0.099l-0.157,-0.101l-0.157,-0.104l-0.156,-0.107l-0.156,-0.11l-0.155,-0.113l-0.154,-0.117l-0.154,-0.119l-0.153,-0.122l-0.153,-0.125l-0.152,-0.129l-0.152,-0.131l-0.151,-0.135l-0.151,-0.137l-0.15,-0.141l-0.149,-0.144l-0.149,-0.147l-0.148,-0.15l-0.147,-0.154l-0.148,-0.156l-0.146,-0.16l-0.146,-0.163l-0.146,-0.167l-0.145,-0.17l-0.142,-0.171l-0.137,-0.171l-0.134,-0.171l-0.13,-0.172l-0.127,-0.172l-0.122,-0.173l-0.119,-0.172l-0.115,-0.174l-0.111,-0.173l-0.108,-0.174l-0.104,-0.174l-0.1,-0.174l-0.094,-0.172l-0.049,-0.091l-0.045,-0.087l-0.045,-0.088l-0.044,-0.088l-0.043,-0.088l-0.042,-0.087l-0.042,-0.088l-0.04,-0.088l-0.039,-0.088l-0.039,-0.089l-0.037,-0.088l-0.037,-0.088l-0.035,-0.089l-0.035,-0.088l-0.034,-0.088l-0.033,-0.089l-0.032,-0.088l-0.031,-0.089l-0.03,-0.089l-0.03,-0.092l-0.055,-0.174l-0.052,-0.177l-0.048,-0.178l-0.045,-0.178l-0.042,-0.178l-0.037,-0.177l-0.035,-0.178l-0.03,-0.178l-0.027,-0.177l-0.024,-0.178l-0.02,-0.177l-0.017,-0.177l-0.014,-0.177l-0.01,-0.177l-0.007,-0.176l-0.004,-0.176l0,-0.175l0.003,-0.176l0.006,-0.174l0.009,-0.175l0.012,-0.174l0.015,-0.173l0.017,-0.173l0.021,-0.173l0.024,-0.172l0.026,-0.171l0.03,-0.171l0.032,-0.171l0.034,-0.169l0.037,-0.17l0.04,-0.169l0.042,-0.168l0.045,-0.167l0.047,-0.167l0.049,-0.167l0.052,-0.166l0.054,-0.165l0.056,-0.165l0.059,-0.164l0.06,-0.163l0.063,-0.164l0.065,-0.162l0.066,-0.162l0.069,-0.162l0.071,-0.161l0.072,-0.16l0.074,-0.16l0.076,-0.16l0.078,-0.159l0.08,-0.158l0.081,-0.158l0.083,-0.158l0.084,-0.157l0.086,-0.157l0.088,-0.156l0.089,-0.156l0.091,-0.155l0.092,-0.156l0.093,-0.154l0.095,-0.155l0.096,-0.154l0.098,-0.153l0.099,-0.154l0.1,-0.153l0.101,-0.152l0.103,-0.152l0.103,-0.152l0.105,-0.152l0.106,-0.151l0.106,-0.151l0.108,-0.151l0.109,-0.151l0.11,-0.15l0.111,-0.15l0.112,-0.15l0.112,-0.149l0.114,-0.149l0.115,-0.15l0.23,-0.296l0.233,-0.297l0.237,-0.295l0.239,-0.295l0.241,-0.294l0.243,-0.293l0.245,-0.292l0.246,-0.292l0.248,-0.291l0.249,-0.29l0.25,-0.29l0.5,-0.577l0.502,-0.576l0.5,-0.573l0.497,-0.572l0.246,-0.285l0.245,-0.284l0.243,-0.284l0.242,-0.284l0.239,-0.282l0.237,-0.283l0.233,-0.282l0.232,-0.281l0.227,-0.281l0.225,-0.28l0.221,-0.28l0.218,-0.28l0.106,-0.138l0.105,-0.139l0.105,-0.139l0.104,-0.139l0.103,-0.139l0.101,-0.138l0.1,-0.139l0.099,-0.138l0.098,-0.138l0.096,-0.138l0.095,-0.137l0.094,-0.138l0.092,-0.137l0.092,-0.137l0.089,-0.137l0.088,-0.136l0.087,-0.137l0.085,-0.136l0.084,-0.136l0.082,-0.135l0.08,-0.135l0.079,-0.136l0.077,-0.134l0.076,-0.135l0.074,-0.134l0.072,-0.134l0.071,-0.134l0.068,-0.134l0.067,-0.133l0.065,-0.133l0.064,-0.132l0.061,-0.132l0.06,-0.132l0.058,-0.132l0.056,-0.131l0.054,-0.131l0.052,-0.13l0.05,-0.13l0.048,-0.13l0.046,-0.129l0.045,-0.129l0.042,-0.129l0.04,-0.128l0.038,-0.128l0.036,-0.128l0.034,-0.127l0.032,-0.127l0.03,-0.126l0.028,-0.126l0.026,-0.126l0.024,-0.125l0.021,-0.125l0.02,-0.125l0.017,-0.124l0.015,-0.125l0.013,-0.124l0.011,-0.123l0.009,-0.124l0.006,-0.123l0.005,-0.123l0.002,-0.123l0,-0.122l-0.003,-0.123l-0.004,-0.123l-0.007,-0.122l-0.009,-0.122l-0.012,-0.123l-0.013,-0.123l-0.017,-0.122l-0.018,-0.123l-0.021,-0.123l-0.024,-0.123l-0.026,-0.124l-0.028,-0.123l-0.031,-0.124l-0.034,-0.124l-0.036,-0.125l-0.04,-0.128l-0.02,-0.06l-0.021,-0.062l-0.022,-0.063l-0.022,-0.064l-0.024,-0.063l-0.024,-0.063l-0.024,-0.063l-0.026,-0.064l-0.026,-0.064l-0.027,-0.063l-0.028,-0.064l-0.028,-0.064l-0.03,-0.064l-0.03,-0.065l-0.03,-0.064l-0.032,-0.065l-0.032,-0.065l-0.034,-0.065l-0.034,-0.065l-0.033,-0.063l-0.073,-0.133l-0.075,-0.132l-0.079,-0.132l-0.083,-0.135l-0.086,-0.135l-0.089,-0.136l-0.09,-0.134l-0.092,-0.133l-0.094,-0.132l-0.095,-0.13l-0.096,-0.129l-0.098,-0.127l-0.1,-0.127l-0.101,-0.125l-0.102,-0.123l-0.104,-0.123l-0.106,-0.121l-0.107,-0.12l-0.108,-0.118l-0.11,-0.118l-0.112,-0.116l-0.112,-0.115l-0.114,-0.114l-0.116,-0.113l-0.117,-0.111l-0.118,-0.11l-0.12,-0.109l-0.121,-0.108l-0.122,-0.107l-0.124,-0.105l-0.125,-0.105l-0.127,-0.103l-0.127,-0.102l-0.13,-0.101l-0.13,-0.1l-0.131,-0.099l-0.133,-0.097l-0.134,-0.097l-0.136,-0.095l-0.136,-0.094l-0.138,-0.094l-0.139,-0.092l-0.14,-0.091l-0.142,-0.089l-0.142,-0.089l-0.144,-0.088l-0.144,-0.087l-0.146,-0.085l-0.147,-0.085l-0.148,-0.083l-0.149,-0.082l-0.151,-0.082l-0.151,-0.08l-0.152,-0.079l-0.153,-0.078l-0.155,-0.078l-0.155,-0.076l-0.156,-0.075l-0.157,-0.074l-0.158,-0.073l-0.159,-0.072l-0.16,-0.071l-0.161,-0.07l-0.162,-0.069l-0.162,-0.068l-0.164,-0.067l-0.164,-0.066l-0.165,-0.065l-0.165,-0.064l-0.167,-0.063l-0.167,-0.062l-0.168,-0.061l-0.169,-0.06l-0.169,-0.059l-0.17,-0.058l-0.171,-0.058l-0.171,-0.056l-0.172,-0.055l-0.173,-0.055l-0.173,-0.053l-0.174,-0.053l-0.175,-0.052l-0.174,-0.051l-0.176,-0.05l-0.176,-0.049l-0.176,-0.048l-0.177,-0.047l-0.178,-0.046l-0.177,-0.046l-0.179,-0.044l-0.178,-0.044l-0.179,-0.043l-0.18,-0.042l-0.179,-0.041l-0.181,-0.041l-0.18,-0.039l-0.181,-0.039l-0.181,-0.038l-0.181,-0.037l-0.181,-0.036l-0.182,-0.036l-0.182,-0.034l-0.182,-0.034l-0.183,-0.033l-0.182,-0.033l-0.183,-0.031l-0.182,-0.031l-0.183,-0.03l-0.183,-0.029l-0.183,-0.029l-0.183,-0.028l-0.182,-0.026l-0.368,-0.053l-0.366,-0.049l-0.366,-0.046l-0.365,-0.044l-0.366,-0.041l-0.364,-0.038l-0.364,-0.036l-0.363,-0.034l-0.362,-0.031l-0.36,-0.028l-0.36,-0.026l-0.358,-0.024l-0.356,-0.022l-0.354,-0.02l-0.353,-0.017l-0.351,-0.015l-0.349,-0.014l-0.346,-0.011l-0.344,-0.01l-0.341,-0.008l-0.339,-0.006l-0.336,-0.005l-0.333,-0.002l-0.329,-0.002l-0.327,0.001l-0.323,0.002l-0.32,0.003l-0.316,0.004l-0.312,0.006l-0.308,0.007l-0.304,0.008l-0.3,0.009l-0.296,0.01l-0.291,0.011l-0.287,0.013l-0.282,0.013l-0.277,0.013l-0.272,0.015l-0.267,0.015l-0.262,0.016l-0.256,0.016l-0.251,0.017l-0.245,0.017l-0.239,0.018l-0.233,0.017l-0.226,0.018l-0.437,0.037l-0.409,0.037l-0.383,0.037l-0.354,0.036l-0.326,0.035l-0.294,0.033l-0.264,0.031l-0.231,0.029l-0.198,0.025l-0.162,0.021l-0.22,0.031l-1.513,0.221l-0.422,-2.879l1.524,-0.223l0.241,-0.034l0.178,-0.023l0.211,-0.027l0.245,-0.03l0.278,-0.033l0.31,-0.035l0.34,-0.036l0.37,-0.038l0.399,-0.038l0.427,-0.039l0.451,-0.038l0.238,-0.019l0.242,-0.019l0.249,-0.018l0.254,-0.018l0.26,-0.017l0.266,-0.017l0.272,-0.016l0.277,-0.016l0.282,-0.015l0.288,-0.014l0.293,-0.014l0.297,-0.012l0.303,-0.012l0.307,-0.011l0.311,-0.009l0.316,-0.009l0.321,-0.007l0.324,-0.006l0.329,-0.004l0.332,-0.004l0.336,-0.001l0.34,-0.001l0.343,0.002Z" style="fill:#46aeda;"/></g></svg>