<?xml version="1.0" encoding="UTF-8" standalone="no"?>
<svg width="46px" height="46px" viewBox="0 0 46 46" version="1.1" xmlns="http://www.w3.org/2000/svg" xmlns:xlink="http://www.w3.org/1999/xlink">
    <!-- Generator: Sketch 3.6.1 (26313) - http://www.bohemiancoding.com/sketch -->
    <title>logo-community-sm</title>
    <desc>Created with Sketch.</desc>
    <defs>
        <path d="M1.04907851,9.64668402 C1.04907851,13.4344306 4.01755991,16.5057197 7.68053575,16.5057197 C11.3435116,16.5057197 14.311993,13.4344306 14.311993,9.64668402 C14.311993,5.85893745 11.3435116,2.78764833 7.68053575,2.78764833 C4.01755991,2.78764833 1.04907851,5.85893745 1.04907851,9.64668402 L1.04907851,9.64668402 Z M7.68053575,4.55215043 C10.3963334,4.55215043 12.6060359,6.83768556 12.6060359,9.64668402 C12.6060359,12.4556825 10.3963334,14.7412176 7.68053575,14.7412176 C4.96473808,14.7412176 2.75503555,12.4556825 2.75503555,9.64668402 C2.75503555,6.83768556 4.96473808,4.55215043 7.68053575,4.55215043 L7.68053575,4.55215043 Z" id="path-1"></path>
    </defs>
    <g id="Page-1" stroke="none" stroke-width="1" fill="none" fill-rule="evenodd">
        <g id="logo-community-sm">
            <g id="Group-4" transform="translate(22.627417, 22.627417) rotate(-315.000000) translate(-22.627417, -22.627417) translate(6.627417, 6.627417)">
                <rect id="Rectangle-194" fill="#1D3657" x="0" y="-4.54747351e-13" width="32" height="32"></rect>
                <path d="M2,7 L2,2 L8,2 L8,4 L4,4 L4,7 L2,7 L2,7 Z" id="Path" fill="#46AEDA"></path>
                <path d="M30,25 L30,30 L13,30 L13,28 L28,28 L28,25 L30,25 L30,25 Z" id="Path" fill="#FE336F"></path>
                <path d="M30,23 L30,2 L10,2 L10,4 L28,4 L28,23 L30,23 L30,23 Z" id="Path" fill="#F5A623"></path>
                <path d="M2,21 L2,30 L11,30 L11,28 L4,28 L4,21 L2,21 L2,21 Z" id="Path" fill="#50E3C2"></path>
                <path d="M2,19 L2,9 L4,9 L4,19 L2,19 L2,19 Z" id="Path" fill="#BD0FE1"></path>
            </g>
            <g id="Group-2" transform="translate(15.000000, 14.000000)">
                <g id="Fill-4">
                    <use fill="#FFFFFF" fill-rule="evenodd" xlink:href="#path-1"></use>
                    <use fill="none" xlink:href="#path-1"></use>
                </g>
                <path d="M8.95899884,5.69084925 L7.9902439,9.24149653 L11.110244,7.47283451 C10.6571253,6.61348461 9.88393806,5.96369839 8.95899884,5.69084925 L8.95899884,5.69084925 Z" id="Path" fill="#FFFFFF"></path>
                <path d="M9.94961398,1.95238446 L9.94961398,1.34136238 C9.94931991,0.666793997 9.42294281,0.11962372 8.77335229,0.119318209 L6.71460027,0.119318209 C6.06530381,0.11962372 5.53863264,0.666488486 5.53863264,1.34136238 L5.53863264,1.94169158 C6.19410447,1.75105269 6.88368788,1.64687342 7.5970906,1.64687342 C8.41488654,1.64687342 9.2026878,1.78252032 9.94226234,2.03059529 C9.94402673,2.00432134 9.94961398,1.97926943 9.94961398,1.95238446 Z" id="Path" fill="#FFFFFF"></path>
                <path d="M2.75559749,3.22667102 C2.2962673,2.74946277 1.55110552,2.74976828 1.09177533,3.22667102 L0.883871072,3.44266733 C0.424540883,3.91957006 0.424834948,4.69373504 0.883871072,5.17094329 L1.10530234,5.4006876 C1.57668921,4.61491319 2.17687673,3.92140313 2.87439992,3.35040299 L2.75559749,3.22667102 L2.75559749,3.22667102 Z" id="Path" fill="#FFFFFF"></path>
            </g>
        </g>
    </g>
</svg>