<?xml version="1.0" encoding="UTF-8" standalone="no"?>
<svg width="100px" height="100px" viewBox="0 0 100 100" version="1.1" xmlns="http://www.w3.org/2000/svg" xmlns:xlink="http://www.w3.org/1999/xlink">
    <!-- Generator: Sketch 3.6.1 (26313) - http://www.bohemiancoding.com/sketch -->
    <title>logo-community-lg</title>
    <desc>Created with Sketch.</desc>
    <defs>
        <path d="M1.2242608,20.6088203 C1.2242608,28.7008225 7.61562064,35.2622114 15.5022783,35.2622114 C23.388936,35.2622114 29.7802958,28.7008225 29.7802958,20.6088203 C29.7802958,12.5168181 23.388936,5.95542917 15.5022783,5.95542917 C7.61562064,5.95542917 1.2242608,12.5168181 1.2242608,20.6088203 L1.2242608,20.6088203 Z M15.5022783,9.04676907 C21.7139963,9.04676907 26.7681463,14.2337943 26.7681463,20.6088203 C26.7681463,26.9838463 21.7139963,32.1708715 15.5022783,32.1708715 C9.29056035,32.1708715 4.23641033,26.9838463 4.23641033,20.6088203 C4.23641033,14.2337943 9.29056035,9.04676907 15.5022783,9.04676907 L15.5022783,9.04676907 Z" id="path-1"></path>
    </defs>
    <g id="Page-1" stroke="none" stroke-width="1" fill="none" fill-rule="evenodd">
        <g id="logo-community-lg">
            <g id="Group-17">
                <g id="Group-15" transform="translate(50.000000, 50.000000) rotate(-45.000000) translate(-50.000000, -50.000000) translate(15.000000, 15.000000)">
                    <rect id="Rectangle-194" fill="#1D3657" x="2.27373675e-13" y="2.27373675e-13" width="70" height="70"></rect>
                    <path d="M16,66 L16,68 L68,68 L68,18 L66,18 L66,66 L16,66 L16,66 Z" id="Path" fill="#9EDE5B"></path>
                    <path d="M4,27 L2,27 L2,68 L14,68 L14,66 L4,66 L4,27 L4,27 Z" id="Path" fill="#46AEDA"></path>
                    <path d="M23,4 L23,2 L2,2 L2,25 L4,25 L4,4 L23,4 L23,4 Z" id="Path" fill="#F8E71C"></path>
                    <path d="M52,4 L52,2 L25,2 L25,4 L52,4 L52,4 Z" id="Path" fill="#BD10E0"></path>
                    <path d="M54,4 L54,2 L68,2 L68,16 L66,16 L66,4 L54,4 L54,4 Z" id="Path" fill="#46AEDA"></path>
                    <path d="M6,16 L6,6 L16,6 L16,8 L8,8 L8,16 L6,16 L6,16 Z" id="Path" fill="#46AEDA"></path>
                    <path d="M64,53 L64,64 L32,64 L32,62 L62,62 L62,53 L64,53 L64,53 Z" id="Path" fill="#FE336F"></path>
                    <path d="M64,51 L64,6 L18,6 L18,8 L62,8 L62,51 L64,51 L64,51 Z" id="Path" fill="#F5A623"></path>
                    <path d="M6,37 L6,64 L30,64 L30,62 L8,62 L8,37 L6,37 L6,37 Z" id="Path" fill="#50E3C2"></path>
                    <path d="M6,35 L6,18 L8,18 L8,35 L6,35 L6,35 Z" id="Path" fill="#FE336F"></path>
                </g>
                <g id="logo" transform="translate(35.000000, 32.000000)">
                    <g id="Fill-4">
                        <use fill="#FFFFFF" fill-rule="evenodd" xlink:href="#path-1"></use>
                        <use fill="none" xlink:href="#path-1"></use>
                    </g>
                    <path d="M18.2549038,12.1577206 L16.1691029,19.7431927 L22.8866935,15.9646883 C21.9110955,14.1288048 20.2463663,12.7406255 18.2549038,12.1577206 L18.2549038,12.1577206 Z" id="Path" fill="#FFFFFF"></path>
                    <path d="M20.3877714,4.17100223 L20.3877714,2.86563716 C20.3871383,1.42451413 19.2538095,0.255559708 17.8551931,0.254907026 L13.4225478,0.254907026 C12.0245646,0.255559708 10.8906026,1.42386144 10.8906026,2.86563716 L10.8906026,4.14815834 C12.3018819,3.74088444 13.786606,3.51831969 15.3226147,3.51831969 C17.0833898,3.51831969 18.7795842,3.80811074 20.3719428,4.33808895 C20.3757417,4.28195826 20.3877714,4.22843829 20.3877714,4.17100223 Z" id="Path" fill="#FFFFFF"></path>
                    <path d="M4.89852227,6.89334107 C3.90955043,5.87385096 2.30516205,5.87450364 1.3161902,6.89334107 L0.868556979,7.35478762 C-0.120414864,8.37362506 -0.11978172,10.0275226 0.868556979,11.0470127 L1.34531485,11.53783 C2.36024562,9.8591305 3.65249372,8.37754115 5.15431268,7.1576775 L4.89852227,6.89334107 L4.89852227,6.89334107 Z" id="Path" fill="#FFFFFF"></path>
                </g>
            </g>
        </g>
    </g>
</svg>