<svg width="319" height="177" viewBox="0 0 319 177" xmlns="http://www.w3.org/2000/svg"><title>illus-index</title><desc>Created with Sketch.</desc><g fill="none" fill-rule="evenodd"><g><ellipse fill="#0E1823" cx="159.236" cy="55.236" rx="52.381" ry="51.925"/><g><path d="M316.96 152.48c0-12.677-10.292-22.97-22.968-22.97H25.008c-12.676 0-22.967 10.293-22.967 22.97 0 12.675 10.292 22.966 22.968 22.966h268.984c12.676 0 22.967-10.29 22.967-22.967z" fill="#0E1823"/><path d="M294.15 128.048l.157.002.157.002.157.004.158.004.157.006.156.006.157.008.156.008.156.01.154.01.155.01.154.013.154.015.155.014.154.014.154.016.154.017.153.018.153.02.153.02.152.02.152.022.152.022.15.023.15.025.152.025.15.027.15.027.15.028.15.03.15.03.15.03.147.032.148.033.148.034.147.035.147.034.147.036.147.038.146.038.146.04.146.04.145.04.144.04.146.044.144.043.143.044.144.045.143.046.142.047.142.048.142.048.14.05.142.05.14.052.14.052.14.052.14.054.14.054.138.055.138.055.138.057.137.058.135.058.137.06.136.06.135.06.135.062.135.062.134.063.134.064.134.064.133.066.133.066.132.067.13.068.132.07.13.07.13.07.13.07.13.072.128.072.128.073.128.074.127.076.127.076.126.076.126.077.125.077.123.08.124.078.124.08.124.08.123.08.122.083.12.083.122.084.12.084.12.084.12.086.118.086.12.087.117.088.117.088.117.09.117.09.116.09.115.09.114.092.114.092.113.093.112.094.112.094.112.095.11.096.112.095.11.097.11.098.108.098.108.1.107.098.108.1.107.1.105.103.106.1.104.103.104.104.103.104.103.105.102.105.1.106.102.106.1.107.1.107.1.108.097.11.1.108.096.11.096.11.096.112.095.11.094.113.094.113.094.115.092.114.092.113.09.115.09.116.09.116.09.117.088.117.088.118.086.118.087.12.085.12.085.12.084.12.085.12.082.122.082.122.08.123.08.123.08.123.08.124.078.125.078.125.077.126.076.126.075.126.074.127.073.127.073.13.073.127.07.13.072.13.07.13.07.13.068.13.068.132.067.13.066.133.067.133.064.133.065.133.064.135.06.134.063.135.06.136.06.136.06.135.058.137.06.137.055.137.056.138.057.14.054.137.054.14.053.14.052.14.05.14.05.14.05.142.048.142.048.143.046.14.046.144.045.143.045.144.043.145.044.144.04.144.042.145.04.145.04.146.037.147.037.146.037.147.035.147.035.148.033.148.033.148.032.15.03.15.03.148.03.15.03.15.026.15.027.15.026.15.025.152.023.152.024.152.022.152.02.152.02.153.02.153.018.154.017.153.017.154.015.154.014.154.013.155.012.155.01.155.01.155.01.156.01.155.007.157.005.156.005.156.005.157.003.156.003.158.002.157v.474l-.004.157-.003.158-.005.157-.005.157-.006.156-.01.156-.007.156-.01.156-.01.155-.01.156-.014.155-.014.156-.014.154-.015.154-.016.153-.016.154-.02.154-.017.153-.02.153-.02.152-.023.152-.023.152-.022.15-.025.153-.026.15-.026.15-.026.15-.03.15-.028.15-.03.15-.03.148-.033.148-.033.15-.033.147-.035.147-.035.147-.037.147-.037.147-.038.147-.04.146-.04.146-.04.144-.04.145-.044.143-.042.144-.045.143-.045.144-.046.143-.046.142-.048.14-.05.143-.048.142-.05.14-.05.14-.053.14-.053.14-.053.14-.053.14-.056.138-.055.138-.056.14-.06.136-.057.137-.06.136-.06.135-.06.136-.062.136-.06.134-.065.134-.064.134-.063.134-.066.132-.065.133-.067.132-.068.13-.07.13-.068.132-.07.13-.07.13-.073.128-.074.13-.073.127-.074.128-.075.127-.076.127-.077.125-.077.125-.078.126-.078.124-.08.125-.08.123-.08.123-.08.124-.083.122-.082.122-.084.12-.083.12-.085.12-.085.12-.087.12-.086.118-.088.118-.088.117-.09.118-.09.116-.09.116-.09.115-.092.114-.092.113-.093.113-.093.113-.094.112-.095.11-.096.112-.096.11-.097.11-.1.11-.097.11-.1.107-.1.11-.1.105-.1.107-.1.106-.103.105-.103.104-.103.104-.104.104-.104.103-.105.102-.105.1-.107.1-.107.102-.106.1-.108.098-.11.098-.108.098-.11.097-.11.096-.112.095-.112.095-.112.094-.113.094-.114.093-.114.093-.114.092-.115.09-.116.09-.116.09-.116.09-.117.088-.118.088-.12.088-.118.086-.12.085-.12.084-.12.084-.12.084-.123.082-.123.082-.123.082-.123.08-.123.08-.124.08-.124.077-.126.078-.126.077-.126.076-.127.076-.127.074-.128.074-.128.073-.13.073-.128.072-.13.07-.13.07-.13.07-.13.07-.132.067-.132.067-.133.066-.133.066-.133.064-.133.064-.134.064-.134.062-.137.062-.135.06-.136.06-.137.06-.136.058-.138.058-.138.057-.138.056-.14.054-.138.054-.14.053-.14.054-.14.052-.14.05-.14.05-.142.05-.142.05-.142.047-.142.046-.143.045-.143.046-.144.045-.144.043-.145.043-.143.042-.146.04-.144.04-.146.04-.146.038-.147.037-.147.037-.147.035-.147.034-.148.034-.15.032-.147.032-.148.03-.15.03-.15.03-.15.03-.15.026-.15.027-.15.025-.152.025-.15.023-.153.023-.152.023-.152.02-.153.02-.153.02-.153.018-.153.018-.153.016-.154.015-.155.013-.154.013-.155.013-.156.01-.155.01-.157.01-.156.008-.156.008-.155.006-.157.006-.157.004-.156.004-.157.002h-.157l-.156.002H24.85l-.157-.002-.157-.002-.157-.004-.158-.004-.157-.006-.156-.006-.157-.008-.156-.008-.156-.01-.154-.01-.155-.01-.154-.014-.154-.013-.155-.014-.154-.016-.154-.016-.154-.017-.153-.017-.153-.02-.153-.02-.152-.02-.152-.022-.152-.022-.15-.023-.15-.025-.152-.025-.15-.027-.15-.027-.15-.027-.15-.03-.15-.03-.15-.03-.147-.033-.148-.032-.148-.034-.147-.035-.147-.036-.147-.037-.147-.037-.146-.038-.146-.04-.145-.04-.147-.04-.144-.04-.146-.044-.144-.043-.144-.044-.143-.045-.143-.046-.142-.047-.142-.048-.142-.048-.14-.05-.142-.05-.14-.05-.14-.053-.14-.053-.14-.052-.14-.054-.138-.056-.138-.055-.137-.057-.14-.058-.135-.058-.137-.06-.136-.06-.135-.06-.136-.062-.133-.062-.134-.064-.134-.064-.134-.064-.133-.066-.133-.066-.132-.067-.13-.068-.132-.07-.13-.068-.13-.07-.13-.072-.13-.072-.128-.073-.128-.073-.128-.074-.127-.074-.127-.076-.126-.076-.125-.077-.126-.078-.123-.078-.125-.08-.123-.08-.124-.08-.123-.08-.122-.083-.12-.082-.122-.084-.12-.084-.12-.085-.12-.086-.118-.086-.12-.087-.117-.087-.117-.088-.117-.09-.117-.09-.116-.09-.115-.09-.114-.092-.114-.092-.113-.092-.112-.094-.113-.094-.11-.095-.112-.096-.11-.097-.11-.097-.11-.098-.11-.098-.107-.1-.107-.1-.108-.1-.107-.1-.105-.1-.106-.103-.104-.103-.104-.103-.103-.103-.103-.104-.102-.105-.1-.106-.102-.107-.1-.106-.1-.11-.1-.107-.097-.11-.1-.108-.096-.11-.096-.11-.096-.112-.095-.11-.094-.114-.094-.114-.094-.113-.092-.114-.092-.115-.09-.115-.09-.116-.09-.116-.09-.117-.088-.116-.088-.118-.086-.118-.087-.12-.085-.12-.085-.12-.084-.12-.085-.12-.082-.122-.082-.122-.08-.123-.08-.122-.08-.123-.08-.125-.078-.124-.078-.125-.077-.125-.076-.126-.075-.128-.074-.127-.073-.128-.073-.128-.073-.13-.07-.13-.07-.128-.072-.13-.07-.13-.068-.132-.068-.13-.067-.133-.066-.133-.067-.132-.064-.134-.065-.134-.064-.134-.06-.134-.063-.135-.06-.135-.06-.136-.06-.137-.058-.137-.06-.137-.055-.14-.056-.137-.057-.14-.054-.138-.054-.14-.053-.14-.052-.14-.05-.14-.05-.14-.05-.142-.048-.142-.048-.14-.046-.143-.046-.143-.045-.143-.045-.143-.043-.144-.044-.144-.04-.146-.042-.145-.04-.147-.04-.146-.037-.146-.037-.146-.037-.146-.035-.148-.035-.147-.033-.148-.033-.15-.032-.147-.03-.15-.03-.148-.03-.15-.03-.15-.026-.15-.027-.15-.026-.15-.025-.153-.023-.15-.024-.153-.022-.152-.02-.152-.02-.153-.02-.153-.018-.153-.017-.152-.017-.154-.015-.154-.014-.154-.013-.155-.012-.154-.01-.155-.01-.154-.01-.156-.01-.156-.007-.156-.005-.156-.005-.157-.005-.157-.003-.157-.003-.156-.002-.157v-.474l.004-.158.003-.157.005-.157.005-.157.006-.156.01-.156.007-.156.01-.156.01-.155.01-.155.014-.155.014-.155.014-.154.015-.154.016-.154.016-.153.018-.154.02-.152.02-.152.02-.152.022-.152.023-.152.022-.152.025-.15.026-.152.026-.15.026-.15.03-.15.028-.15.03-.15.03-.148.033-.15.033-.147.033-.148.035-.148.035-.147.037-.147.037-.146.038-.146.04-.145.04-.146.04-.146.04-.145.044-.145.042-.144.045-.143.045-.143.046-.143.046-.142.048-.142.05-.14.048-.143.05-.14.05-.14.053-.14.053-.14.053-.14.053-.14.056-.138.055-.138.056-.138.06-.138.057-.137.06-.136.06-.137.06-.136.062-.135.06-.134.065-.135.064-.133.063-.134.066-.133.065-.132.067-.13.068-.132.07-.13.068-.132.07-.13.07-.13.073-.13.074-.127.073-.13.074-.127.075-.127.076-.127.077-.127.077-.126.078-.125.078-.125.08-.124.08-.123.08-.124.08-.122.083-.122.082-.122.084-.12.083-.12.085-.12.085-.12.087-.12.086-.118.088-.118.088-.117.09-.117.09-.116.09-.116.09-.115.092-.114.092-.115.093-.114.093-.112.094-.112.095-.11.096-.113.096-.11.097-.11.1-.11.097-.108.1-.108.1-.108.1-.108.1-.106.1-.106.103-.105.103-.104.103-.103.104-.104.104-.102.106-.1.105-.103.107-.1.107-.1.106-.1.108-.1.11-.097.108-.098.11-.097.11-.096.112-.097.112-.095.112-.094.113-.094.114-.093.114-.092.114-.092.115-.09.116-.09.116-.09.116-.09.117-.088.118-.088.12-.087.118-.086.12-.086.12-.084.12-.084.12-.084.123-.083.123-.082.123-.08.123-.08.123-.08.124-.08.124-.078.127-.077.125-.077.126-.076.127-.076.127-.075.128-.073.128-.073.13-.072.128-.072.13-.07.13-.07.13-.07.13-.07.132-.067.132-.067.133-.066.133-.066.133-.065.133-.065.134-.063.134-.062.137-.062.135-.06.136-.06.136-.06.137-.058.14-.058.136-.057.138-.056.14-.056.138-.054.14-.054.14-.052.14-.052.14-.05.14-.05.142-.05.142-.05.142-.047.142-.047.143-.046.143-.045.144-.044.144-.043.145-.043.143-.042.145-.04.146-.04.146-.04.146-.037.147-.038.147-.036.147-.035.147-.036.148-.034.15-.033.147-.03.148-.032.15-.03.15-.03.15-.028.15-.027.15-.027.15-.025.152-.025.15-.024.153-.023.152-.022.152-.02.153-.02.153-.02.153-.018.153-.017.153-.016.154-.015.155-.015.154-.014.155-.01.156-.012.155-.01.157-.01.156-.008.156-.008.155-.006.157-.006.157-.004.156-.004.157-.002.157-.002h269.3zm-269.14 2.927h-.14l-.14.002-.14.002-.137.002-.138.004-.138.005-.138.007-.14.006-.136.008-.137.01-.137.008-.137.01-.136.01-.136.012-.135.013-.136.013-.136.015-.135.016-.136.015-.135.018-.135.018-.134.018-.133.02-.133.02-.133.02-.132.022-.133.022-.133.023-.132.025-.132.025-.13.026-.132.026-.13.028-.132.028-.13.03-.13.028-.13.03-.13.032-.13.032-.128.033-.128.033-.13.034-.127.035-.126.036-.127.038-.127.037-.127.038-.126.04-.126.04-.125.04-.125.04-.125.042-.125.043-.124.043-.124.046-.124.044-.123.046-.123.046-.122.047-.123.047-.12.05-.123.048-.12.05-.122.05-.12.052-.12.052-.12.052-.12.053-.118.054-.118.054-.118.056-.118.056-.117.057-.117.058-.116.06-.116.058-.116.06-.115.06-.115.062-.115.06-.114.064-.114.063-.114.064-.112.065-.113.065-.112.066-.11.066-.112.067-.11.067-.11.068-.11.07-.11.07-.11.07-.107.07-.108.072-.108.072-.107.072-.106.073-.107.074-.105.074-.105.075-.105.075-.104.077-.103.077-.103.077-.103.078-.102.08-.1.08-.103.08-.1.08-.1.08-.1.083-.1.082-.1.083-.098.084-.097.084-.098.086-.097.086-.096.086-.097.086-.095.087-.095.09-.094.087-.095.09-.093.088-.092.09-.092.09-.092.092-.09.09-.09.093-.09.093-.09.093-.09.094-.088.094-.087.095-.087.094-.086.096-.086.096-.085.097-.084.097-.084.098-.083.1-.083.097-.083.1-.082.1-.08.1-.082.1-.08.102-.08.102-.08.1-.077.104-.078.104-.077.103-.076.106-.075.104-.077.105-.074.106-.076.107-.073.107-.072.107-.072.108-.072.108-.07.11-.07.108-.07.11-.07.11-.068.11-.067.11-.068.11-.067.112-.066.112-.066.112-.064.113-.064.113-.063.114-.062.114-.06.114-.062.115-.06.116-.06.114-.06.116-.058.117-.057.117-.057.117-.057.12-.056.117-.055.118-.055.12-.054.118-.052.12-.052.12-.05.12-.052.12-.05.122-.05.12-.048.123-.047.122-.048.123-.047.123-.045.123-.045.123-.044.123-.043.125-.042.125-.042.125-.04.126-.042.125-.038.127-.04.127-.037.126-.038.127-.036.128-.035.127-.035.128-.035.128-.033.13-.033.128-.033.13-.03.128-.032.13-.03.13-.028.13-.028.13-.028.132-.027.132-.025.13-.025.133-.024.133-.023.133-.022.132-.022.133-.02.134-.02.134-.02.134-.018.134-.018.134-.016.135-.015.135-.015.135-.014.135-.014.136-.012.136-.012.136-.01.136-.01.137-.01.138-.008.137-.007.137-.007.138-.006.137-.005.138-.003.14-.004.137-.002.14v.138l-.002.14v.138l.002.14.002.138.004.138.003.138.005.138.006.138.007.138.007.137.008.137.01.137.01.137.01.136.012.136.012.136.014.136.014.135.015.135.016.135.017.135.018.134.018.134.02.134.02.133.02.134.022.133.022.132.024.133.025.132.025.132.025.13.027.13.027.132.027.13.03.13.028.132.03.13.032.13.032.128.032.13.033.127.035.128.035.128.036.127.037.128.038.128.038.126.04.126.038.126.042.126.04.125.043.125.042.125.044.124.045.125.045.124.045.122.047.123.047.122.046.123.05.12.048.123.05.12.05.122.052.12.052.12.053.12.055.12.054.118.054.118.055.12.056.117.057.117.057.117.06.117.058.117.06.115.06.114.06.115.063.114.063.114.063.113.064.115.064.112.065.113.065.112.067.11.067.112.066.11.07.11.068.11.07.11.07.11.07.107.072.11.072.107.073.107.074.107.075.107.073.105.076.105.074.105.077.104.078.104.078.104.078.102.08.103.08.1.08.102.08.1.08.1.083.1.083.1.083.1.083.098.085.097.085.098.086.097.087.096.086.096.088.095.088.094.088.094.09.094.09.093.09.092.09.093.09.09.09.092.094.09.092.09.093.09.094.09.093.087.095.087.095.087.096.086.095.086.097.086.098.084.097.085.1.084.098.084.1.082.1.082.1.08.1.082.102.08.1.08.104.08.104.077.103.08.104.076.105.077.105.076.105.074.105.074.107.075.106.073.107.073.108.07.108.073.108.07.11.07.108.07.11.07.11.068.11.068.112.068.11.066.113.066.113.065.113.064.113.064.113.064.113.062.115.062.115.06.115.062.116.06.116.06.116.057.117.058.117.057.118.056.118.055.118.055.12.055.118.053.12.053.12.05.12.052.12.05.122.05.122.05.12.05.124.046.122.047.123.047.123.045.124.045.124.044.124.044.125.042.125.042.125.04.126.042.127.04.126.038.127.038.126.038.128.036.127.036.13.035.128.035.128.033.13.033.128.032.13.03.13.032.13.03.13.028.13.028.132.027.13.027.133.026.13.024.132.024.133.024.133.022.132.022.134.02.133.02.134.02.135.018.134.018.134.016.135.016.134.015.135.014.135.015.136.012.137.012.136.01.137.01.137.01.137.007.137.008.14.006.137.007.138.005.138.004.138.003h.14l.14.002h269.4l.14-.003.137-.004.138-.004.138-.005.138-.006.14-.005.136-.008.137-.008.137-.01.137-.01.136-.01.136-.013.135-.012.136-.014.136-.013.135-.015.136-.016.135-.016.135-.018.134-.018.133-.02.133-.02.134-.02.132-.022.133-.022.133-.024.132-.024.13-.024.133-.026.13-.027.132-.027.13-.028.13-.03.13-.028.13-.03.13-.032.13-.032.13-.033.127-.033.13-.035.127-.035.126-.036.128-.036.126-.038.127-.038.126-.04.126-.038.125-.04.125-.042.125-.042.125-.042.124-.044.124-.044.124-.045.123-.045.123-.047.122-.047.123-.047.12-.048.123-.05.12-.05.122-.05.12-.05.12-.053.12-.054.12-.053.118-.055.118-.055.118-.055.118-.056.117-.057.117-.058.116-.06.117-.058.115-.06.115-.06.115-.062.115-.062.114-.062.114-.063.113-.063.113-.064.113-.065.112-.066.11-.066.112-.068.11-.067.11-.068.11-.07.11-.068.11-.07.107-.07.108-.073.108-.07.107-.074.106-.073.107-.075.105-.074.105-.075.105-.077.104-.077.103-.077.103-.08.103-.077.102-.08.1-.08.103-.08.1-.08.1-.08.1-.083.1-.082.1-.084.098-.083.097-.083.098-.085.097-.086.096-.086.097-.086.095-.087.095-.088.094-.09.095-.088.093-.09.092-.09.093-.09.09-.09.092-.092.09-.093.09-.092.09-.093.09-.094.087-.094.087-.095.087-.096.086-.096.086-.096.085-.097.084-.098.084-.097.083-.1.083-.098.083-.1.082-.1.08-.1.082-.1.08-.1.08-.103.08-.104.077-.102.078-.104.077-.104.076-.104.075-.105.077-.105.074-.105.076-.107.073-.106.072-.107.072-.108.07-.11.072-.107.07-.11.07-.108.07-.11.068-.11.067-.11.07-.112.065-.11.066-.113.066-.113.064-.112.064-.114.063-.112.062-.114.06-.115.062-.115.06-.116.06-.117.06-.116.058-.116.058-.116.057-.117.056-.118.056-.12.055-.117.055-.12.054-.118.052-.12.052-.12.05-.12.052-.12.05-.122.05-.12.048-.123.047-.123.048-.122.047-.123.045-.123.045-.125.044-.124.043-.123.042-.125.042-.125.04-.125.042-.126.038-.125.04-.126.037-.127.038-.127.036-.127.035-.127.035-.128.035-.13.033-.127.033-.128.033-.13.03-.13.032-.128.03-.13.028-.13.028-.132.028-.13.027-.132.025-.13.025-.133.024-.132.023-.133.022-.133.022-.133.02-.134.02-.133.02-.134.018-.134.018-.134.016-.135.015-.135.015-.135.014-.135.014-.136.012-.136.012-.136.01-.136.01-.137.01-.137.008-.137.007-.137.007-.138.006-.137.005-.138.003-.138.004-.138.002-.14v-.138l.002-.14v-.138l-.002-.14-.002-.138-.004-.138-.003-.14-.005-.137-.006-.138-.007-.138-.007-.137-.008-.137-.01-.137-.01-.136-.01-.136-.012-.136-.012-.136-.014-.136-.014-.135-.015-.135-.016-.135-.017-.135-.018-.134-.018-.134-.02-.134-.02-.134-.02-.133-.022-.132-.022-.132-.024-.133-.025-.132-.025-.13-.025-.133-.027-.13-.027-.132-.027-.13-.03-.13-.028-.13-.03-.13-.032-.13-.032-.13-.032-.128-.033-.13-.035-.127-.035-.128-.036-.127-.037-.128-.038-.127-.038-.126-.04-.127-.038-.126-.042-.124-.04-.126-.043-.125-.042-.124-.044-.123-.045-.124-.045-.124-.045-.124-.047-.123-.047-.123-.046-.122-.05-.122-.048-.12-.05-.122-.05-.12-.052-.12-.052-.12-.053-.12-.055-.12-.054-.12-.054-.117-.055-.118-.055-.12-.058-.116-.057-.117-.06-.117-.058-.116-.06-.115-.06-.117-.06-.115-.063-.114-.063-.114-.063-.114-.064-.113-.064-.113-.065-.112-.065-.112-.066-.11-.07-.112-.066-.11-.07-.11-.068-.11-.07-.11-.07-.11-.07-.108-.072-.108-.072-.107-.073-.106-.074-.107-.075-.106-.073-.105-.076-.105-.074-.104-.077-.105-.078-.102-.078-.104-.078-.103-.08-.1-.08-.103-.08-.1-.08-.102-.08-.1-.083-.1-.083-.1-.083-.098-.083-.1-.085-.097-.085-.097-.086-.097-.087-.096-.086-.096-.088-.095-.088-.096-.088-.094-.09-.094-.09-.093-.09-.093-.09-.092-.09-.09-.09-.092-.094-.09-.092-.09-.093-.09-.094-.09-.093-.087-.095-.09-.095-.086-.096-.086-.095-.086-.097-.086-.098-.085-.097-.083-.1-.084-.098-.083-.1-.082-.1-.082-.1-.082-.1-.08-.102-.08-.1-.08-.104-.08-.104-.077-.103-.078-.104-.078-.105-.077-.105-.076-.105-.076-.105-.075-.107-.075-.106-.073-.107-.073-.108-.073-.108-.072-.108-.07-.11-.07-.108-.07-.11-.07-.11-.068-.11-.068-.112-.068-.11-.066-.113-.066-.113-.065-.112-.064-.114-.063-.113-.063-.113-.063-.115-.06-.115-.062-.115-.06-.116-.06-.116-.06-.116-.057-.117-.057-.117-.057-.118-.056-.118-.056-.118-.055-.12-.055-.118-.053-.12-.053-.12-.053-.12-.05-.12-.052-.122-.05-.122-.05-.12-.048-.124-.048-.122-.048-.123-.046-.123-.046-.124-.044-.124-.045-.124-.042-.125-.043-.125-.04-.125-.043-.126-.04-.127-.04-.126-.04-.127-.037-.127-.037-.127-.037-.127-.035-.13-.035-.128-.034-.128-.033-.13-.033-.128-.032-.13-.03-.13-.032-.13-.03-.13-.028-.13-.028-.132-.028-.13-.026-.132-.026-.132-.025-.132-.024-.133-.022-.133-.022-.133-.022-.134-.02-.133-.02-.134-.02-.135-.018-.134-.018-.134-.017-.135-.014-.134-.015-.135-.014-.135-.013-.136-.013-.137-.01-.136-.012-.137-.01-.137-.01-.137-.007-.137-.007-.14-.006-.137-.006-.138-.004-.138-.004-.138-.003-.14-.003h-.14l-.14-.002H25.01z" fill="#46AEDA"/><path d="M40.849 164.185c-.002-.522-.216-1.027-.568-1.38l-5.253-5.258c1.24-1.792 1.898-3.94 1.898-6.115 0-5.962-4.824-10.79-10.78-10.79-5.958 0-10.782 4.828-10.782 10.79 0 5.963 4.824 10.79 10.78 10.79 2.176 0 4.32-.658 6.11-1.9l5.254 5.242c.353.368.857.583 1.378.583 1.072 0 1.96-.89 1.96-1.962zm-7.842-12.753c0 3.785-3.078 6.866-6.86 6.866-3.784 0-6.86-3.08-6.86-6.866 0-3.786 3.076-6.867 6.86-6.867 3.782 0 6.86 3.08 6.86 6.867z" fill="#46AEDA"/><g><path d="M159.855.247l.355.003.354.006.354.008.353.01.354.012.352.014.35.017.352.02.35.02.35.024.35.026.348.028.348.03.347.032.348.034.346.036.346.038.345.04.344.044.342.045.343.046.343.05.34.05.342.053.34.055.34.058.34.06.337.06.337.064.337.066.337.068.335.07.334.07.334.075.333.075.332.078.33.08.332.08.33.085.33.086.327.088.328.09.326.09.326.095.325.096.323.097.324.1.322.1.32.105.32.105.32.107.32.11.318.11.318.113.316.115.315.117.315.118.313.12.313.123.312.124.31.126.31.128.31.13.307.132.307.133.306.135.305.137.304.14.302.14.302.142.302.143.3.145.3.148.297.15.296.15.295.153.295.154.294.156.293.158.292.16.29.16.29.164.287.165.288.166.286.168.286.17.284.172.283.174.282.174.28.177.28.178.278.18.277.18.276.184.275.183.275.187.273.187.27.19.27.19.27.193.268.194.266.196.265.197.265.2.262.2.262.2.26.204.26.206.257.207.257.207.255.21.254.21.252.213.25.214.25.215.25.217.248.218.246.22.245.22.244.223.242.225.24.226.24.228.24.228.235.23.237.23.234.233.233.233.23.236.23.235.23.238.226.24.225.24.224.243.222.243.22.244.22.246.22.248.216.248.215.25.214.252.213.253.21.255.21.255.208.256.206.258.205.26.203.26.2.26.202.264.2.264.196.265.196.267.194.267.193.27.19.27.19.272.188.272.187.274.185.275.183.276.18.276.18.278.18.28.175.28.175.282.173.283.172.283.17.285.168.286.166.288.165.288.162.29.162.29.16.292.157.293.157.293.155.295.153.296.15.296.15.298.148.3.145.3.144.3.143.302.14.303.14.303.136.305.136.306.133.307.13.31.13.308.128.31.126.31.124.312.122.313.12.313.12.315.116.316.115.317.114.317.11.318.11.32.107.32.107.32.103.32.1.323.1.325.1.324.094.324.094.325.092.326.09.328.087.328.086.33.084.33.082.33.08.33.077.333.075.333.074.333.072.336.07.335.068.337.065.336.065.338.06.34.06.338.058.34.056.34.052.34.05.342.05.342.047.343.044.343.043.344.04.345.04.346.035.346.034.346.032.347.03.348.028.35.025.35.024.348.02.35.02.352.017.35.016.353.012.353.01.353.008.352.006.355.003.354v.712l-.003.354-.006.355-.008.354-.01.353-.012.353-.015.352-.016.35-.02.352-.02.35-.023.35-.024.35-.028.348-.03.348-.032.347-.034.347-.036.346-.04.346-.04.345-.042.345-.045.343-.048.343-.05.343-.05.342-.053.34-.057.34-.057.34-.06.34-.06.337-.065.338-.064.336-.068.336-.07.335-.072.335-.074.333-.075.333-.078.332-.08.332-.083.33-.084.33-.086.33-.087.327-.09.327-.092.326-.094.326-.095.324-.1.324-.1.324-.1.322-.103.322-.106.32-.106.32-.11.32-.11.317-.113.317-.114.317-.117.315-.12.315-.12.313-.122.313-.124.31-.126.312-.128.31-.13.31-.13.307-.134.307-.135.305-.136.305-.14.304-.14.303-.142.302-.144.3-.145.3-.148.3-.15.297-.15.297-.153.296-.155.294-.156.294-.157.293-.16.293-.16.29-.164.29-.166.288-.166.288-.168.287-.17.285-.172.284-.173.283-.175.28-.176.282-.178.28-.18.277-.18.277-.184.276-.185.275-.186.274-.187.27-.19.272-.19.27-.193.27-.194.267-.195.266-.196.265-.2.265-.2.263-.2.26-.205.262-.206.26-.206.257-.208.256-.21.255-.21.254-.213.253-.214.25-.215.25-.217.25-.217.248-.22.246-.22.244-.224.243-.225.242-.226.24-.228.24-.228.238-.23.236-.23.236-.233.234-.233.232-.236.23-.235.23-.24.23-.238.226-.24.226-.243.224-.243.222-.244.222-.246.22-.248.218-.25.217-.25.216-.25.214-.253.212-.255.21-.255.21-.257.208-.258.207-.26.205-.26.203-.26.202-.263.2-.265.2-.265.196-.266.196-.268.193-.27.192-.27.19-.27.19-.273.188-.274.187-.274.184-.276.183-.277.18-.278.18-.28.18-.28.176-.282.174-.283.173-.284.172-.285.17-.285.168-.288.166-.288.165-.29.164-.29.162-.293.16-.293.157-.294.156-.295.154-.296.153-.297.15-.298.15-.3.148-.3.145-.3.144-.303.143-.303.14-.305.14-.305.136-.306.135-.307.133-.308.132-.31.13-.31.128-.31.126-.312.124-.313.122-.313.12-.315.12-.315.116-.316.115-.318.112-.318.11-.32.11-.32.108-.32.105-.32.104-.323.1-.324.1-.324.098-.326.096-.326.094-.326.09-.328.09-.328.09-.33.085-.33.084-.33.08-.33.08-.333.078-.333.076-.334.074-.334.072-.335.07-.336.067-.336.066-.337.063-.338.062-.34.06-.34.057-.34.055-.34.053-.342.05-.343.05-.343.047-.343.045-.345.043-.345.04-.346.04-.346.035-.347.034-.346.032-.348.03-.35.027-.348.025-.35.024-.35.02-.35.02-.352.016-.352.015-.353.012-.352.01-.354.007-.354.006-.355.003h-.71l-.355-.003-.354-.006-.354-.008-.353-.01-.354-.013-.352-.015-.35-.016-.352-.02-.35-.02-.35-.024-.35-.025-.348-.028-.348-.03-.347-.033-.348-.034-.346-.036-.346-.038-.345-.042-.344-.043-.342-.045-.343-.047-.343-.05-.34-.05-.342-.053-.34-.055-.34-.058-.34-.06-.337-.06-.337-.064-.337-.066-.337-.068-.335-.07-.334-.072-.334-.074-.333-.076-.332-.078-.332-.08-.33-.08-.33-.085-.33-.086-.327-.09-.328-.09-.326-.09-.326-.094-.325-.096-.323-.097-.324-.1-.322-.1-.32-.105-.32-.105-.32-.107-.32-.11-.318-.11-.318-.113-.316-.115-.315-.117-.315-.117-.313-.12-.313-.123-.312-.124-.31-.126-.31-.128-.31-.13-.307-.13-.307-.134-.306-.135-.305-.137-.304-.14-.302-.14-.302-.142-.302-.144-.3-.145-.3-.148-.297-.15-.297-.15-.295-.153-.295-.155-.294-.157-.293-.158-.292-.16-.29-.16-.29-.164-.287-.164-.288-.166-.286-.168-.286-.17-.284-.172-.283-.173-.282-.174-.28-.177-.28-.178-.278-.18-.277-.18-.276-.184-.275-.184-.275-.187-.273-.187-.27-.19-.27-.19-.27-.193-.268-.194-.266-.197-.265-.197-.265-.2-.262-.2-.262-.2-.26-.204-.26-.205-.257-.207-.257-.208-.255-.21-.254-.21-.252-.212-.25-.214-.25-.215-.25-.216-.248-.22-.246-.218-.245-.222-.244-.222-.242-.224-.24-.226-.24-.227-.24-.228-.235-.23-.237-.23-.234-.233-.233-.234-.23-.236-.23-.236-.23-.24-.226-.238-.225-.24-.224-.243-.222-.243-.22-.245-.22-.247-.22-.248-.216-.25-.215-.25-.214-.25-.213-.253-.21-.254-.21-.255-.208-.256-.206-.258-.205-.26-.203-.26-.2-.262-.202-.263-.2-.264-.196-.264-.196-.267-.194-.268-.193-.27-.19-.27-.19-.27-.188-.273-.187-.275-.185-.275-.183-.276-.18-.277-.18-.278-.18-.28-.175-.28-.175-.283-.173-.283-.172-.284-.17-.285-.168-.287-.166-.287-.165-.287-.162-.29-.162-.29-.16-.292-.157-.292-.157-.294-.155-.294-.153-.296-.15-.297-.15-.298-.148-.3-.145-.3-.144-.3-.143-.303-.14-.303-.14-.304-.136-.305-.136-.306-.133-.308-.13-.308-.13-.31-.128-.31-.126-.31-.124-.31-.122-.314-.12-.313-.12-.315-.116-.315-.115-.317-.114-.317-.11-.318-.11-.32-.107-.32-.107-.32-.103-.32-.1-.323-.1-.324-.1-.324-.094-.325-.094-.327-.092-.326-.09-.328-.087-.33-.086-.328-.084-.33-.082-.33-.08-.332-.077-.332-.075-.333-.074-.333-.072-.335-.07-.335-.068-.336-.065-.336-.065-.338-.06-.338-.06-.34-.058-.338-.056-.34-.052-.34-.05-.343-.05-.342-.047-.342-.044-.343-.043-.344-.04-.344-.04-.346-.035-.346-.034-.347-.032-.347-.03-.348-.028-.348-.025-.35-.024-.35-.02-.35-.02-.35-.017-.352-.016-.352-.012-.353-.01-.353-.008-.353-.006-.354-.003-.354v-.711l.003-.353.006-.355.008-.353.01-.354.012-.353.015-.352.016-.35.02-.35.02-.352.023-.35.024-.35.028-.347.03-.347.032-.347.034-.347.036-.347.04-.346.04-.345.042-.344.045-.343.048-.343.05-.342.05-.342.053-.34.057-.34.057-.34.06-.34.06-.337.065-.337.064-.336.068-.336.07-.334.072-.335.074-.332.075-.333.078-.332.08-.332.083-.33.084-.33.086-.328.087-.33.09-.326.092-.327.094-.326.095-.325.1-.325.1-.324.1-.32.103-.323.106-.32.106-.32.11-.32.11-.317.113-.317.114-.317.117-.315.12-.314.12-.313.122-.313.124-.31.126-.312.128-.31.13-.31.13-.307.134-.306.135-.306.136-.305.14-.304.14-.304.14-.302.146-.3.145-.3.148-.3.15-.298.15-.297.153-.297.155-.295.156-.293.157-.293.16-.292.16-.29.164-.29.166-.288.166-.288.168-.286.17-.285.172-.284.173-.284.175-.282.176-.28.178-.28.18-.278.18-.277.184-.277.185-.275.186-.274.187-.272.19-.272.19-.27.193-.27.194-.266.195-.267.196-.265.2-.264.2-.263.2-.26.205-.262.206-.26.206-.257.208-.256.21-.255.21-.254.213-.252.214-.25.215-.252.217-.248.217-.248.22-.246.22-.245.224-.244.225-.242.226-.24.228-.24.228-.24.23-.235.23-.237.233-.234.233-.233.236-.23.235-.23.24-.23.238-.226.24-.225.243-.224.243-.222.244-.22.246-.22.248-.22.25-.216.25-.215.25-.214.253-.212.255-.21.255-.21.257-.207.258-.207.26-.205.26-.202.26-.202.263-.2.265-.2.265-.196.266-.196.268-.194.27-.192.27-.19.27-.19.273-.188.274-.187.274-.184.276-.184.277-.18.278-.18.28-.18.28-.176.282-.174.283-.174.284-.17.285-.17.285-.17.288-.165.288-.165.29-.163.29-.163.293-.16.293-.157.294-.156.295-.155.295-.154.297-.15.298-.15.3-.148.3-.145.3-.144.303-.144.303-.14.305-.14.305-.136.306-.135.307-.133.308-.13.31-.13.31-.13.31-.125.312-.124.313-.122.313-.12.315-.118.315-.117.316-.115.318-.113.318-.11.32-.11.32-.107.32-.105.32-.104.323-.1.324-.1.324-.097.326-.096.326-.094.326-.09.328-.09.328-.09.33-.085.33-.084.33-.08.33-.08.333-.08.333-.075.334-.075.334-.072.335-.07.336-.067.336-.066.337-.063.338-.062.34-.06.34-.057.34-.055.34-.053.342-.05.343-.05.343-.047.343-.045.345-.043.345-.04.346-.04.346-.035.347-.034.346-.032.348-.03.35-.028.348-.025.35-.023.35-.02.35-.02.352-.017.352-.014.353-.012.352-.01.354-.008.354-.006.355-.003h.71zm-.69 3l-.337.003-.335.005-.335.008-.334.01-.334.01-.333.015-.332.015-.332.018-.33.02-.332.023-.33.024-.33.027-.328.028-.33.03-.327.032-.327.035-.327.035-.325.038-.325.04-.325.043-.324.044-.323.047-.323.048-.322.05-.32.053-.322.054-.32.056-.32.058-.32.06-.317.063-.318.063-.316.066-.318.066-.315.07-.315.072-.313.073-.315.077-.312.077-.312.08-.31.08-.31.084-.31.084-.308.087-.308.088-.307.09-.306.092-.305.094-.305.096-.304.098-.303.1-.302.1-.3.104-.3.105-.3.107-.3.108-.298.11-.297.112-.296.114-.297.116-.295.117-.293.12-.293.12-.292.123-.29.125-.29.126-.29.127-.29.13-.286.132-.287.132-.285.135-.285.135-.283.138-.283.14-.28.14-.28.143-.28.145-.28.147-.278.147-.276.15-.276.15-.275.153-.274.154-.27.157-.273.157-.27.16-.27.16-.27.162-.266.164-.266.165-.265.167-.265.168-.264.17-.26.172-.262.173-.26.174-.258.175-.258.178-.257.18-.255.18-.254.18-.254.185-.252.185-.25.186-.25.187-.25.19-.246.19-.246.193-.245.194-.244.195-.244.196-.24.198-.242.2-.24.2-.236.202-.237.204-.234.205-.234.206-.233.21-.233.21-.23.21-.23.21-.227.214-.226.215-.226.215-.223.217-.223.22-.22.22-.22.22-.22.223-.217.224-.216.224-.216.226-.213.228-.21.23-.212.23-.21.23-.207.234-.205.234-.206.235-.204.237-.203.238-.2.24-.2.24-.198.24-.197.243-.195.244-.194.245-.193.246-.19.248-.19.25-.188.25-.188.25-.185.252-.183.253-.183.254-.18.255-.178.256-.178.26-.176.258-.174.26-.173.26-.17.263-.17.264-.17.264-.166.266-.165.266-.165.268-.162.268-.16.27-.16.27-.157.272-.156.273-.154.274-.152.275-.15.275-.15.276-.15.28-.145.278-.145.28-.143.28-.14.282-.14.283-.138.283-.136.285-.135.286-.133.287-.13.287-.13.288-.128.29-.126.29-.124.29-.122.292-.12.293-.12.294-.118.295-.115.295-.114.296-.112.298-.11.3-.108.298-.106.3-.105.3-.103.3-.1.304-.1.303-.098.303-.097.305-.094.306-.093.305-.09.307-.09.308-.086.308-.084.31-.083.31-.08.31-.08.313-.078.313-.075.313-.074.314-.07.315-.07.315-.07.316-.065.317-.063.317-.062.32-.06.317-.058.32-.056.32-.054.32-.052.323-.05.322-.05.323-.045.323-.045.324-.043.325-.04.325-.04.326-.035.327-.034.327-.033.328-.03.33-.028.328-.026.33-.024.33-.022.33-.02.332-.018.332-.016.332-.014.333-.01.334-.01.335-.008.334-.006.335-.003.335v.673l.003.335.006.335.007.335.01.334.012.334.014.333.016.33.018.333.02.332.022.33.024.33.026.33.028.33.03.328.033.328.034.328.036.326.04.326.04.326.042.325.044.325.045.323.05.323.05.323.05.322.056.32.057.32.058.32.06.32.062.318.064.317.067.317.068.316.07.315.07.315.075.314.075.313.078.312.08.312.08.31.083.31.085.31.088.31.088.307.09.308.093.306.093.306.096.304.097.304.1.303.1.304.104.3.106.302.106.3.11.298.11.298.11.298.115.296.115.295.118.296.12.294.12.293.122.29.124.292.126.29.128.29.13.288.13.287.133.287.135.285.136.285.138.283.14.283.14.282.143.28.144.28.145.28.148.277.15.276.15.276.153.275.154.272.156.273.157.272.16.27.16.27.162.268.164.268.164.266.167.265.17.264.17.262.17.262.174.26.174.26.176.26.178.258.18.256.18.255.182.255.183.253.185.253.187.25.187.25.19.25.19.246.192.246.193.245.195.244.197.243.198.24.2.242.2.238.203.237.203.237.205.235.206.234.21.234.208.232.21.23.213.23.214.227.215.226.215.224.217.224.22.223.22.222.22.22.223.22.223.216.226.216.226.215.228.212.23.212.23.21.23.21.234.207.234.208.235.205.238.204.237.202.24.2.24.2.24.197.244.197.242.195.246.193.246.192.247.19.25.19.25.19.25.185.252.185.254.184.254.18.255.18.257.18.258.178.258.176.26.174.26.173.263.173.265.17.264.168.264.168.267.165.268.164.27.162.268.16.27.158.273.158.27.156.275.154.275.152.276.15.276.15.278.148.28.146.28.145.28.143.28.14.284.14.283.138.285.136.285.135.287.13.287.132.29.13.29.127.29.125.29.125.292.122.293.12.293.12.295.117.296.115.295.114.297.11.298.11.3.11.3.106.3.105.3.104.303.1.303.1.304.1.305.095.306.093.307.092.307.09.308.09.31.086.308.085.31.083.31.08.313.08.312.078.314.076.312.073.315.072.315.07.317.067.315.066.318.064.318.062.32.06.32.06.32.055.32.055.322.052.322.05.323.05.324.045.325.045.325.042.325.04.326.038.328.036.327.035.328.03.33.03.328.03.33.026.33.024.332.022.33.02.333.018.332.015.333.014.334.01.334.01.335.008.335.005.336.003h.672l.336-.003.335-.005.335-.008.334-.01.334-.01.333-.015.332-.015.332-.018.33-.02.332-.022.33-.024.33-.027.328-.03.33-.03.327-.03.327-.036.327-.036.325-.038.325-.04.325-.043.324-.045.323-.046.323-.048.322-.05.32-.053.322-.054.32-.055.32-.06.32-.06.317-.06.318-.065.316-.066.318-.067.315-.07.315-.072.313-.073.315-.076.312-.077.312-.08.31-.082.31-.083.31-.084.308-.086.308-.09.307-.09.306-.09.305-.095.305-.097.304-.098.303-.1.302-.1.3-.104.3-.104.3-.107.3-.11.298-.11.297-.11.296-.115.297-.116.295-.118.293-.12.293-.12.292-.122.29-.125.29-.126.29-.128.29-.13.286-.13.287-.133.285-.136.285-.136.283-.138.283-.14.28-.14.28-.143.28-.145.28-.146.278-.147.276-.15.276-.152.275-.152.274-.154.27-.156.273-.158.27-.158.27-.16.27-.163.266-.164.266-.165.265-.167.265-.167.264-.17.26-.172.262-.172.26-.174.258-.176.258-.178.257-.18.255-.18.254-.18.254-.185.252-.185.25-.186.25-.188.25-.19.246-.19.246-.193.246-.194.243-.196.244-.197.24-.198.242-.2.24-.2.236-.203.237-.204.234-.205.234-.207.233-.206.233-.21.23-.21.23-.212.227-.213.226-.216.226-.216.223-.217.223-.218.22-.22.22-.22.22-.224.217-.224.216-.225.216-.227.213-.228.21-.23.212-.23.21-.23.207-.234.205-.233.206-.235.204-.237.203-.237.2-.24.2-.24.198-.24.197-.244.195-.243.194-.244.193-.247.19-.248.19-.248.188-.25.188-.25.185-.253.183-.252.183-.254.18-.256.178-.256.178-.258.176-.26.174-.26.173-.26.17-.262.17-.263.17-.265.166-.266.165-.267.165-.268.162-.268.16-.27.16-.27.157-.272.156-.273.154-.273.152-.276.15-.276.15-.276.15-.278.145-.28.145-.28.143-.28.14-.28.14-.284.138-.283.136-.285.135-.285.133-.287.13-.287.13-.288.128-.29.126-.29.124-.29.122-.292.12-.293.12-.294.118-.295.115-.294.114-.296.112-.298.11-.298.108-.3.106-.298.105-.3.103-.302.1-.303.1-.302.098-.304.097-.304.094-.306.093-.306.09-.307.09-.307.086-.31.084-.308.083-.31.08-.31.08-.313.078-.312.075-.313.074-.314.07-.315.07-.315.07-.316.065-.317.063-.317.062-.32.06-.317.058-.32.056-.32.054-.32.052-.323.05-.322.05-.322.045-.323.045-.324.043-.324.04-.326.04-.326.035-.326.034-.327.033-.327.03-.33.028-.328.026-.33.024-.33.022-.33.02-.332.018-.332.016-.33.014-.334.01-.334.01-.334.008-.334.006-.336.003-.335V54.9l-.003-.335-.006-.336-.007-.335-.01-.334-.012-.333-.014-.333-.016-.332-.018-.332-.02-.332-.022-.33-.024-.33-.026-.33-.028-.33-.03-.328-.033-.328-.034-.327-.036-.327-.04-.326-.04-.325-.042-.325-.044-.324-.045-.323-.05-.323-.05-.322-.05-.322-.056-.32-.057-.32-.058-.32-.06-.32-.062-.318-.064-.317-.067-.317-.068-.316-.07-.315-.07-.315-.075-.314-.075-.313-.078-.312-.08-.31-.08-.312-.083-.31-.085-.31-.088-.308-.088-.308-.09-.307-.093-.306-.093-.307-.096-.305-.097-.303-.1-.303-.1-.303-.104-.302-.106-.3-.106-.3-.11-.3-.11-.297-.11-.297-.115-.296-.115-.295-.118-.295-.12-.294-.12-.293-.122-.29-.124-.293-.126-.29-.128-.29-.13-.287-.13-.287-.133-.287-.135-.285-.136-.284-.138-.283-.14-.283-.14-.282-.143-.28-.144-.28-.145-.28-.148-.277-.15-.275-.15-.276-.153-.276-.154-.273-.156-.272-.157-.272-.16-.27-.16-.27-.162-.268-.164-.268-.164-.266-.167-.266-.17-.264-.17-.263-.17-.26-.174-.262-.174-.26-.176-.26-.178-.257-.18-.255-.18-.256-.182-.255-.183-.253-.185-.252-.187-.25-.187-.25-.19-.25-.19-.247-.192-.246-.193-.245-.195-.244-.197-.242-.198-.242-.2-.24-.2-.24-.203-.237-.203-.236-.205-.234-.206-.234-.21-.233-.208-.233-.21-.23-.213-.23-.214-.227-.215-.226-.215-.225-.217-.225-.22-.223-.22-.22-.22-.22-.223-.22-.223-.217-.226-.216-.226-.216-.228-.213-.23-.21-.23-.21-.23-.21-.234-.21-.234-.205-.235-.205-.238-.204-.237-.202-.24-.2-.24-.2-.24-.198-.244-.197-.242-.196-.246-.194-.246-.192-.247-.19-.25-.19-.25-.19-.25-.185-.252-.185-.254-.184-.254-.182-.255-.18-.257-.18-.258-.177-.258-.176-.26-.175-.26-.173-.263-.172-.265-.17-.264-.168-.264-.167-.267-.165-.268-.164-.27-.162-.268-.16-.27-.16-.273-.157-.27-.156-.275-.153-.275-.152-.276-.15-.276-.15-.278-.148-.28-.146-.28-.144-.28-.143-.28-.14-.284-.14-.283-.138-.285-.136-.285-.136-.287-.132-.287-.13-.29-.13-.29-.128-.29-.126-.29-.125-.292-.122-.293-.12-.293-.12-.295-.116-.296-.116-.295-.114-.297-.112-.298-.11-.3-.108-.3-.107-.3-.105-.3-.103-.303-.102-.303-.1-.304-.098-.305-.096-.306-.094-.307-.092-.307-.09-.308-.09-.31-.086-.308-.084-.31-.083-.31-.082-.313-.08-.312-.076-.314-.076-.312-.072-.315-.072-.315-.07-.317-.067-.315-.067-.318-.064-.318-.063-.32-.06-.32-.06-.32-.055-.32-.054-.322-.052-.322-.05-.323-.05-.324-.046-.325-.044-.325-.042-.325-.04-.326-.04-.328-.035-.327-.036-.328-.032-.33-.03-.328-.028-.33-.027-.33-.024-.332-.022-.33-.02-.333-.017-.332-.015-.333-.014-.334-.012-.334-.01-.335-.007-.335-.005-.336-.003h-.672z" fill="#46AEDA"/><path d="M159.5 101.086c25.324 0 45.854-20.528 45.854-45.85 0-25.32-20.53-45.85-45.854-45.85-25.324 0-45.854 20.53-45.854 45.85 0 25.322 20.53 45.85 45.854 45.85zm.392-59.417c13.125 0 23.765-2.554 23.765-5.703 0-3.15-10.64-5.702-23.765-5.702s-23.764 2.553-23.764 5.702c0 3.15 10.64 5.702 23.764 5.702zm23.765 7.314c0 3.15-10.64 5.703-23.765 5.703s-23.764-2.553-23.764-5.703V41.26s10.64 3.862 23.764 3.862c13.125 0 23.765-3.863 23.765-3.863v7.724zm0 13.018c0 3.15-10.64 5.702-23.765 5.702s-23.764-2.553-23.764-5.702v-7.726s10.64 3.863 23.764 3.863c13.125 0 23.765-3.864 23.765-3.864v7.726zm0 13.017c0 3.15-10.64 5.702-23.765 5.702s-23.764-2.553-23.764-5.703v-7.726s10.64 3.863 23.764 3.863c13.125 0 23.765-3.863 23.765-3.863v7.725z" fill="#fff"/></g></g><path d="M60.224 147.38c-.377-.426-.882-.77-1.517-1.035-.634-.264-1.347-.396-2.14-.396-1.192 0-2.06.222-2.6.668-.54.446-.81 1.052-.81 1.82 0 .4.072.73.217.988.144.258.37.48.678.67.308.188.698.35 1.17.49.47.137 1.026.276 1.667.414.715.15 1.355.317 1.92.5.566.18 1.05.414 1.452.697.402.282.71.628.923 1.036.214.408.32.914.32 1.517 0 .616-.12 1.15-.357 1.602-.24.452-.572.83-1 1.13-.426.302-.935.525-1.526.67-.59.144-1.23.217-1.922.217-2.098 0-3.888-.648-5.37-1.943l.64-1.074c.49.515 1.15.952 1.98 1.31.828.358 1.75.537 2.77.537 1.067 0 1.902-.19 2.505-.575.603-.383.905-.964.905-1.743 0-.415-.085-.763-.254-1.046-.17-.283-.424-.528-.764-.735-.34-.206-.763-.385-1.272-.536-.51-.15-1.096-.3-1.762-.452-.703-.164-1.32-.333-1.847-.51-.526-.175-.97-.395-1.327-.66-.358-.263-.63-.58-.81-.95-.183-.37-.274-.826-.274-1.367 0-.615.115-1.165.348-1.65.232-.482.56-.884.98-1.205.42-.32.923-.565 1.507-.735.585-.17 1.228-.254 1.932-.254.88 0 1.668.136 2.365.406.697.27 1.33.65 1.894 1.14l-.622 1.055zm7.652 11.064c-.717 0-1.376-.135-1.98-.405-.602-.27-1.124-.642-1.563-1.113-.44-.47-.783-1.015-1.028-1.63-.245-.616-.367-1.276-.367-1.98 0-.69.122-1.34.367-1.95.245-.61.588-1.143 1.028-1.602.44-.458.958-.822 1.554-1.093.597-.27 1.254-.405 1.97-.405s1.372.135 1.97.405c.596.27 1.108.638 1.535 1.103.427.465.76 1 1 1.602.238.603.357 1.244.357 1.922 0 .1-.004.2-.01.3-.007.1-.016.17-.03.208h-8.385c.038.528.16 1.014.367 1.46.208.446.472.833.792 1.16.32.326.69.58 1.112.763.42.183.87.274 1.347.274.327 0 .647-.044.96-.132.316-.088.604-.207.868-.358.265-.15.5-.336.708-.556.207-.22.368-.462.48-.726l1.112.302c-.15.364-.364.694-.64.99-.277.295-.597.552-.96.772-.366.22-.768.39-1.208.51-.44.118-.892.178-1.356.178zm3.618-5.616c-.038-.528-.16-1.008-.368-1.442-.207-.433-.47-.807-.79-1.12-.32-.315-.695-.56-1.122-.736-.428-.176-.88-.264-1.357-.264-.478 0-.93.088-1.357.264-.427.176-.8.42-1.12.735-.322.314-.58.69-.774 1.13-.195.44-.31.918-.35 1.433h7.238zm5.748 5.616c-.503 0-.96-.08-1.376-.236-.414-.157-.77-.373-1.065-.65-.294-.276-.523-.597-.686-.96-.164-.365-.245-.748-.245-1.15 0-.453.1-.864.3-1.235.2-.37.484-.688.848-.952.364-.262.8-.467 1.31-.61.51-.146 1.07-.218 1.687-.218.49 0 .992.044 1.507.132.515.088.974.214 1.376.377v-.885c0-.867-.248-1.555-.744-2.063-.497-.51-1.166-.764-2.007-.764-.528 0-1.053.1-1.574.302-.522.2-1.052.49-1.593.867l-.452-.848c.64-.428 1.263-.75 1.866-.962.603-.214 1.23-.32 1.884-.32 1.194 0 2.143.345 2.846 1.036.704.69 1.056 1.646 1.056 2.864v4.43c0 .35.15.527.452.527v1.13c-.1.013-.195.022-.283.03-.09.005-.164.008-.227.008-.25 0-.48-.075-.688-.226-.207-.15-.323-.377-.35-.678l-.036-.774c-.428.578-.99 1.027-1.688 1.347-.697.32-1.404.48-2.12.48zm.32-.98c.566 0 1.128-.123 1.687-.368.558-.245 1-.58 1.328-1.008.088-.113.163-.235.226-.367.063-.13.094-.254.094-.367v-1.602c-.427-.162-.873-.288-1.338-.376-.465-.088-.917-.13-1.357-.13-.917 0-1.662.184-2.233.554-.572.37-.858.883-.858 1.536 0 .264.05.522.15.773.102.25.256.477.463.68.207.2.462.363.763.488.302.126.66.19 1.074.19zm12.307-7.896c-.868.025-1.622.263-2.263.716-.64.452-1.093 1.074-1.357 1.865v6.105h-1.28v-9.818h1.205v2.356c.34-.69.785-1.266 1.338-1.725.553-.458 1.15-.688 1.79-.688h.32c.1 0 .183.007.246.02v1.168zm1.073 3.75c0-.69.12-1.344.358-1.96.24-.616.576-1.153 1.01-1.61.433-.46.95-.82 1.554-1.085.603-.264 1.27-.396 1.998-.396.93 0 1.74.21 2.43.632.692.42 1.213.988 1.565 1.704l-1.244.396c-.276-.503-.66-.895-1.15-1.178-.49-.283-1.036-.424-1.64-.424-.502 0-.97.1-1.403.302-.434.2-.81.474-1.13.82-.32.345-.573.756-.755 1.234-.182.477-.273 1-.273 1.564 0 .553.094 1.074.283 1.564.188.49.446.914.772 1.272.327.358.707.64 1.14.848.434.208.896.31 1.386.31.314 0 .625-.043.933-.13.307-.09.593-.21.857-.368.264-.157.49-.336.678-.537.19-.2.322-.415.397-.64l1.244.376c-.137.352-.338.675-.602.97-.264.296-.575.553-.933.773-.358.22-.754.39-1.187.51-.434.118-.883.178-1.348.178-.716 0-1.375-.135-1.978-.405s-1.125-.642-1.565-1.113c-.44-.47-.782-1.015-1.027-1.63-.245-.616-.367-1.276-.367-1.98zm19.26 4.937h-1.28v-5.484c0-1.117-.193-1.952-.576-2.505-.383-.553-.946-.83-1.687-.83-.364 0-.725.073-1.083.217-.36.145-.695.343-1.01.594-.313.25-.586.547-.82.886-.23.34-.404.71-.517 1.112v6.01h-1.28V144.5h1.28v6.163c.402-.74.95-1.325 1.64-1.752.69-.427 1.432-.64 2.224-.64.565 0 1.046.103 1.44.31.397.207.717.496.962.867.245.37.424.817.538 1.338.113.522.17 1.096.17 1.725v5.747zm7.538 3.035c.064.012.127.022.19.028.063.006.126.01.188.01.126 0 .26-.013.406-.038.144-.025.248-.05.31-.076.063-.025.13-.078.198-.16.07-.082.157-.226.264-.433.107-.207.242-.496.405-.866.165-.37.372-.87.623-1.5l-4.278-9.817h1.338l3.638 8.63 3.355-8.63h1.225l-5.107 12.664c-.19.466-.443.812-.763 1.038-.32.226-.77.34-1.348.34-.238 0-.452-.02-.64-.058v-1.13zm13.514-2.846c-.716 0-1.373-.135-1.97-.405-.596-.27-1.11-.64-1.545-1.104-.434-.465-.77-1.005-1.01-1.62-.238-.616-.357-1.263-.357-1.942 0-.69.122-1.344.367-1.96.245-.615.585-1.155 1.018-1.62.433-.465.95-.836 1.545-1.112.597-.277 1.247-.415 1.95-.415.704 0 1.355.138 1.95.415.598.276 1.113.647 1.547 1.112.433.465.772 1.005 1.017 1.62.245.616.368 1.27.368 1.96 0 .68-.123 1.326-.368 1.942-.245.615-.584 1.155-1.017 1.62-.434.465-.95.833-1.546 1.103-.596.27-1.247.404-1.95.404zm-3.562-5.05c0 .552.09 1.064.273 1.535.182.47.434.885.754 1.243.32.358.696.638 1.13.84.433.2.895.3 1.385.3s.952-.103 1.385-.31c.434-.208.814-.49 1.14-.85.327-.357.585-.775.773-1.252.188-.476.283-.992.283-1.544 0-.54-.095-1.053-.283-1.536-.188-.484-.446-.905-.773-1.263-.326-.358-.703-.64-1.13-.848-.428-.208-.886-.312-1.376-.312-.49 0-.952.104-1.385.31-.435.208-.812.494-1.132.858-.32.365-.575.79-.763 1.272-.19.484-.283 1.002-.283 1.555zm13.57 5.05c-1.03 0-1.81-.355-2.338-1.065s-.79-1.77-.79-3.176v-5.767h1.28v5.54c0 2.224.76 3.336 2.28 3.336.377 0 .748-.063 1.112-.188.365-.126.7-.308 1.01-.547.306-.24.583-.52.828-.848.245-.327.443-.697.593-1.112v-6.18h1.282v8.16c0 .35.156.527.47.527v1.13c-.25.038-.427.057-.528.057-.29 0-.537-.088-.744-.264-.207-.176-.31-.396-.31-.66v-1.356c-.44.766-1.025 1.36-1.754 1.78-.728.42-1.526.632-2.393.632zm13.06-8.876c-.868.025-1.622.263-2.262.716-.64.452-1.093 1.074-1.357 1.865v6.105h-1.282v-9.818h1.207v2.356c.34-.69.786-1.266 1.338-1.725.553-.458 1.15-.688 1.79-.688h.32c.102 0 .183.007.246.02v1.168zm10.195 8.876c-.68 0-1.307-.14-1.885-.424-.578-.283-1.077-.657-1.498-1.12-.42-.466-.748-1.003-.98-1.613-.233-.61-.35-1.247-.35-1.913 0-.69.114-1.347.34-1.97.227-.62.538-1.164.933-1.63.396-.464.867-.83 1.414-1.102.547-.27 1.147-.405 1.8-.405.83 0 1.565.217 2.205.65.64.434 1.15.958 1.527 1.574V144.5h1.28v12.1c0 .35.152.527.454.527v1.13c-.214.038-.383.057-.51.057-.313 0-.57-.09-.772-.273-.2-.183-.3-.4-.3-.65v-1.038c-.403.64-.934 1.15-1.594 1.527-.66.375-1.347.564-2.063.564zm.263-1.13c.327 0 .67-.064 1.028-.19.358-.125.69-.298.998-.518.308-.22.575-.477.8-.772.228-.295.366-.613.416-.952v-3.034c-.126-.34-.31-.657-.556-.952-.245-.295-.52-.556-.83-.782-.307-.226-.634-.402-.98-.528-.345-.125-.687-.188-1.026-.188-.528 0-1.01.113-1.442.34-.433.225-.8.524-1.102.894-.302.37-.538.795-.707 1.272-.17.478-.256.968-.256 1.47 0 .528.095 1.03.283 1.508.19.478.446.895.773 1.253.326.358.713.644 1.16.858.445.213.925.32 1.44.32zm11.647 1.13c-.716 0-1.372-.135-1.97-.405-.596-.27-1.11-.64-1.545-1.104-.433-.465-.77-1.005-1.008-1.62-.24-.616-.358-1.263-.358-1.942 0-.69.123-1.344.368-1.96.245-.615.584-1.155 1.017-1.62.435-.465.95-.836 1.547-1.112.596-.277 1.247-.415 1.95-.415.704 0 1.354.138 1.95.415.597.276 1.113.647 1.546 1.112.434.465.773 1.005 1.018 1.62.246.616.368 1.27.368 1.96 0 .68-.122 1.326-.367 1.942-.244.615-.583 1.155-1.017 1.62-.433.465-.95.833-1.545 1.103-.597.27-1.247.404-1.95.404zm-3.562-5.05c0 .552.09 1.064.274 1.535.18.47.432.885.752 1.243.32.358.698.638 1.13.84.435.2.896.3 1.386.3.49 0 .952-.103 1.385-.31.434-.208.814-.49 1.14-.85.327-.357.585-.775.773-1.252.19-.476.283-.992.283-1.544 0-.54-.095-1.053-.284-1.536-.188-.484-.446-.905-.772-1.263-.327-.358-.704-.64-1.13-.848-.428-.208-.887-.312-1.377-.312s-.952.104-1.385.31c-.433.208-.81.494-1.13.858-.32.365-.576.79-.764 1.272-.188.484-.283 1.002-.283 1.555zm9.894-.076c0-.69.12-1.344.357-1.96.24-.616.575-1.153 1.01-1.61.432-.46.95-.82 1.553-1.085.604-.264 1.27-.396 1.998-.396.93 0 1.74.21 2.43.632.692.42 1.214.988 1.565 1.704l-1.243.396c-.277-.503-.66-.895-1.15-1.178-.49-.283-1.037-.424-1.64-.424-.502 0-.97.1-1.404.302-.433.2-.81.474-1.13.82-.32.345-.572.756-.754 1.234-.182.477-.273 1-.273 1.564 0 .553.093 1.074.28 1.564.19.49.447.914.774 1.272s.707.64 1.14.848c.434.208.895.31 1.385.31.313 0 .624-.043.932-.13.308-.09.594-.21.858-.368.263-.157.49-.336.678-.537.188-.2.32-.415.396-.64l1.244.376c-.14.352-.34.675-.603.97-.264.296-.575.553-.933.773-.358.22-.754.39-1.188.51-.433.118-.882.178-1.347.178-.716 0-1.376-.135-1.98-.405-.602-.27-1.123-.642-1.563-1.113-.44-.47-.782-1.015-1.027-1.63-.245-.616-.368-1.276-.368-1.98zm14.04 5.126c-1.03 0-1.81-.355-2.337-1.065-.528-.71-.792-1.77-.792-3.176v-5.767h1.283v5.54c0 2.224.76 3.336 2.28 3.336.377 0 .747-.063 1.112-.188.364-.126.7-.308 1.008-.547.308-.24.584-.52.83-.848.244-.327.442-.697.593-1.112v-6.18h1.28v8.16c0 .35.158.527.473.527v1.13c-.253.038-.43.057-.53.057-.288 0-.536-.088-.744-.264-.207-.176-.31-.396-.31-.66v-1.356c-.44.766-1.024 1.36-1.753 1.78-.73.42-1.527.632-2.394.632zm22.765-.19h-1.28v-5.483c0-1.142-.18-1.984-.538-2.524-.36-.54-.902-.81-1.63-.81-.378 0-.733.07-1.065.207-.333.138-.64.333-.924.584-.283.25-.53.55-.744.895-.214.346-.377.726-.49 1.14v5.993h-1.282v-5.484c0-1.167-.176-2.015-.527-2.543-.352-.527-.893-.79-1.62-.79-.742 0-1.402.256-1.98.77-.578.516-.993 1.195-1.244 2.037v6.01h-1.28v-9.817h1.168v2.224c.402-.753.93-1.34 1.583-1.76.654-.422 1.377-.633 2.168-.633.83 0 1.495.233 1.998.698.503.464.804 1.074.905 1.828.918-1.684 2.187-2.526 3.807-2.526.54 0 1.002.1 1.386.302.383.2.69.486.923.856.233.37.402.817.51 1.338.106.522.16 1.103.16 1.744v5.747zm6.954.19c-.717 0-1.377-.135-1.98-.405s-1.124-.642-1.564-1.113c-.44-.47-.782-1.015-1.027-1.63-.246-.616-.368-1.276-.368-1.98 0-.69.122-1.34.367-1.95.244-.61.586-1.143 1.026-1.602.44-.458.958-.822 1.555-1.093.598-.27 1.254-.405 1.97-.405s1.373.135 1.97.405 1.108.638 1.536 1.103c.427.465.76 1 .998 1.602.24.603.36 1.244.36 1.922 0 .1-.005.2-.01.3-.007.1-.017.17-.03.208h-8.385c.036.528.16 1.014.366 1.46.207.446.47.833.792 1.16.32.326.69.58 1.11.763.422.183.87.274 1.35.274.326 0 .646-.044.96-.132.314-.088.603-.207.867-.358.264-.15.5-.336.707-.556.207-.22.367-.462.48-.726l1.112.302c-.15.364-.364.694-.64.99-.277.295-.597.552-.962.772-.364.22-.766.39-1.206.51-.44.118-.892.178-1.357.178zm3.618-5.616c-.038-.528-.16-1.008-.368-1.442-.207-.433-.47-.807-.79-1.12-.322-.315-.696-.56-1.123-.736-.427-.176-.88-.264-1.357-.264s-.93.088-1.357.264c-.427.176-.8.42-1.12.735-.32.314-.58.69-.774 1.13-.195.44-.31.918-.35 1.433h7.238zm11.4 5.427h-1.28v-5.484c0-1.167-.17-2.015-.51-2.543-.338-.527-.866-.79-1.582-.79-.377 0-.754.068-1.13.206-.378.138-.73.333-1.056.584-.327.25-.613.55-.858.895-.245.346-.43.72-.556 1.122v6.01h-1.28v-9.817h1.167v2.224c.2-.35.45-.675.745-.97.295-.295.625-.55.99-.763.363-.214.75-.377 1.158-.49.408-.113.832-.17 1.272-.17.553 0 1.015.1 1.385.302.37.2.67.482.896.847.225.364.388.81.49 1.338.1.528.15 1.112.15 1.753v5.747zm7.332-.47c-.075.037-.185.087-.33.15-.144.063-.31.126-.5.19-.187.06-.4.118-.64.168-.238.05-.49.076-.754.076-.276 0-.54-.04-.79-.115-.252-.075-.472-.19-.66-.348-.19-.157-.34-.355-.453-.594-.113-.24-.17-.515-.17-.83v-7.028h-1.356v-1.018h1.356v-3.317h1.282v3.317h2.26v1.018h-2.26v6.67c.025.365.15.632.377.802.226.17.496.254.81.254.365 0 .685-.058.96-.178.278-.12.454-.204.53-.254l.338 1.036zm4.11.66c-.504 0-.962-.08-1.377-.237-.415-.157-.77-.373-1.065-.65-.295-.276-.524-.597-.688-.96-.163-.365-.245-.748-.245-1.15 0-.453.1-.864.302-1.235.2-.37.483-.688.848-.952.364-.262.8-.467 1.31-.61.508-.146 1.07-.218 1.686-.218.49 0 .994.044 1.51.132.514.088.973.214 1.375.377v-.885c0-.867-.248-1.555-.745-2.063-.496-.51-1.165-.764-2.007-.764-.527 0-1.052.1-1.573.302-.522.2-1.053.49-1.593.867l-.452-.848c.64-.428 1.263-.75 1.866-.962.604-.214 1.232-.32 1.885-.32 1.194 0 2.142.345 2.846 1.036.704.69 1.056 1.646 1.056 2.864v4.43c0 .35.15.527.453.527v1.13c-.102.013-.196.022-.284.03-.088.005-.163.008-.226.008-.252 0-.48-.075-.688-.226-.207-.15-.324-.377-.35-.678l-.037-.774c-.427.578-.99 1.027-1.686 1.347-.698.32-1.405.48-2.12.48zm.32-.98c.564 0 1.127-.124 1.686-.37.56-.244 1.002-.58 1.328-1.007.088-.113.164-.235.226-.367.063-.13.095-.254.095-.367v-1.602c-.427-.162-.873-.288-1.338-.376-.465-.088-.917-.13-1.357-.13-.917 0-1.662.184-2.233.554-.572.37-.858.883-.858 1.536 0 .264.05.522.15.773.1.25.254.477.462.68.207.2.46.363.763.488.3.126.66.19 1.074.19zm12.023.32c-.076.037-.186.087-.33.15-.145.063-.31.126-.5.19-.188.06-.402.118-.64.168-.24.05-.49.076-.754.076-.278 0-.54-.04-.793-.115-.25-.075-.47-.19-.66-.348-.188-.157-.34-.355-.452-.594-.113-.24-.17-.515-.17-.83v-7.028h-1.356v-1.018h1.356v-3.317h1.28v3.317h2.263v1.018h-2.263v6.67c.025.365.15.632.377.802.226.17.496.254.81.254.365 0 .685-.058.962-.178.276-.12.452-.204.527-.254l.34 1.036zm1.507.47v-9.818h1.282v9.818h-1.282zm0-11.872v-1.885h1.282v1.885h-1.282zm8.274 12.06c-.717 0-1.373-.134-1.97-.404s-1.112-.64-1.545-1.104c-.435-.465-.77-1.005-1.01-1.62-.238-.616-.357-1.263-.357-1.942 0-.69.122-1.344.367-1.96.245-.615.584-1.155 1.018-1.62.433-.465.948-.836 1.545-1.112.597-.277 1.247-.415 1.95-.415.704 0 1.354.138 1.95.415.598.276 1.113.647 1.546 1.112.433.465.772 1.005 1.017 1.62.245.616.368 1.27.368 1.96 0 .68-.123 1.326-.368 1.942-.245.615-.584 1.155-1.018 1.62-.434.465-.95.833-1.546 1.103-.597.27-1.247.404-1.95.404zm-3.562-5.05c0 .553.09 1.065.273 1.536.182.47.433.885.754 1.243.32.358.696.638 1.13.84.433.2.895.3 1.385.3s.95-.103 1.385-.31c.433-.208.813-.49 1.14-.85.327-.357.584-.775.773-1.252.188-.476.282-.992.282-1.544 0-.54-.094-1.053-.282-1.536-.19-.484-.446-.905-.773-1.263-.327-.358-.704-.64-1.13-.848-.428-.208-.886-.312-1.376-.312-.49 0-.952.104-1.386.31-.433.208-.81.494-1.13.858-.32.365-.575.79-.764 1.272-.188.484-.282 1.002-.282 1.555zm18.79 4.862h-1.283v-5.484c0-1.167-.17-2.015-.51-2.543-.34-.527-.866-.79-1.582-.79-.377 0-.754.068-1.13.206-.378.138-.73.333-1.057.584-.325.25-.61.55-.856.895-.245.346-.43.72-.556 1.122v6.01h-1.28v-9.817h1.167v2.224c.2-.35.45-.675.744-.97.295-.295.624-.55.99-.763.363-.214.75-.377 1.158-.49.408-.113.832-.17 1.272-.17.553 0 1.014.1 1.385.302.37.2.67.482.895.847.226.364.39.81.49 1.338.1.528.15 1.112.15 1.753v5.747zm2.524 0v-1.846h1.093v1.845h-1.094zm2.526 0v-1.846h1.093v1.845h-1.093zm2.525 0v-1.846H299v1.845h-1.093z" fill="#46AEDA"/><path d="M224.134 52.908l.347.002.35.005.354.006.356.01.358.01.362.012.364.014.367.016.37.018.37.02.374.023.375.025.376.028.38.03.38.032.38.036.384.037.384.042.386.043.386.046.387.05.388.052.388.055.195.03.195.03.194.03.195.03.194.032.196.032.195.034.195.034.195.036.194.036.195.037.193.037.195.04.194.038.194.04.194.043.194.042.194.044.193.044.195.045.193.046.193.047.194.048.192.05.192.05.192.05.192.053.19.053.192.055.19.056.19.057.19.058.19.058.19.06.187.06.19.062.187.063.187.064.187.066.187.066.186.068.185.068.184.07.184.07.183.073.182.074.182.075.182.075.18.078.18.078.18.08.18.08.177.083.177.083.177.084.176.086.174.088.175.09.173.09.172.09.172.093.17.095.17.096.168.098.168.1.167.098.166.102.164.103.164.105.163.106.163.108.16.11.16.11.16.11.156.114.155.115.156.116.154.118.153.12.15.12.152.124.147.124.148.126.146.128.146.13.144.13.142.132.14.134.14.135.137.138.136.14.134.14.134.143.13.144.13.146.13.147.127.15.126.15.123.153.12.155.12.156.12.158.116.16.115.16.114.164.11.165.11.168.108.17.106.172.103.174.1.175.096.17.048.09.045.09.044.086.044.088.043.088.043.088.04.088.04.088.04.088.038.088.038.088.037.088.035.09.035.087.033.09.033.088.033.088.03.09.03.088.03.092.055.174.052.178.048.178.045.177.04.178.038.178.035.178.03.178.027.178.024.177.02.178.016.177.013.177.01.177.007.177.003.176v.176l-.003.174-.006.175-.01.173-.012.174-.015.173-.02.173-.02.173-.024.172-.027.17-.03.172-.033.17-.034.17-.038.17-.04.168-.042.168-.045.168-.047.167-.05.167-.05.166-.055.165-.057.165-.058.164-.06.164-.064.164-.065.162-.066.162-.068.162-.07.16-.074.16-.074.16-.076.16-.078.16-.08.158-.082.158-.083.157-.085.157-.087.157-.087.156-.09.156-.09.155-.092.155-.093.155-.095.154-.096.153-.098.153-.1.154-.1.153-.1.152-.103.152-.104.152-.106.15-.105.152-.108.15-.108.152-.11.15-.11.15-.11.15-.112.15-.113.15-.114.15-.115.15-.23.295-.233.295-.237.296-.24.295-.24.294-.243.292-.245.292-.247.292-.248.29-.25.292-.248.29-.252.29-.5.575-.5.574-.5.572-.495.57-.244.284-.245.284-.24.284-.24.282-.236.283-.235.282-.23.28-.23.28-.223.28-.22.28-.218.28-.106.14-.106.138-.105.14-.104.138-.102.14-.1.137-.1.138-.1.14-.097.138-.096.137-.095.138-.094.137-.092.137-.09.137-.09.137-.088.138-.087.136-.084.136-.083.136-.082.136-.08.135-.078.135-.077.135-.076.134-.075.136-.072.134-.07.133-.068.134-.067.133-.065.133-.063.132-.062.132-.06.132-.057.13-.055.132-.054.13-.05.13-.05.13-.048.13-.046.13-.044.13-.042.128-.04.128-.038.128-.036.127-.034.128-.032.127-.03.127-.027.126-.026.125-.024.126-.02.126-.02.125-.017.125-.015.124-.012.123-.01.124-.01.123-.006.123-.004.123-.002.123v.122l.003.122.004.123.007.122.01.122.012.122.014.123.016.122.02.122.02.123.024.123.026.124.03.123.03.125.034.124.037.124.04.13.02.058.02.063.023.062.023.063.023.063.024.064.025.063.025.064.027.062.027.064.03.064.027.064.03.064.03.065.03.064.032.065.032.065.033.065.034.065.033.063.073.134.076.13.08.134.08.133.087.135.088.134.093.134.098.136.1.136.104.137.107.138.11.14.116.138.12.14.122.14.123.14.124.133.123.132.123.127.123.124.123.12.122.12.123.114.123.112.122.11.122.104.122.103.12.1.122.097.122.094.12.09.122.09.12.085.122.083.12.08.122.08.12.074.12.072.12.07.122.068.12.065.12.063.12.06.12.058.12.056.12.054.122.05.12.05.12.047.12.045.12.043.122.04.12.04.122.037.12.034.122.034.122.03.12.03.123.027.123.026.122.023.123.02.123.02.123.02.123.015.124.014.125.012.125.01.125.01.126.008.126.006.127.004.127.003h.256l.128-.002.13-.003.13-.005.13-.007.13-.008.13-.01.13-.012.132-.012.132-.015.133-.016.133-.017.133-.02.134-.02.134-.02.136-.024.135-.023.137-.026.136-.026.137-.028.137-.03.138-.03.138-.033.138-.033.14-.035.14-.036.14-.038.14-.038.14-.04.14-.04.142-.042.14-.043.143-.045.143-.045.143-.045.144-.047.144-.048.144-.05.144-.05.143-.05.29-.104.293-.108.293-.11.294-.114.296-.117.297-.12.298-.12.3-.126.3-.125.302-.128.302-.13.303-.13.61-.268.616-.272.618-.272.623-.273.313-.137.313-.135.314-.135.315-.134.315-.132.317-.132.32-.13.318-.13.32-.126.32-.125.323-.122.323-.12.322-.117.164-.058.163-.057.163-.055.163-.055.164-.054.164-.053.163-.053.166-.05.164-.052.165-.05.165-.048.165-.048.165-.046.166-.046.166-.044.166-.043.167-.042.166-.04.168-.04.168-.037.167-.037.168-.036.17-.034.168-.033.168-.03.17-.03.17-.03.168-.026.17-.025.17-.024.17-.022.17-.02.172-.02.17-.016.173-.015.17-.014.172-.01.172-.01.173-.008.172-.006.172-.004.173-.002h.174l.172.002.174.005.174.006.174.008.174.012.175.013.174.015.175.017.175.02.175.022.175.023.175.027.175.03.176.03.175.035.176.037.175.04.174.04.176.045.175.047.175.05.175.052.175.055.175.06.175.06.175.062.175.066.174.07.174.07.174.075.174.077.174.08.173.083.173.086.173.088.172.09.172.096.172.098.172.1.17.104.172.106.17.11.17.112.17.116.17.12.17.12.167.124.163.123.16.122.16.122.156.124.155.124.154.125.153.126.15.127.15.127.147.127.146.13.145.127.143.13.142.13.14.13.138.13.138.13.135.132.135.13.133.133.132.133.13.134.128.134.127.134.126.135.125.135.123.136.12.136.12.136.12.137.117.137.116.138.115.137.113.14.112.137.11.14.11.138.107.14.106.14.105.14.104.14.103.14.1.142.1.14.1.143.096.14.097.143.095.142.094.143.092.142.09.143.09.143.09.144.086.143.086.143.085.144.084.144.08.143.082.145.08.144.08.143.077.144.076.145.075.144.075.144.074.145.07.144.072.143.07.145.068.144.068.145.066.144.066.146.064.144.063.144.063.145.06.143.06.145.06.144.058.144.057.144.057.144.055.143.054.144.054.145.052.143.05.143.05.144.05.143.05.143.046.143.047.142.044.142.045.142.043.14.043.145.082.28.08.282.076.28.073.28.07.278.065.277.063.276.06.274.057.273.054.27.05.27.05.27.045.265.043.265.04.263.037.26.035.26.033.257.03.255.027.252.026.25.024.25.02.245.02.243.016.24.015.24.013.235.01.234.01.23.008.227.006.225.004.22.003.22v.639l-.004.207-.004.203-.005.2-.006.196-.007.193-.008.188-.01.186-.01.182-.01.178-.012.175-.012.17-.012.166-.014.163-.014.158-.015.154-.015.152-.03.287-.032.27-.032.254-.032.234-.03.215-.03.196-.03.175-.027.156-.024.135-.022.115-.03.155-.316 1.48-2.846-.61.312-1.46.024-.12.017-.088.02-.112.024-.13.024-.153.027-.17.027-.19.03-.207.027-.226.028-.243.027-.26.014-.135.012-.14.013-.143.012-.148.012-.15.01-.156.01-.158.01-.162.01-.165.008-.168.008-.172.006-.176.006-.178.005-.182.003-.185.003-.19V122.21l-.004-.2-.003-.202-.006-.204-.007-.208-.008-.21-.01-.212-.012-.214-.014-.217-.015-.22-.016-.22-.02-.224-.02-.226-.023-.227-.024-.23-.027-.23-.03-.233-.032-.235-.034-.237-.036-.238-.04-.24-.04-.24-.043-.242-.046-.243-.05-.245-.05-.246-.055-.248-.057-.248-.06-.25-.06-.248-.067-.25-.067-.253-.07-.252-.076-.254-.038-.125-.04-.126-.04-.127-.04-.127-.042-.127-.042-.128-.044-.127-.043-.128-.046-.127-.046-.128-.046-.128-.048-.128-.048-.13-.05-.127-.05-.128-.05-.13-.052-.127-.052-.128-.054-.128-.054-.128-.055-.13-.058-.127-.057-.128-.058-.13-.06-.128-.06-.128-.06-.128-.062-.128-.063-.128-.063-.128-.066-.128-.066-.128-.067-.128-.067-.127-.07-.127-.068-.128-.07-.127-.073-.127-.073-.126-.075-.127-.075-.127-.076-.127-.077-.127-.078-.126-.08-.126-.08-.126-.083-.126-.082-.126-.084-.126-.084-.125-.086-.125-.086-.125-.09-.125-.088-.124-.09-.125-.092-.123-.093-.123-.093-.124-.095-.123-.097-.123-.097-.123-.1-.122-.1-.122-.1-.122-.103-.12-.103-.123-.105-.12-.106-.12-.107-.12-.108-.12-.11-.12-.112-.12-.112-.12-.113-.118-.115-.118-.117-.118-.118-.118-.12-.117-.12-.116-.12-.116-.124-.116-.125-.116-.126-.115-.127-.114-.13-.114-.13-.114-.13-.113-.134-.113-.133-.113-.136-.113-.137-.112-.138-.11-.14-.11-.142-.11-.143-.11-.144-.11-.14-.103-.14-.1-.137-.096-.14-.094-.137-.09-.138-.09-.138-.085-.137-.084-.137-.08-.138-.078-.137-.075-.136-.073-.137-.07-.136-.067-.138-.066-.136-.062-.136-.06-.136-.06-.136-.055-.136-.053-.136-.052-.136-.05-.135-.046-.136-.045-.137-.04-.136-.042-.135-.038-.136-.037-.136-.034-.136-.033-.136-.03-.136-.03-.136-.026-.137-.023-.137-.023-.137-.02-.136-.02-.137-.017-.137-.016-.138-.012-.137-.012-.137-.01-.138-.01-.138-.005-.138-.004-.14-.004H269.162l-.14.003-.14.005-.14.007-.14.008-.14.01-.14.01-.143.013-.142.014-.142.015-.142.017-.143.02-.14.018-.144.022-.144.022-.143.024-.145.026-.144.027-.143.028-.145.03-.145.03-.145.033-.146.033-.145.034-.145.036-.147.037-.146.038-.147.04-.147.04-.147.04-.146.044-.148.043-.148.045-.148.045-.148.047-.15.048-.148.048-.15.05-.148.05-.15.05-.15.054-.147.052-.302.11-.3.11-.303.116-.302.117-.302.12-.303.12-.304.126-.304.127-.306.128-.306.13-.306.133-.306.132-.307.134-.617.27-.617.272-.62.272-.618.27-.312.135-.31.133-.312.133-.312.13-.313.13-.313.128-.314.126-.313.124-.314.122-.315.12-.314.115-.314.114-.16.055-.158.054-.158.054-.158.053-.16.053-.157.05-.158.05-.16.05-.158.048-.16.048-.16.046-.158.044-.16.044-.16.042-.16.042-.16.04-.16.04-.16.036-.162.036-.16.035-.16.033-.163.032-.16.03-.162.03-.16.028-.163.026-.162.024-.163.023-.162.02-.163.02-.163.017-.163.016-.164.015-.163.012-.164.01-.164.01-.164.006-.164.005-.164.003h-.33l-.165-.004-.164-.006-.165-.008-.164-.01-.164-.012-.165-.015-.165-.018-.165-.02-.165-.02-.165-.024-.165-.027-.165-.028-.165-.03-.165-.035-.165-.036-.164-.04-.165-.04-.164-.045-.165-.047-.164-.05-.163-.052-.164-.055-.163-.057-.163-.06-.162-.064-.163-.067-.162-.07-.16-.07-.163-.076-.16-.078-.16-.082-.16-.083-.16-.087-.16-.09-.158-.09-.16-.096-.157-.1-.157-.1-.157-.104-.157-.107-.156-.11-.155-.112-.154-.117-.154-.118-.153-.122-.152-.125-.152-.13-.152-.13-.15-.135-.152-.137-.15-.14-.15-.145-.148-.147-.148-.15-.147-.153-.15-.156-.145-.16-.146-.162-.147-.167-.145-.17-.142-.17-.137-.17-.135-.172-.13-.172-.127-.172-.122-.173-.12-.17-.114-.175-.11-.173-.11-.174-.103-.174-.1-.174-.095-.172-.05-.09-.044-.088-.044-.088-.044-.088-.043-.088-.043-.087-.042-.09-.04-.087-.04-.088-.038-.09-.037-.087-.037-.088-.035-.09-.035-.087-.034-.088-.034-.09-.032-.087-.03-.09-.03-.088-.03-.092-.056-.174-.052-.177-.048-.178-.045-.18-.042-.177-.036-.177-.035-.178-.03-.178-.028-.177-.024-.178-.02-.177-.017-.177-.013-.176-.01-.177-.007-.176-.004-.175v-.175l.003-.176.005-.174.01-.175.01-.174.016-.172.018-.173.02-.173.025-.172.026-.17.03-.172.03-.17.035-.17.037-.17.04-.17.042-.167.045-.166.046-.167.05-.167.05-.166.055-.165.057-.166.06-.164.06-.163.062-.164.064-.162.066-.16.07-.163.07-.16.072-.16.074-.16.076-.16.078-.16.08-.158.08-.16.084-.157.084-.157.086-.157.088-.157.09-.156.09-.155.092-.156.093-.154.095-.155.096-.154.098-.153.1-.154.1-.153.1-.152.103-.15.102-.153.105-.152.106-.15.106-.152.107-.15.11-.152.11-.15.11-.15.112-.15.11-.148.115-.15.115-.15.23-.295.233-.297.237-.295.24-.295.24-.294.243-.293.245-.292.246-.29.248-.292.25-.29.25-.29.5-.577.5-.575.5-.573.498-.572.246-.285.245-.284.244-.283.242-.284.24-.282.236-.282.233-.282.232-.28.227-.282.225-.28.22-.28.218-.28.106-.138.105-.14.104-.138.104-.14.103-.138.102-.138.1-.14.1-.137.097-.138.095-.138.095-.138.094-.138.092-.137.092-.137.09-.137.087-.136.087-.137.085-.136.084-.136.083-.135.08-.135.08-.136.076-.134.075-.135.074-.134.07-.135.072-.134.068-.133.067-.133.065-.133.064-.13.06-.133.06-.132.06-.132.055-.13.055-.132.052-.13.05-.13.048-.13.046-.128.046-.13.042-.128.04-.128.038-.128.036-.128.034-.127.032-.127.03-.126.028-.126.026-.126.024-.125.02-.125.02-.125.018-.124.015-.126.012-.124.01-.123.01-.124.006-.123.005-.123.002-.123v-.122l-.003-.123-.004-.124-.007-.122-.008-.122-.012-.123-.013-.124-.017-.122-.018-.123-.02-.122-.025-.123-.026-.124-.027-.122-.03-.124-.035-.124-.036-.125-.04-.128-.02-.06-.02-.062-.023-.063-.023-.064-.024-.063-.024-.063-.025-.063-.026-.065-.027-.064-.027-.062-.028-.064-.028-.064-.03-.064-.03-.065-.03-.063-.032-.065-.032-.065-.034-.065-.034-.065-.033-.063-.073-.133-.075-.13-.08-.133-.082-.135-.086-.135-.09-.136-.09-.133-.092-.133-.094-.132-.095-.13-.097-.13-.098-.126-.1-.127-.1-.126-.103-.123-.104-.122-.106-.12-.107-.12-.108-.12-.11-.117-.112-.115-.112-.115-.114-.114-.117-.113-.117-.11-.118-.11-.12-.11-.12-.108-.123-.107-.124-.105-.124-.105-.127-.103-.128-.102-.13-.1-.13-.1-.13-.1-.134-.097-.134-.097-.136-.096-.136-.094-.138-.094-.14-.092-.14-.09-.14-.09-.143-.09-.143-.087-.144-.087-.146-.085-.147-.085-.148-.083-.15-.082-.15-.082-.15-.08-.153-.08-.154-.077-.155-.078-.154-.076-.156-.075-.157-.074-.158-.073-.16-.072-.16-.07-.16-.07-.162-.07-.162-.068-.163-.067-.164-.066-.165-.065-.165-.064-.167-.063-.167-.062-.17-.06-.168-.06-.17-.06-.17-.058-.17-.058-.17-.056-.173-.054-.174-.055-.173-.052-.174-.053-.176-.052-.174-.05-.176-.05-.176-.05-.176-.048-.177-.047-.178-.046-.177-.046-.18-.044-.177-.044-.18-.043-.18-.042-.178-.04-.18-.042-.18-.038-.182-.04-.18-.037-.182-.037-.18-.036-.182-.036-.182-.034-.182-.034-.183-.033-.18-.033-.184-.03-.182-.032-.183-.03-.182-.03-.183-.028-.183-.028-.182-.026-.368-.053-.366-.05-.366-.045-.365-.044-.366-.04-.365-.04-.364-.035-.362-.033-.362-.03-.36-.03-.36-.025-.358-.024-.356-.022-.354-.02-.353-.017-.35-.016-.35-.014-.346-.01-.345-.01-.34-.01-.34-.005-.336-.005-.334-.002-.33-.002h-.326l-.323.003-.32.002-.316.004-.31.006-.31.007-.303.007-.3.01-.296.01-.29.01-.287.013-.282.013-.276.013-.272.015-.267.016-.262.016-.256.016-.25.017-.246.017-.238.018-.233.017-.227.018-.437.037-.41.037-.382.036-.354.036-.326.035-.294.033-.264.03-.23.03-.2.025-.16.02-.22.032-1.514.22-.422-2.878 1.524-.224.24-.034.18-.023.21-.028.245-.03.277-.033.31-.036.34-.036.37-.038.4-.038.426-.04.45-.037.24-.02.24-.018.25-.018.254-.02.26-.016.266-.017.272-.016.277-.015.282-.015.288-.014.293-.014.297-.012.303-.012.307-.01.31-.01.317-.01.32-.006.324-.006.33-.004.33-.004h.337l.34-.002.344.002z" fill="#46AEDA"/></g></g></svg>