<?xml version="1.0" encoding="UTF-8"?>
<svg width="1047px" height="325px" viewBox="0 0 1047 325" version="1.1" xmlns="http://www.w3.org/2000/svg" xmlns:xlink="http://www.w3.org/1999/xlink">
    <!-- Generator: Sketch 51.2 (57519) - http://www.bohemiancoding.com/sketch -->
    <title>illus-analytics</title>
    <desc>Created with Sketch.</desc>
    <defs>
        <polygon id="path-1" points="0.6692607 0.734319066 1046.21012 0.734319066 1046.21012 324.93323 0.6692607 324.93323"></polygon>
        <linearGradient x1="50%" y1="0%" x2="50%" y2="195.756%" id="linearGradient-3">
            <stop stop-color="#E3E9FF" offset="0%"></stop>
            <stop stop-color="#FFFFFF" offset="100%"></stop>
        </linearGradient>
        <linearGradient x1="38.14%" y1="141.461%" x2="38.14%" y2="-41.098%" id="linearGradient-4">
            <stop stop-color="#77D3FB" stop-opacity="0" offset="0%"></stop>
            <stop stop-color="#2DC3F0" stop-opacity="0.5" offset="51.427%"></stop>
            <stop stop-color="#04AFEF" offset="100%"></stop>
        </linearGradient>
        <linearGradient x1="38.129%" y1="185.451%" x2="38.129%" y2="-58.236%" id="linearGradient-5">
            <stop stop-color="#90ADFB" stop-opacity="0" offset="0%"></stop>
            <stop stop-color="#6E87FD" stop-opacity="0.5" offset="53.085%"></stop>
            <stop stop-color="#6064CC" offset="100%"></stop>
        </linearGradient>
    </defs>
    <g id="Docsearch-V3" stroke="none" stroke-width="1" fill="none" fill-rule="evenodd">
        <g id="DocSearch_V3" transform="translate(-197.000000, -3752.000000)">
            <g id="daily-searches-level-b4fbba0b" transform="translate(197.000000, 3752.000000)">
                <g>
                    <mask id="mask-2" fill="white">
                        <use xlink:href="#path-1"></use>
                    </mask>
                    <use id="Shape" fill="#FFFFFF" fill-rule="nonzero" xlink:href="#path-1"></use>
                    <path d="M130.348825,1.74792218 L260.028389,1.74792218 L260.028389,325.946833 L130.348825,325.946833 L130.348825,1.74792218 Z M389.707953,1.74792218 L519.387518,1.74792218 L519.387518,325.946833 L389.707953,325.946833 L389.707953,1.74792218 Z M649.066521,1.74792218 L778.746086,1.74792218 L778.746086,325.946833 L649.066521,325.946833 L649.066521,1.74792218 Z M915.51751,1.74792218 L1045.19707,1.74792218 L1045.19707,325.946833 L915.51751,325.946833 L915.51751,1.74792218 Z" id="Shape" fill="url(#linearGradient-3)" fill-rule="nonzero" opacity="0.3" mask="url(#mask-2)"></path>
                    <path d="M-0.141016215,294.029261 C166.293848,294.029261 168.964851,257.526661 251.181567,257.526661 C333.398844,257.526661 338.655124,200.565416 423.46384,200.565416 C508.272556,200.565416 508.960618,166.906397 589.688587,166.906397 C670.416556,166.906397 672.094688,212.366693 761.09005,212.366693 C850.085412,212.366693 882.313957,138.519346 1025.13898,138.519346 C1046.13385,138.519346 1066.04619,142.624187 1084.87545,150.833868 C1129.2521,170.181977 1182.28445,250.50428 1243.97136,391.799658 L-0.141016215,371.537121 C-107.525234,378.600965 -169.719787,378.600965 -186.724674,371.537121 C-207.420331,362.940265 -186.511756,343.681245 -186.724674,332.374724 C-187.162837,309.231626 -186.724674,294.029261 -186.724674,294.029261 L-0.141016215,294.029261 Z" id="Shape" fill="url(#linearGradient-4)" fill-rule="nonzero" mask="url(#mask-2)" transform="translate(524.047873, 265.159502) scale(-1, 1) translate(-524.047873, -265.159502) "></path>
                    <path d="M-3.38347082,243.373198 C163.051393,243.373198 165.722397,206.870599 247.939673,206.870599 C330.156389,206.870599 335.412669,149.909354 420.221385,149.909354 C505.030101,149.909354 505.718163,116.250335 586.446132,116.250335 C667.174101,116.250335 668.852233,161.71063 757.848156,161.71063 C846.843518,161.71063 879.071502,87.863284 1021.89653,87.863284 C1117.11303,87.863284 1190.05715,172.289868 1240.72946,341.143595 L-3.38347082,341.143595 L-3.38347082,243.373198 Z" id="Shape" fill="url(#linearGradient-5)" fill-rule="nonzero" mask="url(#mask-2)"></path>
                    <path d="M178.605634,290.790661 L180.077012,290.790661 C181.090054,290.790661 181.856,290.476887 182.374288,289.848218 C182.893136,289.220109 183.153121,288.436233 183.153121,287.496031 C183.153121,286.604016 182.862879,285.854319 182.283518,285.246381 C181.703595,284.639004 180.952218,284.334755 180.028265,284.334755 L178.605634,284.334755 L178.605634,290.790661 Z M177.60884,283.459549 L180.040591,283.459549 C181.248062,283.459549 182.238693,283.834397 183.013043,284.584093 C183.786833,285.33379 184.174008,286.304249 184.174008,287.496031 C184.174008,288.678848 183.815409,289.667798 183.09821,290.462319 C182.381012,291.25628 181.378054,291.653541 180.089339,291.653541 L177.60884,291.653541 L177.60884,283.459549 Z M186.629852,290.790661 L190.215844,290.790661 L190.215844,291.653541 L185.644825,291.653541 L185.644825,283.459549 L190.155331,283.459549 L190.155331,284.322428 L186.629852,284.322428 L186.629852,287.131268 L189.741821,287.131268 L189.741821,287.994148 L186.629852,287.994148 L186.629852,290.790101 L186.629852,290.790661 Z M197.583938,283.787891 L197.583938,284.796451 C197.227019,284.610428 196.906521,284.477074 196.623004,284.395829 C196.339486,284.314584 195.966319,284.274241 195.504623,284.274241 C194.621012,284.274241 193.885323,284.574008 193.298117,285.173541 C192.71035,285.773074 192.416747,286.555829 192.416747,287.520125 C192.416747,288.525323 192.708109,289.327689 193.291953,289.927222 C193.875237,290.526755 194.649588,290.827082 195.613883,290.827082 C196.392156,290.827082 197.056685,290.619767 197.608031,290.206817 L197.608031,291.240031 C197.105432,291.5807 196.416249,291.751035 195.541043,291.751035 C194.308918,291.751035 193.308202,291.371704 192.537774,290.614163 C191.768467,289.856062 191.383533,288.825089 191.383533,287.520125 C191.383533,286.288 191.77407,285.285043 192.556265,284.511253 C193.338459,283.736903 194.321245,283.350288 195.504623,283.350288 C196.355735,283.350288 197.04884,283.495969 197.583377,283.787331 L197.583938,283.787891 Z M201.607533,287.654039 C201.607533,286.405665 201.860794,285.418397 202.367315,284.693354 C202.873837,283.968311 203.540607,283.60523 204.367626,283.60523 C205.226584,283.60523 205.909603,283.968311 206.416125,284.693354 C206.922646,285.418957 207.175907,286.405665 207.175907,287.654039 C207.175907,288.894008 206.932732,289.886879 206.446381,290.632654 C205.960031,291.377868 205.266926,291.751035 204.367626,291.751035 C203.532763,291.751035 202.863751,291.377868 202.361712,290.632654 C201.859113,289.886879 201.607533,288.894008 201.607533,287.654039 Z M203.11477,285.343875 C202.766817,285.887377 202.59256,286.656685 202.59256,287.654039 C202.59256,288.650833 202.762335,289.430786 203.103004,289.993899 C203.443673,290.557572 203.865027,290.838848 204.367626,290.838848 C204.926817,290.838848 205.370584,290.563735 205.698366,290.012389 C206.026708,289.461043 206.19144,288.674926 206.19144,287.653479 C206.19144,286.640436 206.018864,285.864405 205.674272,285.325385 C205.329681,284.786926 204.894319,284.517416 204.367626,284.517416 C203.881276,284.517416 203.463844,284.792529 203.115331,285.343875 L203.11477,285.343875 Z M209.48551,290.814755 L213.181323,290.814755 L213.181323,291.653541 L208.160934,291.653541 L208.160934,290.838848 C210.672809,288.942755 211.929027,287.362117 211.929027,286.097494 C211.929027,285.594895 211.783346,285.20828 211.491984,284.936529 C211.200062,284.665339 210.806724,284.529183 210.312529,284.529183 C209.672093,284.529183 209.040062,284.768436 208.415875,285.246381 L208.415875,284.286008 C208.991315,283.84056 209.651922,283.617556 210.397696,283.617556 C211.110973,283.617556 211.710506,283.824311 212.196296,284.237821 C212.683206,284.65077 212.926381,285.238537 212.926381,286.00056 C212.926381,287.434957 211.779424,289.039689 209.48607,290.814755 L209.48551,290.814755 Z M305.415844,290.790661 L306.887222,290.790661 C307.900265,290.790661 308.66621,290.476887 309.184498,289.848218 C309.703346,289.220109 309.963331,288.436233 309.963331,287.496031 C309.963331,286.604016 309.673089,285.854319 309.093728,285.246381 C308.514366,284.639004 307.762428,284.334755 306.838475,284.334755 L305.415844,284.334755 L305.415844,290.790661 Z M304.419051,283.459549 L306.850802,283.459549 C308.058272,283.459549 309.048903,283.834397 309.823253,284.584093 C310.597043,285.33379 310.984218,286.304249 310.984218,287.496031 C310.984218,288.678848 310.625619,289.667798 309.90842,290.462319 C309.191222,291.25628 308.188265,291.653541 306.899549,291.653541 L304.419051,291.653541 L304.419051,283.459549 Z M313.440062,290.790661 L317.026054,290.790661 L317.026054,291.653541 L312.455035,291.653541 L312.455035,283.459549 L316.965541,283.459549 L316.965541,284.322428 L313.440062,284.322428 L313.440062,287.131268 L316.552031,287.131268 L316.552031,287.994148 L313.440062,287.994148 L313.440062,290.790101 L313.440062,290.790661 Z M324.394148,283.787891 L324.394148,284.796451 C324.03723,284.610428 323.717292,284.477074 323.433214,284.395829 C323.149696,284.314584 322.777089,284.274241 322.314833,284.274241 C321.431222,284.274241 320.695533,284.574008 320.108327,285.173541 C319.52056,285.773074 319.226957,286.555829 319.226957,287.520125 C319.226957,288.525323 319.518319,289.327689 320.102163,289.927222 C320.686008,290.526755 321.459798,290.827082 322.424093,290.827082 C323.202926,290.827082 323.866895,290.619767 324.418241,290.206817 L324.418241,291.240031 C323.915642,291.5807 323.226459,291.751035 322.351253,291.751035 C321.119689,291.751035 320.118412,291.371704 319.347984,290.614163 C318.578677,289.856062 318.193743,288.825089 318.193743,287.520125 C318.193743,286.288 318.58484,285.285043 319.366475,284.511253 C320.148669,283.736903 321.131455,283.350288 322.314833,283.350288 C323.165946,283.350288 323.859051,283.495969 324.393588,283.787331 L324.394148,283.787891 Z M328.417743,287.654039 C328.417743,286.405665 328.671004,285.418397 329.177525,284.693354 C329.684607,283.968311 330.350817,283.60523 331.177837,283.60523 C332.036794,283.60523 332.719813,283.968311 333.226335,284.693354 C333.732856,285.418957 333.986117,286.405665 333.986117,287.654039 C333.986117,288.894008 333.742942,289.886879 333.256591,290.632654 C332.770241,291.377868 332.077136,291.751035 331.177837,291.751035 C330.342973,291.751035 329.673961,291.377868 329.171922,290.632654 C328.669323,289.886879 328.417743,288.894008 328.417743,287.654039 Z M329.924981,285.343875 C329.577027,285.887377 329.40277,286.656685 329.40277,287.654039 C329.40277,288.650833 329.573105,289.430786 329.913214,289.993899 C330.253883,290.557572 330.675237,290.838848 331.177837,290.838848 C331.737027,290.838848 332.180794,290.563735 332.509136,290.012389 C332.836918,289.461043 333.001089,288.674926 333.001089,287.653479 C333.001089,286.640436 332.829074,285.864405 332.484482,285.325385 C332.139891,284.786926 331.704529,284.517416 331.177837,284.517416 C330.691486,284.517416 330.274054,284.792529 329.925541,285.343875 L329.924981,285.343875 Z M335.214319,285.003206 L335.214319,284.067486 C335.68386,283.76772 336.227362,283.617556 336.843144,283.617556 C337.629261,283.617556 338.238879,283.818148 338.67256,284.219331 C339.106241,284.620514 339.323082,285.116949 339.323082,285.708638 C339.323082,286.138397 339.216062,286.523331 339.000903,286.86344 C338.786304,287.204109 338.468607,287.459051 338.046693,287.629385 C338.508389,287.734724 338.875393,287.947642 339.147144,288.26814 C339.418335,288.587518 339.55393,288.987019 339.55393,289.465525 C339.55393,290.113805 339.327004,290.652825 338.873152,291.082023 C338.4193,291.511782 337.779424,291.726381 336.952405,291.726381 C336.190381,291.726381 335.530335,291.593027 334.970584,291.325198 L334.970584,290.364825 C335.574094,290.681833 336.246633,290.844674 336.928311,290.838848 C337.44716,290.838848 337.850023,290.705494 338.138023,290.437665 C338.425463,290.170397 338.569463,289.821883 338.569463,289.392125 C338.569463,288.962926 338.409214,288.632342 338.089276,288.401494 C337.768778,288.170646 337.309323,288.055222 336.70923,288.055222 L336.198786,288.055222 L336.198786,287.215875 L336.70923,287.215875 C337.163082,287.215875 337.546335,287.088685 337.857868,286.833183 C338.170521,286.577681 338.326288,286.235331 338.326288,285.806132 C338.326288,285.376374 338.192374,285.051953 337.925105,284.833432 C337.657837,284.614911 337.288591,284.505089 336.81849,284.505089 C336.2593,284.505089 335.724763,284.670942 335.213759,285.003767 L335.214319,285.003206 Z M437.685167,290.790661 L439.155984,290.790661 C440.169027,290.790661 440.934973,290.476887 441.453821,289.848218 C441.972669,289.220109 442.232093,288.436233 442.232093,287.496031 C442.232093,286.604016 441.942412,285.854319 441.36249,285.246381 C440.783128,284.639004 440.031191,284.334755 439.107237,284.334755 L437.685167,284.334755 L437.685167,290.790661 Z M436.687813,283.459549 L439.119564,283.459549 C440.327035,283.459549 441.318226,283.834397 442.092016,284.584093 C442.866366,285.33379 443.252981,286.304249 443.252981,287.496031 C443.252981,288.678848 442.894381,289.667798 442.177183,290.462319 C441.459984,291.25628 440.457027,291.653541 439.168311,291.653541 L436.688374,291.653541 L436.688374,283.459549 L436.687813,283.459549 Z M445.708825,290.790661 L449.295377,290.790661 L449.295377,291.653541 L444.724358,291.653541 L444.724358,283.459549 L449.234864,283.459549 L449.234864,284.322428 L445.708825,284.322428 L445.708825,287.131268 L448.821354,287.131268 L448.821354,287.994148 L445.708825,287.994148 L445.708825,290.790101 L445.708825,290.790661 Z M456.662911,283.787891 L456.662911,284.796451 C456.305992,284.610428 455.986054,284.477074 455.702537,284.395829 C455.419019,284.314584 455.045852,284.274241 454.584156,284.274241 C453.700545,284.274241 452.964856,284.574008 452.377089,285.173541 C451.789883,285.773074 451.49572,286.555829 451.49572,287.520125 C451.49572,288.525323 451.787642,289.327689 452.371486,289.927222 C452.95477,290.526755 453.729121,290.827082 454.693416,290.827082 C455.471689,290.827082 456.136218,290.619767 456.687004,290.206817 L456.687004,291.240031 C456.184405,291.5807 455.495782,291.751035 454.620576,291.751035 C453.388451,291.751035 452.387735,291.371704 451.617307,290.614163 C450.84744,289.856062 450.463066,288.825089 450.463066,287.520125 C450.463066,286.288 450.853603,285.285043 451.635798,284.511253 C452.417992,283.736903 453.400778,283.350288 454.584156,283.350288 C455.434708,283.350288 456.127813,283.495969 456.662911,283.787331 L456.662911,283.787891 Z M460.687066,287.654039 C460.687066,286.405665 460.940327,285.418397 461.446848,284.693354 C461.95337,283.968311 462.62014,283.60523 463.44716,283.60523 C464.306117,283.60523 464.988576,283.968311 465.495097,284.693354 C466.001619,285.418957 466.254879,286.405665 466.254879,287.654039 C466.254879,288.894008 466.011704,289.886879 465.525914,290.632654 C465.039564,291.377868 464.346459,291.751035 463.44716,291.751035 C462.612296,291.751035 461.943284,291.377868 461.441245,290.632654 C460.938086,289.886879 460.687066,288.894008 460.687066,287.654039 Z M462.194304,285.343875 C461.84579,285.887377 461.671533,286.656685 461.671533,287.654039 C461.671533,288.650833 461.841868,289.430786 462.182537,289.993899 C462.522646,290.557572 462.94456,290.838848 463.446599,290.838848 C464.00579,290.838848 464.449556,290.563735 464.777899,290.012389 C465.106241,289.461043 465.270412,288.674926 465.270412,287.653479 C465.270412,286.640436 465.097837,285.864405 464.753805,285.325385 C464.409214,284.786926 463.973292,284.517416 463.446599,284.517416 C462.960249,284.517416 462.542817,284.792529 462.194304,285.343875 Z M468.260794,288.881681 L470.923393,288.881681 L470.923393,284.274241 L468.260794,288.881681 Z M473.051455,288.881681 L473.051455,289.720467 L471.872,289.720467 L471.872,291.653541 L470.923393,291.653541 L470.923393,289.720467 L467.288654,289.720467 L467.288654,288.881681 L470.315455,283.702724 L471.872,283.702724 L471.872,288.881681 L473.050895,288.881681 L473.051455,288.881681 Z M564.513868,290.790661 L565.984685,290.790661 C566.997728,290.790661 567.763673,290.476887 568.281961,289.848218 C568.80137,289.220109 569.060794,288.436233 569.060794,287.496031 C569.060794,286.604016 568.770553,285.854319 568.191191,285.246381 C567.611829,284.639004 566.859891,284.334755 565.935938,284.334755 L564.513868,284.334755 L564.513868,290.790661 Z M563.516514,283.459549 L565.948265,283.459549 C567.155735,283.459549 568.146926,283.834397 568.920716,284.584093 C569.694506,285.33379 570.081681,286.304249 570.081681,287.496031 C570.081681,288.678848 569.723082,289.667798 569.005883,290.462319 C568.288685,291.25628 567.285728,291.653541 565.997012,291.653541 L563.516514,291.653541 L563.516514,283.459549 Z M572.537525,290.790661 L576.123518,290.790661 L576.123518,291.653541 L571.553058,291.653541 L571.553058,283.459549 L576.063564,283.459549 L576.063564,284.322428 L572.537525,284.322428 L572.537525,287.131268 L575.650054,287.131268 L575.650054,287.994148 L572.537525,287.994148 L572.537525,290.790101 L572.537525,290.790661 Z M583.491611,283.787891 L583.491611,284.796451 C583.134693,284.610428 582.814755,284.477074 582.531237,284.395829 C582.24716,284.314584 581.874553,284.274241 581.412296,284.274241 C580.529245,284.274241 579.793556,284.574008 579.20579,285.173541 C578.618584,285.773074 578.32442,286.555829 578.32442,287.520125 C578.32442,288.525323 578.615782,289.327689 579.199626,289.927222 C579.783471,290.526755 580.557261,290.827082 581.522117,290.827082 C582.299829,290.827082 582.964358,290.619767 583.515704,290.206817 L583.515704,291.240031 C583.013105,291.5807 582.324482,291.751035 581.448716,291.751035 C580.217152,291.751035 579.215875,291.371704 578.446008,290.614163 C577.67614,289.856062 577.291206,288.825089 577.291206,287.520125 C577.291206,286.288 577.682304,285.285043 578.464498,284.511253 C579.246693,283.736903 580.229479,283.350288 581.412296,283.350288 C582.263969,283.350288 582.956514,283.495969 583.491051,283.787331 L583.491611,283.787891 Z M587.515767,287.654039 C587.515767,286.405665 587.769027,285.418397 588.275549,284.693354 C588.78207,283.968311 589.44884,283.60523 590.2753,283.60523 C591.134257,283.60523 591.817276,283.968311 592.323798,284.693354 C592.830319,285.418957 593.08358,286.405665 593.08358,287.654039 C593.08358,288.894008 592.840405,289.886879 592.354054,290.632654 C591.867704,291.377868 591.17516,291.751035 590.2753,291.751035 C589.440436,291.751035 588.771984,291.377868 588.269385,290.632654 C587.766786,289.886879 587.515767,288.894008 587.515767,287.654039 Z M589.023004,285.343875 C588.67449,285.887377 588.500233,286.656685 588.500233,287.654039 C588.500233,288.650833 588.670568,289.430786 589.010677,289.993899 C589.351346,290.557572 589.7727,290.838848 590.2753,290.838848 C590.83449,290.838848 591.278257,290.563735 591.606599,290.012389 C591.934942,289.461043 592.099113,288.674926 592.099113,287.653479 C592.099113,286.640436 591.926537,285.864405 591.581946,285.325385 C591.237914,284.786926 590.801992,284.517416 590.2753,284.517416 C589.788949,284.517416 589.371518,284.792529 589.023004,285.343875 Z M595.661012,284.54151 L595.661012,286.924514 C596.025774,286.843268 596.34179,286.802926 596.609058,286.802926 C597.419829,286.802926 598.061946,287.017525 598.536529,287.447284 C599.010553,287.876482 599.247564,288.451922 599.247564,289.173043 C599.247564,289.95972 598.989821,290.585588 598.475455,291.051767 C597.961089,291.517946 597.257899,291.751035 596.366444,291.751035 C595.563518,291.751035 594.882739,291.613198 594.323549,291.337525 L594.323549,290.389479 C594.842397,290.69765 595.470506,290.851175 596.207875,290.851175 C597.569432,290.851175 598.25077,290.279658 598.25077,289.136623 C598.25077,288.674926 598.092763,288.316327 597.776187,288.060825 C597.460171,287.805883 597.051144,287.678132 596.548545,287.678132 C595.956856,287.678132 595.344996,287.819891 594.712965,288.103969 L594.712965,283.702724 L598.70014,283.702724 L598.70014,284.54151 L595.661012,284.54151 Z M697.128903,290.790661 L698.60028,290.790661 C699.613323,290.790661 700.379268,290.476887 700.897556,289.848218 C701.416405,289.220109 701.676389,288.436233 701.676389,287.496031 C701.676389,286.604016 701.386148,285.854319 700.806786,285.246381 C700.227424,284.639004 699.475486,284.334755 698.551533,284.334755 L697.128903,284.334755 L697.128903,290.790661 Z M696.132109,283.459549 L698.56386,283.459549 C699.771331,283.459549 700.761961,283.834397 701.536311,284.584093 C702.310101,285.33379 702.697276,286.304249 702.697276,287.496031 C702.697276,288.678848 702.338677,289.667798 701.621479,290.462319 C700.90428,291.25628 699.901323,291.653541 698.612607,291.653541 L696.132109,291.653541 L696.132109,283.459549 Z M705.153121,290.790661 L708.739113,290.790661 L708.739113,291.653541 L704.168093,291.653541 L704.168093,283.459549 L708.678599,283.459549 L708.678599,284.322428 L705.153121,284.322428 L705.153121,287.131268 L708.26565,287.131268 L708.26565,287.994148 L705.153121,287.994148 L705.153121,290.790101 L705.153121,290.790661 Z M716.107206,283.787891 L716.107206,284.796451 C715.750288,284.610428 715.43035,284.477074 715.146272,284.395829 C714.862755,284.314584 714.490148,284.274241 714.027891,284.274241 C713.14484,284.274241 712.408591,284.574008 711.821385,285.173541 C711.233619,285.773074 710.940016,286.555829 710.940016,287.520125 C710.940016,288.525323 711.231377,289.327689 711.815222,289.927222 C712.399066,290.526755 713.172856,290.827082 714.137152,290.827082 C714.915984,290.827082 715.579953,290.619767 716.1313,290.206817 L716.1313,291.240031 C715.6287,291.5807 714.940078,291.751035 714.064311,291.751035 C712.832747,291.751035 711.831471,291.371704 711.061603,290.614163 C710.291735,289.856062 709.906802,288.825089 709.906802,287.520125 C709.906802,286.288 710.297899,285.285043 711.080093,284.511253 C711.861728,283.736903 712.845074,283.350288 714.027891,283.350288 C714.879564,283.350288 715.572109,283.495969 716.106646,283.787331 L716.107206,283.787891 Z M720.130802,287.654039 C720.130802,286.405665 720.384062,285.418397 720.891144,284.693354 C721.397665,283.968311 722.063875,283.60523 722.890895,283.60523 C723.749852,283.60523 724.432872,283.968311 724.939393,284.693354 C725.445914,285.418957 725.699175,286.405665 725.699175,287.654039 C725.699175,288.894008 725.456,289.886879 724.96965,290.632654 C724.4833,291.377868 723.790195,291.751035 722.890895,291.751035 C722.056031,291.751035 721.38758,291.377868 720.884981,290.632654 C720.382381,289.886879 720.130802,288.894008 720.130802,287.654039 Z M721.638039,285.343875 C721.290086,285.887377 721.115829,286.656685 721.115829,287.654039 C721.115829,288.650833 721.286163,289.430786 721.626272,289.993899 C721.966942,290.557572 722.388296,290.838848 722.890895,290.838848 C723.450086,290.838848 723.893852,290.563735 724.222195,290.012389 C724.550537,289.461043 724.714148,288.674926 724.714148,287.653479 C724.714148,286.640436 724.542132,285.864405 724.197541,285.325385 C723.85351,284.786926 723.417588,284.517416 722.890895,284.517416 C722.404545,284.517416 721.987113,284.792529 721.638599,285.343875 L721.638039,285.343875 Z M729.674584,290.899922 C730.13684,290.899922 730.503844,290.729588 730.775035,290.389479 C731.046226,290.048809 731.182381,289.602802 731.182381,289.052016 C731.182381,288.549416 731.046226,288.148233 730.775035,287.848467 C730.503284,287.5487 730.148607,287.398537 729.711004,287.398537 C728.981479,287.398537 728.349447,287.694381 727.81435,288.28607 C727.846848,289.145027 728.031191,289.795549 728.367938,290.237074 C728.704125,290.67916 729.139486,290.899922 729.674584,290.899922 Z M731.619984,283.653977 L731.619984,284.589696 C731.271429,284.435915 730.894337,284.357442 730.51337,284.359409 C729.751346,284.359409 729.143969,284.645167 728.690117,285.216685 C728.236265,285.787642 727.956109,286.507082 727.85077,287.373883 C728.385868,286.814693 729.046475,286.535097 729.832591,286.535097 C730.562117,286.535097 731.135315,286.766506 731.552747,287.228202 C731.970179,287.690459 732.179175,288.302319 732.179175,289.064342 C732.179175,289.874553 731.950008,290.531237 731.492233,291.033837 C731.034459,291.535875 730.428202,291.787455 729.674584,291.787455 C728.766879,291.787455 728.069852,291.442864 727.583502,290.753681 C727.097152,290.064498 726.853977,289.165198 726.853977,288.055222 C726.853977,286.734008 727.178397,285.63972 727.826677,284.772358 C728.474957,283.904996 729.366412,283.471875 730.501603,283.471875 C730.865805,283.471875 731.238973,283.532389 731.619984,283.653977 Z M825.744436,290.790661 L827.215813,290.790661 C828.228856,290.790661 828.994802,290.476887 829.51365,289.848218 C830.032498,289.220109 830.291922,288.436233 830.291922,287.496031 C830.291922,286.604016 830.002241,285.854319 829.422319,285.246381 C828.842957,284.639004 828.091019,284.334755 827.167066,284.334755 L825.744996,284.334755 L825.744996,290.790661 L825.744436,290.790661 Z M824.748202,283.459549 L827.179953,283.459549 C828.386864,283.459549 829.378054,283.834397 830.151844,284.584093 C830.926195,285.33379 831.312809,286.304249 831.312809,287.496031 C831.312809,288.678848 830.95421,289.667798 830.237012,290.462319 C829.519813,291.25628 828.516856,291.653541 827.22814,291.653541 L824.748202,291.653541 L824.748202,283.459549 Z M833.769214,290.790661 L837.355206,290.790661 L837.355206,291.653541 L832.784187,291.653541 L832.784187,283.459549 L837.294693,283.459549 L837.294693,284.322428 L833.768654,284.322428 L833.768654,287.131268 L836.881183,287.131268 L836.881183,287.994148 L833.768654,287.994148 L833.768654,290.790101 L833.769214,290.790661 Z M844.722739,283.787891 L844.722739,284.796451 C844.365821,284.610428 844.045883,284.477074 843.762366,284.395829 C843.478288,284.314584 843.105681,284.274241 842.643984,284.274241 C841.760374,284.274241 841.024685,284.574008 840.436918,285.173541 C839.849712,285.773074 839.555549,286.555829 839.555549,287.520125 C839.555549,288.525323 839.847471,289.327689 840.431315,289.927222 C841.014599,290.526755 841.788389,290.827082 842.753245,290.827082 C843.530957,290.827082 844.196047,290.619767 844.746833,290.206817 L844.746833,291.240031 C844.244233,291.5807 843.555611,291.751035 842.680405,291.751035 C841.44772,291.751035 840.447004,291.371704 839.677136,290.614163 C838.907268,289.856062 838.522335,288.825089 838.522335,287.520125 C838.522335,286.288 838.913432,285.285043 839.695626,284.511253 C840.477821,283.736903 841.460607,283.350288 842.643984,283.350288 C843.494537,283.350288 844.187642,283.495969 844.722739,283.787331 L844.722739,283.787891 Z M848.746895,287.654039 C848.746895,286.405665 849.000156,285.418397 849.506677,284.693354 C850.013198,283.968311 850.679969,283.60523 851.506988,283.60523 C852.365385,283.60523 853.048405,283.968311 853.554926,284.693354 C854.061447,285.418957 854.314708,286.405665 854.314708,287.654039 C854.314708,288.894008 854.071533,289.886879 853.585183,290.632654 C853.099393,291.377868 852.406288,291.751035 851.506428,291.751035 C850.671564,291.751035 850.003113,291.377868 849.500514,290.632654 C848.997914,289.886879 848.746895,288.894008 848.746895,287.654039 Z M850.254132,285.343875 C849.905619,285.887377 849.731362,286.656685 849.731362,287.654039 C849.731362,288.650833 849.901696,289.430786 850.242366,289.993899 C850.582475,290.557572 851.004389,290.838848 851.506428,290.838848 C852.065619,290.838848 852.509385,290.563735 852.837728,290.012389 C853.16607,289.461043 853.330241,288.674926 853.330241,287.653479 C853.330241,286.640436 853.157665,285.864405 852.813634,285.325385 C852.469043,284.786926 852.033121,284.517416 851.506428,284.517416 C851.020078,284.517416 850.602646,284.792529 850.254132,285.343875 Z M854.98316,283.702163 L860.175004,283.702163 L860.175004,284.54151 L856.880374,291.653541 L855.858926,291.653541 L859.153556,284.54151 L854.98372,284.54151 L854.98372,283.702724 L854.98316,283.702163 Z M48.9524047,290.790661 L50.4237821,290.790661 C51.4368249,290.790661 52.2027704,290.476887 52.7210584,289.848218 C53.2399066,289.220109 53.4998911,288.436233 53.4998911,287.496031 C53.4998911,286.604016 53.2096498,285.854319 52.6302879,285.246381 C52.0509261,284.639004 51.2989883,284.334755 50.375035,284.334755 L48.9524047,284.334755 L48.9524047,290.790661 Z M47.9556109,283.459549 L50.3873619,283.459549 C51.5948327,283.459549 52.585463,283.834397 53.3598132,284.584093 C54.1336031,285.33379 54.5207782,286.304249 54.5207782,287.496031 C54.5207782,288.678848 54.162179,289.667798 53.4449805,290.462319 C52.7277821,291.25628 51.7248249,291.653541 50.4361089,291.653541 L47.9556109,291.653541 L47.9556109,283.459549 Z M56.9766226,290.790661 L60.5626148,290.790661 L60.5626148,291.653541 L55.9915953,291.653541 L55.9915953,283.459549 L60.5021012,283.459549 L60.5021012,284.322428 L56.9766226,284.322428 L56.9766226,287.131268 L60.0885914,287.131268 L60.0885914,287.994148 L56.9766226,287.994148 L56.9766226,290.790101 L56.9766226,290.790661 Z M67.9307082,283.787891 L67.9307082,284.796451 C67.5737899,284.610428 67.2538521,284.477074 66.9697743,284.395829 C66.6862568,284.314584 66.3136498,284.274241 65.851393,284.274241 C64.9677821,284.274241 64.2320934,284.574008 63.6448872,285.173541 C63.0571206,285.773074 62.7635175,286.555829 62.7635175,287.520125 C62.7635175,288.525323 63.0548794,289.327689 63.6387237,289.927222 C64.2225681,290.526755 64.996358,290.827082 65.9606537,290.827082 C66.7389261,290.827082 67.4034553,290.619767 67.9548016,290.206817 L67.9548016,291.240031 C67.4522023,291.5807 66.7630195,291.751035 65.8878132,291.751035 C64.6556887,291.751035 63.6549728,291.371704 62.8845447,290.614163 C62.1152374,289.856062 61.7303035,288.825089 61.7303035,287.520125 C61.7303035,286.288 62.1214008,285.285043 62.903035,284.511253 C63.6852296,283.736903 64.6680156,283.350288 65.851393,283.350288 C66.7025058,283.350288 67.3956109,283.495969 67.9301479,283.787331 L67.9307082,283.787891 Z M71.9543035,287.654039 C71.9543035,286.405665 72.2075642,285.418397 72.7140856,284.693354 C73.220607,283.968311 73.8873774,283.60523 74.7143969,283.60523 C75.5733541,283.60523 76.2563735,283.968311 76.7628949,284.693354 C77.2694163,285.418957 77.522677,286.405665 77.522677,287.654039 C77.522677,288.894008 77.2795019,289.886879 76.7931518,290.632654 C76.3068016,291.377868 75.6136965,291.751035 74.7143969,291.751035 C73.8795331,291.751035 73.2105214,291.377868 72.7084825,290.632654 C72.2058833,289.886879 71.9543035,288.894008 71.9543035,287.654039 Z M73.4615409,285.343875 C73.1135875,285.887377 72.9393307,286.656685 72.9393307,287.654039 C72.9393307,288.650833 73.1096654,289.430786 73.4497743,289.993899 C73.7904436,290.557572 74.2117977,290.838848 74.7143969,290.838848 C75.2735875,290.838848 75.7173541,290.563735 76.0456965,290.012389 C76.3734786,289.461043 76.5376498,288.674926 76.5376498,287.653479 C76.5376498,286.640436 76.3656342,285.864405 76.0210428,285.325385 C75.6764514,284.786926 75.2410895,284.517416 74.7143969,284.517416 C74.2280467,284.517416 73.8106148,284.792529 73.4621012,285.343875 L73.4615409,285.343875 Z M78.2639689,285.878973 L78.2639689,284.845198 L80.148856,283.702163 L81.0481556,283.702163 L81.0481556,291.653541 L80.1001089,291.653541 L80.1001089,284.748265 L78.2639689,285.878973 Z" id="Shape" fill="#FFFFFF" fill-rule="nonzero" mask="url(#mask-2)"></path>
                    <g id="Group" mask="url(#mask-2)">
                        <g transform="translate(186.692607, 205.808809)" id="e-link">
                            <g>
                                <circle id="e" fill="#000000" fill-rule="nonzero" cx="8.23545525" cy="8.30381323" r="7.84435798"></circle>
                            </g>
                            <g>
                                <circle id="e" fill="#FFFFFF" fill-rule="nonzero" cx="8.23545525" cy="8.30381323" r="7.84435798"></circle>
                            </g>
                        </g>
                    </g>
                    <g id="Group" mask="url(#mask-2)">
                        <g transform="translate(178.848249, 197.964451)" id="g-link">
                            <g>
                                <circle id="g" fill="#000000" fill-rule="nonzero" cx="16.0798132" cy="16.1481712" r="15.688716"></circle>
                            </g>
                            <g fill-opacity="0.2">
                                <circle id="g" fill="#FFFFFF" fill-rule="nonzero" cx="16.0798132" cy="16.1481712" r="15.688716"></circle>
                            </g>
                        </g>
                    </g>
                    <g id="Group" mask="url(#mask-2)">
                        <g transform="translate(171.564202, 190.680405)" id="i-link">
                            <g>
                                <circle id="i" fill="#000000" fill-rule="nonzero" cx="23.5330739" cy="23.5330739" r="23.5330739"></circle>
                            </g>
                            <g fill-opacity="0.2">
                                <circle id="i" fill="#FFFFFF" fill-rule="nonzero" cx="23.5330739" cy="23.5330739" r="23.5330739"></circle>
                            </g>
                        </g>
                    </g>
                    <g id="Group" mask="url(#mask-2)">
                        <g transform="translate(706.101167, 224.859393)" id="k-link">
                            <g>
                                <circle id="k" fill="#000000" fill-rule="nonzero" cx="7.88974319" cy="8.2875642" r="7.84435798"></circle>
                            </g>
                            <g>
                                <circle id="k" fill="#FFFFFF" fill-rule="nonzero" cx="7.88974319" cy="8.2875642" r="7.84435798"></circle>
                            </g>
                        </g>
                    </g>
                    <g id="Group" mask="url(#mask-2)">
                        <g transform="translate(834.412451, 255.676514)" id="m-link">
                            <g>
                                <circle id="m" fill="#000000" fill-rule="nonzero" cx="8.35256031" cy="7.86396887" r="7.84435798"></circle>
                            </g>
                            <g>
                                <circle id="m" fill="#FFFFFF" fill-rule="nonzero" cx="8.35256031" cy="7.86396887" r="7.84435798"></circle>
                            </g>
                        </g>
                    </g>
                    <g id="Group" mask="url(#mask-2)">
                        <g transform="translate(446.677043, 159.863284)" id="o-link">
                            <g>
                                <circle id="o" fill="#000000" fill-rule="nonzero" cx="7.95529961" cy="8.12115175" r="7.84435798"></circle>
                            </g>
                            <g>
                                <circle id="o" fill="#FFFFFF" fill-rule="nonzero" cx="7.95529961" cy="8.12115175" r="7.84435798"></circle>
                            </g>
                        </g>
                    </g>
                    <g id="Group" mask="url(#mask-2)">
                        <g transform="translate(313.883268, 200.766008)" id="q-link">
                            <g>
                                <circle id="q" fill="#000000" fill-rule="nonzero" cx="8.02982101" cy="8.30381323" r="7.84435798"></circle>
                            </g>
                            <g>
                                <circle id="q" fill="#FFFFFF" fill-rule="nonzero" cx="8.02982101" cy="8.30381323" r="7.84435798"></circle>
                            </g>
                        </g>
                    </g>
                    <g id="Group" mask="url(#mask-2)">
                        <g transform="translate(56.140078, 232.703751)" id="s-link">
                            <g>
                                <circle id="s" fill="#000000" fill-rule="nonzero" cx="8.33294942" cy="8.22536965" r="7.84435798"></circle>
                            </g>
                            <g>
                                <circle id="s" fill="#FFFFFF" fill-rule="nonzero" cx="8.33294942" cy="8.22536965" r="7.84435798"></circle>
                            </g>
                        </g>
                    </g>
                    <g id="Group" mask="url(#mask-2)">
                        <g transform="translate(573.307393, 188.999471)" id="u-link">
                            <g>
                                <circle id="u" fill="#000000" fill-rule="nonzero" cx="7.9648249" cy="8.02029572" r="7.84435798"></circle>
                            </g>
                            <g>
                                <circle id="u" fill="#FFFFFF" fill-rule="nonzero" cx="7.9648249" cy="8.02029572" r="7.84435798"></circle>
                            </g>
                        </g>
                    </g>
                </g>
            </g>
        </g>
    </g>
</svg>