<svg xmlns="http://www.w3.org/2000/svg" width="109.96" height="32" viewBox="0 0 512 149">
  <!-- Icon from SVG Logos by Gil Barbara - https://raw.githubusercontent.com/gilbarbara/logos/master/LICENSE.txt -->
  <path fill="#222"
    d="M3.332 115.629V58.648h71.144v-3.333H3.332V3.332h75.642V0H0v118.961h79.64v-3.332zm140.455-82.307l-29.49 38.821l-28.825-38.82H81.14l31.157 41.32L78.14 118.96h3.999l32.156-41.82l32.323 41.82h4.165l-34.322-44.319l31.323-41.32zm16.994 114.963V94.97h.333q3 11.662 11.83 18.744q8.83 7.08 22.492 7.081q8.83 0 15.662-3.582q6.83-3.582 11.413-9.747q4.581-6.165 6.998-14.329t2.416-17.16q0-9.665-2.5-17.828q-2.5-8.165-7.247-14.162q-4.749-6-11.497-9.33q-6.747-3.333-15.245-3.333q-6.498 0-12.079 1.916t-9.913 5.415a36.7 36.7 0 0 0-7.498 8.247q-3.165 4.749-4.832 10.414h-.333V33.322h-3.332v114.963zm34.655-30.657q-15.66 0-25.158-10.746q-9.497-10.746-9.497-30.907q0-8.331 2.333-15.828t6.747-13.162t10.913-8.997t14.662-3.333q8.331 0 14.579 3.333q6.248 3.332 10.33 9.08t6.165 13.162t2.082 15.745q0 7.499-1.916 14.912t-5.915 13.33q-3.997 5.913-10.246 9.663q-6.249 3.748-15.079 3.748m54.816 1.333V70.477q0-6.998 2-13.662q1.998-6.665 6.164-11.746t10.58-7.998t15.245-2.416v-3.332q-7.664-.166-13.412 1.666q-5.749 1.833-9.914 4.999t-6.664 7.414a33.2 33.2 0 0 0-3.666 9.08h-.333v-21.16h-3.332v85.64zm38.154-42.153h71.643q.334-8.83-1.749-16.994q-2.082-8.165-6.664-14.495q-4.582-6.332-11.83-10.164t-17.244-3.832q-7.165 0-13.996 3q-6.831 2.998-11.996 8.746t-8.33 14.08t-3.166 18.993q0 9.497 2.166 17.744t6.664 14.329q4.5 6.081 11.58 9.413q7.08 3.333 17.078 3.166q14.661 0 24.658-8.247t11.83-23.243h-3.332q-2.166 14.163-11.08 21.243q-8.914 7.081-22.41 7.081q-9.163 0-15.495-3.165q-6.33-3.166-10.33-8.664q-3.998-5.499-5.914-12.913q-1.917-7.413-2.083-16.078m68.311-3.332h-68.31q.498-8.997 3.331-16.161q2.833-7.166 7.415-12.246q4.581-5.081 10.663-7.748t13.079-2.666q8.33 0 14.662 3.083q6.33 3.083 10.58 8.414q4.248 5.332 6.414 12.412q2.166 7.082 2.166 14.912m72.477-14.828h3.332q0-14.33-8.33-20.827q-8.332-6.498-22.66-6.498q-7.998 0-13.496 2t-8.997 5.164q-3.498 3.165-4.998 6.998t-1.5 7.331q0 6.997 2.5 11.163q2.499 4.165 7.83 6.498q3.665 1.665 8.331 3q4.665 1.332 10.83 2.831q5.497 1.335 10.83 2.666q5.331 1.334 9.413 3.582q4.083 2.25 6.665 5.749t2.582 9.163q0 5.499-2.582 9.33a20.8 20.8 0 0 1-6.581 6.249q-4 2.415-8.914 3.498q-4.915 1.083-9.58 1.083q-15.162 0-23.243-6.747q-8.08-6.748-8.08-21.244h-3.333q0 16.162 8.747 23.66q8.748 7.497 25.909 7.497q5.497 0 11.08-1.25q5.58-1.249 9.996-4.082a22.6 22.6 0 0 0 7.164-7.33q2.75-4.5 2.75-10.997q0-6.165-2.416-9.997t-6.332-6.331t-8.83-3.915a516 516 0 0 0-9.914-2.75a1727 1727 0 0 0-12.246-3.165q-5.247-1.333-9.746-3.166q-4.332-1.833-6.915-5.248q-2.582-3.416-2.582-9.747q0-1.166.666-4.165q.667-3 3.166-6.082t7.664-5.498t14.162-2.416q6.164 0 11.246 1.333t8.747 4.249t5.665 7.414q2 4.5 2 10.997m77.141 0h3.332q0-14.33-8.33-20.827t-22.66-6.498q-7.997 0-13.495 2q-5.499 1.999-8.997 5.164q-3.5 3.165-4.999 6.998q-1.5 3.833-1.499 7.331q0 6.997 2.5 11.163q2.498 4.165 7.83 6.498q3.666 1.665 8.33 3q4.665 1.332 10.83 2.831q5.499 1.335 10.83 2.666q5.332 1.334 9.414 3.582q4.082 2.25 6.664 5.749q2.583 3.498 2.583 9.163q0 5.499-2.583 9.33a20.8 20.8 0 0 1-6.58 6.249q-4 2.415-8.915 3.498t-9.58 1.083q-15.162 0-23.242-6.747q-8.082-6.748-8.081-21.244h-3.332q0 16.162 8.747 23.66q8.746 7.497 25.908 7.497q5.499 0 11.08-1.25q5.58-1.249 9.997-4.082a22.6 22.6 0 0 0 7.164-7.33q2.75-4.5 2.749-10.997q0-6.165-2.416-9.997t-6.331-6.331t-8.83-3.915a516 516 0 0 0-9.914-2.75a1727 1727 0 0 0-12.246-3.165q-5.249-1.333-9.747-3.166q-4.332-1.833-6.914-5.248q-2.583-3.416-2.583-9.747q0-1.166.667-4.165t3.165-6.082q2.5-3.081 7.664-5.498q5.165-2.415 14.163-2.416q6.164 0 11.246 1.333t8.747 4.249t5.665 7.414q2 4.5 2 10.997" />
</svg>
