<svg fill="none" height="48" viewBox="0 0 48 48" width="48" xmlns="http://www.w3.org/2000/svg"><path d="m0 0h48v48h-48z" fill="#fff"/><path d="m20.9021 30.3306 1.7657-8.7249c.3116-1.4196.7617-3.9816.9348-5.5397h.2424c-.1039 2.0082-.1731 5.0203-.1731 6.9592v13.2951h3.8085v-24.5821h-5.3665l-2.3197 11.1139c-.1732 1.0387-.3809 2.3889-.4501 3.116h-.2078c-.0692-.7271-.277-2.0773-.4501-3.116l-2.3197-11.1139h-5.3665v24.5821h3.8085v-13.2951c0-1.9389-.0693-4.951-.1731-6.9592h.2423c.2078 1.5581.6232 4.1201.9348 5.5397l1.7658 8.7249z" fill="#18181b"/><rect fill="#ffd848" height="47.4651" rx="1.13817" transform="matrix(-1 0 0 1 37 .25)" width="3.93023"/></svg>