<svg xmlns="http://www.w3.org/2000/svg" width="36.91" height="32" viewBox="0 0 256 222">
  <!-- Icon from SVG Logos by Gil Barbara - https://raw.githubusercontent.com/gilbarbara/logos/master/LICENSE.txt -->
  <path fill="#007FFF"
    d="M215.771 151.107a7.11 7.11 0 0 0 3.57-6.144l.128-41.153a7.11 7.11 0 0 1 3.57-6.145l22.308-12.814A7.11 7.11 0 0 1 256 91.016v74.818a7.11 7.11 0 0 1-3.57 6.166l-84.19 48.357a7.11 7.11 0 0 1-7.07.007l-66.07-37.79a7.11 7.11 0 0 1-3.585-6.172v-37.726c0-.042.05-.07.093-.05c.035.022.085 0 .085-.05v-.042c0-.028.014-.057.043-.071l54.416-31.261c.05-.029.028-.107-.029-.107a.057.057 0 0 1-.057-.057l.107-36.986a7.111 7.111 0 0 0-10.667-6.187L95.064 87.17a7.11 7.11 0 0 1-7.097 0l-40.57-23.36a7.11 7.11 0 0 0-10.66 6.158v66.846a7.11 7.11 0 0 1-10.638 6.18L3.584 130.12A7.11 7.11 0 0 1 0 123.935L.2 7.095A7.11 7.11 0 0 1 10.851.946L87.974 45.24a7.11 7.11 0 0 0 7.083 0l77.1-44.296a7.11 7.11 0 0 1 10.653 6.172v116.867a7.11 7.11 0 0 1-3.562 6.166l-40.378 23.254a7.111 7.111 0 0 0 .028 12.338l22.273 12.68a7.11 7.11 0 0 0 7.061-.015zm4.672-104.835a7.111 7.111 0 0 0 10.767 6.094l21.334-12.8A7.11 7.11 0 0 0 256 33.472V7.387A7.111 7.111 0 0 0 245.233 1.3L223.9 14.1a7.11 7.11 0 0 0-3.457 6.095v26.084z" />
</svg>
