<svg xmlns="http://www.w3.org/2000/svg" width="32" height="32" viewBox="0 0 256 256">
  <!-- Icon from SVG Logos by Gil Barbara - https://raw.githubusercontent.com/gilbarbara/logos/master/LICENSE.txt -->
  <path fill="#F12E45"
    d="M128 0c70.656 0 128 57.344 128 128s-57.344 128-128 128S0 198.656 0 128S57.344 0 128 0m0 33.792c-52.224 0-94.208 41.984-94.208 94.208S75.776 222.208 128 222.208s94.208-41.984 94.208-94.208S180.224 33.792 128 33.792m31.744 99.328c14.704 0 26.624 11.92 26.624 26.624s-11.92 26.624-26.624 26.624s-26.624-11.92-26.624-26.624s11.92-26.624 26.624-26.624m-63.488 0c14.704 0 26.624 11.92 26.624 26.624s-11.92 26.624-26.624 26.624s-26.624-11.92-26.624-26.624s11.92-26.624 26.624-26.624m63.488-63.488c14.704 0 26.624 11.92 26.624 26.624s-11.92 26.624-26.624 26.624s-26.624-11.92-26.624-26.624s11.92-26.624 26.624-26.624m-63.488 0c14.704 0 26.624 11.92 26.624 26.624s-11.92 26.624-26.624 26.624s-26.624-11.92-26.624-26.624s11.92-26.624 26.624-26.624" />
</svg>
