<svg height="37" viewBox="0 0 145 37" width="145" xmlns="http://www.w3.org/2000/svg">
  <title>Algolia Community Logo</title>
  <g fill="none">
    <path d="M18.36.104l18.403 18.429-18.318 18.345L.042 18.449z" fill="#16205A"></path>
    <path d="M15.503 5.268l2.862-2.866 3.45 3.456-1.145 1.147-2.3-2.304-1.717 1.72z" fill="#46AEDA"></path>
    <path d="M21.302 31.712l-2.862 2.866-9.776-9.791 1.145-1.147 8.626 8.639 1.717-1.72z" fill="#FE336F"></path>
    <path d="M22.447 30.566l12.021-12.038L22.966 7.01l-1.145 1.147 10.352 10.366-10.876 10.892z" fill="#F5A623"></path>
    <path d="M7.489 13.294l-5.152 5.159 5.176 5.183 1.145-1.146-4.025-4.031 4.007-4.013z" fill="#50E3C2"></path>
    <path d="M8.634 12.147l5.724-5.733 1.15 1.152-5.724 5.733z" fill="#BD0FE1"></path>
    <path d="M18.538 13.796c-3.069 0-5.558 2.477-5.558 5.536 0 3.059 2.49 5.53 5.558 5.53 3.069 0 5.558-2.477 5.558-5.536 0-3.059-2.483-5.53-5.558-5.53zm0 9.432c-2.161 0-3.916-1.746-3.916-3.896s1.755-3.897 3.916-3.897 3.916 1.746 3.916 3.896-1.749 3.896-3.916 3.896zm0-6.997v2.904c0 .083.09.143.167.101l2.591-1.336c.06-.03.077-.101.048-.16a3.226 3.226 0 0 0-2.686-1.621c-.06 0-.119.048-.119.113zm-3.63-2.132l-.34-.339a.853.853 0 0 0-1.206 0l-.406.404a.844.844 0 0 0 0 1.2l.334.332c.054.054.131.042.179-.012.197-.27.415-.524.651-.76a6.07 6.07 0 0 1 .77-.653c.06-.036.066-.119.018-.172zm5.451-.879v-.671a.851.851 0 0 0-.854-.849h-1.988a.851.851 0 0 0-.854.849v.689c0 .078.072.131.149.113a6.318 6.318 0 0 1 3.403-.017l.099-.021.044-.092z" fill="#fff"></path>
    <path d="M43.436 18.501a6.4 6.4 0 0 1 .357-2.158 5.1 5.1 0 0 1 1.023-1.74 4.69 4.69 0 0 1 1.619-1.154c.636-.278 1.351-.418 2.145-.418.98 0 1.907.179 2.781.537l-.516 1.969a5.422 5.422 0 0 0-.943-.298 5.04 5.04 0 0 0-1.122-.119c-.94 0-1.655.295-2.145.885-.49.59-.735 1.422-.735 2.496 0 1.034.232 1.853.695 2.456.463.603 1.245.905 2.344.905.41 0 .814-.04 1.212-.119.397-.08.741-.179 1.033-.298l.338 1.989c-.265.133-.665.252-1.202.358a8.546 8.546 0 0 1-1.658.159c-.887 0-1.658-.136-2.314-.408a4.403 4.403 0 0 1-1.629-1.134 4.71 4.71 0 0 1-.963-1.73 7.184 7.184 0 0 1-.318-2.178zm19.126-.02c0 .822-.119 1.571-.357 2.247a4.968 4.968 0 0 1-1.013 1.73 4.555 4.555 0 0 1-1.579 1.114 5.097 5.097 0 0 1-2.036.398 5.027 5.027 0 0 1-2.026-.398 4.568 4.568 0 0 1-1.569-1.114 5.098 5.098 0 0 1-1.023-1.73c-.245-.676-.367-1.425-.367-2.247 0-.822.123-1.568.367-2.238a5.018 5.018 0 0 1 1.033-1.72 4.58 4.58 0 0 1 1.579-1.104 5.075 5.075 0 0 1 2.006-.388c.728 0 1.4.129 2.016.388a4.452 4.452 0 0 1 1.579 1.104 5.119 5.119 0 0 1 1.023 1.72c.245.67.367 1.416.367 2.238zm-2.463 0c0-1.034-.222-1.853-.665-2.456-.444-.603-1.063-.905-1.857-.905s-1.414.302-1.857.905c-.444.603-.665 1.422-.665 2.456 0 1.048.222 1.876.665 2.486.444.61 1.063.915 1.857.915s1.414-.305 1.857-.915c.444-.61.665-1.439.665-2.486zm10.864-.259c0-1.087-.136-1.873-.407-2.357-.272-.484-.778-.726-1.519-.726-.265 0-.556.02-.874.06l-.715.099v8.393h-2.403V13.627c.463-.133 1.069-.259 1.817-.378s1.539-.179 2.373-.179c.715 0 1.301.093 1.758.278.457.186.838.431 1.142.736.146-.106.331-.219.556-.338.225-.119.477-.229.755-.328.289-.102.584-.186.884-.249.311-.066.626-.099.943-.099.808 0 1.473.116 1.996.348.523.232.933.557 1.231.975.298.418.503.921.616 1.512.112.59.169 1.237.169 1.939v5.847h-2.403v-5.47c0-1.087-.132-1.873-.397-2.357-.265-.484-.775-.726-1.529-.726a3.15 3.15 0 0 0-1.092.189c-.344.126-.602.249-.775.368.106.332.179.683.218 1.054.04.371.06.769.06 1.193v5.748h-2.403v-5.47zm17.18 0c0-1.087-.136-1.873-.407-2.357-.272-.484-.778-.726-1.519-.726-.265 0-.556.02-.874.06l-.715.099v8.393h-2.403V13.627c.463-.133 1.069-.259 1.817-.378s1.539-.179 2.373-.179c.715 0 1.301.093 1.758.278.457.186.838.431 1.142.736.146-.106.331-.219.556-.338.225-.119.477-.229.755-.328.289-.102.584-.186.884-.249.311-.066.626-.099.943-.099.808 0 1.473.116 1.996.348.523.232.933.557 1.231.975.298.418.503.921.616 1.512.112.59.169 1.237.169 1.939v5.847h-2.403v-5.47c0-1.087-.132-1.873-.397-2.357-.265-.484-.775-.726-1.529-.726a3.15 3.15 0 0 0-1.092.189c-.344.126-.602.249-.775.368.106.332.179.683.218 1.054.04.371.06.769.06 1.193v5.748h-2.403v-5.47zm19.781 5.151c-.463.119-1.066.242-1.807.368a14.62 14.62 0 0 1-2.443.189c-.834 0-1.533-.119-2.095-.358-.563-.239-1.013-.57-1.351-.994a3.914 3.914 0 0 1-.725-1.522 8.071 8.071 0 0 1-.218-1.939v-5.828h2.403v5.45c0 1.114.162 1.909.487 2.387.324.477.89.716 1.698.716.291 0 .599-.013.924-.04.324-.026.566-.06.725-.099V13.29h2.403v10.084zm3.059-9.746a15.907 15.907 0 0 1 1.807-.378 15.604 15.604 0 0 1 2.463-.179c.847 0 1.556.116 2.125.348.57.232 1.023.557 1.36.975.338.418.576.921.715 1.512.139.59.209 1.237.209 1.939v5.847h-2.403v-5.47c0-.557-.037-1.031-.109-1.422-.073-.391-.192-.709-.357-.955a1.431 1.431 0 0 0-.675-.537c-.285-.113-.632-.169-1.043-.169-.304 0-.622.02-.953.06l-.735.099v8.393h-2.403V13.626zm14.042 10.064h-2.403V13.289h2.403v10.402zm.258-13.445c0 .451-.146.809-.437 1.074a1.485 1.485 0 0 1-1.033.398c-.41 0-.761-.133-1.053-.398-.291-.265-.437-.623-.437-1.074 0-.464.146-.829.437-1.094a1.51 1.51 0 0 1 1.053-.398c.397 0 .741.133 1.033.398.291.265.437.63.437 1.094zm2.681.298l2.403-.398v3.143h3.694v2.009h-3.694v4.236c0 .835.132 1.432.397 1.79.265.358.715.537 1.351.537.437 0 .824-.046 1.162-.139.338-.093.606-.179.804-.259l.397 1.909a9.068 9.068 0 0 1-1.092.368c-.45.126-.98.189-1.589.189-.741 0-1.36-.099-1.857-.298-.497-.199-.89-.487-1.182-.865a3.433 3.433 0 0 1-.616-1.372 8.546 8.546 0 0 1-.179-1.84v-9.01zm16.902 2.745c-1.072 3.952-2.317 7.532-3.734 10.74a10.786 10.786 0 0 1-.814 1.531 4.54 4.54 0 0 1-.933 1.054c-.34.276-.732.483-1.152.607a5.173 5.173 0 0 1-1.47.189 5.18 5.18 0 0 1-1.102-.119c-.364-.08-.639-.166-.824-.259l.437-1.929a3.86 3.86 0 0 0 1.41.278c.622 0 1.109-.149 1.46-.448.351-.298.659-.759.924-1.382a55.873 55.873 0 0 1-2.175-4.773 52.914 52.914 0 0 1-1.857-5.489h2.562c.132.557.295 1.16.487 1.81a55.804 55.804 0 0 0 1.341 3.978c.235.623.487 1.24.755 1.85.424-1.18.821-2.436 1.192-3.769.358-1.284.696-2.574 1.013-3.868h2.483z" fill="#16205A"></path>
  </g>
</svg>
