<?xml version="1.0" encoding="UTF-8"?>
<svg width="169px" height="39px" viewBox="0 0 169 39" version="1.1" xmlns="http://www.w3.org/2000/svg" xmlns:xlink="http://www.w3.org/1999/xlink">
    <!-- Generator: Sketch 51.2 (57519) - http://www.bohemiancoding.com/sketch -->
    <title>community-logo</title>
    <desc>Created with Sketch.</desc>
    <defs></defs>
    <g id="community-logo" stroke="none" stroke-width="1" fill="none" fill-rule="evenodd">
        <g transform="translate(0.000000, 2.000000)">
            <polygon id="Shape" fill="#5368FF" fill-rule="nonzero" points="17.3633024 0.532727431 34.3363317 17.5297365 17.4416976 34.4492726 0.468668298 17.4522635"></polygon>
            <path d="M12.5851135,10.0073508 L17.3741165,5.21128899 L22.1988395,10.0428285 L17.4097153,14.8319526 L12.5851135,10.0073508 Z M9.92934606,12.6670327 L14.7519907,17.4896773 L9.95620041,22.2854676 L5.14048695,17.4629504 L9.92934606,12.6670327 Z M24.8841857,22.306423 L20.06744,17.4896773 L24.8546881,12.7024292 L29.6645131,17.5190496 L24.8841857,22.306423 Z M22.2284183,24.9661049 L17.4308835,29.770711 L12.612049,24.9450684 L17.4097153,20.147402 L22.2284183,24.9661049 Z" id="Combined-Shape" fill="#FFFFFF" fill-rule="nonzero"></path>
            <polygon id="Shape" fill="#5368FF" fill-rule="nonzero" points="17.3842549 9.59752397 25.2845997 17.5090305 17.4207451 25.384476 9.52040033 17.4729695"></polygon>
            <path d="M48.043,10.027 C49.8910092,10.027 51.4239939,10.5029952 52.642,11.455 C53.8600061,12.4070048 54.664998,13.7019918 55.057,15.34 L51.949,15.34 C51.6269984,14.541996 51.1265034,13.9120023 50.4475,13.45 C49.7684966,12.9879977 48.9530048,12.757 48.001,12.757 C47.2169961,12.757 46.5100032,12.952998 45.88,13.345 C45.2499969,13.737002 44.7600018,14.2969964 44.41,15.025 C44.0599982,15.7530036 43.885,16.6069951 43.885,17.587 C43.885,18.5530048 44.0599982,19.3999964 44.41,20.128 C44.7600018,20.8560036 45.2499969,21.415998 45.88,21.808 C46.5100032,22.200002 47.2169961,22.396 48.001,22.396 C48.9530048,22.396 49.7684966,22.1650023 50.4475,21.703 C51.1265034,21.2409977 51.6269984,20.611004 51.949,19.813 L55.057,19.813 C54.664998,21.4510082 53.8600061,22.7459952 52.642,23.698 C51.4239939,24.6500048 49.8910092,25.126 48.043,25.126 C46.6289929,25.126 45.3795054,24.8075032 44.2945,24.1705 C43.2094946,23.5334968 42.369503,22.6410057 41.7745,21.493 C41.179497,20.3449943 40.882,19.0430073 40.882,17.587 C40.882,16.1169927 41.179497,14.8080057 41.7745,13.66 C42.369503,12.5119943 43.2059946,11.6195032 44.284,10.9825 C45.3620054,10.3454968 46.6149929,10.027 48.043,10.027 Z M62.6112727,13.219 C63.7452784,13.219 64.7637682,13.4569976 65.6667727,13.933 C66.5697772,14.4090024 67.2802701,15.0984955 67.7982727,16.0015 C68.3162753,16.9045045 68.5752727,17.9649939 68.5752727,19.183 C68.5752727,20.4010061 68.3162753,21.4579955 67.7982727,22.354 C67.2802701,23.2500045 66.5697772,23.9394976 65.6667727,24.4225 C64.7637682,24.9055024 63.7452784,25.147 62.6112727,25.147 C61.4772671,25.147 60.4587772,24.9055024 59.5557727,24.4225 C58.6527682,23.9394976 57.9422753,23.2500045 57.4242727,22.354 C56.9062701,21.4579955 56.6472727,20.4010061 56.6472727,19.183 C56.6472727,17.9649939 56.9062701,16.9045045 57.4242727,16.0015 C57.9422753,15.0984955 58.6527682,14.4090024 59.5557727,13.933 C60.4587772,13.4569976 61.4772671,13.219 62.6112727,13.219 Z M62.6112727,15.781 C61.7852686,15.781 61.0852756,16.0714971 60.5112727,16.6525 C59.9372699,17.2335029 59.6502727,18.0769945 59.6502727,19.183 C59.6502727,20.2890055 59.9372699,21.1324971 60.5112727,21.7135 C61.0852756,22.2945029 61.7852686,22.585 62.6112727,22.585 C63.4372769,22.585 64.1372699,22.2945029 64.7112727,21.7135 C65.2852756,21.1324971 65.5722727,20.2890055 65.5722727,19.183 C65.5722727,18.0769945 65.2852756,17.2335029 64.7112727,16.6525 C64.1372699,16.0714971 63.4372769,15.781 62.6112727,15.781 Z M85.4325455,13.198 C86.8465525,13.198 87.9630414,13.6354956 88.7820455,14.5105 C89.6010496,15.3855044 90.0105455,16.627992 90.0105455,18.238 L90.0105455,25 L87.0705455,25 L87.0705455,18.574 C87.0705455,17.6779955 86.8430477,16.9885024 86.3880455,16.5055 C85.9330432,16.0224976 85.3065494,15.781 84.5085455,15.781 C83.6825413,15.781 83.0245479,16.0399974 82.5345455,16.558 C82.044543,17.0760026 81.7995455,17.831995 81.7995455,18.826 L81.7995455,25 L78.8595455,25 L78.8595455,18.574 C78.8595455,17.6779955 78.6320477,16.9885024 78.1770455,16.5055 C77.7220432,16.0224976 77.0955494,15.781 76.2975455,15.781 C75.4715413,15.781 74.8135479,16.0399974 74.3235455,16.558 C73.833543,17.0760026 73.5885455,17.831995 73.5885455,18.826 L73.5885455,25 L70.6275455,25 L70.6275455,13.366 L73.5885455,13.366 L73.5885455,15.571 C73.896547,14.8149962 74.3830421,14.2305021 75.0480455,13.8175 C75.7130488,13.4044979 76.486541,13.198 77.3685455,13.198 C78.3065501,13.198 79.122042,13.4219978 79.8150455,13.87 C80.5080489,14.3180022 81.0295437,14.9619958 81.3795455,15.802 C81.7435473,15.003996 82.2860419,14.3705023 83.0070455,13.9015 C83.7280491,13.4324977 84.536541,13.198 85.4325455,13.198 Z M107.371818,13.198 C108.785825,13.198 109.902314,13.6354956 110.721318,14.5105 C111.540322,15.3855044 111.949818,16.627992 111.949818,18.238 L111.949818,25 L109.009818,25 L109.009818,18.574 C109.009818,17.6779955 108.78232,16.9885024 108.327318,16.5055 C107.872316,16.0224976 107.245822,15.781 106.447818,15.781 C105.621814,15.781 104.963821,16.0399974 104.473818,16.558 C103.983816,17.0760026 103.738818,17.831995 103.738818,18.826 L103.738818,25 L100.798818,25 L100.798818,18.574 C100.798818,17.6779955 100.57132,16.9885024 100.116318,16.5055 C99.6613159,16.0224976 99.0348222,15.781 98.2368182,15.781 C97.4108141,15.781 96.7528206,16.0399974 96.2628182,16.558 C95.7728157,17.0760026 95.5278182,17.831995 95.5278182,18.826 L95.5278182,25 L92.5668182,25 L92.5668182,13.366 L95.5278182,13.366 L95.5278182,15.571 C95.8358197,14.8149962 96.3223149,14.2305021 96.9873182,13.8175 C97.6523215,13.4044979 98.4258138,13.198 99.3078182,13.198 C100.245823,13.198 101.061315,13.4219978 101.754318,13.87 C102.447322,14.3180022 102.968816,14.9619958 103.318818,15.802 C103.68282,15.003996 104.225315,14.3705023 104.946318,13.9015 C105.667322,13.4324977 106.475814,13.198 107.371818,13.198 Z M125.636091,13.366 L125.636091,25 L122.675091,25 L122.675091,22.648 C122.367089,23.4320039 121.859594,24.0444978 121.152591,24.4855 C120.445587,24.9265022 119.630096,25.147 118.706091,25.147 C117.362084,25.147 116.291095,24.7060044 115.493091,23.824 C114.695087,22.9419956 114.296091,21.7100079 114.296091,20.128 L114.296091,13.366 L117.236091,13.366 L117.236091,19.792 C117.236091,20.7160046 117.474089,21.4334974 117.950091,21.9445 C118.426093,22.4555026 119.070087,22.711 119.882091,22.711 C120.736095,22.711 121.415088,22.4380027 121.919091,21.892 C122.423093,21.3459973 122.675091,20.5620051 122.675091,19.54 L122.675091,13.366 L125.636091,13.366 Z M135.206364,13.198 C136.55037,13.198 137.62136,13.6389956 138.419364,14.521 C139.217368,15.4030044 139.616364,16.641992 139.616364,18.238 L139.616364,25 L136.676364,25 L136.676364,18.574 C136.676364,17.6499954 136.438366,16.9325026 135.962364,16.4215 C135.486361,15.9104974 134.835368,15.655 134.009364,15.655 C133.169359,15.655 132.497366,15.9279973 131.993364,16.474 C131.489361,17.0200027 131.237364,17.8039949 131.237364,18.826 L131.237364,25 L128.276364,25 L128.276364,13.366 L131.237364,13.366 L131.237364,15.697 C131.545365,14.9129961 132.05286,14.3005022 132.759864,13.8595 C133.466867,13.4184978 134.282359,13.198 135.206364,13.198 Z M141.836636,10.027 C141.836636,9.55099762 142.004635,9.1625015 142.340636,8.8615 C142.676638,8.5604985 143.117634,8.41 143.663636,8.41 C144.209639,8.41 144.650635,8.5604985 144.986636,8.8615 C145.322638,9.1625015 145.490636,9.55099762 145.490636,10.027 C145.490636,10.4890023 145.322638,10.8704985 144.986636,11.1715 C144.650635,11.4725015 144.209639,11.623 143.663636,11.623 C143.117634,11.623 142.676638,11.4725015 142.340636,11.1715 C142.004635,10.8704985 141.836636,10.4890023 141.836636,10.027 Z M145.133636,13.366 L145.133636,25 L142.172636,25 L142.172636,13.366 L145.133636,13.366 Z M153.989909,22.459 L153.989909,25 L152.435909,25 C151.133903,25 150.136413,24.6850032 149.443409,24.055 C148.750406,23.4249968 148.403909,22.3750073 148.403909,20.905 L148.403909,15.865 L146.786909,15.865 L146.786909,13.366 L148.403909,13.366 L148.403909,10.489 L151.364909,10.489 L151.364909,13.366 L153.968909,13.366 L153.968909,15.865 L151.364909,15.865 L151.364909,20.947 C151.364909,21.5070028 151.476908,21.8989989 151.700909,22.123 C151.92491,22.3470011 152.302906,22.459 152.834909,22.459 L153.989909,22.459 Z M158.058182,13.366 L161.229182,21.262 L164.169182,13.366 L167.424182,13.366 L160.305182,30.544 L157.029182,30.544 L159.654182,24.664 L154.761182,13.366 L158.058182,13.366 Z" id="Community" fill="#5368FF"></path>
        </g>
    </g>
</svg>