<?xml version="1.0" encoding="UTF-8"?>
<svg width="168px" height="41px" viewBox="0 0 168 41" version="1.1" xmlns="http://www.w3.org/2000/svg" xmlns:xlink="http://www.w3.org/1999/xlink">
    <!-- Generator: Sketch 51.2 (57519) - http://www.bohemiancoding.com/sketch -->
    <title>community-logo</title>
    <desc>Created with Sketch.</desc>
    <defs></defs>
    <g id="Page-1" stroke="none" stroke-width="1" fill="none" fill-rule="evenodd">
        <g id="community-logo">
            <polygon id="Shape" fill="#FFFFFF" fill-rule="nonzero" points="21.3570253 0.817031746 41.0481134 20.5359397 21.4479747 40.1649683 1.75688657 20.4460603"></polygon>
            <polygon id="Shape" fill="#5368FF" fill-rule="nonzero" points="17.3633024 3.53272743 34.3363317 20.5297365 17.4416976 37.4492726 0.468668298 20.4522635"></polygon>
            <path d="M12.5851135,13.0073508 L17.3741165,8.21128899 L22.1988395,13.0428285 L17.4097153,17.8319526 L12.5851135,13.0073508 Z M9.92934606,15.6670327 L14.7519907,20.4896773 L9.95620041,25.2854676 L5.14048695,20.4629504 L9.92934606,15.6670327 Z M24.8841857,25.306423 L20.06744,20.4896773 L24.8546881,15.7024292 L29.6645131,20.5190496 L24.8841857,25.306423 Z M22.2284183,27.9661049 L17.4308835,32.770711 L12.612049,27.9450684 L17.4097153,23.147402 L22.2284183,27.9661049 Z" id="Combined-Shape" fill="#FFFFFF" fill-rule="nonzero"></path>
            <polygon id="Shape" fill="#5368FF" fill-rule="nonzero" points="17.3842549 12.597524 25.2845997 20.5090305 17.4207451 28.384476 9.52040033 20.4729695"></polygon>
            <text id="Community" font-family="Poppins-SemiBold, Poppins" font-size="21" font-weight="500" letter-spacing="-0.0477272719" fill="#5368FF">
                <tspan x="40" y="28">Community</tspan>
            </text>
        </g>
    </g>
</svg>