<svg viewBox="-15 -15 87 88" xmlns="http://www.w3.org/2000/svg">
    <path d="M0 4.083C0 1.869 1.8.075 4.008.075h48.984C55.206.075 57 1.875 57 4.083v48.983c0 2.214-1.8 4.008-4.008 4.008H4.008A4.012 4.012 0 0 1 0 53.066V4.083zm37.923 25.28a1.714 1.714 0 0 0-.255-1.24l-3.485-5.165a9.41 9.41 0 0 0 2.447-4.863c.882-5.006-2.317-9.75-7.152-10.603-4.834-.852-9.464 2.511-10.346 7.517-.883 5.006 2.317 9.75 7.151 10.603a8.654 8.654 0 0 0 5.24-.722l3.487 5.153c.231.36.61.612 1.032.686.87.154 1.722-.466 1.881-1.366zm-11.64 9.8a1.714 1.714 0 0 1 1.162-.5l6.23-.11a9.407 9.407 0 0 1 2.58-4.793c3.595-3.594 9.316-3.694 12.787-.223 3.471 3.472 3.371 9.193-.223 12.787-3.594 3.595-9.316 3.695-12.787.223a8.653 8.653 0 0 1-2.414-4.706l-6.221.1a1.558 1.558 0 0 1-1.154-.452c-.625-.625-.607-1.678.04-2.325zm-1.305-11.565c.108.431.04.893-.168 1.254l-3.116 5.397a9.407 9.407 0 0 1 2.78 4.68c1.23 4.932-1.632 9.888-6.395 11.075-4.763 1.188-9.616-1.844-10.846-6.777-1.23-4.932 1.632-9.887 6.395-11.075a8.654 8.654 0 0 1 5.278.354l3.118-5.383c.206-.375.566-.653.982-.757.857-.213 1.751.345 1.972 1.232zM38.5 36.084c-2.282 2.282-2.346 5.933-.142 8.137 2.204 2.204 5.855 2.14 8.137-.142 2.283-2.282 2.346-5.933.142-8.137-2.204-2.204-5.855-2.14-8.137.142zm-17.174 3.64c-.781-3.132-3.878-5.067-6.902-4.313-3.025.754-4.85 3.917-4.07 7.048.781 3.132 3.878 5.067 6.902 4.313 3.025-.754 4.85-3.916 4.07-7.048zm12.113-22.2c-.56 3.179-3.515 5.325-6.584 4.784-3.07-.541-5.112-3.569-4.552-6.747.56-3.179 3.515-5.325 6.585-4.784 3.07.541 5.111 3.569 4.55 6.747z" fill="#FFF" fill-rule="evenodd"/>
</svg>
