<svg height="90" width="90" xmlns="http://www.w3.org/2000/svg">
  <path d="M37.84 43.28l-1.742-1.006-1.54 2.662a9.483 9.483 0 0 0-2.886-.447c-5.246 0-9.497 4.256-9.497 9.505 0 5.249 4.251 9.505 9.497 9.505 5.245 0 9.496-4.256 9.496-9.505a9.484 9.484 0 0 0-3.122-7.045l1.537-2.66 1.16-2-3.482-2.02-1.162 2.001 1.742 1.01zm11.567 8.7c.923-4.281 4.728-7.49 9.283-7.49 5.245 0 9.496 4.255 9.496 9.504s-4.25 9.505-9.496 9.505c-4.555 0-8.36-3.21-9.283-7.492h-3.074v-4.026h3.074zm1.953-10.7l1.74-1.011-1.546-2.665a9.484 9.484 0 0 0 3.114-7.038c0-5.249-4.252-9.505-9.497-9.505s-9.496 4.256-9.496 9.505c0 5.249 4.251 9.505 9.496 9.505 1.01 0 1.985-.158 2.898-.45l1.542 2.656 1.116 1.99 3.512-1.972-1.124-2.001-1.755.985zm-3.274 29.268c5.675 4.375 10.931 5.89 14.222 3.988 2.955-1.711 4.39-6.219 3.84-12.709l4.011-.34c.669 7.875-1.241 13.874-5.834 16.534-5.138 2.97-12.21.929-19.325-4.772-7.116 5.7-14.187 7.742-19.326 4.771-4.592-2.659-6.502-8.658-5.833-16.533l4.012.34c-.55 6.49.884 10.998 3.838 12.708 3.291 1.903 8.548.388 14.223-3.987a60.148 60.148 0 0 1-4.152-4.375l3.052-2.627A55.302 55.302 0 0 0 45 67.92a55.3 55.3 0 0 0 4.186-4.374l3.052 2.627a60.147 60.147 0 0 1-4.152 4.375zM23.934 30.222c2.503-.784 5.222-1.427 8.111-1.909l.662 3.972c-2.95.492-5.676 1.159-8.128 1.963a54.278 54.278 0 0 0 2.001 7.023l-3.793 1.35A59.281 59.281 0 0 1 20.77 35.7c-6.106 2.696-9.744 6.327-9.744 9.965 0 3.362 3.083 6.826 8.753 9.524l-1.73 3.636C11.127 55.53 7 50.894 7 45.664c0-5.743 5.009-10.719 13.042-14.038-1.134-8.592.679-15.383 5.644-18.258 4.711-2.753 11.11-1.245 17.775 3.598l-2.367 3.258c-5.514-4.007-10.351-5.147-13.383-3.375-3.148 1.822-4.487 6.756-3.777 13.373zm41.507 4.022c-2.457-.804-5.188-1.47-8.145-1.958l.656-3.973c2.898.479 5.624 1.12 8.134 1.906.708-6.616-.633-11.55-3.785-13.374-3.025-1.768-7.862-.628-13.376 3.379l-2.367-3.258c6.665-4.843 13.064-6.35 17.768-3.602 4.97 2.877 6.784 9.668 5.652 18.258C77.998 34.936 83 39.912 83 45.664c0 5.23-4.126 9.866-11.05 13.16l-1.73-3.636c5.671-2.698 8.754-6.162 8.754-9.524 0-3.647-3.63-7.278-9.724-9.97a59.268 59.268 0 0 1-2.018 6.927l-3.793-1.35a54.262 54.262 0 0 0 2.002-7.027zM44.048 56.007h2.285v-4.026h-2.285v4.026zm-12.376 3.465a5.474 5.474 0 0 1-5.47-5.478 5.474 5.474 0 0 1 5.47-5.478c3.02 0 5.47 2.452 5.47 5.478a5.474 5.474 0 0 1-5.47 5.478zm27.018 0c3.02 0 5.47-2.452 5.47-5.478a5.474 5.474 0 0 0-5.47-5.478 5.474 5.474 0 0 0-5.47 5.478 5.474 5.474 0 0 0 5.47 5.478zM45.171 36.044a5.474 5.474 0 0 1-5.47-5.478 5.474 5.474 0 0 1 5.47-5.478c3.02 0 5.47 2.452 5.47 5.478a5.474 5.474 0 0 1-5.47 5.478z" fill="#FFF" fill-rule="evenodd" />
</svg>
